<svg width="95" height="72" viewBox="0 0 95 72" fill="none" xmlns="http://www.w3.org/2000/svg">
<g id="Frame" clip-path="url(#clip0_81_58)">
<path id="Vector" d="M47.5683 26.0302C54.4568 26.0302 60.0411 20.4226 60.0411 13.5051C60.0411 6.58772 54.4568 0.980042 47.5683 0.980042C40.6798 0.980042 35.0955 6.58772 35.0955 13.5051C35.0955 20.4226 40.6798 26.0302 47.5683 26.0302Z" stroke="#2F2A37" stroke-width="2" stroke-miterlimit="10"/>
<path id="Vector_2" d="M9.36926 47.7679V35.7524C9.36926 35.4821 9.47616 35.2229 9.66651 35.0317C9.85686 34.8406 10.115 34.7331 10.3842 34.7331H85.2404C85.5096 34.7331 85.7678 34.8406 85.9581 35.0317C86.1485 35.2229 86.2554 35.4821 86.2554 35.7524V47.7679" stroke="#2F2A37" stroke-width="2" stroke-miterlimit="10"/>
<path id="Vector_3" d="M47.5683 26.0303V34.7332" stroke="#2F2A37" stroke-width="2" stroke-miterlimit="10"/>
<path id="Vector_4" d="M35.0955 47.7679V34.7332" stroke="#2F2A37" stroke-width="2" stroke-miterlimit="10"/>
<path id="Vector_5" d="M61.3098 34.7332V47.7679" stroke="#2F2A37" stroke-width="2" stroke-miterlimit="10"/>
<path id="Vector_6" d="M15.4982 47.7679H1.99095C1.43038 47.7679 0.975952 48.2242 0.975952 48.7871V59.7834C0.975952 60.3463 1.43038 60.8026 1.99095 60.8026H15.4982C16.0588 60.8026 16.5132 60.3463 16.5132 59.7834V48.7871C16.5132 48.2242 16.0588 47.7679 15.4982 47.7679Z" stroke="#2F2A37" stroke-width="2" stroke-miterlimit="10"/>
<path id="Vector_7" d="M41.8492 47.7679H28.3419C27.7813 47.7679 27.3269 48.2242 27.3269 48.7871V59.7834C27.3269 60.3463 27.7813 60.8026 28.3419 60.8026H41.8492C42.4098 60.8026 42.8642 60.3463 42.8642 59.7834V48.7871C42.8642 48.2242 42.4098 47.7679 41.8492 47.7679Z" stroke="#2F2A37" stroke-width="2" stroke-miterlimit="10"/>
<path id="Vector_8" d="M68.0635 47.7679H54.5562C53.9956 47.7679 53.5412 48.2242 53.5412 48.7871V59.7834C53.5412 60.3463 53.9956 60.8026 54.5562 60.8026H68.0635C68.6241 60.8026 69.0785 60.3463 69.0785 59.7834V48.7871C69.0785 48.2242 68.6241 47.7679 68.0635 47.7679Z" stroke="#2F2A37" stroke-width="2" stroke-miterlimit="10"/>
<path id="Vector_9" d="M93.0286 47.7679H79.5213C78.9607 47.7679 78.5063 48.2242 78.5063 48.7871V59.7834C78.5063 60.3463 78.9607 60.8026 79.5213 60.8026H93.0286C93.5891 60.8026 94.0436 60.3463 94.0436 59.7834V48.7871C94.0436 48.2242 93.5891 47.7679 93.0286 47.7679Z" stroke="#2F2A37" stroke-width="2" stroke-miterlimit="10"/>
<path id="Vector_10" d="M35.0956 60.8026V68.0942C35.0956 68.6679 35.3211 69.2183 35.7232 69.6258C36.1254 70.0333 36.6715 70.2647 37.2427 70.2699H59.1433C59.7179 70.2699 60.269 70.0408 60.6753 69.6327C61.0816 69.2247 61.3099 68.6713 61.3099 68.0942V60.8026" stroke="#2F2A37" stroke-width="2" stroke-miterlimit="10" stroke-dasharray="2 2"/>
</g>
<defs>
<clipPath id="clip0_81_58">
<rect width="95" height="71.25" fill="white"/>
</clipPath>
</defs>
</svg>
