<svg width="112" height="112" viewBox="0 0 112 112" fill="none" xmlns="http://www.w3.org/2000/svg">
<path d="M84.3427 27.9379C84.2252 27.7982 83.5203 26.9599 82.2586 25.9009L81.9844 25.575C81.8539 25.4197 81.7103 25.2489 81.5798 25.0937C77.6368 21.686 73.0624 19.086 68.1159 17.4413L66.5029 16.9427C63.9329 16.2379 61.2991 15.7896 58.6401 15.6044C57.3254 15.4994 56.0059 15.4677 54.6875 15.5095C53.8509 15.524 53.0249 15.5826 52.1677 15.6673L52.09 15.7327L51.6692 15.7685L49.9655 15.9821L49.0748 16.1216L48.6646 16.2015L48.2985 16.2709L48.0337 16.3345C46.2672 16.6816 44.5272 17.1529 42.8268 17.7448L41.3624 18.0222L41.051 18.1251L40.8179 18.3211L40.325 18.5235L40.2163 18.615L39.9677 18.824L39.5475 19.0184L39.1739 19.1735L39.003 19.3172L38.801 19.487L38.3963 19.6683L38.1166 19.9035L37.8525 20.1256L37.6815 20.2693L37.3055 20.453L37.0724 20.649L36.7772 20.8973L36.5441 21.0933L36.2178 21.3677L36.0468 21.5114L35.8604 21.6682L35.6118 21.8772L35.4564 22.0079L35.1767 22.2431L34.9436 22.4391L34.8037 22.5567L34.5862 22.7396L34.3842 22.9094L34.0423 23.1969L33.7315 23.4582L33.6072 23.5628L33.312 23.811L32.8924 24.1638L32.5972 24.4121L31.2142 25.5749C30.5927 26.0976 29.9867 26.6072 29.3807 27.1167L28.9922 27.4434L28.5726 27.7962L28.4483 27.9007L27.8578 28.3972L27.6403 28.5801L26.9106 29.3527L26.5377 29.6663L26.46 29.7316L25.9633 30.3082L25.5283 30.6741L24.8688 31.4671C24.1397 32.3981 23.4522 33.3472 22.8195 34.3297C22.4087 34.9137 22.0886 35.4478 21.6833 36.1331C20.0319 38.9784 18.7375 42.016 17.8292 45.1773L17.56 46.1191L17.4824 46.1844C17.3469 46.7488 17.1983 47.2977 17.0914 47.8646L16.9982 47.943L16.9012 48.3955L16.7334 49.3316L16.6445 49.8568L16.5003 50.8525L16.4805 51.0813C16.2766 52.7631 16.2319 53.9402 16.2319 53.9402C16.2132 54.4859 16.2052 55.0757 16.2126 55.6524L16.2021 56.9332C16.2239 57.8424 16.2979 58.8137 16.4141 59.9614C16.4707 60.4703 16.5509 61.0389 16.6596 61.6099L16.894 63.0558L17.2589 64.6569C17.3857 65.1863 17.515 65.6871 17.6182 66.1568C17.8877 67.2126 18.2206 68.2512 18.6152 69.2668C18.9907 70.2496 19.3922 71.2634 19.8534 72.2536C20.3486 73.3612 20.909 74.4385 21.5317 75.4798C23.6774 79.1762 26.4092 82.4995 29.6204 85.32C31.1853 86.6995 32.8586 87.951 34.624 89.0625C36.385 90.1888 38.2366 91.1669 40.1598 91.9866C41.1021 92.4132 41.8125 92.6903 42.6374 92.9772C43.4622 93.2641 44.6823 93.6426 45.7539 93.9076L46.1467 94.0277C47.3584 94.3674 48.5923 94.6226 49.8395 94.7916C50.6817 94.8784 51.7763 95.0445 52.6987 95.0373C53.6211 95.0302 54.6168 95.1734 55.4665 95.1744C56.402 95.1828 56.8047 95.1886 57.6153 95.1431C58.4258 95.0975 59.6702 95.0317 60.6597 94.9151L61.6206 94.7961L62.6723 94.6272L63.3474 94.4836L63.4406 94.4052L64.3934 94.2135L64.6427 94.1629C65.909 93.8842 67.1601 93.5399 68.3907 93.1313L69.5922 92.7305L69.9944 92.5778L70.6793 92.3199L71.1722 92.1174L71.2965 92.0129L71.4985 91.843L71.9318 91.6643L72.3519 91.4699C73.8796 90.7817 75.3584 89.9897 76.7781 89.0996L76.9024 88.9951L77.2442 88.7077L77.5395 88.4594L78.2077 87.8976L79.283 87.1259L80.2308 86.3289L81.7847 85.0223C82.2198 84.6564 82.7948 84.173 83.2143 83.8202C84.0528 82.9561 85.1629 81.7842 85.9958 80.8189C86.8286 79.8535 87.3818 79.1234 87.9114 78.3336L88.3247 77.721L89.474 75.9332L89.8637 75.261L90.7512 73.6667L90.8905 73.3907C91.2751 72.6857 91.6218 71.9608 91.9291 71.2189L92.3281 70.2739C92.6755 69.4252 93.1025 68.3242 93.3487 67.4812C93.5873 66.7241 93.7999 65.9358 94.028 65.1346L94.143 64.6404L94.3369 63.7353L94.4848 63.028L94.7626 61.6549C94.8515 61.1297 95.0087 60.1495 95.1821 58.6522L95.1169 58.5746C95.1604 57.743 95.2138 56.7971 95.2741 55.6069C95.2971 53.7302 95.1663 51.8549 94.883 49.9999L94.5641 48.2011L94.4025 47.4095C94.3204 47.028 94.2384 46.6465 94.1513 46.3222L94.0643 45.9979C93.9269 45.4244 93.761 44.8485 93.5845 44.2284C93.3691 43.4497 93.1137 42.6827 92.8193 41.9304C92.3801 40.7121 91.8731 39.5194 91.3007 38.3579C90.9753 37.6294 90.609 36.92 90.2036 36.2329C89.8058 35.5075 89.3638 34.7926 88.9088 34.0622L88.5434 33.6276C87.9056 32.6798 87.1976 31.7117 86.43 30.7672L86.2864 30.5964C85.6685 29.42 85.0289 28.6594 84.3427 27.9379Z" fill="url(#paint0_radial_75_2375)"/>
<path d="M49.0572 74.9652C28.9383 74.4457 14.8354 64.8663 15.4611 52.8658L15.4375 53.4687C15.4034 54.0274 15.3978 54.5886 15.4052 55.1653C15.4127 55.742 15.4021 55.6979 15.3928 55.9707C15.4326 56.8383 15.5122 57.9108 15.6446 59.8664L15.6925 60.1442C15.7248 60.435 15.7702 60.7413 15.8286 61.0632L16.1587 63.0646L16.436 64.1829C18.9771 74.0505 32.014 81.4789 49.7317 81.9504C68.9854 82.482 87.3588 74.5849 94.2169 63.6242L94.3649 62.9168L94.6427 61.5437C94.7315 61.0185 94.8888 60.0383 95.0622 58.5411L94.9969 58.4634C95.0404 57.6319 95.0938 56.686 95.1541 55.4958C95.1647 54.8774 95.156 53.9838 95.0919 52.8982C90.7716 65.6467 70.546 75.6313 49.0572 74.9652Z" fill="url(#paint1_linear_75_2375)"/>
<defs>
<radialGradient id="paint0_radial_75_2375" cx="0" cy="0" r="1" gradientUnits="userSpaceOnUse" gradientTransform="translate(57.0533 63.3046) rotate(-40.4188) scale(48.0351 47.9877)">
<stop offset="0.71" stop-color="#90B3E8"/>
<stop offset="0.76" stop-color="#9BBBEB"/>
<stop offset="0.86" stop-color="#B7CFF1"/>
<stop offset="0.98" stop-color="#E4F0FC"/>
<stop offset="1" stop-color="#ECF5FE"/>
</radialGradient>
<linearGradient id="paint1_linear_75_2375" x1="28.6998" y1="81.1652" x2="81.6409" y2="36.6491" gradientUnits="userSpaceOnUse">
<stop stop-color="#ECF5FE"/>
<stop offset="0.3" stop-color="#E4F0FD"/>
<stop offset="0.76" stop-color="#CFE4FB"/>
<stop offset="1" stop-color="#C1DCF9"/>
</linearGradient>
</defs>
</svg>
