<svg width="462" height="359" viewBox="0 0 462 359" fill="none" xmlns="http://www.w3.org/2000/svg">
<g opacity="0.41" clip-path="url(#clip0_75_2282)" filter="url(#filter0_f_75_2282)">
<path d="M94.1848 120.258L94.4817 119.665C95.0756 118.571 95.6924 117.385 96.3548 116.405L96.9259 115.515C97.4284 114.717 97.9538 113.919 98.502 113.235L99.233 112.209L101.06 109.815C101.266 109.587 101.449 109.313 101.654 109.085C102.477 108.082 103.322 107.124 104.213 106.143L104.784 105.573C105.492 104.798 106.246 104.045 107.068 103.293L108.05 102.358L110.152 100.465L111.18 99.5761C112.025 98.8692 112.893 98.1851 113.761 97.501L114.469 96.9538L116.205 95.6996L117.53 94.7419C118.147 94.3087 118.786 93.8982 119.426 93.4877C120.065 93.0773 120.294 92.8948 120.751 92.6212L123.035 91.2531L124.131 90.5918C125.296 89.9305 126.416 89.2692 127.695 88.6535L139.824 53.9248C138.613 54.5633 137.426 55.2018 136.261 55.8631L135.164 56.5472C134.388 57.0032 133.634 57.4364 132.88 57.9153C132.126 58.3942 131.989 58.4854 131.555 58.7818C131.121 59.0783 130.276 59.6028 129.659 60.036C129.043 60.4693 128.768 60.6517 128.334 60.9709L126.598 62.2251H126.461C126.256 62.3619 126.096 62.5215 125.89 62.6811C125.022 63.3424 124.154 64.0493 123.309 64.7561L122.258 65.6455C121.55 66.2612 120.842 66.8996 120.18 67.5381L119.197 68.4503C118.444 69.2028 117.69 69.9552 116.913 70.7305L116.342 71.3234C115.451 72.2811 114.606 73.2616 113.784 74.2421L113.624 74.4246C113.487 74.607 113.35 74.8122 113.19 74.9947C112.573 75.77 111.956 76.568 111.362 77.3889C111.111 77.7082 110.883 78.0502 110.631 78.3923C110.083 79.1828 109.558 79.9428 109.055 80.6725L108.484 81.5391C107.822 82.6108 107.182 83.7053 106.611 84.8227C106.497 85.0051 106.406 85.2103 106.314 85.3927C105.835 86.3277 105.378 87.2625 104.944 88.2203L104.715 88.6535C104.657 88.8321 104.588 89.0072 104.51 89.178C103.916 90.5462 103.345 91.9371 102.865 93.3737L90.7356 128.08C91.2153 126.666 91.7863 125.275 92.4031 123.884L92.8143 122.926C93.2559 122.09 93.7128 121.201 94.1848 120.258Z" fill="url(#paint0_linear_75_2282)"/>
<path d="M104.144 106.052L104.715 105.482C105.423 104.707 106.177 103.954 106.999 103.202L107.982 102.267L110.083 100.374L111.111 99.4848C111.956 98.778 112.824 98.0939 113.692 97.4098L114.4 96.8625L116.136 95.6083L117.461 94.6507C118.078 94.2174 118.718 93.8069 119.357 93.3965C119.997 92.986 120.225 92.8036 120.682 92.53L122.966 91.1618L124.063 90.5005C125.228 89.8392 126.347 89.1779 127.626 88.5623L139.756 53.8336C138.545 54.4721 137.357 55.1105 136.192 55.7718L135.096 56.4559C134.319 56.912 133.565 57.3453 132.811 57.8241C132.058 58.303 131.921 58.3942 131.487 58.6906C131.053 58.9871 130.207 59.5115 129.591 59.9448C128.974 60.378 128.7 60.5604 128.266 60.8797L126.53 62.1338H126.393C126.187 62.2706 126.027 62.4303 125.822 62.5899C124.954 63.2512 124.086 63.9581 123.24 64.665L122.19 65.5542C121.482 66.1699 120.773 66.8084 120.111 67.4469L119.129 68.359C118.375 69.1115 117.621 69.864 116.845 70.6393L116.273 71.2322C115.383 72.1899 114.537 73.1704 113.715 74.1509L113.555 74.3333C113.418 74.5158 113.281 74.721 113.121 74.9034C112.504 75.6787 111.888 76.4768 111.294 77.2977L103.093 107.147L104.144 106.052Z" fill="url(#paint1_linear_75_2282)"/>
<path d="M454.023 293.332C451.739 294.472 449.569 295.612 447.307 296.615L445.571 297.413C442.99 298.576 440.386 299.694 437.713 300.765L437.005 301.016C434.447 302.02 431.843 302.977 429.193 303.867L427.685 304.391C424.944 305.303 422.158 306.147 419.325 306.945L417.612 307.424C414.665 308.222 411.696 308.997 408.703 309.704C405.711 310.411 402.444 311.049 399.269 311.642L396.688 312.098C393.993 312.585 391.274 313.018 388.533 313.398L385.175 313.854C382.343 314.242 379.488 314.561 376.61 314.835L374.325 315.086C370.693 315.428 367.016 315.678 363.292 315.861L360.574 315.975C357.673 316.112 354.772 316.203 351.848 316.249H348.285C345.27 316.249 342.254 316.249 339.148 316.249H336.59C332.752 316.142 328.892 315.96 325.008 315.701L322.176 315.496C319.13 315.298 316.085 315.048 313.039 314.744L309.361 314.356C306.209 314.037 303.079 313.649 299.927 313.239L297.118 312.896L294.673 312.532L287.958 311.506L284.943 311.004L278.387 309.818L275.714 309.316C272.676 308.746 269.661 308.131 266.577 307.469L265.755 307.287L257.463 305.372L254.608 304.665C252.438 304.14 250.313 303.593 248.166 303.023L245.151 302.202C242.867 301.563 240.423 300.902 238.047 300.218L236.037 299.625L232.336 298.485L225.484 296.364C224.09 295.931 222.72 295.452 221.349 294.996C219.27 294.289 217.215 293.605 215.159 292.876C213.697 292.374 212.235 291.827 210.796 291.302C208.809 290.573 206.844 289.866 204.88 289.022L200.448 287.289C198.507 286.536 196.588 285.761 194.669 285.009L189.849 283.002L185.418 281.087C183.727 280.357 182.06 279.604 180.415 278.806L176.029 276.8C174.362 276.024 172.717 275.226 171.05 274.519C169.382 273.812 168.195 273.151 166.778 272.421C165.362 271.692 163.466 270.757 161.821 269.913C160.177 269.069 159.012 268.477 157.618 267.633C156.225 266.789 154.352 265.854 152.707 264.965C151.063 264.076 149.966 263.483 148.618 262.685L143.707 259.857C142.382 259.082 141.058 258.329 139.756 257.577C138.454 256.824 136.489 255.57 134.844 254.567L131.053 252.287C129.385 251.238 127.74 250.143 126.073 249.049C124.885 248.273 123.789 247.498 122.532 246.768C120.659 245.514 118.809 244.214 116.982 242.915C116.068 242.276 115.131 241.66 114.218 240.999C111.499 239.038 108.781 237.054 106.131 235.002C104.121 233.474 102.157 231.946 100.215 230.441L98.4335 229.005C97.0629 227.91 95.7381 226.725 94.4132 225.699C93.7736 225.174 93.134 224.65 92.5173 224.102C91.1467 222.962 89.8219 221.822 88.497 220.636L87.0351 219.337C85.6189 218.082 84.2483 216.828 82.8778 215.574C82.4437 215.141 81.9641 214.73 81.5301 214.32C79.7483 212.655 77.9894 210.968 76.2991 209.28L75.0884 208.072C73.8093 206.795 72.5301 205.518 71.2966 204.218C70.6798 203.603 70.1088 202.964 69.5377 202.348C68.5098 201.277 67.5047 200.205 66.5225 199.11C65.8829 198.426 65.2662 197.719 64.6494 197.035L61.954 193.98C61.3373 193.25 60.7434 192.52 60.1266 191.7L57.6368 188.69L55.8779 186.409L53.5936 183.399L51.9262 181.119L49.6419 178.041C49.1394 177.334 48.614 176.627 48.1343 175.92L45.85 172.682L44.7536 170.675C43.9541 169.444 43.1775 168.213 42.4694 166.958L41.51 165.453C40.4592 163.72 39.4541 161.987 38.4719 160.254C38.2663 159.912 38.1064 159.57 37.9009 159.206C37.147 157.815 36.3704 156.424 35.6166 155.033C35.2968 154.417 34.9998 153.801 34.68 153.163C34.1318 152.068 33.5608 150.882 33.0354 149.834L32.076 147.736C31.5963 146.687 31.1395 145.661 30.7055 144.634C30.2715 143.608 30.0887 143.175 29.7918 142.354C29.4948 141.533 28.9694 140.325 28.5811 139.321L27.7588 137.041C27.3933 136.038 27.0278 135.035 26.708 134.054C26.3882 133.073 26.2055 132.595 25.9771 131.774C25.7486 130.953 25.3375 129.744 25.0405 128.741L24.4238 126.62C24.1497 125.571 23.8756 124.522 23.6243 123.473C23.4415 122.812 23.2816 122.151 23.1217 121.49C22.8476 120.327 22.6192 119.209 22.3908 118.001C22.3908 117.476 22.1624 116.929 22.071 116.405C21.7512 114.717 21.4771 113.053 21.2487 111.365C21.2487 111.16 21.2487 110.955 21.2487 110.727C21.0659 109.267 20.8832 107.808 20.7461 106.371C20.7461 105.778 20.7461 105.208 20.7461 104.638C20.7461 103.567 20.5862 102.358 20.5177 101.4C20.5177 100.739 20.5177 100.078 20.5177 99.4393C20.5177 98.436 20.5177 97.4555 20.5177 96.4749C20.5177 95.4944 20.5177 95.1068 20.5177 94.4227C20.5177 93.7386 20.5177 92.5301 20.5177 91.5723L20.6548 89.5201C20.6548 88.5852 20.8147 87.6503 20.906 86.7382C20.9974 85.826 21.0431 85.37 21.1345 84.7087C21.2258 84.0474 21.3857 82.8388 21.5456 81.9267C21.7055 81.0146 21.7283 80.6042 21.8654 79.9429C22.0025 79.2816 22.2309 78.0503 22.4136 77.1154C22.5964 76.1804 22.6649 75.884 22.8248 75.2683C23.0532 74.2422 23.3273 73.2161 23.6243 72.1899C23.7613 71.6883 23.8755 71.1866 24.0126 70.685C24.4695 69.1572 24.9263 67.6522 25.4517 66.1244L13.3223 100.83C12.8198 102.335 12.3401 103.84 11.8832 105.391C11.7462 105.893 11.632 106.394 11.4949 106.896C11.198 107.922 10.9238 108.948 10.6954 109.997C10.5584 110.613 10.4213 111.206 10.3071 111.821C10.1015 112.779 9.89593 113.714 9.73604 114.672C9.57614 115.629 9.50761 115.971 9.41624 116.633C9.32487 117.294 9.11931 118.48 9.00509 119.415C8.89088 120.349 8.84518 120.76 8.77665 121.444C8.70813 122.128 8.59391 123.314 8.52539 124.249L8.38834 126.301C8.38834 127.236 8.38834 128.194 8.38834 129.129C8.38834 130.064 8.38834 130.497 8.38834 131.181C8.38834 131.865 8.38834 133.165 8.38834 134.145C8.38834 135.126 8.38834 135.445 8.38834 136.106C8.38834 137.178 8.38833 138.387 8.59391 139.344C8.59391 139.937 8.59391 140.507 8.59391 141.077C8.73097 142.537 8.91371 143.996 9.09645 145.455C9.09645 145.661 9.09645 145.866 9.09645 146.094C9.32487 147.758 9.59898 149.446 9.91878 151.133C9.91878 151.658 10.1244 152.182 10.2386 152.707C10.467 153.87 10.6954 154.987 10.9696 156.218C11.1294 156.88 11.3122 157.518 11.4721 158.179C11.7233 159.228 11.9974 160.277 12.2716 161.326L12.8883 163.447C13.1853 164.473 13.5051 165.476 13.8249 166.48C14.1447 167.483 14.3045 167.939 14.5558 168.76C14.8071 169.581 15.2411 170.767 15.6066 171.77L16.4289 174.05C16.8172 175.053 17.2284 176.057 17.6396 177.06C18.0507 178.063 18.2334 178.519 18.5532 179.34C18.873 180.161 19.467 181.415 19.9238 182.442L20.8832 184.539C21.4086 185.657 21.9796 186.82 22.5279 187.891L23.4644 189.761C24.1953 191.16 24.9567 192.551 25.7486 193.934L26.2969 194.983C27.2791 196.716 28.2841 198.449 29.3577 200.182L30.2715 201.664L32.5557 205.404L33.8806 207.365C34.6115 208.437 35.3425 209.531 36.1648 210.603C36.6445 211.31 37.1699 212.017 37.6724 212.747C38.1749 213.476 39.1572 214.776 39.9567 215.802L41.6242 218.082C42.4008 219.109 43.1775 220.112 43.9084 221.115L45.6673 223.395L48.1572 226.405C48.7739 227.135 49.3678 227.865 50.0074 228.572C50.647 229.279 51.7663 230.624 52.68 231.627L54.553 233.725L57.5454 236.94C58.1393 237.579 58.7104 238.194 59.3271 238.81C60.5606 240.11 61.817 241.387 63.0961 242.664L64.3297 243.895C66.02 245.583 67.7789 247.247 69.5606 248.912C69.9946 249.345 70.4743 249.755 70.9311 250.166C72.1189 251.283 73.2153 252.446 74.563 253.495L75.0656 253.951L76.5504 255.251L80.5478 258.694L82.4437 260.313C83.7686 261.408 85.0935 262.593 86.464 263.597L88.2458 265.033C90.1874 266.584 92.1518 268.135 94.162 269.594C96.8117 271.623 99.53 273.607 102.248 275.591L105.035 277.507C106.703 278.692 108.393 279.901 110.106 281.064L110.563 281.36C111.728 282.158 112.847 282.911 114.126 283.641L119.083 286.878L122.875 289.159C124.52 290.185 126.141 291.188 127.786 292.169C129.431 293.149 130.413 293.719 131.738 294.449C133.063 295.179 135.004 296.364 136.649 297.277C138.294 298.189 139.367 298.804 140.738 299.557L144.393 301.563L145.649 302.225L149.852 304.391C151.497 305.258 153.141 306.101 154.809 306.922L159.08 309.02L164.06 311.3L168.446 313.307L173.448 315.587L177.88 317.48L180.758 318.734L182.7 319.509L188.479 321.79L192.91 323.523C194.875 324.275 196.862 325.005 198.826 325.803C200.288 326.35 201.727 326.875 203.189 327.376C205.245 328.106 207.301 328.813 209.38 329.497L213.514 330.888C215.798 331.618 218.083 332.302 220.367 333.009L223.496 333.989L224.022 334.126L226.077 334.719C228.362 335.403 230.806 336.087 233.159 336.725L236.174 337.524C238.321 338.094 240.445 338.641 242.593 339.165L245.471 339.895C248.235 340.556 250.999 341.195 253.763 341.788L254.585 341.97C257.623 342.631 260.638 343.247 263.722 343.84L266.44 344.342C268.603 344.752 270.773 345.14 272.95 345.505L275.988 346.006L282.681 347.032L285.148 347.397H285.993L287.958 347.648C291.11 348.058 294.239 348.423 297.392 348.765L301.069 349.13C304.13 349.427 307.168 349.677 310.206 349.905L313.039 350.111C316.922 350.369 320.782 350.552 324.62 350.658H327.178C330.216 350.658 333.232 350.658 336.315 350.658H339.879C342.803 350.658 345.726 350.521 348.627 350.407L351.323 350.293C355.046 350.088 358.724 349.837 362.356 349.518L364.777 349.267C367.632 348.971 370.488 348.651 373.32 348.286L376.678 347.83C379.419 347.42 382.137 346.987 384.856 346.508L386.729 346.211L387.414 346.075C390.589 345.482 393.741 344.82 396.848 344.114C399.955 343.407 402.81 342.654 405.757 341.833L407.47 341.354C410.302 340.534 413.089 339.69 415.83 338.778L417.338 338.253C419.987 337.364 422.592 336.429 425.15 335.426L425.858 335.152C428.531 334.103 431.157 332.872 433.739 331.8C434.013 331.663 434.333 331.549 434.63 331.435L435.452 331.025C437.736 329.953 440.02 328.881 442.168 327.718L454.023 293.332Z" fill="url(#paint2_radial_75_2282)"/>
<path d="M79.5428 8L139.733 53.8564C79.5427 85.3699 87.6518 154.189 157.824 207.753C217.215 252.971 301.915 272.672 363.064 258.58C373.752 256.19 384.091 252.451 393.833 247.452L454.023 293.332C439.68 300.718 424.45 306.243 408.703 309.773C318.59 330.523 193.687 301.518 106.223 234.842C2.79194 155.99 -9.13183 54.3809 79.5428 8Z" fill="url(#paint3_linear_75_2282)"/>
<path d="M79.5428 8L139.733 53.8564C128.601 59.417 118.907 67.4708 111.408 77.389L49.1851 29.503C58.2178 20.9177 68.442 13.6757 79.5428 8ZM454.023 293.332L393.833 247.452C384.092 252.451 373.752 256.19 363.064 258.58C358.907 259.538 354.635 260.313 350.295 260.974L412.495 308.86C426.907 305.35 440.848 300.137 454.023 293.332Z" fill="url(#paint4_linear_75_2282)"/>
<path style="mix-blend-mode:overlay" opacity="0.8" d="M393.833 247.452C384.091 252.451 373.752 256.19 363.064 258.58C301.915 272.672 217.169 252.971 157.824 207.753C87.6518 154.28 79.5427 85.3699 139.733 53.8564L79.5428 8C-9.13183 54.4721 2.79194 155.99 106.223 234.774C193.687 301.449 318.658 330.546 408.703 309.704C424.447 306.196 439.677 300.694 454.023 293.332L393.833 247.452ZM408.338 308.131C388.096 312.652 367.405 314.863 346.663 314.721C264.636 314.721 172.832 283.595 107.114 233.52C48.9795 189.237 18.0279 136.54 21.9796 88.9728C24.7893 55.6807 44.6166 28.3401 79.3143 9.8926L136.718 53.6285C113.304 66.5805 99.9183 85.5524 97.8853 108.56C95.0757 141.784 116.502 178.405 156.682 209.007C201.727 243.325 264.636 264.669 320.874 264.669C335.133 264.751 349.356 263.222 363.27 260.108C373.749 257.766 383.899 254.144 393.49 249.322L450.871 293.035C437.35 299.75 423.07 304.818 408.338 308.131Z" fill="url(#paint5_linear_75_2282)"/>
<path d="M400.617 343.384C402.239 342.973 403.884 342.586 405.483 342.153L407.196 341.674C410.028 340.853 412.815 340.009 415.556 339.097L417.064 338.572C419.713 337.683 422.317 336.748 424.876 335.745L425.584 335.471C428.257 334.422 430.883 333.191 433.465 332.119C433.739 331.982 434.059 331.868 434.355 331.754L435.178 331.344C437.462 330.272 439.746 329.201 441.893 328.038L454.023 293.332C451.739 294.472 449.569 295.612 447.307 296.615L445.571 297.413C442.99 298.576 440.386 299.694 437.713 300.765L437.005 301.016C434.447 302.02 431.843 302.977 429.193 303.867L427.685 304.391C424.944 305.303 422.158 306.147 419.325 306.945L417.612 307.424C415.944 307.88 414.231 308.29 412.541 308.724L400.617 343.384Z" fill="url(#paint6_linear_75_2282)"/>
</g>
<defs>
<filter id="filter0_f_75_2282" x="0" y="0" width="462" height="359" filterUnits="userSpaceOnUse" color-interpolation-filters="sRGB">
<feFlood flood-opacity="0" result="BackgroundImageFix"/>
<feBlend mode="normal" in="SourceGraphic" in2="BackgroundImageFix" result="shape"/>
<feGaussianBlur stdDeviation="4" result="effect1_foregroundBlur_75_2282"/>
</filter>
<linearGradient id="paint0_linear_75_2282" x1="44.3425" y1="110.499" x2="140.28" y2="84.0761" gradientUnits="userSpaceOnUse">
<stop offset="0.31" stop-color="#4D3B79"/>
<stop offset="0.42" stop-color="#503D7C"/>
<stop offset="0.52" stop-color="#574387"/>
<stop offset="0.61" stop-color="#644D99"/>
<stop offset="0.7" stop-color="#775BB3"/>
<stop offset="0.78" stop-color="#8E6DD3"/>
<stop offset="0.85" stop-color="#A57EF3"/>
<stop offset="0.92" stop-color="#B494F5"/>
<stop offset="1" stop-color="#C3AAF7"/>
</linearGradient>
<linearGradient id="paint1_linear_75_2282" x1="97.8853" y1="74.379" x2="141.893" y2="85.9776" gradientUnits="userSpaceOnUse">
<stop stop-color="#C47445"/>
<stop offset="0.21" stop-color="#CC7E49"/>
<stop offset="0.39" stop-color="#D68A4E"/>
<stop offset="0.51" stop-color="#DB985B"/>
<stop offset="0.76" stop-color="#E9BC7F"/>
<stop offset="1" stop-color="#FAE6A9"/>
</linearGradient>
<radialGradient id="paint2_radial_75_2282" cx="0" cy="0" r="1" gradientUnits="userSpaceOnUse" gradientTransform="translate(89.5935 336.657) scale(372.196 371.549)">
<stop offset="0.31" stop-color="#4D3B8B"/>
<stop offset="0.43" stop-color="#503D8E"/>
<stop offset="0.53" stop-color="#594499"/>
<stop offset="0.63" stop-color="#6850AB"/>
<stop offset="0.72" stop-color="#7E60C5"/>
<stop offset="0.82" stop-color="#9975E5"/>
<stop offset="0.85" stop-color="#A57EF3"/>
<stop offset="0.92" stop-color="#B494F5"/>
<stop offset="1" stop-color="#C3AAF7"/>
</radialGradient>
<linearGradient id="paint3_linear_75_2282" x1="287.41" y1="116.382" x2="168.925" y2="263.866" gradientUnits="userSpaceOnUse">
<stop offset="0.14" stop-color="#C7A2FF"/>
<stop offset="1" stop-color="#9B6FF1"/>
</linearGradient>
<linearGradient id="paint4_linear_75_2282" x1="188.456" y1="247.065" x2="268.635" y2="137.957" gradientUnits="userSpaceOnUse">
<stop stop-color="#C47445"/>
<stop offset="0.21" stop-color="#CC7E49"/>
<stop offset="0.39" stop-color="#D68A4E"/>
<stop offset="0.51" stop-color="#DB985B"/>
<stop offset="0.76" stop-color="#E9BC7F"/>
<stop offset="1" stop-color="#FAE6A9"/>
</linearGradient>
<linearGradient id="paint5_linear_75_2282" x1="303.514" y1="96.4065" x2="185.029" y2="243.891" gradientUnits="userSpaceOnUse">
<stop offset="0.04" stop-color="#EBE2FD"/>
<stop offset="0.12" stop-color="#E9DEFD" stop-opacity="0.97"/>
<stop offset="0.25" stop-color="#E2D5FC" stop-opacity="0.88"/>
<stop offset="0.4" stop-color="#D7C5FA" stop-opacity="0.75"/>
<stop offset="0.58" stop-color="#C7AFF8" stop-opacity="0.55"/>
<stop offset="0.78" stop-color="#B492F5" stop-opacity="0.31"/>
<stop offset="0.99" stop-color="#9C70F1" stop-opacity="0.01"/>
<stop offset="1" stop-color="#9B6FF1" stop-opacity="0"/>
</linearGradient>
<linearGradient id="paint6_linear_75_2282" x1="251.478" y1="285.373" x2="457.539" y2="324.154" gradientUnits="userSpaceOnUse">
<stop stop-color="#691D00"/>
<stop offset="0.16" stop-color="#6C2003"/>
<stop offset="0.3" stop-color="#732B0C"/>
<stop offset="0.44" stop-color="#803D1B"/>
<stop offset="0.57" stop-color="#935731"/>
<stop offset="0.7" stop-color="#AA784C"/>
<stop offset="0.82" stop-color="#C7A06E"/>
<stop offset="0.95" stop-color="#E9CF95"/>
<stop offset="1" stop-color="#FAE6A9"/>
</linearGradient>
<clipPath id="clip0_75_2282">
<rect width="446" height="343" fill="white" transform="translate(8 8)"/>
</clipPath>
</defs>
</svg>
