<svg width="40" height="40" viewBox="0 0 40 40" fill="none" xmlns="http://www.w3.org/2000/svg">
<g clip-path="url(#clip0_75_2378)">
<path d="M39.9675 18.8456C39.969 18.8289 39.969 18.8121 39.9675 18.7954C39.9675 18.7068 39.938 18.1547 39.8288 17.3428C39.8288 17.269 39.8081 17.1981 39.7963 17.1243C39.7845 17.0505 39.7638 16.9176 39.7461 16.8084C39.331 14.2308 38.4132 11.7599 37.045 9.53646V9.52171C36.8974 9.28256 36.7498 9.04635 36.5904 8.81311C35.8322 7.69035 34.9629 6.6468 33.9956 5.69826C33.5271 5.23359 33.0345 4.79404 32.5196 4.38146C32.1948 4.12459 31.8613 3.87363 31.5188 3.63448L31.4686 3.59611L31.4244 3.56658L31.2472 3.44553C31.0288 3.29495 30.7897 3.15028 30.5299 2.97904L30.5004 2.96132C30.3764 2.88456 30.2435 2.8078 30.1078 2.72808L29.9247 2.62474L29.7683 2.53617L29.6413 2.46826C28.849 2.03389 28.0285 1.65315 27.1852 1.32861C26.9668 1.24299 26.7956 1.18099 26.6982 1.14556L26.5447 1.09241L26.3941 1.03927H26.3734H26.338L26.093 0.9566H26.0576H26.0221L25.8539 0.903454L25.6295 0.835548L25.4347 0.779451L25.3255 0.749929H25.293H25.2546H25.1926L24.9742 0.693831L24.7941 0.646591L24.6229 0.605256L24.5137 0.578685L24.3041 0.531445L24.1594 0.498967L23.9587 0.457633H23.9233L23.7727 0.428107L23.6812 0.410392L23.572 0.389728H23.5542H23.5188H23.4568L23.2945 0.363152L23.1882 0.345438L23.0081 0.318867L22.8517 0.295246H22.7602L22.6214 0.277532L22.4856 0.259818L22.2642 0.233247L22.0576 0.212578H21.9897L21.8007 0.197815L21.5203 0.174194H21.3284H21.1129H20.8886H20.7114H20.5875H20.3838C19.9823 0.174194 19.5808 0.174194 19.1793 0.174194H18.9255H18.6568H18.4974L18.1107 0.206672H17.9779L17.4465 0.268675L17.2015 0.304104H17.1513L16.7734 0.363152L16.4782 0.413348L15.9734 0.507824C15.3978 0.625923 14.8251 0.773547 14.2583 0.941837C13.9218 1.03927 13.6236 1.1367 13.2517 1.27251C11.6998 1.82887 10.2224 2.57459 8.85314 3.49277L8.44576 3.78801L8.39262 3.8264C8.15941 3.99469 7.9262 4.16593 7.6989 4.34308L7.64281 4.38441L7.62214 4.39918C7.61765 4.40557 7.61154 4.41066 7.60443 4.41393L7.57786 4.4346L7.5572 4.45232L7.37122 4.60289C7.24428 4.70623 7.12325 4.80661 7.00812 4.89814L6.81034 5.06938C6.6775 5.18453 6.55056 5.29968 6.43248 5.40892L6.41476 5.42368V5.43844L6.32915 5.51521C5.70923 6.1057 5.33432 6.51609 5.30775 6.54266C5.11882 6.74933 4.92694 6.96782 4.74096 7.19221C4.60812 7.34573 4.47233 7.51108 4.33063 7.68527L4.30111 7.7207L4.28045 7.75023C4.00295 8.09862 3.7107 8.49424 3.39484 8.97254V8.99026C3.25019 9.20874 3.09964 9.45379 2.94908 9.71066C2.79853 9.96752 2.6893 10.1476 2.57417 10.3366L2.20222 11.0747C2.07823 11.3138 1.9631 11.5441 1.85683 11.7597C1.62106 12.2551 1.41407 12.7638 1.2369 13.2831C1.06273 13.7821 0.894469 14.3106 0.752771 14.8243V14.842C0.751492 14.8489 0.751492 14.8559 0.752771 14.8627C0.585129 15.4446 0.453029 16.0362 0.357201 16.6342C0.0944699 18.4824 0.0619976 18.633 0.0619976 19.8583C0.0465158 20.9185 0.119586 21.9782 0.280447 23.0263C0.583259 25.0802 1.20163 27.075 2.11366 28.9401C2.30409 29.3447 2.51595 29.7389 2.74834 30.1211C3.02387 30.5856 3.31907 31.0432 3.63395 31.4939L3.74613 31.6593C4.10419 32.1788 4.49879 32.6721 4.92694 33.1355C5.22214 33.4308 5.5882 33.8618 5.88635 34.16C6.1845 34.4582 6.58303 34.8391 6.90775 35.1107C7.262 35.406 7.4096 35.5447 7.74318 35.7957C8.1476 36.1146 8.56089 36.4128 8.97713 36.6814C9.11292 36.77 9.24871 36.8586 9.38451 36.9412C9.5203 37.0239 9.70628 37.1361 9.84797 37.2188L10.1432 37.3871L10.1993 37.4195L10.6332 37.6528L10.7424 37.7089C11.2266 37.9599 11.8376 38.2551 12.5137 38.5267L13.1041 38.7541L13.3078 38.8279L13.662 38.9519L13.907 39.0316L13.9956 39.0611H14.0133L14.1461 39.1025L14.3705 39.1674L14.5919 39.2324H14.6096C15.4203 39.4637 16.2458 39.6393 17.0804 39.7579H17.1542L17.3756 39.7874H17.3993L17.5911 39.814L18.031 39.8612C18.2288 39.8819 18.4945 39.8996 18.6923 39.9144C18.89 39.9291 19.0996 39.941 19.3122 39.9469H19.6074C19.8819 39.9469 20.248 39.9469 20.5255 39.9469C20.803 39.9469 21.1838 39.9144 21.4642 39.8996C22.0546 39.8435 22.8635 39.7461 23.4568 39.6457C23.973 39.5612 24.4844 39.4498 24.9889 39.3121L25.3461 39.2058C25.7033 39.1025 26.0723 38.9873 26.3793 38.9105L26.7395 38.7718C27.0347 38.6714 27.3299 38.5622 27.5985 38.447L27.7402 38.3909C28.0738 38.264 28.4753 38.0691 28.8384 37.889C28.9919 37.8122 29.1336 37.7355 29.2959 37.6528C29.7404 37.429 30.1721 37.1806 30.5889 36.9088L30.6273 36.8822C30.9697 36.6657 31.3063 36.4383 31.6369 36.2002L31.8465 36.0526L32.2066 35.7573L32.5019 35.527L33.048 35.093C33.4452 34.762 33.8227 34.4081 34.1786 34.0331L34.2081 34.0065L34.2613 33.9474C34.5565 33.6522 34.8723 33.3009 35.2502 32.8668L35.2768 32.8373C35.8902 32.1228 36.4459 31.3606 36.9388 30.558L36.9565 30.5314C37.11 30.2834 37.2517 30.0177 37.4199 29.7372L37.6207 29.3711C37.7122 29.1999 37.8037 29.0286 37.8745 28.8781C37.8982 28.8279 37.9218 28.7747 37.9483 28.7245C38.0753 28.4588 38.2022 28.1813 38.3262 27.8949C38.5004 27.5022 38.6627 27.1036 38.7779 26.7552C38.9904 26.1648 39.1823 25.5477 39.3506 24.8922C39.4568 24.4937 39.5513 24.0921 39.6133 23.7113C39.6753 23.3304 39.755 22.8875 39.8111 22.4624L39.8465 22.1671C39.9085 21.5914 39.9498 20.9861 39.9616 20.3956C39.9616 20.375 39.9616 20.3513 39.9616 20.3336V20.2893C40.0059 19.8465 39.9971 19.3505 39.9675 18.8456Z" fill="url(#paint0_radial_75_2378)"/>
</g>
<defs>
<radialGradient id="paint0_radial_75_2378" cx="0" cy="0" r="1" gradientUnits="userSpaceOnUse" gradientTransform="translate(17.936 21.9728) rotate(-0.360053) scale(23.1469 23.1503)">
<stop stop-color="#B48CF9"/>
<stop offset="0.18" stop-color="#A77EEF"/>
<stop offset="0.46" stop-color="#986FE3"/>
<stop offset="0.68" stop-color="#936ADF"/>
<stop offset="0.75" stop-color="#976EE1"/>
<stop offset="0.83" stop-color="#A27CE6"/>
<stop offset="0.9" stop-color="#B492EF"/>
<stop offset="0.98" stop-color="#CDB0FC"/>
<stop offset="1" stop-color="#D4B8FF"/>
</radialGradient>
<clipPath id="clip0_75_2378">
<rect width="40" height="40" fill="white"/>
</clipPath>
</defs>
</svg>
