<svg width="499" height="412" viewBox="0 0 499 412" fill="none" xmlns="http://www.w3.org/2000/svg">
<g clip-path="url(#clip0_75_2301)">
<path d="M498.85 305.917V305.678C498.85 305.229 498.701 302.524 498.147 298.518C498.147 298.159 498.058 297.815 497.998 297.457C497.938 297.098 497.848 296.425 497.759 295.962C495.733 283.246 491.214 271.055 484.463 260.088V260.013C483.73 258.832 482.967 257.681 482.204 256.53C478.492 251.042 474.233 245.943 469.491 241.314C467.174 239.024 464.732 236.864 462.178 234.841C460.577 233.556 458.932 232.345 457.242 231.164L457.003 230.97L456.779 230.835L455.911 230.237C454.834 229.49 453.653 228.743 452.381 227.936L452.247 227.846L450.317 226.695L449.405 226.187L448.642 225.753L448.029 225.409C444.122 223.28 440.08 221.408 435.93 219.804L433.522 218.907L432.774 218.653L432.041 218.384H431.921H431.757L430.545 217.995H430.366H430.201L429.364 217.741L428.257 217.412L427.3 217.143L426.761 216.994H426.612H426.417L426.103 216.919L425.041 216.635L424.159 216.411L423.306 216.202L422.768 216.067L421.751 215.843L421.018 215.679L420.046 215.484H419.867L419.119 215.35L418.685 215.26L418.147 215.17H418.057H417.877H417.563L416.771 215.036L416.262 214.946L415.38 214.812L414.617 214.692H414.153L413.465 214.602L412.807 214.513L411.715 214.378L410.698 214.273H410.369H410.295L409.367 214.184L407.976 214.079L407.034 214.004H405.972H404.865H404.192H403.579H402.577C400.603 214.004 398.629 214.004 396.595 214.004H395.323L394.007 214.079H393.229L391.33 214.244H390.672L388.055 214.543L386.843 214.707H386.589L384.734 214.991L383.328 215.23L380.846 215.708C378.004 216.291 375.192 217.009 372.41 217.831C370.735 218.309 369.27 218.788 367.445 219.46C359.803 222.197 352.529 225.867 345.788 230.387L343.784 231.762L343.515 231.956C342.363 232.779 341.227 233.616 340.105 234.498L339.836 234.707L339.731 234.782V234.856C339.68 234.883 339.634 234.918 339.596 234.961C339.556 234.977 339.52 235.003 339.492 235.036L338.564 235.768L336.785 237.263L335.812 238.1C335.154 238.683 334.526 239.236 333.943 239.774L333.853 239.849V239.924L333.449 240.312C330.458 243.152 328.529 245.23 328.424 245.364C327.482 246.381 326.54 247.457 325.627 248.548C324.969 249.326 324.296 250.118 323.608 250.985L323.459 251.164L323.354 251.299C321.993 253.018 320.557 254.961 318.972 257.278L318.897 257.367C318.179 258.444 317.401 259.654 316.698 260.91C315.995 262.165 315.427 263.062 314.859 263.989L313.034 267.621C312.421 268.787 311.838 269.938 311.329 270.985C310.193 273.418 309.195 275.913 308.338 278.458C307.485 280.91 306.663 283.511 305.96 286.037V286.126C305.96 286.126 305.96 286.201 305.96 286.231C305.132 289.108 304.483 292.033 304.015 294.99C303.048 300.227 302.547 305.539 302.52 310.865C302.392 326.475 305.98 341.891 312.989 355.842C313.928 357.829 314.971 359.765 316.115 361.642C317.461 363.934 318.927 366.186 320.512 368.398L321.066 369.22C322.817 371.792 324.751 374.235 326.854 376.529C328.26 378.024 330.099 380.117 331.58 381.582C333.06 383.047 335.005 384.915 336.605 386.26C338.355 387.755 339.088 388.383 340.718 389.609C342.722 391.193 344.741 392.598 346.805 394.003L348.809 395.289C349.602 395.782 350.395 396.245 351.083 396.649L352.578 397.486L352.848 397.635L354.986 398.786L355.525 399.055C358.362 400.541 361.272 401.883 364.244 403.076L367.131 404.197L368.133 404.571L369.883 405.169C370.242 405.303 370.72 405.453 371.094 405.573L371.528 405.707H371.618L372.276 405.901L373.368 406.245L374.459 406.544H374.549C378.54 407.676 382.602 408.54 386.709 409.13H387.082L388.174 409.28H388.279L389.236 409.414L391.39 409.638C392.377 409.743 393.678 409.833 394.65 409.907C395.623 409.982 396.654 410.027 397.642 410.057H399.137C400.498 410.057 402.308 410.057 403.624 410.057C404.94 410.057 406.87 409.877 408.246 409.818C411.237 409.534 415.125 409.055 418.057 408.577C420.576 408.15 423.072 407.596 425.535 406.918L427.3 406.41L432.385 404.915L434.165 404.242C435.66 403.734 436.991 403.211 438.382 402.643L439.085 402.374C440.73 401.746 442.705 400.789 444.484 399.892L446.758 398.742C448.938 397.631 451.06 396.409 453.114 395.079L453.309 394.945C454.984 393.884 456.644 392.762 458.259 391.582L459.306 390.864L461.071 389.459C461.55 389.085 462.028 388.712 462.567 388.323L465.259 386.186C467.221 384.56 469.084 382.818 470.837 380.969L470.972 380.849L471.241 380.55C472.647 379.056 474.232 377.366 476.102 375.229L476.237 375.094C479.259 371.582 481.995 367.833 484.418 363.884V363.749C485.18 362.524 485.913 361.223 486.721 359.848C487.05 359.265 487.379 358.667 487.693 358.054C488.157 357.202 488.59 356.38 488.949 355.618L489.308 354.87C489.937 353.555 490.565 352.195 491.178 350.79C492.03 348.861 492.838 346.903 493.406 345.184C494.501 342.179 495.445 339.121 496.233 336.021C496.757 334.048 497.22 332.075 497.519 330.252C497.818 328.428 498.222 326.201 498.492 324.108C498.566 323.63 498.611 323.167 498.671 322.703C498.99 319.863 499.18 316.933 499.239 313.914C499.239 313.809 499.239 313.705 499.239 313.6V313.391C499.03 310.835 499 308.398 498.85 305.917Z" fill="url(#paint0_radial_75_2301)"/>
<path d="M484.014 362.628L485.973 359.355C485.375 360.476 484.717 361.567 484.014 362.628Z" fill="url(#paint1_linear_75_2301)"/>
<path d="M33.5319 195.679C98.457 83.2729 235.965 -4.26008 340.584 0.0896647C445.202 4.43941 477.508 99.1921 412.568 211.598C347.628 324.004 210.21 411.581 105.516 407.172C0.822586 402.762 -31.3931 308.01 33.5319 195.679Z" fill="url(#paint2_linear_75_2301)"/>
<path d="M113.249 406.425C110.691 406.425 108.134 406.425 105.636 406.275C62.1581 404.437 30.2864 387.292 13.4606 356.679C-8.79427 316.186 -1.18155 257.666 34.3993 196.127C64.9101 143.302 112.62 94.0501 168.736 57.4585C224.852 20.8668 283.017 0.896851 333.075 0.896851C335.618 0.896851 338.191 0.89686 340.688 1.04634C384.166 2.88489 416.038 20.0298 432.878 50.6424C455.133 91.1354 447.506 149.655 411.94 211.209C381.429 264.034 333.719 313.271 277.618 349.863C221.517 386.455 163.232 406.425 113.249 406.425Z" fill="url(#paint3_linear_75_2301)"/>
<path d="M450.048 108.086C450.048 107.219 450.048 106.337 450.048 105.47C450.048 104.603 450.048 103.527 449.944 102.555C449.944 101.898 449.944 101.21 449.944 100.552V99.9993C449.944 99.1921 449.824 98.3999 449.764 97.5927C449.704 96.7855 449.615 95.7243 449.525 94.7975C449.435 93.8708 449.345 93.228 449.255 92.4358C449.166 91.6436 449.106 91.1055 449.016 90.4478C449.016 90.1937 449.016 89.9545 448.912 89.7004C448.807 88.9979 448.687 88.2953 448.568 87.5779C448.448 86.8604 448.268 85.7393 448.104 84.8275C447.939 83.9157 447.82 83.4224 447.67 82.7199C447.521 82.0174 447.476 81.6736 447.356 81.2251C447.236 80.7767 447.177 80.4628 447.087 80.0742C446.937 79.4314 446.773 78.7887 446.623 78.1609C446.384 77.2491 446.145 76.3522 445.89 75.4554C445.726 74.8425 445.546 74.2147 445.352 73.6019C445.262 73.3029 445.187 72.989 445.098 72.6901C444.903 72.0772 444.694 71.4793 444.484 70.8665C444.275 70.2536 444.125 69.7603 443.931 69.2073C443.587 68.2058 443.198 67.2193 442.824 66.2178L442.331 64.9173C442.331 64.8276 442.256 64.738 442.226 64.6632C441.688 63.3478 441.134 62.0474 440.536 60.7769L440.267 60.1939C439.773 59.1625 439.28 58.1311 438.771 57.1147L438.577 56.7709C438.352 56.3075 438.098 55.8741 437.859 55.4256C437.395 54.5736 436.917 53.7066 436.363 52.8696C436.079 52.3763 435.78 51.883 435.481 51.3748C435.182 50.8666 434.927 50.4331 434.628 49.9697C434.329 49.5064 434.224 49.3868 434.03 49.0729C433.836 48.759 433.357 48.0565 433.013 47.5781C432.669 47.0998 432.011 46.0834 431.517 45.4257L430.441 43.9309C430.246 43.6918 430.082 43.4377 429.887 43.1985C429.274 42.4063 428.646 41.6141 428.003 40.8517L424.099 36.1582C424.937 37.1597 425.729 38.206 426.522 39.2374L427.614 40.7322L429.109 42.8996L430.126 44.3943C430.62 45.1417 431.099 45.8891 431.622 46.6813C431.921 47.1746 432.22 47.6678 432.505 48.176C432.998 49.0131 433.462 49.8651 434 50.7321L434.733 52.0624C435.331 53.1984 435.885 54.3494 436.438 55.5153L436.707 56.0684C437.335 57.4286 437.934 58.8187 438.487 60.2088C438.667 60.6423 438.816 61.0758 438.996 61.5093C439.369 62.4958 439.743 63.4824 440.102 64.4988C440.297 65.0369 440.476 65.6049 440.656 66.158C440.955 67.0548 441.254 67.9666 441.523 68.8934C441.718 69.5062 441.882 70.1191 442.062 70.7469C442.316 71.6288 442.555 72.5406 442.779 73.4375C442.944 74.0802 443.094 74.708 443.258 75.3507C443.453 76.2476 443.662 77.1594 443.841 78.0563C444.021 78.9531 444.126 79.4613 444.26 80.1639C444.395 80.8664 444.589 82.0024 444.739 82.9292C444.858 83.6317 444.963 84.3342 445.068 85.0368C445.172 85.7393 445.307 86.8604 445.427 87.7871C445.546 88.7139 445.621 89.2819 445.696 90.1488C445.771 91.0158 445.86 92.0023 445.935 92.944L446.115 95.3356C446.115 96.1877 446.19 97.0546 446.219 97.9066C446.249 98.7586 446.309 99.8349 446.324 100.896C446.339 101.957 446.324 102.63 446.324 103.497C446.324 104.364 446.324 105.47 446.324 106.487C446.324 107.503 446.324 108.056 446.324 108.848C446.324 110.074 446.264 111.3 446.145 112.525C446.145 113.347 446.025 114.185 445.965 115.022C445.875 116.232 445.756 117.443 445.636 118.654C445.516 119.865 445.412 120.941 445.262 122.092C445.262 122.436 445.262 122.794 445.143 123.153C444.918 124.842 444.679 126.561 444.395 128.28L444.215 129.371C443.961 130.866 443.692 132.361 443.408 133.93C443.408 134.259 443.273 134.588 443.213 134.932C442.839 136.83 442.435 138.728 441.987 140.657C441.992 140.706 441.992 140.757 441.987 140.806C441.553 142.645 441.104 144.513 440.611 146.382C440.446 147.009 440.267 147.637 440.102 148.265C439.743 149.58 439.384 150.881 438.996 152.196C438.786 152.944 438.562 153.691 438.337 154.423C437.978 155.559 437.635 156.71 437.261 157.861C436.887 159.012 436.498 160.208 436.094 161.389C435.69 162.57 435.421 163.377 435.062 164.378C434.703 165.38 434.21 166.77 433.761 167.966C433.312 169.162 433.028 169.969 432.639 170.955C432.25 171.942 431.667 173.392 431.143 174.603C430.62 175.813 430.351 176.606 429.932 177.592C429.409 178.833 428.855 180.088 428.317 181.344C427.883 182.331 427.464 183.317 427.016 184.334C426.432 185.619 425.819 186.919 425.206 188.22C424.757 189.176 424.323 190.133 423.86 191.105C423.202 192.465 422.514 193.84 421.826 195.215C421.362 196.127 420.928 197.024 420.45 197.936C419.672 199.431 418.85 201.015 418.027 202.54C417.608 203.302 417.219 204.034 416.815 204.827C415.559 207.129 414.258 209.44 412.912 211.762C411.566 214.084 410.16 216.446 408.694 218.847C408.335 219.415 407.991 219.998 407.647 220.566C406.192 222.898 404.721 225.215 403.235 227.517C403.145 227.667 403.041 227.801 402.951 227.936C401.455 230.133 400.05 232.315 398.569 234.483L397.432 236.157C395.862 238.414 394.276 240.641 392.646 242.913L391.046 245.08C390.343 246.022 389.655 246.979 388.937 247.92L386.948 250.073C386.245 251 385.542 251.926 384.824 252.838C384.106 253.75 383.643 254.333 383.044 255.11L380.906 257.801L379.051 260.088L376.912 262.719C376.568 263.122 376.224 263.511 375.895 263.914C374.22 265.917 372.53 267.92 370.81 269.893L369.763 271.104C367.869 273.277 365.949 275.429 364.005 277.562L362.584 279.056C361.238 280.551 359.877 281.971 358.501 283.421C358.037 283.929 357.574 284.422 357.095 284.916C355.32 286.769 353.526 288.618 351.711 290.461L350.619 291.552L346.566 295.588L344.816 297.292L341.272 300.67L339.402 302.419C338.28 303.481 337.144 304.527 336.007 305.573L334.257 307.173C332.761 308.533 331.266 309.878 329.77 311.209L329.082 311.821C327.377 313.316 325.642 314.811 323.922 316.306L322.352 317.621C321.14 318.652 319.914 319.684 318.673 320.7L316.654 322.344L313.453 324.945L311.299 326.649L308.143 329.131L305.93 330.835C304.898 331.642 303.851 332.434 302.804 333.211L300.591 334.915L297.33 337.307C296.627 337.815 295.939 338.338 295.221 338.802L291.662 341.343L289.822 342.643L284.946 345.992L284.378 346.38C282.553 347.621 280.729 348.832 278.889 350.042L277.154 351.163C275.898 351.985 274.626 352.808 273.37 353.6L271.276 354.915L267.702 357.127L265.443 358.503L262.003 360.565L259.715 361.896L256.021 364.033L253.867 365.259C252.476 366.036 251.1 366.754 249.709 367.546L248.019 368.473C246.03 369.564 244.026 370.61 242.037 371.656L240.751 372.314L235.995 374.721L234.02 375.692L229.533 377.845L227.484 378.816C225.794 379.609 224.089 380.386 222.399 381.148L221.173 381.701C218.929 382.703 216.686 383.659 214.443 384.601L212.693 385.334C210.898 386.066 209.118 386.828 207.323 387.501L205.678 388.159C203.166 389.155 200.673 390.097 198.2 390.984L196.704 391.537C194.237 392.404 191.784 393.256 189.331 394.063L188.808 394.227C187.491 394.661 186.19 395.079 184.874 395.483L183.378 395.961L177.934 397.576L176.843 397.875L172.505 399.07L170.561 399.564L167.091 400.446L166.298 400.625C164.175 401.133 162.066 401.611 159.957 402.12L158.222 402.478C155.904 402.972 153.586 403.42 151.282 403.839L150.684 403.943C148.56 404.322 146.437 404.666 144.313 404.975L142.578 405.229C140.29 405.543 138.091 405.842 135.743 406.096H135.339C133.195 406.315 131.057 406.509 128.923 406.679L127.218 406.813C124.974 406.978 122.731 407.112 120.517 407.187H120.293C118.139 407.262 116.001 407.292 113.877 407.292H112.202C110.003 407.292 107.82 407.292 105.651 407.157C68.2603 405.573 40.0977 392.464 22.3147 371.148L26.2183 375.842C44.0013 397.157 72.1489 410.221 109.554 411.836C111.723 411.925 113.922 411.97 116.105 411.985H117.78C119.904 411.985 122.043 411.985 124.197 411.865H124.421C126.649 411.776 128.908 411.641 131.136 411.492L132.841 411.357C134.965 411.193 137.104 410.999 139.258 410.759H139.661C141.92 410.505 144.148 410.206 146.496 409.877L148.216 409.623C150.34 409.304 152.464 408.961 154.588 408.592L155.186 408.487C157.489 408.084 159.807 407.62 162.126 407.142L163.861 406.768C165.969 406.32 168.093 405.842 170.202 405.274L170.8 405.139H170.995C172.146 404.87 173.298 404.571 174.465 404.272L176.409 403.764C177.904 403.39 179.295 402.987 180.746 402.583L181.838 402.284L187.282 400.67L188.778 400.191L192.726 398.936H192.861L193.25 398.801C195.702 397.994 198.155 397.152 200.608 396.275L202.104 395.722C204.616 394.825 207.109 393.884 209.582 392.897L210.12 392.703L211.227 392.254C213.022 391.537 214.816 390.759 216.596 390.072L218.346 389.354C220.59 388.418 222.833 387.446 225.076 386.44L225.301 386.35L226.303 385.887C228.008 385.124 229.698 384.392 231.388 383.57L233.437 382.598L237.924 380.431L239.165 379.833L239.883 379.459C241.468 378.682 243.069 377.875 244.654 377.053L245.925 376.41C247.92 375.364 249.914 374.302 251.908 373.226L252.222 373.062L253.613 372.299L257.756 369.997L259.91 368.787L263.619 366.649C263.978 366.425 264.352 366.23 264.725 366.006L265.892 365.304C267.044 364.631 268.195 363.944 269.332 363.241L271.605 361.881L275.165 359.669L276.661 358.697L277.199 358.353L281.058 355.842C281.641 355.468 282.224 355.095 282.793 354.706C284.632 353.51 286.472 352.299 288.282 351.059L288.82 350.7C290.435 349.594 292.065 348.473 293.681 347.337C294.294 346.918 294.907 346.47 295.52 346.036C296.717 345.199 297.898 344.362 299.095 343.495L299.663 343.092L301.159 341.956L304.404 339.564C305.152 339.026 305.9 338.458 306.618 337.905L309.729 335.543L310.791 334.736L311.942 333.839L315.098 331.358L317.267 329.639L320.452 327.053L321.948 325.887L322.546 325.379C323.788 324.362 325.014 323.331 326.24 322.3L327.736 320.984C329.471 319.519 331.191 318.025 332.896 316.5C332.92 316.506 332.946 316.506 332.971 316.5L333.584 315.962C335.08 314.632 336.575 313.286 338.071 311.926L339.806 310.327L343.231 307.173L344.053 306.41L345.085 305.424L348.63 302.031L350.38 300.327C351.741 299.011 353.072 297.681 354.403 296.336L355.315 295.439L355.495 295.244C357.319 293.421 359.119 291.572 360.894 289.699L362.3 288.204L366.383 283.825L367.295 282.853L367.789 282.285C369.733 280.147 371.663 278.01 373.547 275.828C373.906 275.439 374.25 275.035 374.594 274.632C376.314 272.644 378.019 270.656 379.694 268.653L380.337 267.905L380.696 267.457L382.865 264.811C383.478 264.064 384.091 263.316 384.689 262.554L386.858 259.819L388.608 257.592L390.747 254.796C391.315 254.049 391.883 253.302 392.437 252.569L394.575 249.699C395.054 249.027 395.548 248.369 396.071 247.711L396.176 247.547C397.806 245.305 399.391 243.063 400.962 240.79L402.099 239.131C403.594 236.964 405.09 234.767 406.496 232.569L406.765 232.166C408.26 229.864 409.756 227.532 411.252 225.2L412.299 223.496C413.794 221.134 415.155 218.788 416.516 216.411C417.877 214.034 419.164 211.777 420.42 209.46C420.839 208.713 421.213 207.966 421.616 207.203C422.454 205.709 423.277 204.109 424.069 202.584C424.533 201.673 424.967 200.761 425.43 199.864C426.118 198.489 426.806 197.114 427.464 195.753C427.928 194.782 428.377 193.825 428.825 192.854C429.424 191.553 430.037 190.253 430.62 188.967C431.069 187.981 431.488 186.994 431.921 185.978C432.46 184.722 433.013 183.467 433.537 182.226L434.763 179.236C435.256 178.011 435.75 176.8 436.259 175.574C436.767 174.349 437.006 173.571 437.38 172.585C437.829 171.374 438.263 170.178 438.696 168.982C439.13 167.787 439.384 166.994 439.713 165.993C440.043 164.991 440.506 163.646 440.88 162.48C441.015 162.047 441.179 161.613 441.314 161.18C441.538 160.462 441.733 159.76 441.957 159.042L442.63 156.8C443.004 155.5 443.363 154.199 443.722 152.899C443.886 152.256 444.066 151.628 444.23 150.985C444.724 149.117 445.187 147.264 445.606 145.41V145.261C445.995 143.512 446.369 141.778 446.713 140.059C446.713 139.879 446.713 139.715 446.818 139.536C446.922 139.356 446.937 138.878 447.012 138.534C447.296 137.039 447.565 135.545 447.82 134.05C447.82 133.691 447.954 133.317 447.999 132.944C448.283 131.225 448.523 129.521 448.747 127.817L448.882 126.755C448.956 126.053 449.061 125.335 449.136 124.633C449.136 124.199 449.136 123.766 449.241 123.332C449.375 122.107 449.48 120.896 449.57 119.685C449.57 118.863 449.704 118.026 449.749 117.204C449.819 115.958 449.879 114.733 449.929 113.527C449.929 112.974 449.929 112.406 449.929 111.853C449.929 111.614 449.929 111.389 449.929 111.15C450.048 110.059 450.048 109.072 450.048 108.086Z" fill="url(#paint4_linear_75_2301)"/>
<path style="mix-blend-mode:screen" opacity="0.4" d="M354.044 288.159C351.641 290.621 349.208 293.057 346.745 295.469L194.012 41.1058C196.944 39.4815 199.885 37.8921 202.837 36.3375L354.044 288.159ZM275.569 352.21C278.381 350.401 281.177 348.577 283.959 346.694L127.711 86.4567C125.109 88.6092 122.522 90.8065 119.949 93.0187L275.569 352.21ZM151.686 67.9815C148.964 69.9397 146.272 71.9277 143.58 73.9606L300.321 335.065C303.013 333.072 305.691 331.039 308.353 328.966L151.686 67.9815ZM289.089 4.6636C285.664 5.36613 282.224 6.15836 278.784 6.98048L407.139 220.82C409.023 217.831 410.863 214.737 412.628 211.658L412.972 211.06L289.089 4.6636ZM385.168 8.9087L445.98 110.208C446.325 103.434 446.155 96.6433 445.472 89.8947L401.755 17.0551C396.48 13.8512 390.929 11.1249 385.168 8.9087ZM321.559 0.34375C317.88 0.553016 314.171 0.866922 310.432 1.28545L423.905 190.327C425.68 186.591 427.355 182.884 428.93 179.206L321.559 0.34375ZM176.738 51.2552C173.896 53.0041 171.084 54.7978 168.273 56.6363L324.132 316.171C326.719 313.959 329.277 311.687 331.804 309.46L176.738 51.2552ZM258.803 12.6606C255.572 13.7069 252.332 14.808 249.081 15.964L388.443 248.115C390.627 245.2 392.751 242.27 394.845 239.311L258.803 12.6606ZM357.514 1.73389C353.476 1.15093 349.318 0.687557 345.011 0.403553L437.799 155.036C439.19 150.552 440.416 146.068 441.448 141.583L357.514 1.73389ZM230.191 23.378C227.111 24.6934 224.03 26.0586 220.949 27.4736L368.253 272.853C370.586 270.222 372.874 267.547 375.147 264.856L230.191 23.378Z" fill="url(#paint5_linear_75_2301)"/>
</g>
<defs>
<radialGradient id="paint0_radial_75_2301" cx="0" cy="0" r="1" gradientUnits="userSpaceOnUse" gradientTransform="translate(391.123 329.424) rotate(-0.359791) scale(118.528 118.46)">
<stop offset="0.71" stop-color="#90B3E8"/>
<stop offset="0.76" stop-color="#9BBBEB"/>
<stop offset="0.86" stop-color="#B7CFF1"/>
<stop offset="0.98" stop-color="#E4F0FC"/>
<stop offset="1" stop-color="#ECF5FE"/>
</radialGradient>
<linearGradient id="paint1_linear_75_2301" x1="484.014" y1="360.999" x2="485.973" y2="360.999" gradientUnits="userSpaceOnUse">
<stop stop-color="#DEF5E9"/>
<stop offset="0.32" stop-color="#D6F3E4"/>
<stop offset="0.8" stop-color="#C1ECD5"/>
<stop offset="1" stop-color="#B6E9CD"/>
</linearGradient>
<linearGradient id="paint2_linear_75_2301" x1="374.25" y1="378.024" x2="150.548" y2="119.706" gradientUnits="userSpaceOnUse">
<stop stop-color="#8CB6F0"/>
<stop offset="0.18" stop-color="#A0C4F3"/>
<stop offset="0.52" stop-color="#C3DBF8"/>
<stop offset="0.81" stop-color="#D8E9FB"/>
<stop offset="0.99" stop-color="#E0EEFC"/>
</linearGradient>
<linearGradient id="paint3_linear_75_2301" x1="348.077" y1="347.83" x2="125.675" y2="91.0077" gradientUnits="userSpaceOnUse">
<stop stop-color="#8CB6F0"/>
<stop offset="0.18" stop-color="#A0C4F3"/>
<stop offset="0.52" stop-color="#C3DBF8"/>
<stop offset="0.81" stop-color="#D8E9FB"/>
<stop offset="0.99" stop-color="#E0EEFC"/>
</linearGradient>
<linearGradient id="paint4_linear_75_2301" x1="57.2675" y1="446.095" x2="461.069" y2="102.623" gradientUnits="userSpaceOnUse">
<stop offset="0.04" stop-color="#CBE1F9"/>
<stop offset="0.08" stop-color="#A9C7EF"/>
<stop offset="0.12" stop-color="#8FB4E9"/>
<stop offset="0.16" stop-color="#80A9E4"/>
<stop offset="0.19" stop-color="#7BA5E3"/>
<stop offset="0.39" stop-color="#78A0DF"/>
<stop offset="0.62" stop-color="#6E92D5"/>
<stop offset="0.78" stop-color="#6484CB"/>
<stop offset="0.83" stop-color="#6888CD"/>
<stop offset="0.88" stop-color="#7595D5"/>
<stop offset="0.93" stop-color="#8BAAE1"/>
<stop offset="0.99" stop-color="#A9C8F2"/>
<stop offset="1" stop-color="#B0CFF6"/>
</linearGradient>
<linearGradient id="paint5_linear_75_2301" x1="206.456" y1="29.8054" x2="397.992" y2="254.398" gradientUnits="userSpaceOnUse">
<stop stop-color="#ECF5FE"/>
<stop offset="0.3" stop-color="#E4F0FD"/>
<stop offset="0.76" stop-color="#CFE4FB"/>
<stop offset="1" stop-color="#C1DCF9"/>
</linearGradient>
<clipPath id="clip0_75_2301">
<rect width="499" height="412" fill="white"/>
</clipPath>
</defs>
</svg>
