<svg width="138" height="138" viewBox="0 0 138 138" fill="none" xmlns="http://www.w3.org/2000/svg">
<g clip-path="url(#clip0_75_2359)">
<path d="M87.4249 20.2434C87.3869 20.2221 87.3471 20.2042 87.306 20.1897C87.0961 20.0949 85.7562 19.574 83.7154 18.964C83.5405 18.885 83.3505 18.8582 83.163 18.8072C82.9754 18.7562 82.6385 18.663 82.3607 18.588C75.8086 16.8134 68.9717 16.3442 62.2389 17.2069L62.2039 17.1911C61.4793 17.285 60.7616 17.382 60.0383 17.5101C56.5665 18.1053 53.1635 19.0486 49.8807 20.3256C48.2784 20.9384 46.7096 21.6355 45.181 22.414C44.2249 22.9086 43.2732 23.4305 42.3401 23.9861L42.1955 24.0639L42.0781 24.1372L41.6018 24.4274C41.0112 24.7839 40.4125 25.1957 39.7287 25.628L39.6552 25.679C39.3406 25.8907 39.0166 26.1233 38.6824 26.3598L38.2416 26.6829L37.8643 26.9588L37.5676 27.1869C35.6905 28.5995 33.9102 30.1365 32.2389 31.7873C31.8022 32.2133 31.4721 32.5527 31.2839 32.7456L30.9937 33.0525L30.7066 33.3524L30.6845 33.4013L30.6466 33.4853L30.1885 33.9774L30.1506 34.0614L30.1127 34.1453L29.8067 34.4871L29.4058 34.9461L29.0643 35.3477L28.8775 35.575L28.8428 35.6519L28.8017 35.7429L28.7353 35.8898L28.3687 36.3474L28.064 36.7235L27.7829 37.085L27.603 37.3154L27.2668 37.7615L27.035 38.0695L26.7223 38.5009L26.6844 38.5848L26.4533 38.91L26.3134 39.1079L26.1476 39.3446L26.1286 39.3866L26.0907 39.4705L26.0244 39.6174L25.7877 39.9737L25.632 40.2066L25.3763 40.6048L25.1529 40.9503L25.055 41.1671L24.8645 41.477L24.6772 41.7798L24.3774 42.276L24.1073 42.7435L24.0346 42.9044L23.7975 43.3363L23.4414 43.9755L23.2361 44.4302L23.0055 44.9409L22.7654 45.4725L22.5758 45.8922L22.4432 46.186L22.2252 46.6686C21.7956 47.62 21.366 48.5713 20.9364 49.5226L20.6647 50.1242L20.3772 50.7608L20.2066 51.1385L19.8698 52.0896L19.7276 52.4044L19.3059 53.7298L19.1277 54.3483L19.074 54.4673L18.8096 55.4258L18.6126 56.179L18.2963 57.4763C17.9602 58.9667 17.6971 60.4817 17.4894 62.0049C17.3602 62.9066 17.272 63.7173 17.1958 64.744C16.8534 69.0167 17.0396 73.3153 17.75 77.5426L18.0137 78.8238L18.0478 78.9908C18.197 79.7235 18.3532 80.4594 18.5298 81.1875L18.5677 81.3647L18.5806 81.4294C18.5909 81.4469 18.5964 81.4669 18.5966 81.4872L18.6171 81.5723L18.637 81.6402L18.7948 82.242C18.9038 82.6534 19.0122 83.0476 19.1058 83.4183L19.3 84.0703C19.4307 84.5083 19.5677 84.9323 19.7002 85.329L19.7162 85.3867L19.7512 85.4025L19.8415 85.6875C20.5773 87.7884 21.1486 89.1159 21.1831 89.2073C21.4707 89.8761 21.7831 90.5646 22.1157 91.2454C22.3374 91.7245 22.5839 92.2232 22.845 92.7453L22.8974 92.8532L22.9452 92.9338C23.4738 93.9641 24.0986 95.08 24.8939 96.3403L24.9359 96.3592C25.2988 96.9358 25.7184 97.5548 26.166 98.1864C26.6135 98.818 26.9234 99.2695 27.2479 99.7446L28.5989 101.416C29.0329 101.965 29.4554 102.485 29.8524 102.967C30.7742 104.056 31.7581 105.091 32.7991 106.066C33.795 107.013 34.8673 107.977 35.933 108.863L35.9749 108.882C35.9898 108.892 36.0064 108.9 36.0239 108.904C37.2234 109.924 38.4839 110.87 39.7983 111.737C43.8967 114.337 44.2187 114.575 47.1221 115.886C49.6179 117.058 52.2071 118.018 54.8627 118.759C60.0537 120.239 65.4423 120.909 70.8376 120.743C72.0003 120.725 73.1611 120.645 74.3152 120.503C75.7108 120.347 77.111 120.137 78.5161 119.874L79.0279 119.785C80.642 119.492 82.2333 119.085 83.7895 118.566C84.805 118.183 86.2182 117.777 87.2438 117.389C88.2695 117.002 89.5984 116.465 90.5896 115.986C91.6682 115.463 92.155 115.262 93.1066 114.74C94.295 114.123 95.4438 113.462 96.5259 112.764C96.8811 112.537 97.2363 112.31 97.5775 112.076C97.9187 111.843 98.3836 111.522 98.7311 111.275L99.4457 110.756L99.5827 110.657L100.6 109.879L100.85 109.68C101.962 108.801 103.316 107.669 104.683 106.358L105.853 105.202L106.246 104.799L106.919 104.092L107.37 103.597L107.535 103.418L107.554 103.376L107.794 103.106L108.188 102.644L108.579 102.189L108.598 102.147C110.013 100.473 111.313 98.705 112.487 96.8542L112.566 96.6793L112.873 96.1863L112.898 96.1303L113.167 95.7041L113.749 94.7124C114.01 94.2658 114.336 93.6552 114.583 93.2023C114.829 92.7495 115.082 92.2654 115.323 91.7681L115.639 91.0686C115.933 90.4181 116.324 89.5507 116.621 88.8931C116.918 88.2356 117.249 87.2985 117.514 86.6182C118.013 85.1591 118.647 83.1382 119.045 81.6248C119.397 80.3113 119.68 78.9803 119.893 77.6373L120.024 76.6772C120.161 75.7202 120.283 74.7226 120.43 73.913L120.486 72.9111C120.564 72.1041 120.622 71.2877 120.636 70.528L120.655 70.1322C120.711 69.2059 120.679 68.046 120.641 66.9929C120.623 66.547 120.593 66.1291 120.571 65.6559C120.516 64.3632 120.389 63.0746 120.191 61.7959L120.169 61.6766C120.023 60.6334 119.844 59.5927 119.633 58.5544L119.508 57.8998L119.194 56.7305L118.964 55.7845L118.52 54.026C118.161 52.7306 117.726 51.4573 117.218 50.2127L117.187 50.1143L117.104 49.9252C116.72 48.9097 116.226 47.7853 115.601 46.4255L115.56 46.3309C114.523 44.1127 113.312 41.9802 111.937 39.9537L111.893 39.8832C111.47 39.2541 110.992 38.634 110.507 37.9352L109.855 37.0677C109.547 36.6676 109.239 36.2675 108.958 35.9385C108.864 35.8289 108.764 35.716 108.673 35.5994C108.179 35.0142 107.658 34.4165 107.112 33.8162C106.367 32.9833 105.597 32.172 104.894 31.5264C103.723 30.3909 102.466 29.2759 101.093 28.1758C100.262 27.4975 99.4116 26.8439 98.5754 26.2895C97.7393 25.735 96.7751 25.0722 95.8277 24.4844L95.166 24.0845C93.8681 23.3215 92.4781 22.5759 91.0916 21.916C91.0426 21.8939 90.9866 21.8687 90.9446 21.8497L90.8397 21.8023C89.8377 21.2235 88.6528 20.7137 87.4249 20.2434Z" fill="url(#paint0_radial_75_2359)"/>
</g>
<defs>
<radialGradient id="paint0_radial_75_2359" cx="0" cy="0" r="1" gradientUnits="userSpaceOnUse" gradientTransform="translate(71.2594 75.7952) rotate(-66.0564) scale(60.1818 60.1907)">
<stop stop-color="#B48CF9"/>
<stop offset="0.18" stop-color="#A77EEF"/>
<stop offset="0.46" stop-color="#986FE3"/>
<stop offset="0.68" stop-color="#936ADF"/>
<stop offset="0.75" stop-color="#976EE1"/>
<stop offset="0.83" stop-color="#A27CE6"/>
<stop offset="0.9" stop-color="#B492EF"/>
<stop offset="0.98" stop-color="#CDB0FC"/>
<stop offset="1" stop-color="#D4B8FF"/>
</radialGradient>
<clipPath id="clip0_75_2359">
<rect width="104" height="104" fill="white" transform="translate(0 94.7832) rotate(-65.6963)"/>
</clipPath>
</defs>
</svg>
