<svg width="70" height="70" viewBox="0 0 70 70" fill="none" xmlns="http://www.w3.org/2000/svg">
<g clip-path="url(#clip0_75_2355)">
<path d="M69.9432 32.9797C69.9457 32.9505 69.9457 32.9211 69.9432 32.8919C69.9432 32.7369 69.8915 31.7707 69.7004 30.3498C69.7004 30.2207 69.6642 30.0967 69.6435 29.9675C69.6229 29.8383 69.5867 29.6058 69.5557 29.4146C68.8292 24.9038 67.2232 20.5799 64.8288 16.6888L64.8288 16.663C64.5705 16.2444 64.3122 15.8311 64.0332 15.4229C62.7063 13.4581 61.185 11.6319 59.4922 9.97192C58.6725 9.15875 57.8103 8.38954 56.9092 7.66752C56.341 7.21801 55.7572 6.77883 55.1579 6.36032L55.0701 6.29315L54.9926 6.24148L54.6827 6.02964C54.3004 5.76613 53.8819 5.51296 53.4273 5.21328L53.3756 5.18228C53.1587 5.04795 52.9262 4.91361 52.6886 4.77411L52.3683 4.59327L52.0945 4.43826L51.8723 4.31943C50.4858 3.55927 49.0499 2.89298 47.5742 2.32504C47.1919 2.1752 46.8923 2.0667 46.7218 2.0047L46.4531 1.91169L46.1897 1.81869L46.1535 1.81869L46.0915 1.81869L45.6627 1.67402L45.6007 1.67402L45.5387 1.67402L45.2443 1.58101L44.8517 1.46218L44.5107 1.36401L44.3196 1.31234L44.2627 1.31234L44.1956 1.31234L44.0871 1.31234L43.7048 1.21417L43.3897 1.1315L43.09 1.05917L42.8989 1.01267L42.5321 0.929997L42.279 0.873162L41.9277 0.800827L41.8657 0.800827L41.6022 0.749156L41.4421 0.718156L41.2509 0.681993L41.2199 0.681993L41.1579 0.681993L41.0494 0.681993L40.7653 0.635485L40.5793 0.604486L40.2642 0.557986L39.9904 0.516651L39.8303 0.516651L39.5875 0.485651L39.3498 0.454651L38.9624 0.408152L38.6007 0.371981L38.4819 0.371981L38.1513 0.346145L37.6605 0.304809L37.3247 0.304809L36.9476 0.304809L36.555 0.304809L36.245 0.304809L36.028 0.304809L35.6716 0.304809C34.969 0.304809 34.2664 0.304809 33.5638 0.304809L33.1196 0.304809L32.6494 0.304809L32.3705 0.304809L31.6937 0.361645L31.4613 0.361645L30.5314 0.470151L30.1026 0.532151L30.0148 0.532151L29.3535 0.635485L28.8369 0.723328L27.9535 0.888662C26.9461 1.09533 25.9439 1.35368 24.952 1.64818C24.3631 1.81869 23.8413 1.98919 23.1904 2.22687C20.4746 3.2005 17.8893 4.5055 15.493 6.11231L14.7801 6.62899L14.6871 6.69616C14.279 6.99067 13.8708 7.29035 13.4731 7.60036L13.3749 7.67269L13.3387 7.69853C13.3309 7.70973 13.3202 7.71863 13.3077 7.72436L13.2613 7.76053L13.2251 7.79153L12.8996 8.05503C12.6775 8.23587 12.4657 8.41154 12.2642 8.57171L11.9181 8.87139C11.6856 9.07289 11.4635 9.2744 11.2568 9.46558L11.2258 9.49141L11.2258 9.51724L11.076 9.65158C9.99114 10.6849 9.33505 11.4031 9.28856 11.4496C8.95793 11.8113 8.62214 12.1937 8.29668 12.5863C8.06421 12.855 7.82657 13.1444 7.5786 13.4492L7.52694 13.5112L7.49077 13.5629C7.00516 14.1725 6.49372 14.8649 5.94096 15.7019L5.94096 15.7329C5.68782 16.1153 5.42435 16.5441 5.16089 16.9936C4.89742 17.4431 4.70627 17.7583 4.5048 18.089L3.85388 19.3807C3.6369 19.7992 3.43542 20.2022 3.24944 20.5794C2.83685 21.4465 2.47462 22.3366 2.16457 23.2455C1.85978 24.1187 1.56531 25.0435 1.31734 25.9425L1.31734 25.9735C1.3151 25.9855 1.3151 25.9978 1.31734 26.0097C1.02397 27.0281 0.792793 28.0634 0.625093 29.1098C0.165315 32.3442 0.108488 32.6077 0.108488 34.752C0.0813951 36.6074 0.209268 38.4618 0.490775 40.296C1.0207 43.8904 2.10284 47.3813 3.69889 50.6451C4.03215 51.3532 4.40291 52.0431 4.80959 52.7118C5.29176 53.5247 5.80836 54.3256 6.35941 55.1144L6.55572 55.4037C7.18232 56.3128 7.87287 57.1762 8.62214 57.9871C9.13874 58.5038 9.77933 59.2582 10.3011 59.78C10.8229 60.3019 11.5203 60.9684 12.0886 61.4437C12.7085 61.9604 12.9668 62.2033 13.5506 62.6424C14.2583 63.2004 14.9815 63.7223 15.71 64.1925C15.9476 64.3475 16.1852 64.5025 16.4229 64.6472C16.6605 64.7918 16.986 64.9882 17.2339 65.1328L17.7505 65.4273L17.8487 65.4842L18.6081 65.8924L18.7993 65.9905C19.6465 66.4297 20.7159 66.9464 21.8989 67.4217L22.9321 67.8196L23.2886 67.9487L23.9085 68.1658L24.3373 68.3053L24.4922 68.3569L24.5232 68.3569L24.7557 68.4293L25.1483 68.5429L25.5358 68.6566L25.5668 68.6566C26.9854 69.0615 28.4301 69.3688 29.8908 69.5763L30.0199 69.5763L30.4074 69.628L30.4487 69.628L30.7845 69.6745L31.5542 69.7571C31.9004 69.7933 32.3653 69.8243 32.7114 69.8501C33.0576 69.876 33.4244 69.8966 33.7963 69.907L34.3129 69.907C34.7934 69.907 35.4339 69.907 35.9196 69.907C36.4052 69.907 37.0716 69.8501 37.5624 69.8243C38.5956 69.7261 40.0111 69.5556 41.0494 69.38C41.9527 69.2321 42.8476 69.0372 43.7306 68.7961L44.3557 68.6101C44.9808 68.4293 45.6266 68.2278 46.1638 68.0934L46.7941 67.8506C47.3107 67.6749 47.8273 67.4837 48.2974 67.2822L48.5454 67.1841C49.1292 66.9619 49.8317 66.6209 50.4672 66.3057C50.7358 66.1714 50.9838 66.037 51.2679 65.8924C52.0457 65.5007 52.8011 65.066 53.5306 64.5903L53.5978 64.5438C54.197 64.1649 54.786 63.7671 55.3646 63.3503L55.7314 63.0919L56.3616 62.5753L56.8782 62.1722L57.8339 61.4127C58.5291 60.8336 59.1897 60.2142 59.8125 59.5578L59.8642 59.5113L59.9572 59.408C60.4738 58.8913 61.0266 58.2765 61.6878 57.5169L61.7343 57.4653C62.8078 56.2148 63.7804 54.881 64.6428 53.4765L64.6738 53.43C64.9424 52.996 65.1904 52.531 65.4849 52.0401L65.8362 51.3994C65.9963 51.0998 66.1565 50.8001 66.2804 50.5366C66.3218 50.4487 66.3631 50.3557 66.4096 50.2679C66.6317 49.8029 66.8539 49.3172 67.0708 48.816C67.3756 48.1288 67.6598 47.4313 67.8613 46.8216C68.2332 45.7883 68.569 44.7084 68.8635 43.5614C69.0494 42.8639 69.2148 42.1612 69.3232 41.4947C69.4317 40.8281 69.5712 40.0531 69.6694 39.3091L69.7314 38.7924C69.8399 37.7849 69.9122 36.7257 69.9328 35.6923C69.9328 35.6562 69.9328 35.6148 69.9328 35.5838L69.9328 35.5063C70.0103 34.7313 69.9948 33.8633 69.9432 32.9797Z" fill="url(#paint0_radial_75_2355)"/>
</g>
<defs>
<radialGradient id="paint0_radial_75_2355" cx="0" cy="0" r="1" gradientUnits="userSpaceOnUse" gradientTransform="translate(31.388 38.4524) rotate(-0.360053) scale(40.507 40.513)">
<stop stop-color="#B48CF9"/>
<stop offset="0.18" stop-color="#A77EEF"/>
<stop offset="0.46" stop-color="#986FE3"/>
<stop offset="0.68" stop-color="#936ADF"/>
<stop offset="0.75" stop-color="#976EE1"/>
<stop offset="0.83" stop-color="#A27CE6"/>
<stop offset="0.9" stop-color="#B492EF"/>
<stop offset="0.98" stop-color="#CDB0FC"/>
<stop offset="1" stop-color="#D4B8FF"/>
</radialGradient>
<clipPath id="clip0_75_2355">
<rect width="70" height="70" fill="white"/>
</clipPath>
</defs>
</svg>
