<svg width="192" height="194" viewBox="0 0 192 194" fill="none" xmlns="http://www.w3.org/2000/svg">
<g opacity="0.42" filter="url(#filter0_f_75_2311)">
<path d="M85.027 175.079C85.383 175.155 87.5195 175.61 90.8026 175.73L91.6334 175.907C92.029 175.991 92.4642 176.084 92.8598 176.168C103.24 176.698 113.624 175.182 123.422 171.708L126.571 170.516C131.479 168.475 136.172 165.953 140.583 162.985C142.78 161.539 144.895 159.972 146.918 158.291C148.217 157.242 149.444 156.138 150.689 154.954L150.731 154.756L151.35 154.184L153.768 151.76L154.999 150.449L155.546 149.82L156.037 149.262L156.376 148.838C158.73 146.127 160.89 143.253 162.84 140.238L164.804 138.007L165.168 137.463L165.295 136.869L165.822 135.946L165.881 135.669L166.016 135.036L166.439 134.215L166.837 133.513L166.929 133.077L167.039 132.563L167.454 131.782L167.606 131.069L167.749 130.395L167.842 129.96L168.208 129.21L168.335 128.616L168.495 127.863L168.622 127.269L168.799 126.438L168.892 126.002L168.993 125.527L169.128 124.893L169.212 124.497L169.364 123.785L169.491 123.19L169.566 122.834L169.685 122.28L169.794 121.765L169.98 120.894L170.149 120.102L170.216 119.785L170.376 119.032L170.604 117.963L170.764 117.211L171.515 113.686C171.853 112.102 172.182 110.558 172.511 109.013L172.721 108.023L172.949 106.954L173.017 106.637L173.337 105.132L173.455 104.578L173.657 102.468L173.859 101.517L173.901 101.319L173.976 99.8035L174.212 98.6947L174.278 96.6387C174.284 94.2803 174.203 91.9446 173.994 89.6232C173.925 88.2009 173.774 86.9682 173.572 85.3933C172.683 78.8927 170.997 72.5269 168.552 66.4398L167.821 64.6281L167.863 64.4301C167.384 63.376 166.946 62.3303 166.419 61.3074L166.47 61.0698L166.068 60.2389L165.184 58.5604L164.681 57.6252L163.687 55.8818L163.438 55.4976C161.698 52.6015 160.325 50.6946 160.325 50.6946C159.686 49.8132 158.976 48.8754 158.257 47.9771L156.704 45.9489C155.556 44.5451 154.249 43.1076 152.659 41.4443C151.947 40.7129 151.124 39.9166 150.253 39.1515L148.112 37.1637L145.576 35.0917C144.727 34.4142 143.91 33.7847 143.172 33.1721C141.454 31.8411 139.658 30.6151 137.792 29.5007C135.997 28.4145 134.123 27.3115 132.183 26.3188C130.047 25.1829 127.845 24.1747 125.589 23.2995C117.683 20.1132 109.312 18.2323 100.803 17.7299C96.6498 17.4774 92.4833 17.5589 88.3433 17.9737C84.1923 18.3597 80.0803 19.09 76.0498 20.1573C74.0443 20.6409 72.5869 21.0756 70.9375 21.635C69.2881 22.1944 66.9044 23.0942 64.8937 23.9907L64.1284 24.283C61.8057 25.2336 59.5515 26.3442 57.3821 27.6068C55.9506 28.5024 54.0248 29.5825 52.5822 30.7242C51.1397 31.8659 49.3975 32.8609 48.0593 33.9006C46.5772 35.0339 45.9364 35.5183 44.7169 36.5833C43.4975 37.6483 41.6203 39.277 40.2062 40.6731L38.8402 42.0381L37.3923 43.5926L36.5062 44.6459L36.4556 44.8835L35.1914 46.3529L34.8612 46.738C33.2104 48.7284 31.664 50.8034 30.2284 52.9545L28.8292 55.0576L28.3835 55.7906L27.6219 57.0359L27.0945 57.9585L27.027 58.2754L26.9174 58.7902L26.4548 59.6024L26.0319 60.4231C24.4718 63.3782 23.1156 66.4367 21.9727 69.577L21.9052 69.8937L21.7196 70.765L21.5594 71.5174L21.1966 73.2203L20.4504 75.7523L19.9359 78.168L19.0923 82.1282C18.8561 83.237 18.5439 84.7023 18.3162 85.7715C18.0558 88.1586 17.7455 91.363 17.6181 93.9026C17.4907 96.4422 17.5151 98.2689 17.6498 100.161L17.7502 101.631L18.1331 105.852L18.3437 107.388L18.9011 110.984L19.0203 111.589C19.279 113.169 19.622 114.735 20.0479 116.279L20.5782 118.255C21.0716 120.016 21.7491 122.271 22.3949 123.899C22.9473 125.383 23.5789 126.884 24.202 128.424L24.6268 129.343L25.4308 131.004L26.065 132.298L27.3106 134.799C27.8145 135.735 28.7683 137.47 30.3305 140.038L30.5283 140.08C31.479 141.442 32.5542 142.996 33.918 144.942C36.1817 147.923 38.6857 150.713 41.405 153.285L44.1112 155.724L45.3357 156.772C45.9323 157.271 46.529 157.771 47.0634 158.175L47.5977 158.578C48.5167 159.312 49.4836 160.015 50.5213 160.774C51.8144 161.736 53.1563 162.629 54.5415 163.452C56.7256 164.831 58.985 166.086 61.3091 167.212C62.7138 167.959 64.1596 168.627 65.6395 169.211C67.1546 169.865 68.726 170.448 70.337 171.039L71.4448 171.275C73.6097 171.985 75.9101 172.641 78.2754 173.186L78.7106 173.279C81.1245 174.372 83.0631 174.785 85.027 175.079Z" fill="url(#paint0_radial_75_2311)"/>
<path d="M82.9109 57.8427C115.203 34.0035 149.132 31.7921 162.855 51.4404L162.153 50.463C161.522 49.542 160.843 48.6521 160.125 47.7539C159.406 46.8557 159.477 46.9121 159.157 46.4714C158.031 45.1552 156.592 43.5652 153.987 40.6505L153.571 40.2722C153.164 39.8543 152.717 39.4279 152.23 38.9931L149.258 36.2486L147.451 34.8288C131.36 22.4175 101.744 26.7069 73.289 47.6789C42.3439 70.4388 23.1135 105.381 25.7557 131.032L26.3899 132.326L27.6355 134.827C28.1394 135.762 29.0932 137.497 30.6554 140.066L30.8532 140.108C31.8039 141.469 32.8791 143.023 34.2428 144.97C34.984 145.956 36.093 147.351 37.5242 148.981C28.6978 123.627 48.2842 83.1303 82.9109 57.8427Z" fill="url(#paint1_linear_75_2311)"/>
</g>
<defs>
<filter id="filter0_f_75_2311" x="0.53455" y="0.58667" width="190.744" height="192.685" filterUnits="userSpaceOnUse" color-interpolation-filters="sRGB">
<feFlood flood-opacity="0" result="BackgroundImageFix"/>
<feBlend mode="normal" in="SourceGraphic" in2="BackgroundImageFix" result="shape"/>
<feGaussianBlur stdDeviation="8.5" result="effect1_foregroundBlur_75_2311"/>
</filter>
<radialGradient id="paint0_radial_75_2311" cx="0" cy="0" r="1" gradientUnits="userSpaceOnUse" gradientTransform="translate(84.6207 85.9892) rotate(101.666) scale(95.8001 95.7055)">
<stop offset="0.71" stop-color="#90B3E8"/>
<stop offset="0.76" stop-color="#9BBBEB"/>
<stop offset="0.86" stop-color="#B7CFF1"/>
<stop offset="0.98" stop-color="#E4F0FC"/>
<stop offset="1" stop-color="#ECF5FE"/>
</radialGradient>
<linearGradient id="paint1_linear_75_2311" x1="107.343" y1="23.1387" x2="78.602" y2="158.062" gradientUnits="userSpaceOnUse">
<stop stop-color="#ECF5FE"/>
<stop offset="0.3" stop-color="#E4F0FD"/>
<stop offset="0.76" stop-color="#CFE4FB"/>
<stop offset="1" stop-color="#C1DCF9"/>
</linearGradient>
</defs>
</svg>
