<svg width="92" height="92" viewBox="0 0 92 92" fill="none" xmlns="http://www.w3.org/2000/svg">
<path d="M91.8181 43.1312V43.0189C91.8181 42.8085 91.7482 41.5389 91.4894 39.659C91.4894 39.4907 91.4474 39.3294 91.4194 39.161C91.3915 38.9927 91.3495 38.677 91.3075 38.4596C90.3601 32.4924 88.247 26.7715 85.0894 21.6252V21.5901C84.7467 21.036 84.39 20.4959 84.0333 19.9558C82.2972 17.3802 80.3052 14.9878 78.088 12.8152C77.004 11.7409 75.8622 10.727 74.6676 9.77798C73.9192 9.17475 73.1498 8.6066 72.3595 8.05246L72.2476 7.96127L72.1426 7.89815L71.737 7.61758C71.2334 7.26686 70.6808 6.91614 70.0863 6.53736L70.0233 6.49528L69.121 5.95518L68.6944 5.7167L68.3376 5.51328L68.0509 5.35194C66.2237 4.35271 64.3335 3.47405 62.3923 2.72156L61.2662 2.30072L60.9165 2.18147L60.5738 2.05522H60.5178H60.4409L59.8743 1.87284H59.7904H59.7134L59.3218 1.75358L58.8042 1.59929L58.3565 1.47301L58.1047 1.40287H58.0348H57.9439L57.797 1.3678L57.3003 1.23453L56.8877 1.12932L56.489 1.03111L56.2372 0.967981L55.7616 0.862771L55.4189 0.785623L54.9642 0.694434H54.8803L54.5305 0.631307L54.3277 0.589223L54.0759 0.547139H54.0339H53.95H53.8031L53.4324 0.483991L53.1946 0.441906L52.7819 0.37878L52.4252 0.322675H52.2084L51.8866 0.28059L51.5789 0.238506L51.0683 0.175358L50.5927 0.126274H50.4388H50.4038L49.9701 0.08419L49.3196 0.0350845L48.879 0H48.3824H47.8648H47.5501H47.2633H46.7947C45.8714 0 44.9481 0 43.9969 0H43.4023L42.7868 0.0350845H42.4231L41.5348 0.112232H41.227L40.003 0.252527L39.4364 0.329675H39.3176L38.4502 0.462949L37.7928 0.57518L36.6316 0.799644C35.3027 1.0732 33.9878 1.4099 32.6868 1.79569C31.9034 2.02015 31.2179 2.2446 30.3646 2.56025C26.7908 3.84431 23.389 5.56652 20.2366 7.68773L19.2993 8.33303L19.1735 8.42422C18.6349 8.81001 18.1033 9.20282 17.5787 9.61667L17.4528 9.71486L17.4038 9.74994V9.785C17.38 9.79733 17.3587 9.81398 17.3409 9.83411C17.322 9.84166 17.3052 9.85369 17.2919 9.86917L16.8583 10.2129L16.0259 10.9143L15.5713 11.3071C15.2635 11.5807 14.9698 11.8402 14.697 12.0927L14.655 12.1278V12.1629L14.4661 12.3452C13.0672 13.678 12.165 14.653 12.116 14.7161C11.6753 15.1931 11.2347 15.6981 10.808 16.2101C10.5003 16.5749 10.1855 16.9466 9.8638 17.3535L9.79383 17.4376L9.74486 17.5008C9.10836 18.3074 8.4369 19.2193 7.69548 20.3065L7.66052 20.3486C7.32478 20.8536 6.96109 21.4218 6.63235 22.011C6.30361 22.6002 6.03779 23.021 5.772 23.4559L4.91869 25.1604C4.63192 25.7076 4.35913 26.2477 4.12131 26.7387C3.59021 27.8807 3.12318 29.0515 2.72242 30.2458C2.32373 31.3962 1.93902 32.6167 1.61028 33.8021V33.8442C1.61028 33.8442 1.61028 33.8792 1.61028 33.8933C1.22314 35.2433 0.919476 36.6161 0.701001 38.0037C0.248401 40.4611 0.0143322 42.954 0.00155297 45.4529C-0.0584263 52.7781 1.6198 60.0125 4.89769 66.559C5.33655 67.4915 5.82454 68.4 6.35956 69.2806C6.98906 70.3561 7.67452 71.4129 8.41593 72.4511L8.67473 72.8369C9.4936 74.044 10.3982 75.1903 11.3816 76.2669C12.0391 76.9683 12.8994 77.9503 13.5918 78.6377C14.2843 79.3251 15.1936 80.2019 15.942 80.8332C16.7604 81.5346 17.1031 81.8292 17.8655 82.4044C18.8027 83.1479 19.747 83.8073 20.7122 84.4666L21.6495 85.0699C22.0202 85.3013 22.3909 85.5188 22.7127 85.7081L23.4121 86.1009L23.538 86.1711L24.5382 86.7112L24.79 86.8375C26.1169 87.5344 27.4779 88.1642 28.8678 88.7243L30.2177 89.2504L30.6863 89.4258L31.5047 89.7063C31.6726 89.7695 31.8964 89.8396 32.0713 89.8957L32.2741 89.9588H32.3161L32.6238 90.05L33.1344 90.2114L33.645 90.3517H33.687C35.5534 90.8829 37.4531 91.2883 39.3735 91.5651H39.5484L40.059 91.6353H40.1079L40.5556 91.6984L41.5628 91.8036C42.0244 91.8527 42.6329 91.8948 43.0876 91.9299C43.5422 91.965 44.0248 91.986 44.4865 92H45.1859C45.8224 92 46.6688 92 47.2843 92C47.8998 92 48.8021 91.9158 49.4455 91.8878C50.8444 91.7545 52.663 91.5301 54.0339 91.3056C55.212 91.1051 56.3792 90.8453 57.5312 90.527L58.3565 90.2885L60.7346 89.5871L61.567 89.2714C62.2664 89.033 62.889 88.7874 63.5394 88.5209L63.8682 88.3946C64.6376 88.1 65.5608 87.6511 66.3932 87.2303L67.4563 86.6902C68.4761 86.169 69.4683 85.5954 70.429 84.9716L70.5199 84.9085C71.3033 84.4105 72.0797 83.8844 72.8351 83.3303L73.3247 82.9936L74.1501 82.3343C74.3739 82.1589 74.5977 81.9836 74.8495 81.8012L76.1085 80.7981C77.0262 80.0352 77.8974 79.2177 78.7175 78.3501L78.7804 78.294L78.9063 78.1537C79.5638 77.4523 80.3052 76.6597 81.1795 75.6566L81.2425 75.5935C82.6559 73.9452 83.9353 72.186 85.0684 70.3327V70.2696C85.4252 69.6944 85.7679 69.0842 86.1456 68.4389C86.2995 68.1653 86.4533 67.8847 86.6002 67.5972C86.8171 67.1973 87.0199 66.8115 87.1878 66.4538L87.3556 66.1031C87.6494 65.4858 87.9432 64.8475 88.23 64.1882C88.6286 63.2833 89.0063 62.3644 89.2721 61.5578C89.7841 60.1476 90.2253 58.7125 90.5941 57.258C90.8389 56.3321 91.0557 55.4062 91.1956 54.5505C91.3355 53.6947 91.5244 52.6496 91.6503 51.6676C91.6852 51.4431 91.7062 51.2257 91.7342 51.0082C91.8834 49.6755 91.972 48.3007 92 46.8838C92 46.8347 92 46.7856 92 46.7365V46.6383C91.9021 45.4389 91.8881 44.2955 91.8181 43.1312Z" fill="url(#paint0_radial_75_2374)"/>
<defs>
<radialGradient id="paint0_radial_75_2374" cx="0" cy="0" r="1" gradientUnits="userSpaceOnUse" gradientTransform="translate(41.4378 54.1622) rotate(-0.361022) scale(55.4313 55.5886)">
<stop offset="0.71" stop-color="#90B3E8"/>
<stop offset="0.76" stop-color="#9BBBEB"/>
<stop offset="0.86" stop-color="#B7CFF1"/>
<stop offset="0.98" stop-color="#E4F0FC"/>
<stop offset="1" stop-color="#ECF5FE"/>
</radialGradient>
</defs>
</svg>
