<svg width="273" height="221" viewBox="0 0 273 221" fill="none" xmlns="http://www.w3.org/2000/svg">
<path d="M57.0472 70.4042C58.1261 69.1941 59.2574 68.0105 60.3889 66.853L61.3888 65.8797C62.3098 64.9854 63.2307 64.091 64.2043 63.2492L64.8095 62.6705C64.886 62.6168 64.9566 62.5551 65.02 62.4864C66.7304 60.987 68.4671 59.5402 70.2827 58.1198L71.0721 57.4884C72.8614 56.0943 74.7297 54.858 76.6243 53.4638L77.0716 53.1219L77.5715 52.8062C79.2292 51.6751 80.9396 50.5966 82.6763 49.5444L83.5709 49.0183C85.2812 47.9924 86.9916 47.0191 88.8335 46.0458L89.2019 45.8354H89.3335C91.2017 44.8358 93.07 43.8888 94.9909 42.9944L96.1223 42.4421C98.0169 41.5477 99.9114 40.7059 101.832 39.8116L102.174 39.68L102.727 39.4696C104.964 38.5226 107.226 37.6545 109.542 36.8391L110.042 36.6549C112.41 35.8132 114.778 35.0503 117.173 34.3138H117.331C118.962 33.814 120.594 33.3668 122.251 32.946L123.672 32.5777L127.277 31.7359L128.856 31.3939L132.856 30.5785L133.856 30.3944C135.487 30.105 137.118 29.8683 138.776 29.6315H139.118L140.46 29.4737C141.355 29.3422 142.223 29.237 143.091 29.158L144.933 28.9739L147.565 28.7635L149.433 28.632H151.906H153.775H158.064H160.537H162.3C163.142 28.632 163.984 28.632 164.932 28.7898L166.589 28.9213L169.221 29.237L170.589 29.3948C171.852 29.5789 173.22 29.763 174.352 29.9998H174.588C175.852 30.2102 177.22 30.4733 178.351 30.7627L181.877 31.657L182.982 31.999L185.219 32.6829L186.508 33.1564L188.403 33.8403L189.692 34.3927L191.403 35.103H191.666L192.008 35.2871C193.639 36.0499 195.192 36.8654 196.665 37.7072H196.823C198.261 38.5658 199.649 39.5055 200.981 40.5218H201.138C202.241 41.3369 203.295 42.2152 204.296 43.1523L204.849 43.6521C205.774 44.5535 206.652 45.5017 207.48 46.493L207.691 46.7297L207.927 47.0454C208.755 48.0832 209.528 49.1631 210.243 50.2809L210.427 50.6229C211.108 51.7345 211.723 52.8851 212.269 54.0688V54.2529C212.611 55.0421 212.927 55.8313 213.216 56.6467L229.978 104.706C229.688 103.917 229.373 103.101 229.031 102.312C228.976 102.23 228.932 102.142 228.899 102.049C228.353 100.865 227.738 99.7146 227.057 98.6031C227.057 98.6031 226.926 98.3663 226.873 98.2611C226.158 97.1433 225.385 96.0634 224.557 95.0256L224.11 94.4732C223.282 93.4819 222.404 92.5337 221.479 91.6323L220.926 91.1325C219.925 90.1954 218.871 89.3171 217.768 88.502L217.532 88.3178C216.194 87.3192 214.806 86.3886 213.374 85.5295H213.216C211.743 84.6615 210.19 83.8723 208.559 83.1095L207.954 82.8201L206.243 82.0836L204.954 81.5575L203.059 80.8736L201.77 80.4001L199.533 79.7161L198.428 79.3742L194.902 78.4798C193.665 78.1905 192.271 77.9274 191.166 77.7169H190.903C189.666 77.4802 188.271 77.2961 187.14 77.1119L185.772 76.9541L183.14 76.6385H181.483C180.667 76.6385 179.825 76.5069 178.851 76.4806C177.878 76.4543 177.667 76.4806 177.088 76.4806H174.615H170.431H168.563H166.089L164.221 76.6121L161.59 76.8226L159.774 77.0067L157.143 77.3224L155.485 77.5328C153.854 77.7696 152.196 78.0063 150.564 78.2957L149.591 78.4798L145.565 79.269L143.986 79.6372L140.381 80.479L138.96 80.8472C137.303 81.2681 135.671 81.7153 134.04 82.2151H133.856C131.435 82.9253 129.067 83.7145 126.698 84.5562L126.198 84.7404C123.909 85.5558 121.62 86.4239 119.383 87.3709L118.489 87.7128C116.568 88.5283 114.673 89.37 112.779 90.3433L111.647 90.8957C109.726 91.7901 107.858 92.7371 105.99 93.7367L105.49 93.9997C103.753 94.9467 102.016 95.9463 100.227 96.9722L99.3326 97.4983C97.596 98.5505 95.8856 99.629 94.2278 100.76L93.2804 101.418C91.3859 102.707 89.5177 104.048 87.7284 105.442L86.939 106.047C85.1497 107.468 83.3867 108.941 81.6764 110.44L80.8607 111.203C79.8871 112.071 78.9661 112.966 78.0451 113.834L77.0452 114.807C75.9137 115.964 74.7822 117.148 73.7034 118.358C59.31 134.483 54.9684 151.029 59.6522 164.444L42.8907 116.385C38.3122 103.075 42.6539 86.608 57.0472 70.4042Z" fill="url(#paint0_linear_75_2365)"/>
<path d="M232.872 110.966C192.139 156.632 112.2 182.831 54.3632 169.469C-3.47337 156.106 -17.3668 108.283 23.3661 62.6179C64.099 16.9526 144.039 -9.24718 201.875 4.11573C259.712 17.4786 273.579 65.301 232.872 110.966ZM78.0714 142.901C117.331 151.949 171.562 134.194 199.112 103.206C226.662 72.2192 217.347 39.7326 178.062 30.6837C138.776 21.6348 84.5708 39.417 57.0208 70.4042C29.4708 101.391 38.7857 133.825 78.0714 142.901Z" fill="url(#paint1_linear_75_2365)"/>
<g style="mix-blend-mode:overlay" opacity="0.8">
<path style="mix-blend-mode:overlay" opacity="0.8" d="M55.6789 69.1678C41.575 84.9507 36.3387 101.681 40.9435 116.201C45.3905 130.143 58.4154 140.244 77.6504 144.689C85.0082 146.338 92.529 147.15 100.069 147.109C136.908 147.109 178.167 129.564 200.586 104.443C214.69 88.6597 219.926 71.9035 215.295 57.3832C210.874 43.4416 197.823 33.3405 178.456 28.8949C171.108 27.2424 163.596 26.4305 156.064 26.4749C119.436 26.4749 78.0978 44.0466 55.6789 69.1678ZM57.0472 70.4041C84.7024 39.4169 138.934 21.6348 178.088 30.6837C217.242 39.7326 226.741 72.2192 199.139 103.206C171.536 134.194 117.252 151.949 78.0978 142.901C38.9437 133.852 29.4183 101.391 57.0472 70.4041Z" fill="url(#paint2_linear_75_2365)"/>
<path style="mix-blend-mode:overlay" opacity="0.8" d="M54.3633 169.469C112.252 182.831 192.14 156.632 232.872 110.966C273.605 65.301 259.738 17.4786 201.875 4.11573C144.013 -9.24718 64.1254 16.9526 23.3662 62.6179C-17.3931 108.283 -3.49957 156.132 54.3633 169.469ZM3.99966 128.696C-2.28921 108.888 5.07854 85.8189 24.7609 63.7754C56.9946 27.6324 116.515 2.40592 169.484 2.40592C180.244 2.33339 190.978 3.48057 201.481 5.82553C228.189 12.0072 246.213 25.8173 252.239 44.7569C258.554 64.5645 251.16 87.6076 231.504 109.677C199.244 145.794 139.75 171.047 86.7812 171.047C76.0282 171.113 65.3024 169.957 54.8105 167.601C28.05 161.525 10.0254 147.688 3.99966 128.696Z" fill="url(#paint3_linear_75_2365)"/>
</g>
<path d="M2.55239 130.564C2.9734 131.747 3.44712 132.905 3.94707 134.062C4.39378 135.113 4.89426 136.14 5.44678 137.14L5.68367 137.587C6.15731 138.455 6.65728 139.323 7.18355 140.218C7.39406 140.559 7.6309 140.875 7.86772 141.217L9.15704 143.111L10.0254 144.216L11.3936 145.952L12.3147 147.004C12.8146 147.557 13.3145 148.109 13.8407 148.635L14.8406 149.661C15.3932 150.213 15.9722 150.739 16.5511 151.266L17.5773 152.186C18.2615 152.791 18.9983 153.37 19.735 153.949L20.498 154.58C21.3927 155.264 22.3137 155.922 23.1294 156.579L23.6557 156.947C24.7871 157.71 25.9448 158.421 27.1552 159.157L28.313 159.788C29.155 160.262 30.0234 160.762 30.9443 161.209C31.418 161.472 31.9443 161.709 32.4705 161.972L34.8651 163.129L37.4965 164.208L39.3909 164.997C40.3119 165.365 41.2592 165.681 42.2065 166.023L44.101 166.68C45.1535 167.049 46.285 167.364 47.3901 167.706L49.0215 168.206C50.7319 168.679 52.4422 169.127 54.2842 169.521C56.1261 169.916 57.9418 170.337 59.7837 170.679H60.1258C61.9677 171.021 63.8096 171.31 65.7042 171.573L67.7304 171.81L71.7299 172.257L74.1245 172.441C75.3612 172.441 76.5979 172.652 77.8609 172.704H80.4922C81.6763 172.704 82.8867 172.704 84.1235 172.704H90.4387H93.07L96.7538 172.52L99.3851 172.336L103.148 172.02L105.779 171.757L109.726 171.31L112.2 170.994C114.62 170.652 117.041 170.258 119.462 169.837L120.883 169.574C122.865 169.206 124.839 168.811 126.803 168.39L129.119 167.89C130.908 167.496 132.671 167.075 134.382 166.628L136.487 166.102C138.908 165.47 141.302 164.786 143.723 164.076L149.565 162.261L150.959 161.788L155.406 160.262L157.564 159.446L161.169 158.105L163.537 157.158L166.642 155.895C169.484 154.685 172.273 153.449 175.036 152.134L176.746 151.344C179.535 150.003 182.324 148.714 185.035 147.136L185.798 146.741C188.429 145.321 191.06 143.874 193.455 142.375L194.718 141.612C197.349 140.06 199.823 138.455 202.27 136.772L204.507 135.272L206.743 133.694L209.374 131.774L211.559 130.143L214.19 128.17L216.269 126.486L218.742 124.408L220.689 122.725L222.137 121.409C223.557 120.121 224.926 118.779 226.268 117.49L227.741 116.043C229.425 114.333 231.083 112.597 232.662 110.782C252.555 88.502 259.422 65.6956 254.528 46.6245C254.186 45.3619 253.818 43.994 253.37 42.8629L270.132 90.9221C277.052 110.703 270.632 135.062 249.423 158.841C247.845 160.604 246.187 162.34 244.503 164.102L243.029 165.549C241.687 166.864 240.398 168.18 238.898 169.469L238.003 170.31L237.477 170.758L235.504 172.467L233.056 174.545L230.951 176.229L228.32 178.202L226.136 179.833C225.268 180.49 224.426 181.122 223.505 181.753L221.268 183.331L219.742 184.384L219.032 184.831C216.584 186.488 214.058 188.119 211.48 189.671L210.217 190.434C207.585 191.933 205.164 193.38 202.559 194.8L202.007 195.09H201.796C199.165 196.563 196.297 197.957 193.508 199.298L191.824 200.088C189.034 201.403 186.245 202.718 183.403 203.849L182.903 204.06L180.272 205.112L177.904 206.059C176.694 206.532 175.483 206.953 174.273 207.4L172.141 208.216L167.694 209.741L166.3 210.215C164.405 210.846 162.484 211.425 160.537 212.004C158.116 212.714 155.722 213.398 153.301 214.029L151.196 214.555C149.407 215.003 147.644 215.423 145.933 215.818L143.618 216.318L137.724 217.501L136.276 217.764C133.856 218.185 131.435 218.58 129.014 218.922H128.514L126.54 219.132L122.593 219.606L119.962 219.869L116.199 220.185L113.568 220.369L109.884 220.527H107.253H100.938C99.7273 220.527 98.5168 220.527 97.3064 220.527H94.6751C93.4121 220.527 92.1754 220.369 90.9387 220.263L88.5441 220.079L84.5444 219.632L82.5184 219.395C80.6502 219.132 78.7819 218.817 76.94 218.501H76.6243C74.7823 218.159 72.9403 217.765 71.1247 217.344C69.3091 216.923 67.6251 216.502 65.8621 216.028L64.2043 215.529C63.0992 215.187 61.9677 214.871 60.9152 214.503L59.0207 213.845C58.0734 213.503 57.1261 213.187 56.2052 212.819L54.3105 212.03L51.6792 210.951L51.2846 210.794L49.2584 209.794L47.7322 209.031C46.8376 208.584 45.9692 208.084 45.1009 207.611L43.9431 206.979C42.7327 206.243 41.575 205.506 40.4435 204.77C40.2833 204.639 40.1164 204.516 39.9436 204.402C39.0489 203.797 38.1543 203.165 37.3123 202.508H37.1544L36.3912 201.876C35.6544 201.298 34.9176 200.719 34.2335 200.114L33.2074 199.193C32.6285 198.667 32.0495 198.141 31.497 197.589L30.4971 196.563C29.9708 196.037 29.4708 195.484 28.9708 194.932L28.0499 193.88L27.55 193.275C27.2342 192.906 26.971 192.538 26.6816 192.143L25.8134 191.039L24.5239 189.145C24.2871 188.803 24.0504 188.487 23.8399 188.145C23.3136 187.277 22.8136 186.435 22.34 185.515L22.1031 185.067C21.5769 184.12 21.1032 183.147 20.6559 182.148C20.6559 182.148 20.6559 182.148 20.6559 181.99C20.156 180.832 19.6823 179.675 19.2612 178.465L2.55239 130.564Z" fill="url(#paint4_linear_75_2365)"/>
<defs>
<linearGradient id="paint0_linear_75_2365" x1="185.798" y1="56.4626" x2="52.023" y2="150.595" gradientUnits="userSpaceOnUse">
<stop offset="0.35" stop-color="#A581E7"/>
<stop offset="0.59" stop-color="#9B73E4"/>
<stop offset="0.67" stop-color="#8F6AD6"/>
<stop offset="0.82" stop-color="#6F52B2"/>
<stop offset="1" stop-color="#433281"/>
</linearGradient>
<linearGradient id="paint1_linear_75_2365" x1="111.147" y1="1.45893" x2="144.308" y2="168.131" gradientUnits="userSpaceOnUse">
<stop stop-color="#EDE1FF"/>
<stop offset="0.86" stop-color="#C7A2FF"/>
</linearGradient>
<linearGradient id="paint2_linear_75_2365" x1="129.172" y1="-2.53948" x2="127.463" y2="144.058" gradientUnits="userSpaceOnUse">
<stop offset="0.04" stop-color="#EBE2FD"/>
<stop offset="0.12" stop-color="#E9DEFD" stop-opacity="0.97"/>
<stop offset="0.25" stop-color="#E2D5FC" stop-opacity="0.88"/>
<stop offset="0.4" stop-color="#D7C5FA" stop-opacity="0.75"/>
<stop offset="0.58" stop-color="#C7AFF8" stop-opacity="0.55"/>
<stop offset="0.78" stop-color="#B492F5" stop-opacity="0.31"/>
<stop offset="0.99" stop-color="#9C70F1" stop-opacity="0.01"/>
<stop offset="1" stop-color="#9B6FF1" stop-opacity="0"/>
</linearGradient>
<linearGradient id="paint3_linear_75_2365" x1="79.624" y1="12.2177" x2="159.528" y2="135.164" gradientUnits="userSpaceOnUse">
<stop offset="0.04" stop-color="#EBE2FD"/>
<stop offset="0.12" stop-color="#E9DEFD" stop-opacity="0.97"/>
<stop offset="0.25" stop-color="#E2D5FC" stop-opacity="0.88"/>
<stop offset="0.4" stop-color="#D7C5FA" stop-opacity="0.75"/>
<stop offset="0.58" stop-color="#C7AFF8" stop-opacity="0.55"/>
<stop offset="0.78" stop-color="#B492F5" stop-opacity="0.31"/>
<stop offset="0.99" stop-color="#9C70F1" stop-opacity="0.01"/>
<stop offset="1" stop-color="#9B6FF1" stop-opacity="0"/>
</linearGradient>
<linearGradient id="paint4_linear_75_2365" x1="278" y1="102.312" x2="24.8574" y2="191.694" gradientUnits="userSpaceOnUse">
<stop stop-color="#D7BDFF"/>
<stop offset="0.02" stop-color="#C6A8F7"/>
<stop offset="0.06" stop-color="#B390EF"/>
<stop offset="0.09" stop-color="#A67FE9"/>
<stop offset="0.13" stop-color="#9E75E5"/>
<stop offset="0.18" stop-color="#9B72E4"/>
<stop offset="0.27" stop-color="#8C68D4"/>
<stop offset="0.41" stop-color="#7C5DC3"/>
<stop offset="0.51" stop-color="#7759BD"/>
<stop offset="0.63" stop-color="#8562CC"/>
<stop offset="0.79" stop-color="#9B72E4"/>
<stop offset="0.84" stop-color="#9F77E6"/>
<stop offset="0.9" stop-color="#AB84EC"/>
<stop offset="0.96" stop-color="#BE9BF6"/>
<stop offset="1" stop-color="#CEAEFF"/>
</linearGradient>
</defs>
</svg>
