<svg width="247" height="246" viewBox="0 0 247 246" fill="none" xmlns="http://www.w3.org/2000/svg">
<g opacity="0.42" filter="url(#filter0_f_75_2351)">
<path d="M190.589 164.839C190.805 164.546 192.099 162.786 193.559 159.843L194.063 159.159C194.302 158.833 194.566 158.475 194.806 158.149C199.56 148.906 202.453 138.819 203.319 128.459L203.529 125.099C203.688 119.786 203.321 114.47 202.432 109.229C202.019 106.632 201.461 104.059 200.761 101.523C200.34 99.9085 199.839 98.3348 199.272 96.7131L199.109 96.5932L198.842 95.7943L197.628 92.5922L196.94 90.9312L196.593 90.1735L196.286 89.4964L196.039 89.0131C194.537 85.7518 192.807 82.6004 190.861 79.5823L189.636 76.8739L189.291 76.3186L188.801 75.9588L188.177 75.0984L187.949 74.9305L187.427 74.5467L186.853 73.8234L186.377 73.1721L186.018 72.9083L185.594 72.5964L185.053 71.8972L184.466 71.4654L183.911 71.0576L183.553 70.7937L183.02 70.1511L182.531 69.7913L181.911 69.3355L181.422 68.9757L180.737 68.472L180.378 68.2081L179.986 67.9203L179.464 67.5365L179.138 67.2966L178.551 66.8648L178.062 66.505L177.768 66.2891L177.312 65.9533L176.887 65.6415L176.17 65.1138L175.517 64.634L175.256 64.4421L174.637 63.9864L173.756 63.3387L173.136 62.8829L170.233 60.7481C168.928 59.7886 167.656 58.8531 166.384 57.9176L165.568 57.3179L164.688 56.6702L164.427 56.4783L163.187 55.5668L162.73 55.231L160.89 54.1792L160.107 53.6035L159.944 53.4836L158.594 52.7916L157.68 52.1199L155.834 51.2138C153.687 50.2376 151.524 49.3505 149.323 48.5852C147.998 48.063 146.812 47.6932 145.294 47.2293C139.004 45.3639 132.508 44.2805 125.954 44.0036L124.002 43.924L123.839 43.8041C122.682 43.8064 121.548 43.7761 120.399 43.8349L120.203 43.691L119.28 43.7154L117.387 43.8295L116.327 43.9038L114.33 44.0917L113.877 44.1605C110.521 44.5548 108.219 45.0206 108.219 45.0206C107.152 45.2406 106.005 45.5017 104.891 45.7869L102.403 46.3676C100.651 46.8366 98.8031 47.4359 96.633 48.1999C95.6731 48.5485 94.6086 48.9707 93.5529 49.4496L90.8602 50.5826L87.9279 52.0414C86.9613 52.5356 86.0513 53.0213 85.1892 53.4418C83.2691 54.4597 81.4123 55.5925 79.6288 56.8341C77.9001 58.0231 76.1234 59.2774 74.4206 60.6361C72.506 62.1158 70.6808 63.7078 68.9548 65.4035C62.7969 71.2977 57.6374 78.1525 53.6774 85.7009C51.7381 89.3817 50.0976 93.2125 48.7717 97.1564C47.415 101.098 46.3882 105.147 45.7021 109.259C45.3174 111.286 45.1137 112.793 44.9447 114.527C44.7757 116.26 44.6148 118.803 44.6042 121.004L44.5557 121.822C44.466 124.33 44.5504 126.842 44.8083 129.338C45.0353 131.012 45.2272 133.211 45.6739 134.996C46.1207 136.781 46.3105 138.778 46.7074 140.425C47.1302 142.243 47.3079 143.026 47.7766 144.576C48.2454 146.125 48.9571 148.507 49.6475 150.37L50.3293 152.177L51.1502 154.136L51.7454 155.377L51.9411 155.521L52.76 157.278L52.975 157.737C54.1096 160.061 55.3643 162.324 56.7339 164.518L58.0747 166.659L58.5593 167.367L59.3808 168.573L60.0046 169.434L60.2656 169.626L60.6897 169.938L61.2395 170.693L61.8134 171.417C63.8645 174.055 66.0938 176.549 68.4854 178.883L68.7463 179.075L69.464 179.603L70.0837 180.059L71.4864 181.09L73.4869 182.812L75.4767 184.276L78.7388 186.674C79.6521 187.346 80.8591 188.234 81.7398 188.881C83.8082 190.101 86.6009 191.703 88.863 192.864C91.125 194.025 92.8 194.755 94.5794 195.411L95.9608 195.924L99.9656 197.313L101.451 197.753L104.958 198.725L105.559 198.865C107.106 199.28 108.674 199.612 110.256 199.859L112.275 200.189C114.083 200.464 116.418 200.775 118.167 200.856C119.747 200.964 121.375 201.006 123.035 201.072L124.047 201.063L125.892 201.014L127.333 200.968L130.125 200.862C131.184 200.788 133.158 200.633 136.142 200.266L136.262 200.103C137.894 199.797 139.752 199.457 142.088 199.015C145.736 198.179 149.31 197.045 152.773 195.625L156.11 194.163L157.568 193.478C158.269 193.14 158.97 192.802 159.558 192.481L160.146 192.16C161.193 191.624 162.231 191.032 163.35 190.399C164.759 189.616 166.126 188.761 167.446 187.837C169.601 186.414 171.675 184.872 173.658 183.217C174.917 182.244 176.12 181.201 177.262 180.093C178.481 178.982 179.659 177.789 180.861 176.565L181.532 175.652C183.07 173.971 184.614 172.144 186.085 170.213L186.348 169.855C188.339 168.105 189.513 166.508 190.589 164.839Z" fill="url(#paint0_radial_75_2351)"/>
<path d="M82.8716 118.516C74.4354 79.2748 86.3845 47.442 109.939 43.0223L108.76 43.2595C107.661 43.4555 106.57 43.7081 105.456 43.9932C104.341 44.2784 104.422 44.2372 103.889 44.3472C102.226 44.8315 100.184 45.4892 96.4557 46.6638L95.9399 46.8869C95.3913 47.0861 94.8188 47.3178 94.2224 47.5822L90.4979 49.1614L88.4602 50.2237C70.5262 59.7808 62.2462 88.5376 69.6484 123.102C77.6551 160.672 101.586 192.58 126.051 200.729L127.492 200.684L130.283 200.578C131.343 200.503 133.317 200.348 136.301 199.981L136.421 199.818C138.053 199.512 139.911 199.172 142.247 198.73C143.45 198.461 145.178 198.024 147.253 197.391C120.513 195 91.6667 160.482 82.8716 118.516Z" fill="url(#paint1_linear_75_2351)"/>
</g>
<defs>
<filter id="filter0_f_75_2351" x="27.521" y="26.0223" width="193.044" height="192.049" filterUnits="userSpaceOnUse" color-interpolation-filters="sRGB">
<feFlood flood-opacity="0" result="BackgroundImageFix"/>
<feBlend mode="normal" in="SourceGraphic" in2="BackgroundImageFix" result="shape"/>
<feGaussianBlur stdDeviation="8.5" result="effect1_foregroundBlur_75_2351"/>
</filter>
<radialGradient id="paint0_radial_75_2351" cx="0" cy="0" r="1" gradientUnits="userSpaceOnUse" gradientTransform="translate(109.227 128.542) rotate(35.9692) scale(95.8001 95.7055)">
<stop offset="0.71" stop-color="#90B3E8"/>
<stop offset="0.76" stop-color="#9BBBEB"/>
<stop offset="0.86" stop-color="#B7CFF1"/>
<stop offset="0.98" stop-color="#E4F0FC"/>
<stop offset="1" stop-color="#ECF5FE"/>
</radialGradient>
<linearGradient id="paint1_linear_75_2351" x1="61.2986" y1="81.9663" x2="172.436" y2="163.691" gradientUnits="userSpaceOnUse">
<stop stop-color="#ECF5FE"/>
<stop offset="0.3" stop-color="#E4F0FD"/>
<stop offset="0.76" stop-color="#CFE4FB"/>
<stop offset="1" stop-color="#C1DCF9"/>
</linearGradient>
</defs>
</svg>
