<svg width="320" height="288" viewBox="0 0 320 288" fill="none" xmlns="http://www.w3.org/2000/svg">
<path d="M174.288 157.361L174.873 156.875L178.866 153.652L180.471 152.377L182.924 150.461L184.931 148.949L186.999 147.378L189.77 145.322L191.129 144.31L195.311 141.328L195.993 140.926C197.155 140.1 198.328 139.292 199.512 138.5L200.772 137.64L203.713 135.672L205.27 134.755L208.059 132.971L209.669 132.023L212.52 130.343L218.52 126.809C220.077 125.892 221.616 124.985 223.21 124.211L224.172 123.644C225.817 122.675 227.519 121.884 229.165 121.079L229.585 120.832L232.51 119.438L233.14 119.067C234.321 118.513 235.478 117.996 236.627 117.507L239.688 116.222L240.512 115.902L242.684 115.069L243.767 114.667L245.589 114.041L246.692 113.673L248.385 113.147L249.464 112.818L251.089 112.378L252.101 112.135C252.673 111.986 253.221 111.876 253.768 111.765L254.619 111.57L256.749 111.186L257.056 111.146C257.812 111.03 258.572 110.96 259.268 110.902L259.93 110.866C260.411 110.842 260.909 110.807 261.382 110.811L262.138 110.813L263.369 110.864L264.11 110.922C264.486 110.96 264.854 111.025 265.195 111.083L265.904 111.207L266.905 111.465L267.526 111.64C267.852 111.754 268.189 111.886 268.508 112.027C268.827 112.169 268.827 112.169 268.969 112.25C269.418 112.464 269.849 112.714 270.258 112.997C270.873 113.429 271.429 113.941 271.909 114.52L209.689 39.6177C209.209 39.0388 208.654 38.5267 208.038 38.095C207.631 37.8156 207.206 37.5625 206.767 37.3372L206.299 37.1423L205.307 36.7381L204.685 36.5628L203.685 36.3047L202.993 36.1706L201.901 36.0371L201.15 35.9618L199.918 35.9106C199.681 35.9088 199.434 35.8895 199.163 35.9083C198.891 35.9271 198.209 35.9289 197.711 35.9633L197.066 35.9897C196.335 36.0676 195.593 36.1281 194.854 36.2338L194.547 36.2732L192.417 36.6571L191.566 36.8524L189.916 37.2121L188.898 37.4827L187.272 37.9226L186.183 38.2343L184.508 38.7504L183.387 39.1281L181.565 39.7544L180.344 40.0025L178.207 40.8143L177.348 41.1557L174.357 42.3994C173.208 42.8882 172.062 43.4222 170.87 43.9593L170.328 44.2788C169.321 44.7304 168.336 45.2169 167.332 45.7138L166.895 45.9714C165.266 46.7662 163.588 47.6371 161.902 48.5358L160.94 49.1026C159.436 49.9888 157.835 50.7907 156.25 51.7007L150.215 55.2558L147.346 56.9457L145.737 57.8937L142.947 59.6782L141.775 60.3687L141.39 60.5953L138.485 62.5425L137.313 63.2329L137.12 63.3463L133.636 65.7517L132.971 66.1433L128.807 69.1142L127.455 70.099L124.737 72.1241L124.597 72.2066L122.618 74.0077L120.673 75.5064L120.533 75.5888L118.22 77.4222L116.605 78.6798L116.517 78.7314C115.205 79.7559 113.911 80.8002 112.637 81.8645L112.052 82.3506C110.965 83.2261 109.907 84.1087 108.893 84.9882L108.701 85.1016L107.386 86.2293L105.099 88.1881L104.454 88.733L101.133 91.6546L100.87 91.8092C99.8569 92.6887 98.8887 93.5651 97.9308 94.4589C97.5809 94.665 97.3032 94.9934 97.0223 95.2766L96.9348 95.3281L92.6823 99.2691L92.2892 99.6419L91.5731 100.346C90.4152 101.421 89.2886 102.508 88.1932 103.608L87.0068 104.754C85.627 106.132 84.2473 107.51 82.9303 108.874L82.7204 108.998C81.2491 110.5 79.893 111.958 78.5369 113.416L78.0658 114.376L77.5071 114.988L75.8804 116.746L74.4503 118.319L72.8792 120.092L71.5715 121.592L70.0909 123.358L68.8357 124.827L67.4005 126.591L66.493 127.691L66.2924 127.95C65.2862 129.202 64.3324 130.423 63.4065 131.651L62.8396 132.409C62.0968 133.388 61.3714 134.356 60.6914 135.322L60.2829 135.868L59.8107 136.547L58.6512 138.218L57.7418 139.555L56.6625 141.202C56.4897 141.469 56.2819 141.756 56.1193 142.04L55.7911 142.563C55.5689 142.906 55.3467 143.249 55.1523 143.599C54.9578 143.949 54.4959 144.644 54.213 145.164L53.6091 146.179L53.2491 146.768L52.9908 147.249C52.4075 148.299 51.8592 149.328 51.3284 150.347L51.169 150.677C50.6381 151.696 50.1876 152.691 49.7443 153.658L49.627 153.939L49.4099 154.49L48.6313 156.409L48.4286 156.905C48.3971 157.045 48.3516 157.182 48.2929 157.314L47.7354 159.008L47.5565 159.584L47.4989 159.806L47.0485 161.602L46.958 162.008C46.8161 162.727 46.7092 163.426 46.627 164.086L46.6127 164.542C46.5634 165.018 46.5316 165.484 46.5276 165.957L46.5996 166.08C46.6717 166.202 46.6213 166.397 46.6337 166.578C46.6461 166.759 46.6586 167.34 46.7008 167.691L46.7091 167.946C46.7812 168.068 46.8429 168.173 46.7925 168.367C46.7421 168.562 46.9121 169.05 46.9965 169.353C47.0157 169.465 47.0415 169.576 47.0737 169.685C47.1187 169.783 47.1738 169.877 47.2384 169.964C47.3377 170.278 47.456 170.586 47.5926 170.885C47.6493 171.001 47.7147 171.112 47.7882 171.217L47.9015 171.41C48.0637 171.745 48.253 172.066 48.4677 172.371C48.5294 172.476 48.5912 172.58 48.653 172.685C48.7147 172.79 48.7353 172.825 48.7662 172.878L110.799 248.102C110.691 247.938 110.591 247.769 110.5 247.595C110.285 247.291 110.096 246.969 109.934 246.634L109.625 246.11C109.486 245.804 109.365 245.49 109.261 245.171C109.158 244.996 109.142 244.77 109.081 244.547C109.021 244.324 108.937 243.902 108.877 243.561C108.834 243.337 108.803 243.112 108.786 242.885C108.741 242.515 108.718 242.143 108.719 241.771C108.616 241.596 108.688 241.319 108.69 241.082C108.692 240.845 108.736 240.16 108.775 239.667C108.814 239.173 108.788 239.329 108.821 239.145C108.903 238.485 109.01 237.786 109.152 237.067L109.257 236.605C109.38 236.014 109.531 235.431 109.707 234.809L109.944 234.011L110.501 232.317L110.84 231.412C111.078 230.777 111.345 230.149 111.618 229.494L111.953 228.661C112.396 227.694 112.847 226.699 113.35 225.673C113.434 225.55 113.508 225.42 113.569 225.285C114.089 224.248 114.69 223.188 115.238 222.159L115.857 221.089L116.433 220.066L117.382 218.518L118.039 217.473L118.91 216.112L119.989 214.464L120.881 213.138L122.058 211.456L122.921 210.242L125.094 207.29L125.654 206.56C126.562 205.343 127.534 204.111 128.54 202.859L129.648 201.501L131.083 199.737L132.311 198.261L133.819 196.501L135.127 195.001L136.698 193.228L138.128 191.656L139.755 189.897L140.865 188.702C142.221 187.244 143.612 185.766 145.048 184.284L145.311 184.129C146.645 182.755 148.025 181.377 149.405 179.999L150.591 178.853C151.69 177.758 152.799 176.681 153.953 175.601L155.063 174.524L159.333 170.573L160.096 169.629L163.028 167.007L166.599 163.868L169.53 161.364L170.845 160.236L174.288 157.361Z" fill="url(#paint0_linear_75_2335)"/>
<path d="M99.2453 85.2103C151.978 39.5285 208.104 11.9271 224.588 23.5905C241.073 35.254 211.695 81.7021 158.882 127.408C106.069 173.113 49.988 200.711 33.5314 189.055C17.0748 177.399 46.4673 130.895 99.2453 85.2103ZM153.691 123.756C197.26 86.0385 221.557 47.6447 207.941 38.0107C194.325 28.3768 147.998 51.1714 104.439 88.9068C60.8801 126.642 36.5729 165.018 50.1888 174.652C63.8047 184.286 110.133 161.492 153.691 123.756Z" fill="url(#paint1_linear_75_2335)"/>
<path d="M99.4963 169.876C68.0093 188.424 43.5273 195.384 33.8699 188.55C32.5221 187.549 31.4305 186.243 30.6841 184.74C29.9376 183.236 29.5575 181.577 29.5748 179.899C28.6501 160.929 57.4544 122.187 99.6312 85.6656C117.976 69.647 137.709 55.2895 158.596 42.7626C190.083 24.2144 214.582 17.2443 224.24 24.0785C225.589 25.0789 226.681 26.3862 227.425 27.8922C228.169 29.3983 228.543 31.06 228.517 32.74C229.442 51.7096 200.638 90.4518 158.478 126.963C140.128 142.986 120.389 157.347 99.4963 169.876ZM152.909 52.8686C135.593 63.2451 119.239 75.1476 104.042 88.434C68.4096 119.264 45.0232 150.884 45.7971 167.117C45.7882 168.676 46.1489 170.214 46.8499 171.606C47.5509 172.997 48.5721 174.203 49.8297 175.123C58.1584 181.021 78.8741 175.268 105.218 159.749C122.531 149.37 138.887 137.474 154.095 124.201C189.132 93.8399 213.095 61.4802 212.302 45.4934C212.311 43.9387 211.954 42.4041 211.258 41.0143C210.562 39.6245 209.548 38.4187 208.297 37.495C199.951 31.6068 179.253 37.3499 152.909 52.8686Z" fill="url(#paint2_linear_75_2335)"/>
<path d="M290.069 102.268C290.033 102.188 289.988 102.112 289.935 102.041C289.732 101.636 289.501 101.245 289.245 100.87C289.173 100.748 289.101 100.626 289.019 100.486C288.983 100.406 288.938 100.329 288.885 100.259L226.683 25.3462C226.806 25.5559 226.93 25.7656 227.053 25.9753C227.306 26.3439 227.533 26.7292 227.733 27.1287C227.856 27.3384 227.98 27.5481 228.103 27.7578C228.276 28.1245 228.42 28.5035 228.536 28.8919L228.77 29.6487C228.86 30.0425 228.933 30.4467 229.007 30.8509L229.135 31.6695C229.174 32.0943 229.187 32.5571 229.201 33.02C229.214 33.4829 229.238 33.5631 229.239 33.8449C229.24 34.1267 229.17 34.9682 229.137 35.5525L229.09 36.1924C228.982 37.0092 228.857 37.8364 228.702 38.7746L228.576 39.3199C228.406 40.0318 228.247 40.7613 228.025 41.5042L227.735 42.4518L227.066 44.517L226.667 45.5995C226.365 46.3661 226.073 47.1502 225.7 47.9581C225.541 48.2874 225.409 48.6239 225.278 48.9604C224.749 50.1429 224.185 51.3459 223.569 52.5798C222.953 53.8138 222.655 54.3891 222.146 55.3246L221.74 56.0348L220.608 58.1138L219.891 59.3365L218.677 61.2757L217.89 62.5397L216.828 64.1773C216.419 64.8422 215.964 65.5103 215.527 66.168L214.427 67.7811L213.011 69.8161L211.957 71.3077L209.334 74.854L208.675 75.7362C207.549 77.2238 206.377 78.7144 205.139 80.1733L203.781 81.8678L202.068 83.9597L200.552 85.747L198.759 87.8627L197.156 89.7015L195.272 91.8234L193.599 93.7035L191.652 95.8389L190.321 97.2587C188.635 99.076 186.921 100.886 185.123 102.675L184.861 102.829C183.245 104.487 181.585 106.148 179.889 107.829L178.387 109.279L174.28 113.228L172.957 114.502C171.283 116.1 169.554 117.684 167.834 119.285L166.624 120.351L163.085 123.543L158.767 127.334L155.184 130.41L153.609 131.737L149.416 135.22L148.796 135.726L144.011 139.604L142.077 141.12L139.088 143.446L136.761 145.217L134.141 147.208L130.858 149.636L129.082 150.941L124.112 154.504L123.255 155.009L119.032 157.92L117.45 158.994L113.917 161.357L112.046 162.46L108.63 164.66L106.688 165.804L103.189 167.865L101.318 168.968C99.9357 169.782 98.5887 170.575 97.2418 171.369L95.9473 172.131C94.0406 173.254 92.1864 174.347 90.257 175.271L87.4735 176.746L86.4415 177.354C85.113 178.019 83.7949 178.701 82.4911 179.328C81.1874 179.955 80.0791 180.514 78.8176 181.092L78.1528 181.484C76.7163 182.165 75.3117 182.781 73.9246 183.386C72.5375 183.991 71.4406 184.449 70.1481 184.975L69.1387 185.381L66.5229 186.381L65.217 186.844L63.0139 187.624L61.6699 188.063L59.6736 188.674L58.6302 189.382L56.603 189.941L55.3784 190.262L53.2997 190.734L52.2604 190.969L49.7505 191.388L49.381 191.441C48.4539 191.587 47.5411 191.678 46.6633 191.748C46.4533 191.871 46.1374 191.775 45.8657 191.794L44.0967 191.871L43.1952 191.86L41.7267 191.807L40.8015 191.717C40.3528 191.675 39.9113 191.606 39.4976 191.543L38.6496 191.384C38.2256 191.304 37.8263 191.186 37.4094 191.078L36.6942 190.864C36.283 190.724 35.8799 190.56 35.4869 190.375C35.2996 190.297 35.0948 190.229 34.925 190.141C34.3845 189.873 33.8647 189.566 33.3699 189.221C32.6253 188.7 31.9528 188.083 31.3699 187.386L93.5896 262.288C94.1676 262.978 94.8302 263.592 95.5617 264.116C96.0636 264.467 96.5929 264.777 97.1447 265.043C97.3145 265.132 97.5193 265.199 97.7066 265.277C98.091 265.458 98.4847 265.619 98.886 265.759L99.6291 265.981C100.037 266.103 100.451 266.205 100.869 266.286L101.7 266.456L103.021 266.619L103.919 266.702C104.413 266.741 104.914 266.752 105.415 266.763L106.316 266.773L108.085 266.696L108.883 266.65C109.761 266.58 110.656 266.5 111.583 266.354L111.97 266.291L114.48 265.871L115.502 265.646L117.57 265.157L118.805 264.854L120.832 264.295L122.152 263.895L124.148 263.284L125.492 262.845L127.695 262.065L129.001 261.602L131.617 260.602L132.626 260.196L136.235 258.682L140.446 256.79L141.128 256.388C142.337 255.841 143.525 255.258 144.801 254.624L144.959 254.532C146.2 253.918 147.476 253.284 148.731 252.616L149.728 252.028C150.498 251.575 151.284 251.229 152.064 250.793L152.536 250.515C154.373 249.433 156.299 248.463 158.216 247.357L165.616 242.999L169.114 240.938L170.304 240.237L171.074 239.784L174.49 237.583L175.889 236.759L176.362 236.48L179.929 234.096L181.259 233.195L181.469 233.071L185.727 230.139L186.532 229.665L191.502 226.102L191.589 226.051L193.141 224.925L196.518 222.417L196.693 222.314L199.019 220.544L201.475 218.673L201.633 218.58L204.387 216.416L206.399 214.831L206.504 214.769L211.211 210.961L211.856 210.416L215.818 207.141L216.045 207.007L217.609 205.662L220.369 203.306L221.133 202.644L225.142 199.129L225.474 198.934L229.049 195.721L230.129 194.756L230.234 194.694L235.385 189.918L235.82 189.496L236.691 188.654C238.101 187.329 239.467 186.007 240.804 184.677L242.229 183.296C243.907 181.625 245.586 179.954 247.201 178.296L247.428 178.162C249.205 176.339 250.919 174.529 252.609 172.757L253.262 172.066L253.923 171.347L255.894 169.174L257.56 167.321L259.451 165.172L261.029 163.371L262.857 161.235L264.338 159.468L266.076 157.338L267.177 156.007L267.427 155.671C268.633 154.16 269.805 152.669 270.945 151.244L271.621 150.352L274.245 146.805L274.727 146.145L275.298 145.314L276.715 143.279L277.797 141.676L279.134 139.665L279.776 138.675L280.178 138.038L280.965 136.774C281.35 136.147 281.734 135.52 282.091 134.886L282.826 133.653L283.25 132.932L284.003 131.571L284.406 130.815C284.901 129.935 285.351 129.058 285.783 128.192L285.87 128.14C286.489 126.897 287.052 125.694 287.561 124.531L287.721 124.202L287.984 123.529C288.321 122.742 288.631 121.947 288.951 121.17L289.193 120.581C289.231 120.412 289.284 120.248 289.35 120.088L290.018 118.023L290.244 117.325L290.308 117.075C290.531 116.332 290.69 115.603 290.86 114.891L290.972 114.401C291.139 113.525 291.282 112.688 291.359 111.819C291.359 111.819 291.38 111.454 291.402 111.252C291.425 111.05 291.506 110.108 291.514 109.562C291.514 109.562 291.452 109.457 291.509 109.353C291.566 109.249 291.481 108.946 291.476 108.737C291.471 108.289 291.443 107.842 291.393 107.397L291.372 107.08C291.351 106.908 291.321 106.737 291.282 106.568C291.209 106.164 291.136 105.759 291.035 105.348C290.999 105.225 290.972 105.099 290.954 104.972C290.898 104.856 290.832 104.745 290.759 104.64C290.553 104.29 290.487 103.858 290.326 103.506C290.313 103.081 290.226 102.663 290.069 102.268Z" fill="url(#paint3_linear_75_2335)"/>
<defs>
<linearGradient id="paint0_linear_75_2335" x1="87.6809" y1="211.298" x2="216.516" y2="67.9124" gradientUnits="userSpaceOnUse">
<stop offset="0.11" stop-color="#7BA5E3"/>
<stop offset="0.41" stop-color="#77A0E0"/>
<stop offset="0.75" stop-color="#6D92D6"/>
<stop offset="1" stop-color="#6283CB"/>
</linearGradient>
<linearGradient id="paint1_linear_75_2335" x1="131.823" y1="162.273" x2="125.456" y2="36.124" gradientUnits="userSpaceOnUse">
<stop stop-color="#8CB6F0"/>
<stop offset="0.16" stop-color="#9DC2F3"/>
<stop offset="0.51" stop-color="#C0D9F8"/>
<stop offset="0.81" stop-color="#D5E8FB"/>
<stop offset="1" stop-color="#DDEDFC"/>
</linearGradient>
<linearGradient id="paint2_linear_75_2335" x1="131.813" y1="161.856" x2="125.483" y2="36.6495" gradientUnits="userSpaceOnUse">
<stop stop-color="#8CB6F0"/>
<stop offset="0.38" stop-color="#A8CAF5"/>
<stop offset="0.75" stop-color="#BDD9F9"/>
<stop offset="0.99" stop-color="#C5DFFA"/>
</linearGradient>
<linearGradient id="paint3_linear_75_2335" x1="266.341" y1="65.1885" x2="74.0828" y2="243.489" gradientUnits="userSpaceOnUse">
<stop stop-color="#C6DEFA"/>
<stop offset="0.12" stop-color="#A9CAF5"/>
<stop offset="0.29" stop-color="#87A9E1"/>
<stop offset="0.47" stop-color="#688BCF"/>
<stop offset="0.57" stop-color="#5C80C8"/>
<stop offset="0.72" stop-color="#5E82C9"/>
<stop offset="0.8" stop-color="#6689CD"/>
<stop offset="0.85" stop-color="#7395D3"/>
<stop offset="0.9" stop-color="#86A5DC"/>
<stop offset="0.95" stop-color="#9FBBE7"/>
<stop offset="0.99" stop-color="#BCD5F5"/>
<stop offset="1" stop-color="#C6DEFA"/>
</linearGradient>
</defs>
</svg>
