<svg width="532" height="413" viewBox="0 0 532 413" fill="none" xmlns="http://www.w3.org/2000/svg">
<g opacity="0.41" clip-path="url(#clip0_75_2291)" filter="url(#filter0_f_75_2291)">
<path d="M107.712 137.932L108.055 137.245C108.742 135.979 109.456 134.606 110.222 133.471L110.883 132.442C111.464 131.518 112.072 130.594 112.706 129.803L113.552 128.615L115.666 125.844C115.904 125.58 116.116 125.263 116.353 124.999C117.305 123.838 118.283 122.729 119.313 121.595L119.974 120.935C120.793 120.037 121.665 119.166 122.617 118.295L123.753 117.213L126.184 115.023L127.374 113.993C128.351 113.175 129.356 112.383 130.36 111.592L131.179 110.958L133.188 109.507L134.721 108.398C135.434 107.897 136.174 107.422 136.914 106.947C137.654 106.471 137.918 106.26 138.447 105.944L141.09 104.36L142.358 103.595C143.706 102.829 145.001 102.064 146.481 101.351L160.514 61.155C159.113 61.894 157.739 62.633 156.391 63.3984L155.123 64.1903C154.224 64.7181 153.352 65.2195 152.48 65.7738C151.608 66.328 151.449 66.4336 150.947 66.7767C150.445 67.1198 149.467 67.7269 148.754 68.2284C148.04 68.7298 147.723 68.941 147.221 69.3105L145.212 70.762H145.054C144.816 70.9204 144.631 71.1052 144.393 71.2899C143.389 72.0553 142.385 72.8734 141.407 73.6916L140.191 74.721C139.372 75.4336 138.553 76.1725 137.786 76.9115L136.65 77.9673C135.778 78.8383 134.906 79.7092 134.007 80.6066L133.346 81.2927C132.316 82.4012 131.338 83.5361 130.386 84.671L130.201 84.8822C130.043 85.0933 129.884 85.3309 129.699 85.542C128.986 86.4394 128.272 87.3631 127.585 88.3132C127.294 88.6827 127.03 89.0786 126.739 89.4745C126.105 90.3895 125.497 91.2692 124.916 92.1138L124.255 93.1167C123.489 94.3572 122.749 95.624 122.088 96.9173C121.956 97.1284 121.85 97.366 121.745 97.5771C121.19 98.6592 120.661 99.7413 120.159 100.85L119.895 101.351C119.827 101.558 119.748 101.761 119.657 101.958C118.97 103.542 118.309 105.152 117.754 106.815L103.721 146.984C104.276 145.348 104.937 143.738 105.65 142.128L106.126 141.02C106.637 140.052 107.165 139.023 107.712 137.932Z" fill="url(#paint0_linear_75_2291)"/>
<path d="M119.234 121.489L119.895 120.829C120.714 119.932 121.586 119.061 122.537 118.19L123.674 117.108L126.105 114.917L127.294 113.888C128.272 113.07 129.276 112.278 130.281 111.486L131.1 110.853L133.108 109.401L134.641 108.292C135.355 107.791 136.095 107.316 136.835 106.841C137.575 106.366 137.839 106.155 138.368 105.838L141.01 104.254L142.279 103.489C143.627 102.724 144.922 101.958 146.402 101.246L160.435 61.0494C159.034 61.7884 157.66 62.5274 156.312 63.2928L155.043 64.0846C154.145 64.6124 153.273 65.1139 152.401 65.6682C151.529 66.2224 151.37 66.328 150.868 66.6711C150.366 67.0142 149.388 67.6212 148.674 68.1227C147.961 68.6241 147.644 68.8353 147.142 69.2048L145.133 70.6564H144.974C144.737 70.8147 144.552 70.9995 144.314 71.1843C143.31 71.9496 142.305 72.7678 141.327 73.586L140.112 74.6153C139.293 75.3279 138.473 76.0669 137.707 76.8059L136.57 77.8616C135.698 78.7326 134.826 79.6035 133.928 80.5009L133.267 81.1871C132.236 82.2956 131.259 83.4305 130.307 84.5654L130.122 84.7765C129.964 84.9877 129.805 85.2252 129.62 85.4363C128.906 86.3337 128.193 87.2574 127.506 88.2075L118.018 122.756L119.234 121.489Z" fill="url(#paint1_linear_75_2291)"/>
<path d="M524.026 338.253C521.384 339.572 518.873 340.892 516.257 342.053L514.248 342.977C511.262 344.323 508.249 345.616 505.157 346.857L504.338 347.147C501.378 348.308 498.365 349.417 495.299 350.446L493.555 351.053C490.384 352.109 487.16 353.085 483.883 354.009L481.901 354.563C478.492 355.487 475.056 356.385 471.594 357.203C468.132 358.021 464.353 358.76 460.679 359.446L457.693 359.974C454.574 360.537 451.43 361.038 448.258 361.478L444.373 362.006C441.096 362.455 437.793 362.824 434.463 363.141L431.82 363.431C427.618 363.827 423.363 364.118 419.056 364.329L415.911 364.461C412.555 364.619 409.198 364.725 405.815 364.777H401.693C398.204 364.777 394.716 364.777 391.122 364.777H388.162C383.722 364.654 379.256 364.443 374.763 364.144L371.486 363.906C367.962 363.678 364.439 363.387 360.915 363.035L356.66 362.587C353.013 362.217 349.392 361.769 345.745 361.294L342.495 360.898L339.667 360.475L331.897 359.288L328.409 358.707L320.824 357.335L317.732 356.754C314.217 356.094 310.729 355.382 307.161 354.616L306.21 354.405L296.616 352.188L293.313 351.37C290.802 350.763 288.344 350.129 285.86 349.47L282.372 348.519C279.729 347.78 276.901 347.015 274.153 346.223L271.827 345.537L267.546 344.217L259.618 341.763C258.006 341.261 256.42 340.707 254.834 340.179C252.429 339.361 250.051 338.569 247.672 337.725C245.981 337.144 244.29 336.511 242.625 335.904C240.325 335.059 238.053 334.241 235.78 333.264L230.653 331.259C228.407 330.388 226.187 329.49 223.967 328.619L218.39 326.297L213.264 324.08C211.308 323.235 209.379 322.364 207.476 321.441L202.402 319.118C200.473 318.221 198.57 317.297 196.641 316.479C194.711 315.661 193.337 314.895 191.699 314.051C190.06 313.206 187.867 312.124 185.964 311.147C184.061 310.171 182.713 309.485 181.101 308.508C179.489 307.531 177.322 306.449 175.419 305.42C173.516 304.391 172.248 303.705 170.689 302.781L165.007 299.508C163.474 298.611 161.941 297.74 160.435 296.869C158.928 295.998 156.656 294.546 154.753 293.385L150.366 290.746C148.436 289.532 146.534 288.265 144.605 286.998C143.23 286.101 141.962 285.203 140.508 284.359C138.341 282.907 136.2 281.403 134.086 279.898C133.029 279.159 131.946 278.447 130.889 277.681C127.744 275.412 124.599 273.115 121.533 270.74C119.208 268.972 116.935 267.203 114.688 265.461L112.627 263.799C111.041 262.532 109.509 261.159 107.976 259.972C107.236 259.365 106.496 258.758 105.782 258.124C104.197 256.805 102.664 255.485 101.131 254.113L99.4397 252.608C97.8011 251.157 96.2155 249.705 94.6298 248.253C94.1277 247.752 93.5727 247.277 93.0706 246.802C91.0092 244.875 88.9743 242.922 87.0186 240.969L85.618 239.57C84.138 238.092 82.6581 236.614 81.231 235.11C80.5174 234.397 79.8568 233.658 79.1961 232.946C78.0068 231.705 76.844 230.465 75.7076 229.198C74.9676 228.406 74.2541 227.588 73.5406 226.796L70.4221 223.259C69.7085 222.415 69.0214 221.57 68.3078 220.62L65.4272 217.136L63.3923 214.497L60.7495 211.013L58.8203 208.374L56.1776 204.811C55.5961 203.993 54.9883 203.174 54.4333 202.356L51.7906 198.609L50.522 196.286C49.5971 194.861 48.6985 193.436 47.8793 191.984L46.7693 190.242C45.5536 188.236 44.3908 186.23 43.2544 184.224C43.0166 183.829 42.8316 183.433 42.5937 183.01C41.7216 181.4 40.8231 179.791 39.951 178.181C39.581 177.468 39.2374 176.755 38.8674 176.016C38.2332 174.75 37.5725 173.377 36.9646 172.163L35.8547 169.735C35.2997 168.521 34.7712 167.333 34.269 166.145C33.7669 164.958 33.5555 164.456 33.2119 163.506C32.8684 162.556 32.2605 161.157 31.8113 159.996L30.8599 157.357C30.437 156.195 30.0142 155.034 29.6442 153.899C29.2742 152.764 29.0628 152.21 28.7985 151.26C28.5342 150.31 28.0585 148.911 27.715 147.75L27.0014 145.295C26.6843 144.081 26.3672 142.867 26.0765 141.653C25.865 140.888 25.68 140.122 25.495 139.357C25.1779 138.011 24.9137 136.718 24.6494 135.319C24.6494 134.712 24.3851 134.078 24.2794 133.471C23.9094 131.518 23.5923 129.591 23.328 127.638C23.328 127.401 23.328 127.163 23.328 126.899C23.1166 125.21 22.9052 123.521 22.7466 121.858C22.7466 121.172 22.7466 120.512 22.7466 119.853C22.7466 118.612 22.5616 117.213 22.4823 116.105C22.4823 115.339 22.4823 114.574 22.4823 113.835C22.4823 112.674 22.4823 111.539 22.4823 110.404C22.4823 109.269 22.4823 108.82 22.4823 108.029C22.4823 107.237 22.4823 105.838 22.4823 104.729L22.6409 102.354C22.6409 101.272 22.8259 100.19 22.9316 99.1342C23.0373 98.0785 23.0901 97.5506 23.1959 96.7852C23.3016 96.0198 23.4865 94.621 23.6715 93.5653C23.8565 92.5096 23.883 92.0345 24.0415 91.2692C24.2001 90.5038 24.4644 89.0786 24.6758 87.9965C24.8872 86.9144 24.9665 86.5713 25.1515 85.8587C25.4158 84.671 25.7329 83.4833 26.0765 82.2956C26.235 81.715 26.3672 81.1343 26.5257 80.5537C27.0543 78.7854 27.5828 77.0435 28.1907 75.2751L14.1576 115.445C13.5762 117.187 13.0212 118.929 12.4926 120.723C12.3341 121.304 12.2019 121.885 12.0434 122.465C11.6998 123.653 11.3827 124.841 11.1184 126.055C10.9598 126.767 10.8013 127.454 10.6691 128.166C10.4313 129.275 10.1934 130.357 10.0084 131.465C9.82345 132.574 9.74417 132.97 9.63846 133.735C9.53274 134.5 9.29492 135.873 9.16278 136.955C9.03064 138.037 8.97777 138.512 8.89848 139.304C8.8192 140.096 8.68706 141.468 8.60778 142.55L8.44922 144.926C8.44922 146.008 8.44922 147.116 8.44922 148.198C8.44922 149.28 8.44922 149.782 8.44922 150.574C8.44922 151.365 8.44922 152.87 8.44922 154.005C8.44922 155.14 8.44922 155.509 8.44922 156.275C8.44922 157.515 8.44921 158.914 8.68706 160.022C8.68706 160.709 8.68706 161.368 8.68706 162.028C8.84562 163.717 9.05705 165.406 9.26847 167.096C9.26847 167.333 9.26847 167.571 9.26847 167.835C9.53275 169.761 9.84988 171.714 10.2199 173.667C10.2199 174.274 10.4577 174.881 10.5899 175.488C10.8541 176.835 11.1184 178.128 11.4356 179.553C11.6206 180.318 11.8319 181.057 12.0169 181.823C12.3076 183.037 12.6248 184.251 12.9419 185.465L13.6555 187.919C13.999 189.107 14.369 190.268 14.739 191.43C15.109 192.591 15.294 193.119 15.5847 194.069C15.8754 195.019 16.3775 196.392 16.8004 197.553L17.7518 200.192C18.201 201.353 18.6767 202.515 19.1524 203.676C19.6281 204.837 19.8395 205.365 20.2095 206.315C20.5795 207.265 21.2666 208.717 21.7952 209.905L22.9051 212.333C23.513 213.626 24.1737 214.972 24.8079 216.213L25.8914 218.377C26.7371 219.995 27.6181 221.605 28.5342 223.207L29.1685 224.421C30.3049 226.427 31.4677 228.432 32.7098 230.438L33.7669 232.154L36.4097 236.482L37.9425 238.752C38.7882 239.992 39.6339 241.259 40.5853 242.5C41.1402 243.318 41.748 244.136 42.3295 244.981C42.9109 245.825 44.0472 247.33 44.9722 248.517L46.9015 251.157C47.8 252.344 48.6985 253.506 49.5442 254.667L51.5791 257.306L54.4598 260.79C55.1733 261.635 55.8604 262.479 56.6004 263.297C57.3404 264.115 58.6353 265.673 59.6924 266.834L61.8595 269.262L65.3215 272.983C66.0087 273.722 66.6693 274.435 67.3829 275.148C68.81 276.652 70.2635 278.13 71.7434 279.608L73.1706 281.033C75.1262 282.986 77.1611 284.913 79.2225 286.84C79.7246 287.341 80.2796 287.816 80.8082 288.291C82.1824 289.584 83.4509 290.93 85.0101 292.145L85.5915 292.672L87.3094 294.177L91.9342 298.162L94.1277 300.036C95.6605 301.303 97.1933 302.675 98.779 303.837L100.84 305.499C103.087 307.294 105.359 309.089 107.685 310.778C110.751 313.127 113.896 315.423 117.04 317.719L120.265 319.936C122.194 321.309 124.149 322.707 126.132 324.053L126.66 324.397C128.008 325.32 129.303 326.191 130.783 327.036L136.518 330.784L140.905 333.423C142.807 334.61 144.684 335.772 146.587 336.907C148.489 338.042 149.626 338.701 151.159 339.546C152.691 340.391 154.938 341.763 156.841 342.819C158.743 343.874 159.985 344.587 161.571 345.458L165.799 347.78L167.253 348.546L172.116 351.053C174.018 352.056 175.921 353.033 177.85 353.983L182.792 356.411L188.554 359.05L193.628 361.373L199.415 364.012L204.542 366.203L207.872 367.654L210.119 368.552L216.805 371.191L221.932 373.197C224.205 374.068 226.504 374.912 228.777 375.836C230.468 376.469 232.133 377.076 233.824 377.657C236.203 378.502 238.581 379.32 240.986 380.112L245.77 381.722C248.412 382.566 251.055 383.358 253.698 384.176L257.318 385.311L257.926 385.469L260.305 386.156C262.948 386.947 265.775 387.739 268.497 388.478L271.986 389.402C274.47 390.062 276.928 390.695 279.412 391.302L282.742 392.147C285.94 392.912 289.137 393.651 292.335 394.337L293.286 394.548C296.801 395.314 300.29 396.026 303.858 396.713L307.002 397.293C309.504 397.768 312.015 398.217 314.534 398.639L318.049 399.22L325.793 400.408L328.647 400.83H329.624L331.897 401.12C335.544 401.595 339.165 402.018 342.812 402.414L347.067 402.836C350.608 403.179 354.123 403.469 357.638 403.733L360.915 403.971C365.408 404.27 369.874 404.481 374.314 404.604H377.274C380.788 404.604 384.277 404.604 387.845 404.604H391.967C395.35 404.604 398.733 404.446 402.089 404.314L405.208 404.182C409.515 403.944 413.77 403.654 417.972 403.284L420.773 402.994C424.077 402.651 427.38 402.282 430.657 401.859L434.542 401.331C437.714 400.856 440.859 400.355 444.003 399.801L446.17 399.458L446.963 399.299C450.637 398.613 454.284 397.848 457.878 397.029C461.472 396.211 464.776 395.34 468.185 394.39L470.167 393.836C473.444 392.886 476.668 391.909 479.839 390.853L481.583 390.246C484.649 389.217 487.662 388.135 490.622 386.974L491.441 386.657C494.533 385.443 497.572 384.018 500.559 382.777C500.876 382.619 501.246 382.487 501.589 382.355L502.541 381.88C505.183 380.639 507.826 379.399 510.31 378.053L524.026 338.253Z" fill="url(#paint2_radial_75_2291)"/>
<path d="M90.7714 8L160.408 61.0758C90.7713 97.5506 100.153 177.204 181.339 239.201C250.051 291.538 348.045 314.341 418.791 298.03C431.157 295.264 443.119 290.936 454.389 285.15L524.026 338.253C507.432 346.801 489.812 353.196 471.594 357.282C367.337 381.299 222.83 347.728 121.639 270.555C1.97441 179.289 -11.8208 61.6829 90.7714 8Z" fill="url(#paint3_linear_75_2291)"/>
<path d="M90.7714 8L160.408 61.0758C147.529 67.5118 136.314 76.8335 127.638 88.3132L55.649 32.8884C66.0995 22.9514 77.9283 14.5693 90.7714 8ZM524.026 338.253L454.39 285.151C443.119 290.936 431.157 295.264 418.792 298.03C413.982 299.139 409.04 300.036 404.018 300.801L475.981 356.226C492.654 352.163 508.784 346.13 524.026 338.253Z" fill="url(#paint4_linear_75_2291)"/>
<path style="mix-blend-mode:overlay" opacity="0.8" d="M454.389 285.15C443.119 290.936 431.157 295.264 418.791 298.03C348.045 314.341 249.998 291.538 181.339 239.201C100.153 177.31 90.7713 97.5506 160.408 61.0758L90.7714 8C-11.8208 61.7885 1.97441 179.289 121.639 270.476C222.83 347.648 367.416 381.326 471.594 357.203C489.808 353.142 507.428 346.774 524.026 338.253L454.389 285.15ZM471.171 355.382C447.752 360.615 423.814 363.174 399.816 363.009C304.915 363.009 198.702 326.983 122.669 269.024C55.4111 217.77 19.6016 156.776 24.1736 101.721C27.4242 63.1873 50.3635 31.5423 90.5071 10.1906L156.92 60.812C129.831 75.803 114.345 97.7618 111.993 124.392C108.742 162.846 133.531 205.233 180.018 240.652C232.133 280.373 304.915 305.077 369.98 305.077C386.477 305.173 402.931 303.402 419.029 299.798C431.153 297.088 442.896 292.895 453.993 287.315L520.379 337.91C504.737 345.682 488.216 351.548 471.171 355.382Z" fill="url(#paint5_linear_75_2291)"/>
<path d="M462.239 396.185C464.115 395.71 466.018 395.261 467.868 394.76L469.85 394.205C473.127 393.255 476.351 392.279 479.522 391.223L481.266 390.616C484.332 389.587 487.345 388.505 490.305 387.343L491.124 387.026C494.216 385.812 497.255 384.387 500.242 383.147C500.559 382.988 500.929 382.856 501.272 382.725L502.224 382.249C504.866 381.009 507.509 379.769 509.993 378.422L524.026 338.253C521.384 339.572 518.873 340.892 516.257 342.053L514.248 342.977C511.262 344.323 508.249 345.616 505.157 346.857L504.338 347.147C501.378 348.308 498.365 349.417 495.299 350.446L493.555 351.053C490.384 352.109 487.16 353.085 483.883 354.009L481.901 354.563C479.971 355.091 477.989 355.566 476.034 356.068L462.239 396.185Z" fill="url(#paint6_linear_75_2291)"/>
</g>
<defs>
<filter id="filter0_f_75_2291" x="0" y="0" width="532" height="413" filterUnits="userSpaceOnUse" color-interpolation-filters="sRGB">
<feFlood flood-opacity="0" result="BackgroundImageFix"/>
<feBlend mode="normal" in="SourceGraphic" in2="BackgroundImageFix" result="shape"/>
<feGaussianBlur stdDeviation="4" result="effect1_foregroundBlur_75_2291"/>
</filter>
<linearGradient id="paint0_linear_75_2291" x1="50.0464" y1="126.636" x2="161.048" y2="96.077" gradientUnits="userSpaceOnUse">
<stop offset="0.31" stop-color="#4D3B79"/>
<stop offset="0.42" stop-color="#503D7C"/>
<stop offset="0.52" stop-color="#574387"/>
<stop offset="0.61" stop-color="#644D99"/>
<stop offset="0.7" stop-color="#775BB3"/>
<stop offset="0.78" stop-color="#8E6DD3"/>
<stop offset="0.85" stop-color="#A57EF3"/>
<stop offset="0.92" stop-color="#B494F5"/>
<stop offset="1" stop-color="#C3AAF7"/>
</linearGradient>
<linearGradient id="paint1_linear_75_2291" x1="111.993" y1="84.8293" x2="162.91" y2="98.2435" gradientUnits="userSpaceOnUse">
<stop stop-color="#C47445"/>
<stop offset="0.21" stop-color="#CC7E49"/>
<stop offset="0.39" stop-color="#D68A4E"/>
<stop offset="0.51" stop-color="#DB985B"/>
<stop offset="0.76" stop-color="#E9BC7F"/>
<stop offset="1" stop-color="#FAE6A9"/>
</linearGradient>
<radialGradient id="paint2_radial_75_2291" cx="0" cy="0" r="1" gradientUnits="userSpaceOnUse" gradientTransform="translate(102.4 388.399) scale(430.612 430.044)">
<stop offset="0.31" stop-color="#4D3B8B"/>
<stop offset="0.43" stop-color="#503D8E"/>
<stop offset="0.53" stop-color="#594499"/>
<stop offset="0.63" stop-color="#6850AB"/>
<stop offset="0.72" stop-color="#7E60C5"/>
<stop offset="0.82" stop-color="#9975E5"/>
<stop offset="0.85" stop-color="#A57EF3"/>
<stop offset="0.92" stop-color="#B494F5"/>
<stop offset="1" stop-color="#C3AAF7"/>
</radialGradient>
<linearGradient id="paint3_linear_75_2291" x1="331.263" y1="133.445" x2="194.112" y2="304.093" gradientUnits="userSpaceOnUse">
<stop offset="0.14" stop-color="#C7A2FF"/>
<stop offset="1" stop-color="#9B6FF1"/>
</linearGradient>
<linearGradient id="paint4_linear_75_2291" x1="216.778" y1="284.702" x2="309.592" y2="158.454" gradientUnits="userSpaceOnUse">
<stop stop-color="#C47445"/>
<stop offset="0.21" stop-color="#CC7E49"/>
<stop offset="0.39" stop-color="#D68A4E"/>
<stop offset="0.51" stop-color="#DB985B"/>
<stop offset="0.76" stop-color="#E9BC7F"/>
<stop offset="1" stop-color="#FAE6A9"/>
</linearGradient>
<linearGradient id="paint5_linear_75_2291" x1="349.895" y1="110.325" x2="212.744" y2="280.973" gradientUnits="userSpaceOnUse">
<stop offset="0.04" stop-color="#EBE2FD"/>
<stop offset="0.12" stop-color="#E9DEFD" stop-opacity="0.97"/>
<stop offset="0.25" stop-color="#E2D5FC" stop-opacity="0.88"/>
<stop offset="0.4" stop-color="#D7C5FA" stop-opacity="0.75"/>
<stop offset="0.58" stop-color="#C7AFF8" stop-opacity="0.55"/>
<stop offset="0.78" stop-color="#B492F5" stop-opacity="0.31"/>
<stop offset="0.99" stop-color="#9C70F1" stop-opacity="0.01"/>
<stop offset="1" stop-color="#9B6FF1" stop-opacity="0"/>
</linearGradient>
<linearGradient id="paint6_linear_75_2291" x1="289.692" y1="329.042" x2="528.101" y2="373.892" gradientUnits="userSpaceOnUse">
<stop stop-color="#691D00"/>
<stop offset="0.16" stop-color="#6C2003"/>
<stop offset="0.3" stop-color="#732B0C"/>
<stop offset="0.44" stop-color="#803D1B"/>
<stop offset="0.57" stop-color="#935731"/>
<stop offset="0.7" stop-color="#AA784C"/>
<stop offset="0.82" stop-color="#C7A06E"/>
<stop offset="0.95" stop-color="#E9CF95"/>
<stop offset="1" stop-color="#FAE6A9"/>
</linearGradient>
<clipPath id="clip0_75_2291">
<rect width="516" height="397" fill="white" transform="translate(8 8)"/>
</clipPath>
</defs>
</svg>
