<svg width="35" height="35" viewBox="0 0 35 35" fill="none" xmlns="http://www.w3.org/2000/svg">
<g clip-path="url(#clip0_75_2683)">
<path d="M34.9716 16.4898C34.9729 16.4752 34.9729 16.4605 34.9716 16.4459C34.9716 16.3684 34.9458 15.8853 34.8502 15.1749C34.8502 15.1103 34.8321 15.0483 34.8218 14.9837C34.8115 14.9191 34.7934 14.8028 34.7779 14.7073C34.4146 12.4519 33.6116 10.2899 32.4144 8.34433V8.33142C32.2853 8.12216 32.1561 7.91548 32.0166 7.71139C31.3532 6.72898 30.5925 5.81588 29.7461 4.9859C29.3363 4.57931 28.9052 4.19471 28.4546 3.8337C28.1705 3.60894 27.8786 3.38935 27.579 3.1801L27.5351 3.14652L27.4963 3.12068L27.3414 3.01476C27.1502 2.88301 26.941 2.75642 26.7137 2.60658L26.6878 2.59108C26.5794 2.52391 26.4631 2.45675 26.3443 2.38699L26.1842 2.29657L26.0473 2.21907L25.9362 2.15965C25.2429 1.77957 24.525 1.44643 23.7871 1.16246C23.596 1.08754 23.4461 1.03329 23.3609 1.00229L23.2266 0.955784L23.0949 0.909284H23.0768H23.0458L22.8314 0.836949H22.8004H22.7694L22.6222 0.790446L22.4259 0.731028L22.2554 0.681943L22.1598 0.656111H22.1314H22.0978H22.0436L21.8524 0.607026L21.6949 0.56569L21.545 0.529523L21.4495 0.506273L21.2661 0.464938L21.1395 0.43652L20.9639 0.400353H20.9329L20.8011 0.374517L20.7211 0.359017L20.6255 0.340935H20.61H20.579H20.5247L20.3827 0.317682L20.2897 0.302182L20.1321 0.278932L19.9952 0.258264H19.9152L19.7937 0.242765L19.6749 0.227265L19.4812 0.204015L19.3004 0.185929H19.241L19.0757 0.173011L18.8303 0.152344H18.6624H18.4738H18.2775H18.1225H18.014H17.8358C17.4845 0.152344 17.1332 0.152344 16.7819 0.152344H16.5598H16.3247H16.1853L15.8469 0.180761H15.7306L15.2657 0.235015L15.0513 0.266014H15.0074L14.6768 0.317682L14.4185 0.361603L13.9768 0.44427C13.4731 0.547606 12.972 0.676777 12.476 0.824031C12.1816 0.909284 11.9207 0.994535 11.5952 1.11337C10.2373 1.60019 8.94466 2.25269 7.74652 3.05609L7.39006 3.31444L7.34357 3.34802C7.13951 3.49528 6.93545 3.64511 6.73655 3.80012L6.68748 3.83628L6.6694 3.8492C6.66546 3.8548 6.66011 3.85926 6.6539 3.86212L6.63065 3.8802L6.61257 3.8957L6.44984 4.02745C6.33877 4.11787 6.23286 4.20571 6.13213 4.2858L5.95906 4.43563C5.84283 4.53639 5.73176 4.63714 5.62843 4.73273L5.61294 4.74565V4.75856L5.53803 4.82573C4.99559 5.34241 4.66755 5.7015 4.6443 5.72475C4.47899 5.90559 4.31109 6.09676 4.14836 6.2931C4.03213 6.42744 3.91331 6.57211 3.78932 6.72454L3.76349 6.75554L3.74541 6.78137C3.5026 7.08621 3.24689 7.43239 2.9705 7.8509V7.8664C2.84393 8.05757 2.7122 8.27199 2.58047 8.49675C2.44873 8.72151 2.35316 8.87909 2.25242 9.04443L1.92696 9.69028C1.81847 9.89954 1.71773 10.101 1.62475 10.2896C1.41845 10.7232 1.23733 11.1683 1.08231 11.6227C0.929912 12.0593 0.782679 12.5217 0.658694 12.9712V12.9867C0.657574 12.9927 0.657574 12.9988 0.658694 13.0048C0.512007 13.514 0.396419 14.0316 0.31257 14.5548C0.0826803 16.1721 0.054267 16.3038 0.054267 17.3759C0.0407204 18.3036 0.104657 19.2309 0.24541 20.1479C0.51037 21.9451 1.05144 23.6906 1.84947 25.3225C2.0161 25.6766 2.20148 26.0215 2.40482 26.3558C2.6459 26.7623 2.90421 27.1627 3.17973 27.5571L3.27788 27.7018C3.59118 28.1564 3.93646 28.588 4.31109 28.9935C4.56939 29.2518 4.88969 29.629 5.15058 29.8899C5.41146 30.1509 5.76017 30.4841 6.0443 30.7218C6.35427 30.9801 6.48342 31.1016 6.7753 31.3212C7.12917 31.6002 7.4908 31.8611 7.855 32.0962C7.97382 32.1737 8.09264 32.2512 8.21146 32.3235C8.33028 32.3959 8.49301 32.494 8.617 32.5664L8.8753 32.7136L8.92438 32.742L9.30408 32.9461L9.39965 32.9952C9.82327 33.2148 10.358 33.4731 10.9495 33.7108L11.4661 33.9097L11.6443 33.9743L11.9543 34.0828L12.1687 34.1526L12.2461 34.1784H12.2616L12.3779 34.2146L12.5742 34.2714L12.7679 34.3282H12.7834C13.4927 34.5307 14.2151 34.6843 14.9454 34.7881H15.01L15.2037 34.8139H15.2244L15.3923 34.8372L15.7771 34.8785C15.9502 34.8966 16.1827 34.9121 16.3557 34.925C16.5288 34.9379 16.7122 34.9483 16.8982 34.9534H17.1565C17.3967 34.9534 17.717 34.9534 17.9598 34.9534C18.2026 34.9534 18.5358 34.925 18.7812 34.9121C19.2978 34.863 20.0056 34.7778 20.5247 34.6899C20.9764 34.616 21.4238 34.5185 21.8653 34.398L22.1779 34.305C22.4904 34.2146 22.8133 34.1138 23.0819 34.0466L23.3971 33.9252C23.6554 33.8374 23.9137 33.7418 24.1487 33.6411L24.2727 33.592C24.5646 33.4809 24.9159 33.3104 25.2336 33.1528C25.3679 33.0856 25.4919 33.0185 25.634 32.9461C26.0229 32.7503 26.4006 32.5329 26.7653 32.2951L26.7989 32.2718C27.0985 32.0824 27.393 31.8835 27.6823 31.6751L27.8657 31.5459L28.1808 31.2876L28.4391 31.0861L28.917 30.7063C29.2646 30.4167 29.5949 30.107 29.9063 29.7789L29.9321 29.7556L29.9786 29.7039C30.2369 29.4456 30.5133 29.1382 30.8439 28.7584L30.8672 28.7326C31.4039 28.1073 31.8902 27.4404 32.3214 26.7382L32.3369 26.7149C32.4712 26.4979 32.5952 26.2654 32.7425 26.02L32.9181 25.6997C32.9982 25.5498 33.0783 25.4 33.1402 25.2682C33.1609 25.2243 33.1816 25.1778 33.2048 25.1339C33.3159 24.9014 33.427 24.6585 33.5354 24.408C33.6878 24.0644 33.8299 23.7156 33.9306 23.4108C34.1166 22.8941 34.2845 22.3541 34.4318 21.7806C34.5247 21.4319 34.6074 21.0805 34.6616 20.7473C34.7159 20.414 34.7856 20.0265 34.8347 19.6545L34.8657 19.3961C34.9199 18.8924 34.9561 18.3628 34.9664 17.8461C34.9664 17.828 34.9664 17.8074 34.9664 17.7919V17.7531C35.0052 17.3656 34.9974 16.9316 34.9716 16.4898Z" fill="url(#paint0_radial_75_2683)"/>
</g>
<defs>
<radialGradient id="paint0_radial_75_2683" cx="0" cy="0" r="1" gradientUnits="userSpaceOnUse" gradientTransform="translate(15.694 19.2261) rotate(-0.360053) scale(20.2535 20.2565)">
<stop stop-color="#B48CF9"/>
<stop offset="0.18" stop-color="#A77EEF"/>
<stop offset="0.46" stop-color="#986FE3"/>
<stop offset="0.68" stop-color="#936ADF"/>
<stop offset="0.75" stop-color="#976EE1"/>
<stop offset="0.83" stop-color="#A27CE6"/>
<stop offset="0.9" stop-color="#B492EF"/>
<stop offset="0.98" stop-color="#CDB0FC"/>
<stop offset="1" stop-color="#D4B8FF"/>
</radialGradient>
<clipPath id="clip0_75_2683">
<rect width="35" height="35" fill="white"/>
</clipPath>
</defs>
</svg>
