<svg width="211" height="210" viewBox="0 0 211 210" fill="none" xmlns="http://www.w3.org/2000/svg">
<g opacity="0.65" filter="url(#filter0_f_75_2300)">
<path d="M190.662 99.699V99.4916C190.662 99.1028 190.532 96.7568 190.051 93.2831C190.051 92.9721 189.973 92.674 189.921 92.3629C189.869 92.0518 189.791 91.4686 189.713 91.0668C187.952 80.0403 184.024 69.4691 178.155 59.9597V59.8949C177.518 58.871 176.855 57.873 176.192 56.8749C172.965 52.1158 169.263 47.695 165.142 43.6804C163.127 41.6953 161.005 39.8218 158.784 38.0681C157.393 36.9535 155.963 35.9036 154.494 34.8797L154.286 34.7112L154.091 34.5945L153.337 34.0761C152.401 33.428 151.374 32.7799 150.269 32.08L150.152 32.0023L148.475 31.0043L147.682 30.5636L147.019 30.1877L146.486 29.8896C143.09 28.0432 139.576 26.4196 135.968 25.0291L133.875 24.2515L133.225 24.0311L132.588 23.7978H132.484H132.341L131.288 23.4608H131.132H130.989L130.261 23.2404L129.299 22.9553L128.467 22.722L127.999 22.5924H127.869H127.7L127.427 22.5276L126.504 22.2813L125.737 22.0869L124.996 21.9054L124.528 21.7888L123.644 21.5944L123.007 21.4518L122.162 21.2833H122.006L121.356 21.1667L120.979 21.0889L120.511 21.0111H120.433H120.277H120.004L119.315 20.8945L118.873 20.8167L118.106 20.7L117.442 20.5964H117.039L116.441 20.5186L115.869 20.4408L114.92 20.3242L114.036 20.2335H113.75H113.685L112.879 20.1557L111.67 20.065L110.851 20.0001H109.928H108.966H108.381H107.848H106.977C105.261 20.0001 103.545 20.0001 101.777 20.0001H100.672L99.5276 20.065H98.8516L97.2005 20.2075H96.6285L94.3534 20.4667L93.3004 20.6093H93.0794L91.4673 20.8556L90.2452 21.063L88.0871 21.4777C85.617 21.9832 83.1729 22.6054 80.7548 23.3182C79.2987 23.733 78.0247 24.1478 76.4386 24.731C69.796 27.1037 63.473 30.2861 57.6137 34.2057L55.8716 35.3981L55.6376 35.5666C54.6366 36.2795 53.6485 37.0053 52.6734 37.7701L52.4394 37.9515L52.3484 38.0163V38.0811C52.3041 38.1039 52.2645 38.1347 52.2315 38.1718C52.1963 38.1858 52.1651 38.208 52.1404 38.2366L51.3344 38.8718L49.7873 40.1679L48.9423 40.8937C48.3702 41.3992 47.8242 41.8788 47.3172 42.3454L47.2392 42.4102V42.475L46.8881 42.812C44.288 45.2746 42.611 47.0762 42.52 47.1929C41.7009 48.0742 40.8819 49.0075 40.0889 49.9536C39.5168 50.6276 38.9318 51.3146 38.3338 52.0663L38.2037 52.2219L38.1127 52.3385C36.9297 53.829 35.6816 55.514 34.3036 57.523L34.2386 57.6008C33.6145 58.534 32.9386 59.5838 32.3275 60.6726C31.7165 61.7613 31.2224 62.539 30.7284 63.3426L29.1424 66.4922C28.6093 67.5032 28.1023 68.5012 27.6603 69.4085C26.6731 71.5187 25.805 73.6823 25.0601 75.8891C24.3191 78.0148 23.604 80.27 22.993 82.4605V82.5382C22.993 82.5382 22.993 82.6031 22.993 82.629C22.2734 85.1237 21.709 87.6603 21.3029 90.2243C20.4617 94.7652 20.0266 99.3716 20.0029 103.989C19.8914 117.525 23.0107 130.893 29.1033 142.99C29.919 144.713 30.826 146.391 31.8205 148.019C32.9905 150.006 34.2646 151.959 35.6427 153.877L36.1237 154.59C37.6457 156.821 39.3271 158.939 41.1549 160.928C42.377 162.224 43.976 164.039 45.2631 165.309C46.5501 166.579 48.2403 168.199 49.6313 169.366C51.1524 170.662 51.7894 171.206 53.2065 172.269C54.9486 173.643 56.7036 174.861 58.4977 176.08L60.2398 177.194C60.9288 177.622 61.6179 178.024 62.2159 178.374L63.516 179.1L63.75 179.229L65.6091 180.227L66.0771 180.461C68.5434 181.749 71.0731 182.912 73.6564 183.947L76.1656 184.919L77.0366 185.243L78.5577 185.762C78.8697 185.878 79.2857 186.008 79.6107 186.112L79.9877 186.228H80.0657L80.6378 186.397L81.5868 186.695L82.5359 186.954H82.6139C86.0829 187.936 89.614 188.685 93.1834 189.197H93.5084L94.4574 189.326H94.5484L95.3805 189.443L97.2525 189.637C98.1105 189.728 99.2417 189.806 100.087 189.871C100.932 189.935 101.829 189.974 102.687 190H103.987C105.17 190 106.743 190 107.887 190C109.031 190 110.708 189.845 111.904 189.793C114.504 189.546 117.885 189.132 120.433 188.717C122.622 188.347 124.792 187.866 126.933 187.278L128.467 186.838L132.887 185.541L134.434 184.958C135.734 184.518 136.891 184.064 138.1 183.571L138.711 183.338C140.142 182.794 141.858 181.964 143.405 181.186L145.381 180.188C147.276 179.225 149.12 178.166 150.906 177.013L151.075 176.896C152.531 175.976 153.974 175.004 155.378 173.98L156.288 173.358L157.822 172.139C158.238 171.815 158.654 171.491 159.122 171.154L161.463 169.301C163.168 167.891 164.788 166.381 166.312 164.778L166.429 164.674L166.663 164.415C167.885 163.118 169.263 161.654 170.888 159.8L171.005 159.684C173.632 156.638 176.01 153.387 178.116 149.963V149.846C178.779 148.783 179.416 147.656 180.118 146.463C180.404 145.958 180.69 145.439 180.963 144.908C181.367 144.169 181.744 143.456 182.056 142.795L182.368 142.147C182.914 141.007 183.46 139.827 183.993 138.609C184.734 136.937 185.436 135.239 185.93 133.748C186.881 131.142 187.701 128.491 188.387 125.803C188.842 124.092 189.245 122.381 189.505 120.8C189.765 119.219 190.116 117.287 190.35 115.473C190.415 115.058 190.454 114.656 190.506 114.254C190.783 111.792 190.948 109.251 191 106.633C191 106.543 191 106.452 191 106.361V106.18C190.818 103.963 190.792 101.851 190.662 99.699Z" fill="url(#paint0_radial_75_2300)"/>
</g>
<defs>
<filter id="filter0_f_75_2300" x="0" y="0.00012207" width="211" height="210" filterUnits="userSpaceOnUse" color-interpolation-filters="sRGB">
<feFlood flood-opacity="0" result="BackgroundImageFix"/>
<feBlend mode="normal" in="SourceGraphic" in2="BackgroundImageFix" result="shape"/>
<feGaussianBlur stdDeviation="10" result="effect1_foregroundBlur_75_2300"/>
</filter>
<radialGradient id="paint0_radial_75_2300" cx="0" cy="0" r="1" gradientUnits="userSpaceOnUse" gradientTransform="translate(97.0202 120.082) rotate(-0.35891) scale(103.03 102.718)">
<stop offset="0.71" stop-color="#90B3E8"/>
<stop offset="0.76" stop-color="#9BBBEB"/>
<stop offset="0.86" stop-color="#B7CFF1"/>
<stop offset="0.98" stop-color="#E4F0FC"/>
<stop offset="1" stop-color="#ECF5FE"/>
</radialGradient>
</defs>
</svg>
