<svg width="47" height="47" viewBox="0 0 47 47" fill="none" xmlns="http://www.w3.org/2000/svg">
<g clip-path="url(#clip0_75_2330)">
<path d="M46.9618 22.1435C46.9635 22.1239 46.9635 22.1042 46.9618 22.0846C46.9618 21.9805 46.9272 21.3318 46.7988 20.3777C46.7988 20.291 46.7745 20.2078 46.7607 20.121C46.7468 20.0343 46.7225 19.8782 46.7017 19.7498C46.2139 16.7211 45.1355 13.8179 43.5279 11.2053V11.188C43.3545 10.907 43.181 10.6294 42.9937 10.3554C42.1028 9.03613 41.0814 7.80997 39.9448 6.69543C39.3944 6.14944 38.8155 5.63297 38.2105 5.14818C37.8289 4.84637 37.437 4.55149 37.0346 4.27049L36.9756 4.2254L36.9236 4.1907L36.7155 4.04847C36.4588 3.87154 36.1779 3.70155 35.8726 3.50034L35.8379 3.47953C35.6922 3.38933 35.5362 3.29913 35.3766 3.20547L35.1615 3.08404L34.9777 2.97997L34.8286 2.90018C33.8976 2.38979 32.9335 1.94242 31.9427 1.56109C31.686 1.46048 31.4848 1.38763 31.3703 1.346L31.19 1.28356L31.0131 1.22111H30.9888H30.9472L30.6593 1.12398H30.6176H30.576L30.3783 1.06153L30.1147 0.981742L29.8858 0.915827L29.7574 0.881139H29.7193H29.6742H29.6013L29.3446 0.815224L29.1331 0.759716L28.9319 0.711149L28.8035 0.679928L28.5573 0.62442L28.3873 0.586259L28.1514 0.537691H28.1098L27.9329 0.502998L27.8254 0.482184L27.697 0.457902H27.6762H27.6346H27.5618L27.371 0.426676L27.2461 0.405862L27.0345 0.374641L26.8507 0.346887H26.7432L26.5801 0.326073L26.4206 0.305259L26.1604 0.274038L25.9176 0.249751H25.8379L25.6159 0.232405L25.2863 0.204651H25.0609H24.8077H24.5441H24.3359H24.1903H23.9509C23.4792 0.204651 23.0075 0.204651 22.5357 0.204651H22.2374H21.9218H21.7345L21.2801 0.242812H21.124L20.4996 0.315666L20.2117 0.357294H20.1528L19.7088 0.426676L19.3619 0.485656L18.7688 0.596666C18.0924 0.735432 17.4195 0.90889 16.7535 1.10663C16.3581 1.22111 16.0077 1.33559 15.5707 1.49517C13.7472 2.1489 12.0114 3.02512 10.4024 4.10397L9.92376 4.45089L9.86133 4.49599C9.58731 4.69373 9.31328 4.89494 9.0462 5.10309L8.9803 5.15166L8.95602 5.169C8.95073 5.17652 8.94355 5.1825 8.9352 5.18635L8.90399 5.21063L8.87971 5.23145L8.66118 5.40837C8.51203 5.52979 8.36982 5.64774 8.23454 5.75529L8.00214 5.9565C7.84605 6.09179 7.6969 6.22709 7.55815 6.35545L7.53734 6.3728V6.39014L7.43675 6.48034C6.70834 7.17417 6.26782 7.65637 6.23661 7.6876C6.01461 7.93044 5.78915 8.18716 5.57063 8.45081C5.41454 8.63121 5.25498 8.82549 5.08849 9.03017L5.0538 9.07179L5.02952 9.10649C4.70347 9.51585 4.36007 9.98071 3.98893 10.5427V10.5635C3.81897 10.8202 3.64207 11.1082 3.46517 11.41C3.28827 11.7118 3.15993 11.9234 3.02465 12.1455L2.5876 13.0127C2.44192 13.2937 2.30664 13.5643 2.18177 13.8176C1.90474 14.3998 1.66153 14.9975 1.45336 15.6077C1.24871 16.194 1.051 16.8149 0.884503 17.4186V17.4394C0.882999 17.4474 0.882999 17.4556 0.884503 17.4637C0.687523 18.1474 0.532305 18.8425 0.419707 19.5451C0.110998 21.7168 0.0728434 21.8938 0.0728434 23.3335C0.0546522 24.5792 0.140509 25.8244 0.329522 27.0558C0.685325 29.4692 1.41191 31.8131 2.48354 34.0045C2.7073 34.48 2.95624 34.9432 3.2293 35.3922C3.55304 35.938 3.8999 36.4757 4.26989 37.0054L4.4017 37.1996C4.82241 37.81 5.28607 38.3897 5.78915 38.9342C6.13601 39.2811 6.56612 39.7876 6.91646 40.138C7.26679 40.4884 7.73505 40.9359 8.1166 41.2551C8.53284 41.602 8.70627 41.765 9.09823 42.0599C9.57343 42.4346 10.059 42.785 10.5481 43.1007C10.7077 43.2047 10.8672 43.3088 11.0268 43.4059C11.1863 43.5031 11.4049 43.6349 11.5714 43.732L11.9182 43.9298L11.9841 43.9679L12.494 44.242L12.6224 44.3079C13.1912 44.6028 13.9092 44.9497 14.7035 45.2689L15.3973 45.536L15.6366 45.6227L16.0528 45.7684L16.3407 45.8621L16.4448 45.8968H16.4656L16.6217 45.9454L16.8853 46.0217L17.1455 46.098H17.1663C18.1188 46.3698 19.0888 46.5762 20.0695 46.7155H20.1562L20.4164 46.7502H20.4441L20.6696 46.7814L21.1864 46.8369C21.4188 46.8612 21.731 46.882 21.9634 46.8994C22.1958 46.9167 22.4421 46.9306 22.6918 46.9375H23.0387C23.3613 46.9375 23.7914 46.9375 24.1174 46.9375C24.4435 46.9375 24.8909 46.8994 25.2204 46.882C25.9142 46.8161 26.8646 46.7016 27.5618 46.5837C28.1682 46.4844 28.7691 46.3535 29.362 46.1917L29.7817 46.0668C30.2014 45.9453 30.635 45.8101 30.9957 45.7199L31.4189 45.5568C31.7658 45.4389 32.1126 45.3105 32.4283 45.1752L32.5948 45.1093C32.9867 44.9601 33.4584 44.7311 33.8851 44.5195C34.0655 44.4293 34.232 44.3391 34.4227 44.242C34.945 43.979 35.4522 43.6871 35.942 43.3678L35.9871 43.3366C36.3894 43.0821 36.7849 42.815 37.1734 42.5352L37.4196 42.3617L37.8428 42.0148L38.1897 41.7442L38.8314 41.2342C39.2981 40.8454 39.7417 40.4295 40.1598 39.9888L40.1945 39.9576L40.257 39.8882C40.6038 39.5413 40.975 39.1285 41.419 38.6185L41.4502 38.5838C42.171 37.7442 42.824 36.8487 43.403 35.9056L43.4238 35.8744C43.6042 35.583 43.7707 35.2708 43.9684 34.9412L44.2043 34.511C44.3118 34.3098 44.4193 34.1086 44.5026 33.9317C44.5303 33.8727 44.5581 33.8103 44.5893 33.7513C44.7384 33.4391 44.8876 33.113 45.0333 32.7765C45.2379 32.3151 45.4287 31.8467 45.564 31.4374C45.8137 30.7436 46.0392 30.0185 46.2369 29.2484C46.3618 28.78 46.4728 28.3082 46.5456 27.8607C46.6184 27.4132 46.7121 26.8928 46.778 26.3932L46.8196 26.0463C46.8925 25.3698 46.941 24.6587 46.9549 23.9648C46.9549 23.9406 46.9549 23.9128 46.9549 23.892V23.84C47.0069 23.3196 46.9965 22.7368 46.9618 22.1435Z" fill="url(#paint0_radial_75_2330)"/>
</g>
<defs>
<radialGradient id="paint0_radial_75_2330" cx="0" cy="0" r="1" gradientUnits="userSpaceOnUse" gradientTransform="translate(21.0748 25.818) rotate(-0.360053) scale(27.1976 27.2016)">
<stop stop-color="#B48CF9"/>
<stop offset="0.18" stop-color="#A77EEF"/>
<stop offset="0.46" stop-color="#986FE3"/>
<stop offset="0.68" stop-color="#936ADF"/>
<stop offset="0.75" stop-color="#976EE1"/>
<stop offset="0.83" stop-color="#A27CE6"/>
<stop offset="0.9" stop-color="#B492EF"/>
<stop offset="0.98" stop-color="#CDB0FC"/>
<stop offset="1" stop-color="#D4B8FF"/>
</radialGradient>
<clipPath id="clip0_75_2330">
<rect width="47" height="47" fill="white"/>
</clipPath>
</defs>
</svg>
