<svg width="165" height="166" viewBox="0 0 165 166" fill="none" xmlns="http://www.w3.org/2000/svg">
<g opacity="0.19" filter="url(#filter0_f_75_2314)">
<path d="M73.1486 147.965C73.4444 148.028 75.2194 148.406 77.947 148.506L78.6372 148.653C78.9659 148.723 79.3275 148.8 79.6562 148.87C88.2801 149.31 96.9071 148.051 105.048 145.164L107.664 144.174C111.741 142.478 115.64 140.382 119.305 137.917C121.13 136.716 122.887 135.414 124.568 134.017C125.647 133.146 126.667 132.228 127.701 131.245L127.736 131.08L128.25 130.605L130.259 128.591L131.282 127.502L131.737 126.98L132.145 126.516L132.426 126.163C134.382 123.911 136.176 121.523 137.796 119.018L139.428 117.165L139.73 116.713L139.836 116.22L140.274 115.453L140.323 115.223L140.435 114.696L140.786 114.014L141.117 113.431L141.194 113.069L141.285 112.642L141.629 111.993L141.756 111.401L141.875 110.841L141.952 110.479L142.256 109.856L142.361 109.363L142.495 108.738L142.6 108.244L142.747 107.553L142.824 107.191L142.908 106.796L143.02 106.27L143.09 105.941L143.216 105.349L143.322 104.855L143.385 104.559L143.483 104.099L143.574 103.671L143.728 102.947L143.868 102.289L143.924 102.026L144.057 101.401L144.247 100.512L144.38 99.8871L145.004 96.9589C145.284 95.6429 145.557 94.3597 145.831 93.0766L146.006 92.254L146.195 91.3657L146.251 91.1025L146.517 89.8522L146.616 89.3916L146.783 87.6387L146.951 86.849L146.986 86.6845L147.048 85.4252L147.244 84.5039L147.299 82.7959C147.304 80.8365 147.236 78.8959 147.063 76.9673C147.006 75.7856 146.88 74.7615 146.712 73.4531C145.974 68.0523 144.573 62.7635 142.542 57.7063L141.934 56.2012L141.969 56.0367C141.572 55.1609 141.207 54.2922 140.77 53.4423L140.812 53.2449L140.478 52.5546L139.744 51.1601L139.325 50.3831L138.5 48.9347L138.293 48.6154C136.847 46.2094 135.707 44.6251 135.707 44.6251C135.176 43.8929 134.586 43.1137 133.989 42.3674L132.699 40.6824C131.744 39.5161 130.659 38.3218 129.338 36.9399C128.746 36.3322 128.062 35.6706 127.339 35.035L125.56 33.3835L123.453 31.6621C122.748 31.0992 122.069 30.5762 121.456 30.0673C120.029 28.9615 118.536 27.9429 116.986 27.017C115.495 26.1146 113.938 25.1982 112.327 24.3735C110.551 23.4297 108.722 22.5921 106.848 21.8651C100.279 19.2179 93.3247 17.6551 86.2551 17.2377C82.8049 17.028 79.3434 17.0957 75.9038 17.4403C72.4551 17.761 69.0389 18.3678 65.6903 19.2545C64.0241 19.6562 62.8133 20.0174 61.4429 20.4821C60.0726 20.9469 58.0923 21.6945 56.4217 22.4393L55.7859 22.6822C53.8561 23.4719 51.9833 24.3946 50.181 25.4436C48.9917 26.1877 47.3918 27.085 46.1932 28.0335C44.9947 28.9821 43.5473 29.8087 42.4356 30.6725C41.2042 31.6141 40.6718 32.0165 39.6587 32.9013C38.6456 33.7861 37.086 35.1393 35.9111 36.2992L34.7762 37.4332L33.5734 38.7247L32.8372 39.5998L32.7951 39.7972L31.7448 41.018L31.4705 41.3379C30.099 42.9916 28.8142 44.7155 27.6215 46.5026L26.459 48.2499L26.0887 48.8589L25.456 49.8935L25.0179 50.6601L24.9618 50.9233L24.8707 51.351L24.4864 52.0258L24.135 52.7076C22.8389 55.1627 21.7121 57.7037 20.7626 60.3127L20.7065 60.5759L20.5524 61.2997L20.4192 61.9249L20.1178 63.3397L19.4979 65.4432L19.0704 67.4502L18.3695 70.7404C18.1733 71.6616 17.914 72.879 17.7247 73.7673C17.5084 75.7505 17.2506 78.4127 17.1447 80.5227C17.0389 82.6326 17.0592 84.1502 17.1711 85.7218L17.2545 86.9434L17.5726 90.4506L17.7476 91.7261L18.2107 94.7139L18.3098 95.2165C18.5247 96.5296 18.8096 97.8303 19.1634 99.1129L19.604 100.755C20.0139 102.218 20.5768 104.092 21.1134 105.444C21.5723 106.677 22.097 107.924 22.6147 109.203L22.9676 109.966L23.6356 111.347L24.1625 112.422L25.1974 114.5C25.616 115.277 26.4085 116.718 27.7063 118.852L27.8707 118.887C28.6605 120.019 29.5538 121.309 30.6868 122.927C32.5675 125.403 34.6479 127.721 36.9071 129.858L39.1555 131.885L40.1727 132.755C40.6684 133.17 41.1641 133.585 41.6081 133.92L42.0521 134.256C42.8156 134.866 43.6189 135.449 44.481 136.08C45.5553 136.879 46.6702 137.621 47.821 138.305C49.6356 139.45 51.5127 140.493 53.4436 141.429C54.6106 142.05 55.8118 142.604 57.0413 143.089C58.3 143.633 59.6056 144.117 60.9441 144.609L61.8644 144.805C63.663 145.394 65.5742 145.939 67.5394 146.392L67.9009 146.469C69.9064 147.378 71.517 147.721 73.1486 147.965Z" fill="url(#paint0_radial_75_2314)"/>
<path d="M71.3907 50.5639C98.2189 30.7581 126.408 28.9209 137.809 45.2448L137.226 44.4327C136.701 43.6676 136.137 42.9283 135.54 42.182C134.943 41.4358 135.002 41.4826 134.737 41.1165C133.801 40.023 132.605 38.702 130.441 36.2805L130.095 35.9662C129.757 35.6189 129.386 35.2647 128.982 34.9035L126.512 32.6234L125.011 31.4437C111.643 21.1324 87.0373 24.696 63.3967 42.1197C37.6873 61.0288 21.7105 90.0595 23.9056 111.37L24.4325 112.445L25.4674 114.523C25.886 115.3 26.6785 116.742 27.9764 118.875L28.1407 118.91C28.9305 120.042 29.8238 121.333 30.9568 122.95C31.5726 123.769 32.4939 124.928 33.683 126.282C26.3499 105.218 42.6225 71.573 71.3907 50.5639Z" fill="url(#paint1_linear_75_2314)"/>
</g>
<defs>
<filter id="filter0_f_75_2314" x="0.0753174" y="0.118774" width="164.224" height="165.837" filterUnits="userSpaceOnUse" color-interpolation-filters="sRGB">
<feFlood flood-opacity="0" result="BackgroundImageFix"/>
<feBlend mode="normal" in="SourceGraphic" in2="BackgroundImageFix" result="shape"/>
<feGaussianBlur stdDeviation="8.5" result="effect1_foregroundBlur_75_2314"/>
</filter>
<radialGradient id="paint0_radial_75_2314" cx="0" cy="0" r="1" gradientUnits="userSpaceOnUse" gradientTransform="translate(72.8111 73.9481) rotate(101.666) scale(79.5915 79.5129)">
<stop offset="0.71" stop-color="#90B3E8"/>
<stop offset="0.76" stop-color="#9BBBEB"/>
<stop offset="0.86" stop-color="#B7CFF1"/>
<stop offset="0.98" stop-color="#E4F0FC"/>
<stop offset="1" stop-color="#ECF5FE"/>
</radialGradient>
<linearGradient id="paint1_linear_75_2314" x1="91.689" y1="21.7315" x2="67.8107" y2="133.827" gradientUnits="userSpaceOnUse">
<stop stop-color="#ECF5FE"/>
<stop offset="0.3" stop-color="#E4F0FD"/>
<stop offset="0.76" stop-color="#CFE4FB"/>
<stop offset="1" stop-color="#C1DCF9"/>
</linearGradient>
</defs>
</svg>
