<svg width="139" height="138" viewBox="0 0 139 138" fill="none" xmlns="http://www.w3.org/2000/svg">
<g opacity="0.74" clip-path="url(#clip0_75_2276)" filter="url(#filter0_f_75_2276)">
<path d="M18.0748 65.5256V65.3947C18.0748 65.1702 18.0748 63.7485 18.449 61.6533C18.449 61.4662 18.449 61.2792 18.449 61.1108C18.449 60.9424 18.449 60.5683 18.5799 60.2877C19.6495 53.6558 22.0141 47.2994 25.5389 41.5808C25.913 40.9822 26.3059 40.3649 26.7174 39.7101C28.6606 36.8396 30.8853 34.17 33.3583 31.741C34.5728 30.5421 35.8531 29.4117 37.1932 28.3551C38.035 27.6816 38.8955 27.0456 39.7748 26.4844L39.9057 26.3908H40.018L40.4669 26.0728C41.0281 25.68 41.6454 25.2871 42.3376 24.8756L43.3478 24.277L43.8155 24.0151L44.227 23.7719L44.545 23.6035C46.5854 22.4857 48.6977 21.5046 50.868 20.6665L52.1213 20.1989L52.5141 20.0679L52.907 19.9183H53.0005L53.6366 19.7125H53.7301H53.8236L54.2539 19.5815L54.8338 19.3945L55.3202 19.2635H55.6008H55.7878H55.9562L56.5174 19.1326L56.9851 19.0016L57.4154 18.9081H57.696L58.2384 18.7772H58.6126L59.1364 18.6649H59.2299H59.604H59.8472H60.1278H60.2588H60.4272H60.8387H61.1193H61.587H61.9798H62.223H62.5784H62.9151H63.4951H64.0189H64.2434H64.7297H65.4406H65.9457H66.4882H68.2653C69.3129 18.6649 70.3418 18.6649 71.3707 18.6649H72.0254H72.7176H73.1291H74.1206H74.476L75.8416 18.8333H76.4776H76.6086L77.5814 18.9642L78.3109 19.0952L79.6204 19.3384C81.0983 19.6564 82.5761 20.0305 84.0352 20.4608C84.8957 20.7039 85.6814 20.9659 86.6355 21.3026C90.5955 22.7477 94.3646 24.67 97.8596 27.0269L98.9072 27.7377L99.0382 27.85C99.6368 28.2615 100.235 28.7105 100.815 29.1782H100.965L101.451 29.5523L102.387 30.338L102.892 30.787L103.865 31.6475L104.089 31.8345C105.679 33.3311 106.652 34.4161 106.727 34.4909C107.213 35.0147 107.699 35.5759 108.186 36.1558L109.233 37.4279V37.5214C109.944 38.4194 110.692 39.3921 111.516 40.6642C111.89 41.2254 112.283 41.8614 112.675 42.5349L113.629 44.1437L114.602 46.0143C114.92 46.613 115.22 47.2116 115.481 47.7728C116.088 49.0522 116.626 50.3636 117.09 51.7012C117.539 52.9733 117.969 54.3389 118.344 55.6671V55.7606C118.78 57.2723 119.123 58.8091 119.373 60.3625C119.875 63.0965 120.131 65.8699 120.139 68.6497C120.167 71.3789 119.979 74.1061 119.578 76.8059C119.177 79.485 118.551 82.1257 117.708 84.7002C116.904 87.2732 115.891 89.7759 114.677 92.1829C114.184 93.2222 113.634 94.2339 113.031 95.2134C112.339 96.4106 111.553 97.5892 110.73 98.749L110.449 99.1793C109.521 100.49 108.508 101.74 107.419 102.921C106.671 103.706 105.716 104.791 104.949 105.558C104.182 106.325 103.079 107.317 102.312 108.009C101.395 108.795 101.021 109.131 100.161 109.767C99.3 110.403 98.0654 111.357 96.9804 112.068L95.9328 112.742L94.7355 113.453L93.9499 113.883H93.8189L92.6965 114.481L92.4159 114.631C91.1625 115.267 89.5912 116.034 87.8514 116.726L86.3362 117.306L85.8124 117.512L84.9144 117.83L84.2784 118.036H84.0352L83.6985 118.148L83.1186 118.316L82.5387 118.485C80.4489 119.067 78.3246 119.516 76.1784 119.832H75.9913L75.4114 119.925H74.9063L73.7839 120.056L72.0816 120.206H70.4727H69.6684C68.9575 120.206 68.0221 120.206 67.3113 120.206C66.6004 120.206 65.609 120.206 64.8794 120.094C63.3454 119.944 61.2877 119.701 59.7537 119.439C58.5565 119.233 56.9851 118.915 55.8066 118.578L54.8899 118.298L52.2335 117.493L51.2982 117.157C50.5499 116.876 49.8204 116.614 49.0908 116.315L48.7166 116.165C47.8561 115.828 46.846 115.342 45.8919 114.874L44.7134 114.276C43.5711 113.712 42.4596 113.087 41.3836 112.405H41.29C40.4108 111.863 39.5503 111.264 38.6898 110.647L38.1473 110.272L37.2119 109.543L36.4824 108.944L35.0794 107.822C34.0517 106.979 33.0771 106.073 32.1611 105.109L32.0114 104.96C31.2819 104.193 30.4401 103.276 29.4673 102.172C27.8858 100.331 26.4533 98.367 25.1834 96.2984C24.7906 95.6624 24.379 94.9702 23.9862 94.2594L23.4811 93.3053C23.2379 92.875 23.0134 92.4261 22.8263 92.0332L22.6393 91.6404C22.3025 90.9669 21.9845 90.2561 21.6665 89.5078C21.2265 88.5508 20.8393 87.5703 20.5067 86.5708C19.9642 85.0556 19.4778 83.4655 19.0476 81.7819C18.7708 80.784 18.546 79.7725 18.3741 78.7514C18.1683 77.7038 18 76.6375 17.8503 75.5338C17.8503 75.2906 17.8503 75.0474 17.7568 74.8042C17.6072 73.3264 17.4949 71.7924 17.4575 70.2023V69.9217C17.9813 68.1072 18 66.8351 18.0748 65.5256Z" fill="url(#paint0_radial_75_2276)"/>
<path d="M25.6324 41.4873L26.0626 40.8325C21.8349 49.6247 28.5881 63.1872 44.7695 75.4215C66.0766 91.5468 95.6335 99.1979 110.767 92.4822C113.583 91.3616 115.986 89.4024 117.651 86.8701C116.941 88.7408 116.248 90.1813 115.594 91.5656C115.1 92.6049 114.551 93.6166 113.948 94.5961C113.255 95.7933 112.47 96.9718 111.647 98.1317L111.366 98.5619L110.73 99.4599C109.279 100.838 107.594 101.947 105.754 102.734C90.6388 109.449 61.1006 101.798 39.7748 85.6729C25.3331 74.7294 18.3928 62.7196 20.1325 54.0022C21.4102 49.6343 23.2662 45.4568 25.6511 41.5808L25.6324 41.4873Z" fill="#E2D9F5"/>
<path d="M112.619 40.1404C112.46 39.8506 112.285 39.5696 112.096 39.2986C112.245 39.5605 112.432 39.8598 112.619 40.1404Z" fill="#9C6747"/>
</g>
<defs>
<filter id="filter0_f_75_2276" x="0" y="-1" width="139" height="139" filterUnits="userSpaceOnUse" color-interpolation-filters="sRGB">
<feFlood flood-opacity="0" result="BackgroundImageFix"/>
<feBlend mode="normal" in="SourceGraphic" in2="BackgroundImageFix" result="shape"/>
<feGaussianBlur stdDeviation="9" result="effect1_foregroundBlur_75_2276"/>
</filter>
<radialGradient id="paint0_radial_75_2276" cx="0" cy="0" r="1" gradientUnits="userSpaceOnUse" gradientTransform="translate(61.4871 69.8802) rotate(-179.427) scale(56.6659 56.6659)">
<stop stop-color="#B48CF9"/>
<stop offset="0.18" stop-color="#A77EEF"/>
<stop offset="0.46" stop-color="#986FE3"/>
<stop offset="0.68" stop-color="#936ADF"/>
<stop offset="0.75" stop-color="#976EE1"/>
<stop offset="0.83" stop-color="#A27CE6"/>
<stop offset="0.9" stop-color="#B492EF"/>
<stop offset="0.98" stop-color="#CDB0FC"/>
<stop offset="1" stop-color="#D4B8FF"/>
</radialGradient>
<clipPath id="clip0_75_2276">
<rect width="103" height="103" fill="white" transform="translate(18 17)"/>
</clipPath>
</defs>
</svg>
