<svg width="455" height="428" viewBox="0 0 455 428" fill="none" xmlns="http://www.w3.org/2000/svg">
<g clip-path="url(#clip0_75_2321)">
<path d="M66.9458 136.851L64.3891 171.651L10.1619 135.969L12.7241 101.19L66.9458 136.851Z" fill="url(#paint0_linear_75_2321)"/>
<path d="M298.706 149.803C296.941 148.64 295.146 147.531 293.33 146.426L291.864 145.542C290.27 144.602 288.662 143.689 287.012 142.787L286.197 142.333C284.626 141.476 283.061 140.641 281.454 139.817L280.635 139.431L277.739 137.966C276.534 137.393 275.351 136.814 274.131 136.267L271.11 134.836L267.446 133.263L264.339 132.011C263.115 131.532 261.844 131.044 260.62 130.565L257.446 129.399L255.31 128.604L253.471 127.999L251.01 127.157C249.513 126.662 248.028 126.208 246.542 125.755C245.757 125.494 244.957 125.261 244.115 125.038C242.331 124.5 240.541 123.994 238.744 123.519L237.243 123.092C235.08 122.528 232.907 122.013 230.702 121.46L230.276 121.373L228.399 120.957C226.663 120.571 224.948 120.178 223.203 119.839L220.653 119.335C219.097 119.034 217.561 118.729 215.948 118.466L213.279 118.016C211.707 117.742 210.126 117.516 208.602 117.252L206.065 116.878L205.041 116.727C203.88 116.567 202.73 116.449 201.554 116.316C200.379 116.183 199.49 116.04 198.456 115.936L193.654 115.452L190.877 115.187C188.936 115.035 187 114.904 185.049 114.799C184.456 114.756 183.858 114.692 183.271 114.67C180.795 114.526 178.31 114.43 175.847 114.417L175.722 114.451C172.634 114.359 169.542 114.336 166.461 114.354L163.769 114.403C161.542 114.439 159.316 114.475 157.106 114.573L154.164 114.689C151.692 114.813 149.212 114.985 146.742 115.198L144.942 115.321C141.922 115.57 138.905 115.907 135.914 116.26L135.308 116.422L132.893 116.755L128.032 117.474L124.756 118.015L120.17 118.839L116.838 119.507C115.378 119.898 113.872 120.122 112.401 120.471L108.97 121.188L104.63 122.35L101.417 123.21C99.9567 123.601 98.5171 123.986 97.1111 124.497C96.0887 124.771 95.0246 125.056 94.0567 125.449C92.5544 125.851 91.1443 126.43 89.6965 126.952L86.8787 127.953C85.3113 128.53 83.7761 129.142 82.2463 129.776C81.4815 130.093 80.6637 130.379 79.9044 130.716C77.7711 131.601 75.6963 132.537 73.6327 133.515L73.1529 133.644C71.0476 134.633 68.9799 135.679 66.9443 136.762L64.382 171.541C66.3342 170.481 68.4909 169.433 70.5906 168.423L71.0914 168.289C73.0771 167.354 75.2353 166.396 77.363 165.49L79.7258 164.544L84.3374 162.727L87.1759 161.721C88.6085 161.225 90.0354 160.709 91.4944 160.229L94.5696 159.271L98.8759 157.984L102.047 157.135L106.366 155.978L109.663 155.096L114.079 154.138L117.411 153.47L121.977 152.651L125.295 152.098L130.119 151.412C131.134 151.274 132.163 151.111 133.183 150.995C136.168 150.621 139.192 150.304 142.205 150.035L144.027 149.906C146.502 149.714 148.962 149.548 151.433 149.424L154.391 149.282L161.053 149.111L163.751 149.083C166.832 149.065 169.924 149.088 173.012 149.18C175.533 149.244 178.066 149.35 180.561 149.399L182.339 149.528C184.296 149.654 186.226 149.764 188.173 149.937L190.95 150.202C192.55 150.334 194.156 150.486 195.747 150.665L198.845 151.045C200.346 151.226 201.869 151.401 203.465 151.601L205.982 151.98L210.652 152.723L213.348 153.188L218.047 154.036L220.597 154.541C222.348 154.901 224.084 155.287 225.82 155.674L227.677 156.095C230.054 156.623 232.333 157.201 234.643 157.814L236.118 158.226C237.923 158.706 239.734 159.206 241.53 159.734L243.958 160.45C245.464 160.898 246.955 161.373 248.425 161.853L250.886 162.695L254.861 164.095L258.062 165.276L261.76 166.728C262.809 167.141 263.833 167.539 264.867 167.979C265.902 168.419 267.379 169.009 268.53 169.552C269.682 170.095 270.531 170.428 271.552 170.983C272.573 171.539 274.081 172.076 275.16 172.683C276.239 173.29 277.109 173.617 278.056 174.148C279.937 175.078 281.803 176.034 283.612 177.028L284.448 177.477C286.077 178.385 287.691 179.319 289.285 180.259L290.745 181.122C292.561 182.226 294.362 183.357 296.121 184.499C329.046 206.172 344.504 233.26 342.596 259.128L345.159 224.348C347.088 198.564 331.714 171.454 298.706 149.803Z" fill="url(#paint1_linear_75_2321)"/>
<path d="M420.173 265.016L422.73 230.216C422.587 232.27 422.355 234.326 422.132 236.334C422.183 236.522 422.066 236.755 422.054 236.96C421.717 239.044 421.333 241.118 420.84 243.199C420.782 243.483 420.682 243.779 420.624 244.063C420.203 245.833 419.73 247.573 419.188 249.308C418.975 250.015 418.714 250.712 418.475 251.403C418.046 252.728 417.598 254.057 417.075 255.362C416.774 256.16 416.447 256.942 416.099 257.729C415.601 258.96 415.093 260.238 414.505 261.381L413.381 263.698C412.762 264.894 412.149 266.111 411.483 267.298C411.061 268.06 410.639 268.823 410.19 269.57C409.467 270.794 408.718 272.003 407.926 273.223C407.488 273.923 407.049 274.623 406.584 275.307C405.638 276.703 404.639 278.068 403.626 279.459C403.262 279.937 402.924 280.431 402.54 280.915C401.299 282.546 399.985 284.152 398.618 285.728L397.895 286.616C396.271 288.484 394.552 290.333 392.676 292.179C392.151 292.723 391.557 293.263 390.99 293.818C389.718 295.077 388.424 296.342 387.083 297.597L384.744 299.634C383.531 300.698 382.317 301.762 381.131 302.841C379.944 303.921 378.53 304.904 377.19 305.912C376.192 306.695 375.236 307.466 374.206 308.212C372.767 309.269 371.255 310.301 369.748 311.354C368.743 312.027 367.874 312.707 366.765 313.408C365.034 314.543 363.25 315.648 361.446 316.758C360.543 317.313 359.688 317.878 358.781 318.412C356.021 320.047 353.202 321.63 350.269 323.2L347.706 357.979C350.646 356.431 353.563 354.798 356.218 353.192C357.147 352.652 358.002 352.087 358.883 351.537C360.688 350.427 362.477 349.343 364.208 348.208C365.234 347.53 366.186 346.827 367.186 346.134C368.698 345.102 370.211 344.07 371.649 343.012L374.634 340.713C375.968 339.683 377.308 338.675 378.568 337.621L379.163 337.17C380.238 336.256 381.244 335.337 382.276 334.433C383.309 333.529 383.862 333.09 384.615 332.396C385.962 331.161 387.256 329.897 388.528 328.638L390.318 326.971C392.063 325.138 393.803 323.283 395.531 321.387L396.261 320.519C397.555 319.008 398.824 317.481 400.003 315.956L400.203 315.701L401.262 314.23C402.282 312.859 403.269 311.453 404.22 310.078L405.568 308.015C406.36 306.795 407.151 305.575 407.827 304.341L409.125 302.09C409.786 300.882 410.425 299.681 411.018 298.469C411.398 297.718 411.794 296.94 412.147 296.173L412.765 294.888C413.113 294.1 413.414 293.303 413.762 292.515L414.738 290.148C415.234 288.828 415.689 287.519 416.138 286.19C416.351 285.483 416.612 284.786 416.831 284.1C417.367 282.344 417.84 280.604 418.266 278.855C418.324 278.571 418.424 278.275 418.497 277.964C418.941 276.031 419.317 274.094 419.64 272.126C419.647 271.993 419.664 271.861 419.691 271.731L419.769 271.105C419.793 269.105 420.03 267.07 420.173 265.016Z" fill="url(#paint2_linear_75_2321)"/>
<path d="M12.7242 101.19C108.158 50.4185 261.083 58.9616 354.254 120.26C447.425 181.559 445.608 272.409 350.174 323.18L295.905 287.509C360.67 253.057 361.864 191.45 298.664 149.815C235.465 108.179 131.696 102.426 66.9096 136.883L12.7242 101.19Z" fill="url(#paint3_linear_75_2321)"/>
<path d="M318.035 138.984L317.946 138.649C317.636 138.466 317.278 138.382 316.92 138.409L316.886 138.283L316.093 138.16L315.968 138.193C315.859 138.2 315.752 138.229 315.655 138.277C315.555 138.325 315.477 138.408 315.434 138.51C315.391 138.613 315.388 138.727 315.423 138.832L315.182 139.434L315.238 139.643L315.805 140.007L316.407 140.002L316.616 139.946L316.72 139.918L316.845 139.885C317.184 139.899 317.519 139.809 317.805 139.628L318.153 139.423L318.035 138.984Z" fill="url(#paint4_linear_75_2321)"/>
<path d="M321.784 142.214L321.723 141.984C321.726 141.815 321.774 141.65 321.86 141.505C321.947 141.36 322.07 141.24 322.217 141.157C322.398 141.084 322.587 141.034 322.78 141.006C323.128 140.905 323.498 140.916 323.839 141.037C324.277 141.035 324.702 141.182 325.046 141.453L325.19 141.571C325.257 141.661 325.287 141.773 325.274 141.884C325.314 141.954 325.335 142.034 325.335 142.114C325.302 142.214 325.24 142.301 325.156 142.364L325.184 142.468L324.941 142.646C324.776 142.742 324.589 142.792 324.398 142.791C323.952 142.942 323.472 142.968 323.012 142.866C322.551 142.765 322.127 142.539 321.784 142.214Z" fill="url(#paint5_linear_75_2321)"/>
<path d="M319.355 125.705C319.817 125.649 320.285 125.692 320.73 125.83C320.922 125.812 321.117 125.833 321.301 125.891C321.486 125.949 321.657 126.044 321.805 126.17C321.833 126.239 321.842 126.315 321.83 126.389C321.819 126.464 321.787 126.533 321.738 126.591L321.8 126.821L321.633 126.865L321.327 127.059C321.02 127.226 320.696 127.358 320.359 127.453L320.004 127.548L319.274 127.407L319.107 127.452L318.621 127.224L318.582 127.077C318.513 127.018 318.456 126.945 318.415 126.864C318.374 126.783 318.35 126.694 318.343 126.604C318.297 126.554 318.263 126.494 318.245 126.428C318.228 126.362 318.227 126.293 318.242 126.227L318.347 126.199L318.514 126.155L318.91 126.049L319.167 125.756L319.355 125.705Z" fill="url(#paint6_linear_75_2321)"/>
<path d="M318.965 105.291C319.146 105.339 319.31 105.434 319.442 105.567L319.468 105.582L319.722 106.029L319.597 106.063C319.428 106.224 319.305 106.427 319.24 106.651L319.488 106.742L319.527 106.888C319.551 106.975 319.542 107.068 319.502 107.149C319.462 107.23 319.393 107.294 319.309 107.327C319.065 107.476 318.782 107.552 318.495 107.545L317.514 107.471L317.464 107.283L317.369 106.928C317.143 106.833 316.929 106.709 316.734 106.56C316.633 106.465 316.521 106.382 316.4 106.314L316.246 106.243L316.129 105.804L316.358 105.743L316.546 105.692L316.507 105.546L316.611 105.518L316.757 105.479L316.924 105.434L317.01 105.254L317.177 105.21C317.318 105.154 317.465 105.114 317.615 105.092L317.824 105.037L318.26 105.077L318.385 105.043L318.965 105.291Z" fill="url(#paint7_linear_75_2321)"/>
<path d="M347.15 215.751C346.7 215.993 346.2 216.126 345.69 216.142L345.379 216.068L344.984 215.928C344.96 215.419 344.977 214.899 344.848 214.418L345.078 214.357L345.474 214.251C345.905 214.239 346.33 214.351 346.701 214.572L346.833 214.649L347.58 214.852L347.631 215.04C347.622 215.191 347.572 215.336 347.488 215.461C347.403 215.586 347.287 215.686 347.15 215.751Z" fill="url(#paint8_linear_75_2321)"/>
<path d="M352.998 289.63L352.965 289.505L352.803 289.57C352.32 289.184 352.283 288.881 352.688 288.638L352.792 288.61L353.384 288.564L353.509 288.53C353.774 288.612 354.025 288.733 354.254 288.891L354.724 289.145L354.883 289.237L355.006 289.697L354.798 289.753C354.45 289.909 354.062 289.951 353.689 289.871L352.998 289.63Z" fill="url(#paint9_linear_75_2321)"/>
<path d="M303.799 101.758L304.59 101.792L304.866 101.987C305.142 102.182 305.305 102.541 304.781 102.838L304.614 102.883L304.468 102.922L303.739 102.871L303.045 102.452L303.36 101.875L303.632 101.802L303.799 101.758Z" fill="url(#paint10_linear_75_2321)"/>
<path d="M326.658 173.031L326.533 173.065C326.384 173.174 326.214 173.25 326.034 173.288C325.606 172.775 325.157 172.268 324.708 171.761L324.875 171.717L325.153 171.754C325.428 171.807 325.688 171.921 325.914 172.088C325.991 172.141 326.076 172.178 326.167 172.199L326.334 172.155L326.368 172.28L326.728 172.542L326.768 172.688L326.658 173.031Z" fill="url(#paint11_linear_75_2321)"/>
<path d="M340.963 242.921L340.776 242.972L340.574 243.138L340.946 242.187C341.081 242.239 341.202 242.321 341.301 242.428L341.329 242.532L341.193 242.86L340.963 242.921Z" fill="url(#paint12_linear_75_2321)"/>
<path d="M328.842 147.448L328.738 147.476C328.475 147.603 328.179 147.646 327.89 147.599C327.602 147.552 327.335 147.417 327.125 147.213L327.024 146.837L327.149 146.803L327.296 146.764C327.554 146.591 327.862 146.508 328.172 146.53C328.449 146.554 328.715 146.653 328.942 146.816L329.085 146.935L328.842 147.448Z" fill="url(#paint13_linear_75_2321)"/>
<path d="M321.441 110.363L321.608 110.318L321.348 110.432C321.401 110.465 321.446 110.51 321.477 110.564C321.508 110.618 321.525 110.679 321.526 110.742C321.527 110.804 321.513 110.866 321.483 110.921C321.454 110.976 321.411 111.023 321.359 111.057L321.403 111.224L321.153 111.291L320.798 111.386L320.602 111.573L320.402 111.492C320.059 111.572 319.701 111.559 319.364 111.456C319.029 111.349 318.725 111.161 318.479 110.909L318.435 110.742L318.367 110.491C318.411 110.383 318.488 110.291 318.588 110.23L318.776 110.18C318.792 110.129 318.819 110.082 318.854 110.041C318.89 110.001 318.933 109.969 318.982 109.946C319.169 109.849 319.373 109.789 319.583 109.771C319.794 109.754 320.005 109.778 320.206 109.842L320.582 109.742L320.777 109.801C321.061 109.898 321.298 110.098 321.441 110.363Z" fill="url(#paint14_linear_75_2321)"/>
<path d="M335.397 180.951C335.363 180.826 335.259 180.854 335.259 180.854L335.07 180.815C334.787 180.51 334.992 180.275 335.118 180.242C335.303 180.121 335.522 180.062 335.743 180.074L335.869 180.041L336.036 179.996C336.253 179.84 336.52 179.768 336.787 179.795C336.93 179.825 337.069 179.87 337.203 179.93C337.34 179.957 337.47 180.014 337.583 180.097C337.63 180.124 337.671 180.16 337.705 180.203C337.738 180.246 337.762 180.295 337.776 180.348C337.79 180.4 337.794 180.455 337.786 180.509C337.779 180.563 337.761 180.615 337.734 180.662L337.824 180.996L337.594 181.057C337.379 181.183 337.134 181.248 336.885 181.247L336.759 181.281C336.575 181.385 336.367 181.441 336.154 181.443L336.008 181.482L335.486 181.286L335.458 181.181L335.397 180.951Z" fill="url(#paint15_linear_75_2321)"/>
<path d="M328.222 158.993L328.177 158.826C328.101 158.777 328.043 158.705 328.012 158.62C327.981 158.535 327.979 158.443 328.006 158.356L327.738 158.272C327.632 158.239 327.537 158.178 327.464 158.094C327.39 158.011 327.341 157.91 327.321 157.801L327.563 157.534L327.688 157.501C327.863 157.433 328.045 157.384 328.23 157.356L328.903 157.444L328.936 157.57C328.977 157.592 329.012 157.623 329.041 157.66C329.069 157.696 329.09 157.738 329.102 157.783C329.114 157.828 329.117 157.875 329.111 157.921C329.104 157.967 329.089 158.011 329.065 158.051L329.281 158.105L329.736 158.386L329.489 158.967L329.239 159.035L329.114 159.068L328.222 158.993Z" fill="url(#paint16_linear_75_2321)"/>
<path d="M340.202 187.707L339.954 187.616L339.937 187.554C339.676 187.488 339.424 187.39 339.188 187.261L339.044 187.143L339.245 186.641L339.496 186.574C339.774 186.43 340.08 186.348 340.393 186.334C340.564 186.255 340.748 186.206 340.935 186.189L341.165 186.127L341.758 186.506L341.803 186.673C341.863 186.782 341.896 186.904 341.898 187.028C341.969 187.211 341.862 187.396 341.696 187.441C341.433 187.586 341.14 187.665 340.84 187.67L340.202 187.707Z" fill="url(#paint17_linear_75_2321)"/>
<path d="M334.742 151.11C334.436 151.26 334.085 151.29 333.758 151.194L333.523 151.235L333.189 151.324L333.128 151.094L333.053 151.316L332.538 151.23L332.504 151.104C332.45 151.073 332.406 151.028 332.375 150.973C332.345 150.919 332.329 150.857 332.331 150.795C332.333 150.732 332.351 150.671 332.384 150.619C332.418 150.566 332.465 150.523 332.52 150.495L332.75 150.434C332.816 150.337 332.9 150.254 332.997 150.188L333.435 150.071C333.72 150.029 334.011 150.086 334.261 150.231C334.338 150.262 334.406 150.314 334.457 150.38L334.69 150.497C334.764 150.541 334.827 150.603 334.873 150.676C334.92 150.749 334.949 150.831 334.959 150.917L334.888 151.071L334.742 151.11Z" fill="url(#paint18_linear_75_2321)"/>
<path d="M322.922 118.232L322.97 117.995L323.237 117.991C324.175 117.986 324.557 118.242 324.657 118.619C324.694 118.655 324.72 118.699 324.735 118.749C324.749 118.798 324.751 118.85 324.74 118.9C324.728 118.95 324.705 118.996 324.671 119.035C324.637 119.073 324.594 119.102 324.545 119.119L324.003 119.264C323.864 119.257 323.727 119.225 323.598 119.171L323.009 119.06L322.981 118.955C322.573 118.684 322.63 118.31 322.922 118.232Z" fill="url(#paint19_linear_75_2321)"/>
<path d="M320.285 102.451C320.501 102.328 320.745 102.263 320.994 102.261L321.009 102.235C321.294 102.315 321.552 102.47 321.756 102.685L321.86 102.657L321.966 103.054L321.82 103.093C321.558 103.232 321.262 103.293 320.966 103.269C320.671 103.245 320.388 103.137 320.152 102.957L320.034 102.518L320.159 102.485L320.285 102.451Z" fill="url(#paint20_linear_75_2321)"/>
<path d="M230.01 89.7253C229.356 90.009 228.617 90.0303 227.947 89.7849L227.656 89.6163L227.765 89.2735L227.601 89.1606L227.734 88.6547L228.13 88.5486L228.485 88.4536L228.92 88.4938L229.233 88.41L229.366 88.4866C229.488 88.5277 229.599 88.5979 229.689 88.6913L229.814 88.6578C230.283 88.5923 230.759 88.7043 231.15 88.972L231.206 89.1811C231.419 89.1828 231.626 89.253 231.796 89.3815C231.839 89.4245 231.87 89.478 231.886 89.5367C231.902 89.5954 231.902 89.6572 231.886 89.7159C231.935 89.782 231.957 89.8641 231.947 89.9458C231.96 90.0768 231.889 90.2301 231.722 90.2748L231.514 90.3307L231.284 90.3921L230.431 90.1278L230.392 89.9814C230.353 89.9355 230.326 89.8819 230.31 89.8241C230.295 89.7664 230.292 89.7059 230.302 89.6471C230.25 89.6731 230.193 89.6883 230.135 89.6917L230.01 89.7253Z" fill="url(#paint21_linear_75_2321)"/>
<path d="M256.878 116.671L257.149 116.598L257.708 116.516L258.474 116.535L258.908 116.822L259.015 117.219L258.91 117.247L258.743 117.291L258.639 117.319C258.591 117.355 258.531 117.371 258.472 117.364C258.268 117.464 258.041 117.509 257.814 117.495C257.587 117.482 257.367 117.409 257.177 117.285L257.018 117.193L256.878 116.671Z" fill="url(#paint22_linear_75_2321)"/>
<path d="M250.927 113.985C250.815 113.962 250.706 113.923 250.605 113.87L250.632 113.885C250.272 113.713 250.279 113.487 250.355 113.354C250.006 113.134 249.876 112.564 250.314 112.447L250.543 112.386L251.325 112.467L251.359 112.593C251.422 112.632 251.476 112.685 251.516 112.748C251.556 112.811 251.582 112.882 251.591 112.956C251.766 113.014 251.932 113.098 252.082 113.206L252.116 113.331C252.444 113.557 252.545 113.933 252.161 114.17L251.89 114.243L251.418 114.235C251.232 114.207 251.059 114.12 250.927 113.985Z" fill="url(#paint23_linear_75_2321)"/>
<path d="M232.561 116.46C232.826 116.542 233.078 116.664 233.306 116.821L233.638 117.225L233.818 117.311L233.941 117.771L233.711 117.833C233.378 118.004 232.994 118.052 232.629 117.965L231.938 117.725L231.91 117.62C231.406 117.24 231.364 116.915 231.768 116.673L231.873 116.645L232.436 116.494L232.561 116.46Z" fill="url(#paint24_linear_75_2321)"/>
<path d="M264.769 130.194L264.691 129.901L264.82 129.799C265.583 129.57 266.405 129.647 267.113 130.014L267.293 130.1L267.416 130.56L267.27 130.599L267.166 130.627C267.02 130.811 266.842 130.965 266.639 131.082L266.451 131.132L265.807 131.148L265.654 131.077C265.513 131.045 265.379 130.985 265.261 130.902C265.142 130.818 265.042 130.712 264.964 130.589C264.832 130.497 264.728 130.37 264.665 130.222L264.769 130.194Z" fill="url(#paint25_linear_75_2321)"/>
<path d="M349.34 212.656C349.488 212.706 349.961 212.803 350.034 213.075L349.889 213.203C349.969 213.256 350.027 213.336 350.052 213.428C350.077 213.521 350.067 213.619 350.024 213.705L349.957 214.126L349.728 214.187L349.373 214.282L349.081 214.36L348.301 214.121L348.262 213.975C348.092 213.841 347.926 213.639 347.969 213.381L347.941 213.277L348.296 213.182C348.349 213.048 348.445 212.936 348.568 212.863L348.673 212.835L349.215 212.689L349.34 212.656Z" fill="url(#paint26_linear_75_2321)"/>
<path d="M250.431 108.876C250.698 108.903 250.957 108.987 251.19 109.121L251.364 109.187L251.237 109.714L251.028 109.769L250.652 109.87L250.339 109.954L249.528 109.678L249.489 109.532C249.444 109.365 249.534 109.117 249.764 109.055C249.965 108.935 250.196 108.873 250.431 108.876Z" fill="url(#paint27_linear_75_2321)"/>
<path d="M223.021 76.2296L223.049 76.3341L223.055 76.355C223.145 76.4428 223.449 76.7423 222.856 77.0353L222.356 77.1693L222.231 77.2028C221.884 77.1561 221.555 77.0204 221.275 76.8089L221.247 76.7044L221.245 76.2793L221.904 75.9013L222.702 75.9566L222.84 76.0541C222.912 76.0987 222.974 76.1586 223.021 76.2296Z" fill="url(#paint28_linear_75_2321)"/>
<path d="M270.072 111.75C269.995 111.64 269.959 111.507 269.971 111.373L269.977 111.394C269.986 111.351 270.007 111.311 270.038 111.279C270.069 111.246 270.109 111.224 270.152 111.213L270.02 111.137L269.936 110.823L270.123 110.773C270.268 110.705 270.424 110.664 270.582 110.65L270.708 110.616L271.188 110.488C271.409 110.453 271.636 110.486 271.839 110.582L271.943 110.554C272.481 110.724 272.52 110.87 272.52 110.87C272.642 110.984 272.723 111.137 272.747 111.302L272.87 111.762L272.682 111.812L272.557 111.846L272.328 111.907C272.164 111.986 271.987 112.034 271.806 112.047L271.66 112.086L271.071 111.975C270.847 111.978 270.624 111.955 270.405 111.907L270.072 111.75Z" fill="url(#paint29_linear_75_2321)"/>
<path d="M246.792 85.3445L246.882 85.679L246.887 85.6999C247.047 85.7991 247.172 85.9456 247.246 86.1191C247.247 86.2317 247.214 86.3419 247.151 86.4356L246.809 86.6615L246.455 86.7565C246.341 86.9069 246.201 87.0354 246.042 87.1358C245.635 87.3491 245.17 87.4264 244.715 87.3567C244.531 87.3226 244.358 87.2464 244.208 87.1339C243.483 87.0144 243.41 86.7427 243.36 86.5546L243.457 86.4166C243.4 86.3563 243.358 86.2826 243.337 86.2023C243.315 86.122 243.314 86.0375 243.334 85.9567L243.556 85.7852C243.491 85.6236 243.469 85.2932 243.845 85.1927L244.033 85.1424L244.179 85.1033L244.346 85.0587C244.485 84.9989 244.633 84.9594 244.784 84.9413C245.28 84.8325 245.799 84.918 246.234 85.1803L246.467 85.2973L246.792 85.3445Z" fill="url(#paint30_linear_75_2321)"/>
<path d="M370.297 295.617C369.97 295.48 369.707 295.416 369.629 295.124L369.651 295.136C369.51 295.054 369.399 294.928 369.335 294.777L369.307 294.672L369.228 294.38L369.5 294.307C370.263 294.078 371.085 294.155 371.793 294.522L371.952 294.614L372.075 295.074L371.929 295.113L371.804 295.146C371.668 295.333 371.499 295.493 371.303 295.616L371.095 295.672L370.451 295.688L370.297 295.617Z" fill="url(#paint31_linear_75_2321)"/>
<path d="M351.787 229.961C351.7 230.091 351.579 230.195 351.437 230.261L351.443 230.282C350.874 230.485 350.257 230.509 349.673 230.353L349.548 230.386L349.026 230.19C348.881 230.042 348.713 229.921 348.527 229.831L348.423 229.859L348.311 229.441L348.415 229.413C348.514 229.297 348.631 229.197 348.761 229.118L349.074 229.035L349.408 228.945L349.804 228.839C350.24 228.826 350.669 228.945 351.036 229.181L351.141 229.153L351.883 229.336L351.933 229.524C351.925 229.68 351.874 229.831 351.787 229.961Z" fill="url(#paint32_linear_75_2321)"/>
<path d="M363.166 281.756L362.999 281.801L363.046 281.81C362.846 281.951 362.613 282.038 362.37 282.064C362.126 282.09 361.881 282.054 361.655 281.959L361.496 281.867L361.356 281.344L361.628 281.272L362.131 280.98L362.875 281.005L363.331 281.286L363.437 281.683L363.312 281.717L363.166 281.756Z" fill="url(#paint33_linear_75_2321)"/>
<path d="M277.077 92.6484L276.764 92.7322L276.65 92.8075L276.108 92.9527L275.983 92.9862L275.858 93.0197L275.115 93.0842L274.961 93.0132L274.541 92.9465L274.282 92.8143L274.066 92.76L273.807 92.6278C273.148 92.0874 273.67 91.6119 273.995 91.3232L274.191 91.1363L275.15 90.8794L275.628 90.9084C276.108 91.1158 276.446 91.294 276.785 91.4722L276.785 91.4723L277.065 91.5989C277.263 91.6228 277.447 91.7165 277.583 91.8635L277.473 92.2064L277.306 92.2511C277.312 92.3326 277.293 92.414 277.252 92.4848C277.212 92.5555 277.151 92.6125 277.077 92.6484Z" fill="url(#paint34_linear_75_2321)"/>
<path d="M338.194 164.589L338.027 164.634L337.849 164.637L336.903 164.442L336.858 164.275C336.814 164.169 336.811 164.051 336.847 163.942C336.884 163.833 336.959 163.742 337.057 163.684L337.182 163.65L338.088 163.61L338.279 163.738C338.555 163.933 338.713 164.271 338.194 164.589Z" fill="url(#paint35_linear_75_2321)"/>
<path d="M286.772 135.795L287.564 135.829L287.84 136.024C288.116 136.219 288.279 136.578 287.755 136.876L287.588 136.92L287.442 136.959L286.692 136.914L285.998 136.495L286.313 135.917L286.605 135.839L286.772 135.795Z" fill="url(#paint36_linear_75_2321)"/>
<path d="M281.21 137.821C281.489 137.84 281.755 137.95 281.965 138.134L282.096 138.122L282.228 138.198L282.368 138.721L282.18 138.771C281.852 138.913 281.485 138.932 281.144 138.825C280.978 138.794 280.824 138.718 280.699 138.605C280.574 138.493 280.483 138.347 280.436 138.185L280.585 137.989C280.768 137.863 280.989 137.804 281.21 137.821Z" fill="url(#paint37_linear_75_2321)"/>
<path d="M354.422 260.713C353.961 260.611 353.537 260.382 353.197 260.053L353.041 260.14L352.974 259.889C352.983 259.718 353.035 259.552 353.125 259.406C353.215 259.261 353.34 259.14 353.489 259.056C353.67 258.984 353.859 258.933 354.052 258.906L354.157 258.878C354.498 258.758 354.871 258.761 355.21 258.887C355.645 258.901 356.066 259.046 356.417 259.303L356.561 259.421L356.588 259.526C356.656 259.616 356.686 259.728 356.672 259.839C356.696 259.868 356.714 259.902 356.723 259.938C356.733 259.974 356.735 260.012 356.728 260.048C356.709 260.147 356.652 260.235 356.57 260.292L356.604 260.418L356.353 260.485C356.189 260.581 356.002 260.632 355.811 260.63C355.365 260.786 354.884 260.815 354.422 260.713Z" fill="url(#paint38_linear_75_2321)"/>
<path d="M364.401 172.111C364.67 172.128 364.931 172.212 365.16 172.356L365.334 172.422L365.186 172.954L364.977 173.01L364.622 173.105L364.288 173.194L363.492 172.892L363.458 172.767C363.414 172.6 363.504 172.351 363.733 172.29C363.935 172.17 364.166 172.108 364.401 172.111Z" fill="url(#paint39_linear_75_2321)"/>
<path d="M338.765 115.021L338.871 115.418L338.479 115.792L338.546 116.043L338.4 116.082L338.234 116.127C338.08 116.211 337.908 116.257 337.733 116.261L337.336 116.367C337.119 116.334 336.918 116.231 336.765 116.072L336.64 116.105L336.601 115.959C336.568 115.913 336.546 115.861 336.535 115.806C336.524 115.751 336.525 115.695 336.538 115.64C336.551 115.586 336.575 115.535 336.61 115.49C336.645 115.446 336.688 115.41 336.738 115.385L337.114 115.284L337.185 114.884L337.436 114.817C337.858 114.772 338.284 114.853 338.66 115.049L338.765 115.021Z" fill="url(#paint40_linear_75_2321)"/>
<path d="M361.058 154.279L360.912 154.319L360.468 154.415L360.343 154.448C359.996 154.402 359.667 154.266 359.388 154.055L359.355 153.929L359.379 153.519L360.017 153.147L360.815 153.202L360.952 153.3C361.025 153.344 361.087 153.404 361.134 153.475L361.162 153.58C361.273 153.662 361.577 153.961 361.058 154.279Z" fill="url(#paint41_linear_75_2321)"/>
<path d="M366.205 176.512L366.239 176.637L366.138 176.597C366.462 176.801 366.568 177.198 366.379 177.495L366.108 177.568L365.636 177.56C365.448 177.519 365.276 177.425 365.139 177.29C365.029 177.275 364.923 177.243 364.823 177.195C364.721 177.154 364.634 177.083 364.573 176.991C364.513 176.899 364.482 176.791 364.484 176.681C364.155 176.456 364.032 175.996 364.437 175.753L364.666 175.692L365.448 175.773L365.586 175.871C365.67 175.985 365.708 176.127 365.693 176.268C365.873 176.326 366.046 176.408 366.205 176.512Z" fill="url(#paint42_linear_75_2321)"/>
<path d="M393.283 287.514L393.145 287.417L393.045 287.376C392.8 287.129 392.821 287.123 392.706 286.862L392.913 286.381L393.309 286.275L393.792 285.989L394.563 286.029L394.991 286.295L395.047 286.504C395.188 286.555 395.316 286.636 395.423 286.74C395.485 286.802 395.53 286.879 395.555 286.963C395.58 287.046 395.585 287.135 395.568 287.221C395.552 287.307 395.515 287.388 395.46 287.456C395.405 287.524 395.335 287.579 395.255 287.614L395.067 287.664L394.566 287.798L394.271 287.698L393.553 287.688L393.525 287.584L393.283 287.514Z" fill="url(#paint43_linear_75_2321)"/>
<path d="M362.763 237.489L362.489 237.383L362.483 237.362L362.439 237.195L362.192 236.857L362.561 236.983C362.611 236.91 362.681 236.852 362.762 236.817C363.086 236.631 363.453 236.533 363.826 236.532L364.014 236.482L364.638 236.807L364.671 236.933C364.712 237.168 364.469 237.346 364.365 237.373L364.307 237.658L364.181 237.691C363.926 237.812 363.639 237.849 363.361 237.799C363.132 237.766 362.921 237.657 362.763 237.489Z" fill="url(#paint44_linear_75_2321)"/>
<path d="M369.949 268.09L369.74 267.81L369.651 267.812C369.569 267.816 369.489 267.787 369.428 267.732C369.367 267.677 369.331 267.6 369.327 267.518C369.322 267.436 369.351 267.355 369.406 267.294C369.461 267.233 369.538 267.197 369.62 267.193L369.592 267.088L369.513 266.796C369.48 266.67 369.545 266.496 369.712 266.451C369.869 266.375 370.039 266.33 370.213 266.317L370.596 266.08L370.781 266.187L370.99 266.131L371.501 266.286C371.739 266.289 371.973 266.341 372.19 266.437C372.431 266.54 372.645 266.697 372.815 266.897C372.984 267.096 373.106 267.332 373.168 267.587L373.241 267.858L373.116 267.892L373.161 268.059L372.952 268.115C372.406 268.446 371.776 268.615 371.137 268.601L371.033 268.629L370.552 268.421C370.483 268.328 370.403 268.282 370.155 268.192L369.949 268.09Z" fill="url(#paint45_linear_75_2321)"/>
<path d="M343.598 151.785C344.062 151.714 344.535 151.829 344.914 152.105L345.042 152.25L345.098 152.459C345.3 152.465 345.496 152.529 345.662 152.644C345.707 152.69 345.74 152.747 345.757 152.809C345.774 152.872 345.774 152.937 345.757 153C345.799 153.069 345.82 153.149 345.818 153.23C345.831 153.361 345.74 153.519 345.573 153.564L345.364 153.62L345.155 153.676L344.296 153.391L344.263 153.265C344.199 153.166 344.167 153.049 344.173 152.931L344.006 152.975L343.881 153.009C343.226 153.291 342.488 153.312 341.818 153.069L341.496 152.953L341.606 152.61L341.441 152.497L341.553 151.997L341.95 151.891L342.276 151.691L342.712 151.732L343.025 151.648L343.15 151.614C343.267 151.657 343.372 151.729 343.452 151.825L343.598 151.785Z" fill="url(#paint46_linear_75_2321)"/>
<path d="M354.37 148.006L354.999 148.017L354.932 148.102C355.104 148.074 355.281 148.095 355.441 148.163C355.602 148.231 355.74 148.343 355.84 148.486L355.71 148.834L355.606 148.862L355.376 148.924L354.458 149.169L354.205 149.058C354.094 149.027 353.993 148.969 353.909 148.89C353.826 148.811 353.763 148.713 353.725 148.604C353.701 148.431 353.786 148.162 354.078 148.084L354.245 148.039L354.37 148.006Z" fill="url(#paint47_linear_75_2321)"/>
<path d="M346.665 134.926C346.214 135.019 345.744 134.936 345.351 134.695L345.284 134.78C344.826 134.656 344.78 134.4 344.975 134.124C344.97 134.066 344.955 134.009 344.93 133.957L344.961 133.657L345.025 133.394L344.991 133.268L345.223 133.049L345.975 132.848L345.995 132.843C346.237 132.743 346.501 132.707 346.76 132.74C347.02 132.773 347.266 132.872 347.476 133.029L348.012 133.109L348.04 133.214C348.107 133.255 348.163 133.311 348.205 133.377C348.246 133.444 348.271 133.52 348.277 133.598C348.377 133.684 348.453 133.795 348.497 133.92C348.514 133.968 348.528 134.017 348.537 134.066L348.695 134.158L348.473 134.33L348.327 134.369L348.097 134.43L348.125 134.535L347.938 134.585L347.458 134.714L347.353 134.742L346.873 134.87L346.665 134.926Z" fill="url(#paint48_linear_75_2321)"/>
<path d="M350.189 323.154L347.633 357.954L293.385 322.277L295.947 287.498L350.189 323.154Z" fill="url(#paint49_linear_75_2321)"/>
<path style="mix-blend-mode:overlay" opacity="0.8" d="M354.254 120.26C261.083 58.9616 108.158 50.4185 12.7242 101.19L66.9931 136.861C131.758 102.409 235.518 108.21 298.748 149.792C361.978 191.375 360.754 253.035 295.989 287.487L350.257 323.158C445.608 272.409 447.446 181.553 354.254 120.26ZM350.259 321.41L298.889 287.629C328.643 271.151 345.628 248.236 346.779 222.884C348.026 195.804 331.249 169.383 299.528 148.531C248.677 115.103 168.308 103.712 104.108 120.899C91.28 124.255 78.8631 129.021 67.0838 135.112L15.698 101.357C32.5163 92.7948 50.2035 86.0622 68.457 81.2744C162.096 56.2063 279.27 72.7747 353.415 121.471C398.989 151.472 423.111 189.211 421.352 227.74C419.687 264.452 394.441 297.688 350.259 321.41Z" fill="url(#paint50_linear_75_2321)"/>
</g>
<defs>
<linearGradient id="paint0_linear_75_2321" x1="84.7522" y1="81.8401" x2="8.0228" y2="172.188" gradientUnits="userSpaceOnUse">
<stop offset="0.31" stop-color="#4D3B79"/>
<stop offset="0.42" stop-color="#503D7C"/>
<stop offset="0.52" stop-color="#574387"/>
<stop offset="0.61" stop-color="#644D99"/>
<stop offset="0.7" stop-color="#775BB3"/>
<stop offset="0.78" stop-color="#8E6DD3"/>
<stop offset="0.85" stop-color="#A57EF3"/>
<stop offset="0.92" stop-color="#B494F5"/>
<stop offset="1" stop-color="#C3AAF7"/>
</linearGradient>
<linearGradient id="paint1_linear_75_2321" x1="346.275" y1="236.034" x2="177.22" y2="158.04" gradientUnits="userSpaceOnUse">
<stop offset="0.35" stop-color="#A581E7"/>
<stop offset="0.64" stop-color="#9B73E4"/>
<stop offset="0.71" stop-color="#8F6AD6"/>
<stop offset="0.84" stop-color="#6F52B2"/>
<stop offset="1" stop-color="#433281"/>
</linearGradient>
<linearGradient id="paint2_linear_75_2321" x1="489.073" y1="300.713" x2="362.997" y2="292.824" gradientUnits="userSpaceOnUse">
<stop offset="0.31" stop-color="#C7A2FF"/>
<stop offset="0.46" stop-color="#C49FFD"/>
<stop offset="0.59" stop-color="#B994F5"/>
<stop offset="0.72" stop-color="#A783E8"/>
<stop offset="0.73" stop-color="#A581E7"/>
<stop offset="1" stop-color="#9B73E4"/>
</linearGradient>
<linearGradient id="paint3_linear_75_2321" x1="257.16" y1="62.4312" x2="206.289" y2="201.117" gradientUnits="userSpaceOnUse">
<stop stop-color="#EDE1FF"/>
<stop offset="0.86" stop-color="#C7A2FF"/>
</linearGradient>
<linearGradient id="paint4_linear_75_2321" x1="256.243" y1="39.38" x2="208.495" y2="223.755" gradientUnits="userSpaceOnUse">
<stop offset="0.14" stop-color="#C7A2FF"/>
<stop offset="1" stop-color="#9B6FF1"/>
</linearGradient>
<linearGradient id="paint5_linear_75_2321" x1="256.243" y1="39.38" x2="208.495" y2="223.755" gradientUnits="userSpaceOnUse">
<stop offset="0.14" stop-color="#C7A2FF"/>
<stop offset="1" stop-color="#9B6FF1"/>
</linearGradient>
<linearGradient id="paint6_linear_75_2321" x1="256.243" y1="39.38" x2="208.495" y2="223.755" gradientUnits="userSpaceOnUse">
<stop offset="0.14" stop-color="#C7A2FF"/>
<stop offset="1" stop-color="#9B6FF1"/>
</linearGradient>
<linearGradient id="paint7_linear_75_2321" x1="256.243" y1="39.38" x2="208.495" y2="223.755" gradientUnits="userSpaceOnUse">
<stop offset="0.14" stop-color="#C7A2FF"/>
<stop offset="1" stop-color="#9B6FF1"/>
</linearGradient>
<linearGradient id="paint8_linear_75_2321" x1="256.243" y1="39.38" x2="208.495" y2="223.755" gradientUnits="userSpaceOnUse">
<stop offset="0.14" stop-color="#C7A2FF"/>
<stop offset="1" stop-color="#9B6FF1"/>
</linearGradient>
<linearGradient id="paint9_linear_75_2321" x1="256.243" y1="39.38" x2="208.495" y2="223.755" gradientUnits="userSpaceOnUse">
<stop offset="0.14" stop-color="#C7A2FF"/>
<stop offset="1" stop-color="#9B6FF1"/>
</linearGradient>
<linearGradient id="paint10_linear_75_2321" x1="256.243" y1="39.38" x2="208.495" y2="223.755" gradientUnits="userSpaceOnUse">
<stop offset="0.14" stop-color="#C7A2FF"/>
<stop offset="1" stop-color="#9B6FF1"/>
</linearGradient>
<linearGradient id="paint11_linear_75_2321" x1="256.243" y1="39.38" x2="208.495" y2="223.755" gradientUnits="userSpaceOnUse">
<stop offset="0.14" stop-color="#C7A2FF"/>
<stop offset="1" stop-color="#9B6FF1"/>
</linearGradient>
<linearGradient id="paint12_linear_75_2321" x1="256.243" y1="39.38" x2="208.495" y2="223.755" gradientUnits="userSpaceOnUse">
<stop offset="0.14" stop-color="#C7A2FF"/>
<stop offset="1" stop-color="#9B6FF1"/>
</linearGradient>
<linearGradient id="paint13_linear_75_2321" x1="256.243" y1="39.38" x2="208.495" y2="223.755" gradientUnits="userSpaceOnUse">
<stop offset="0.14" stop-color="#C7A2FF"/>
<stop offset="1" stop-color="#9B6FF1"/>
</linearGradient>
<linearGradient id="paint14_linear_75_2321" x1="256.243" y1="39.38" x2="208.495" y2="223.755" gradientUnits="userSpaceOnUse">
<stop offset="0.14" stop-color="#C7A2FF"/>
<stop offset="1" stop-color="#9B6FF1"/>
</linearGradient>
<linearGradient id="paint15_linear_75_2321" x1="256.243" y1="39.38" x2="208.495" y2="223.755" gradientUnits="userSpaceOnUse">
<stop offset="0.14" stop-color="#C7A2FF"/>
<stop offset="1" stop-color="#9B6FF1"/>
</linearGradient>
<linearGradient id="paint16_linear_75_2321" x1="256.243" y1="39.38" x2="208.495" y2="223.755" gradientUnits="userSpaceOnUse">
<stop offset="0.14" stop-color="#C7A2FF"/>
<stop offset="1" stop-color="#9B6FF1"/>
</linearGradient>
<linearGradient id="paint17_linear_75_2321" x1="256.243" y1="39.38" x2="208.495" y2="223.755" gradientUnits="userSpaceOnUse">
<stop offset="0.14" stop-color="#C7A2FF"/>
<stop offset="1" stop-color="#9B6FF1"/>
</linearGradient>
<linearGradient id="paint18_linear_75_2321" x1="256.243" y1="39.38" x2="208.495" y2="223.755" gradientUnits="userSpaceOnUse">
<stop offset="0.14" stop-color="#C7A2FF"/>
<stop offset="1" stop-color="#9B6FF1"/>
</linearGradient>
<linearGradient id="paint19_linear_75_2321" x1="256.243" y1="39.38" x2="208.495" y2="223.755" gradientUnits="userSpaceOnUse">
<stop offset="0.14" stop-color="#C7A2FF"/>
<stop offset="1" stop-color="#9B6FF1"/>
</linearGradient>
<linearGradient id="paint20_linear_75_2321" x1="256.243" y1="39.38" x2="208.495" y2="223.755" gradientUnits="userSpaceOnUse">
<stop offset="0.14" stop-color="#C7A2FF"/>
<stop offset="1" stop-color="#9B6FF1"/>
</linearGradient>
<linearGradient id="paint21_linear_75_2321" x1="256.243" y1="39.38" x2="208.495" y2="223.755" gradientUnits="userSpaceOnUse">
<stop offset="0.14" stop-color="#C7A2FF"/>
<stop offset="1" stop-color="#9B6FF1"/>
</linearGradient>
<linearGradient id="paint22_linear_75_2321" x1="256.243" y1="39.38" x2="208.495" y2="223.755" gradientUnits="userSpaceOnUse">
<stop offset="0.14" stop-color="#C7A2FF"/>
<stop offset="1" stop-color="#9B6FF1"/>
</linearGradient>
<linearGradient id="paint23_linear_75_2321" x1="256.243" y1="39.38" x2="208.495" y2="223.755" gradientUnits="userSpaceOnUse">
<stop offset="0.14" stop-color="#C7A2FF"/>
<stop offset="1" stop-color="#9B6FF1"/>
</linearGradient>
<linearGradient id="paint24_linear_75_2321" x1="256.243" y1="39.38" x2="208.495" y2="223.755" gradientUnits="userSpaceOnUse">
<stop offset="0.14" stop-color="#C7A2FF"/>
<stop offset="1" stop-color="#9B6FF1"/>
</linearGradient>
<linearGradient id="paint25_linear_75_2321" x1="256.243" y1="39.38" x2="208.495" y2="223.755" gradientUnits="userSpaceOnUse">
<stop offset="0.14" stop-color="#C7A2FF"/>
<stop offset="1" stop-color="#9B6FF1"/>
</linearGradient>
<linearGradient id="paint26_linear_75_2321" x1="256.243" y1="39.38" x2="208.495" y2="223.755" gradientUnits="userSpaceOnUse">
<stop offset="0.14" stop-color="#C7A2FF"/>
<stop offset="1" stop-color="#9B6FF1"/>
</linearGradient>
<linearGradient id="paint27_linear_75_2321" x1="256.243" y1="39.38" x2="208.495" y2="223.755" gradientUnits="userSpaceOnUse">
<stop offset="0.14" stop-color="#C7A2FF"/>
<stop offset="1" stop-color="#9B6FF1"/>
</linearGradient>
<linearGradient id="paint28_linear_75_2321" x1="256.243" y1="39.38" x2="208.495" y2="223.755" gradientUnits="userSpaceOnUse">
<stop offset="0.14" stop-color="#C7A2FF"/>
<stop offset="1" stop-color="#9B6FF1"/>
</linearGradient>
<linearGradient id="paint29_linear_75_2321" x1="256.243" y1="39.38" x2="208.495" y2="223.755" gradientUnits="userSpaceOnUse">
<stop offset="0.14" stop-color="#C7A2FF"/>
<stop offset="1" stop-color="#9B6FF1"/>
</linearGradient>
<linearGradient id="paint30_linear_75_2321" x1="256.243" y1="39.38" x2="208.495" y2="223.755" gradientUnits="userSpaceOnUse">
<stop offset="0.14" stop-color="#C7A2FF"/>
<stop offset="1" stop-color="#9B6FF1"/>
</linearGradient>
<linearGradient id="paint31_linear_75_2321" x1="256.243" y1="39.38" x2="208.495" y2="223.755" gradientUnits="userSpaceOnUse">
<stop offset="0.14" stop-color="#C7A2FF"/>
<stop offset="1" stop-color="#9B6FF1"/>
</linearGradient>
<linearGradient id="paint32_linear_75_2321" x1="256.243" y1="39.38" x2="208.495" y2="223.755" gradientUnits="userSpaceOnUse">
<stop offset="0.14" stop-color="#C7A2FF"/>
<stop offset="1" stop-color="#9B6FF1"/>
</linearGradient>
<linearGradient id="paint33_linear_75_2321" x1="256.243" y1="39.38" x2="208.495" y2="223.755" gradientUnits="userSpaceOnUse">
<stop offset="0.14" stop-color="#C7A2FF"/>
<stop offset="1" stop-color="#9B6FF1"/>
</linearGradient>
<linearGradient id="paint34_linear_75_2321" x1="256.243" y1="39.38" x2="208.495" y2="223.755" gradientUnits="userSpaceOnUse">
<stop offset="0.14" stop-color="#C7A2FF"/>
<stop offset="1" stop-color="#9B6FF1"/>
</linearGradient>
<linearGradient id="paint35_linear_75_2321" x1="256.243" y1="39.38" x2="208.495" y2="223.755" gradientUnits="userSpaceOnUse">
<stop offset="0.14" stop-color="#C7A2FF"/>
<stop offset="1" stop-color="#9B6FF1"/>
</linearGradient>
<linearGradient id="paint36_linear_75_2321" x1="256.243" y1="39.38" x2="208.495" y2="223.755" gradientUnits="userSpaceOnUse">
<stop offset="0.14" stop-color="#C7A2FF"/>
<stop offset="1" stop-color="#9B6FF1"/>
</linearGradient>
<linearGradient id="paint37_linear_75_2321" x1="256.243" y1="39.38" x2="208.495" y2="223.755" gradientUnits="userSpaceOnUse">
<stop offset="0.14" stop-color="#C7A2FF"/>
<stop offset="1" stop-color="#9B6FF1"/>
</linearGradient>
<linearGradient id="paint38_linear_75_2321" x1="256.243" y1="39.38" x2="208.495" y2="223.755" gradientUnits="userSpaceOnUse">
<stop offset="0.14" stop-color="#C7A2FF"/>
<stop offset="1" stop-color="#9B6FF1"/>
</linearGradient>
<linearGradient id="paint39_linear_75_2321" x1="256.243" y1="39.38" x2="208.495" y2="223.755" gradientUnits="userSpaceOnUse">
<stop offset="0.14" stop-color="#C7A2FF"/>
<stop offset="1" stop-color="#9B6FF1"/>
</linearGradient>
<linearGradient id="paint40_linear_75_2321" x1="256.243" y1="39.38" x2="208.495" y2="223.755" gradientUnits="userSpaceOnUse">
<stop offset="0.14" stop-color="#C7A2FF"/>
<stop offset="1" stop-color="#9B6FF1"/>
</linearGradient>
<linearGradient id="paint41_linear_75_2321" x1="256.243" y1="39.38" x2="208.495" y2="223.755" gradientUnits="userSpaceOnUse">
<stop offset="0.14" stop-color="#C7A2FF"/>
<stop offset="1" stop-color="#9B6FF1"/>
</linearGradient>
<linearGradient id="paint42_linear_75_2321" x1="256.243" y1="39.38" x2="208.495" y2="223.755" gradientUnits="userSpaceOnUse">
<stop offset="0.14" stop-color="#C7A2FF"/>
<stop offset="1" stop-color="#9B6FF1"/>
</linearGradient>
<linearGradient id="paint43_linear_75_2321" x1="256.243" y1="39.38" x2="208.495" y2="223.755" gradientUnits="userSpaceOnUse">
<stop offset="0.14" stop-color="#C7A2FF"/>
<stop offset="1" stop-color="#9B6FF1"/>
</linearGradient>
<linearGradient id="paint44_linear_75_2321" x1="256.243" y1="39.38" x2="208.495" y2="223.755" gradientUnits="userSpaceOnUse">
<stop offset="0.14" stop-color="#C7A2FF"/>
<stop offset="1" stop-color="#9B6FF1"/>
</linearGradient>
<linearGradient id="paint45_linear_75_2321" x1="256.243" y1="39.38" x2="208.495" y2="223.755" gradientUnits="userSpaceOnUse">
<stop offset="0.14" stop-color="#C7A2FF"/>
<stop offset="1" stop-color="#9B6FF1"/>
</linearGradient>
<linearGradient id="paint46_linear_75_2321" x1="256.243" y1="39.38" x2="208.495" y2="223.755" gradientUnits="userSpaceOnUse">
<stop offset="0.14" stop-color="#C7A2FF"/>
<stop offset="1" stop-color="#9B6FF1"/>
</linearGradient>
<linearGradient id="paint47_linear_75_2321" x1="256.243" y1="39.38" x2="208.495" y2="223.755" gradientUnits="userSpaceOnUse">
<stop offset="0.14" stop-color="#C7A2FF"/>
<stop offset="1" stop-color="#9B6FF1"/>
</linearGradient>
<linearGradient id="paint48_linear_75_2321" x1="256.243" y1="39.38" x2="208.495" y2="223.755" gradientUnits="userSpaceOnUse">
<stop offset="0.14" stop-color="#C7A2FF"/>
<stop offset="1" stop-color="#9B6FF1"/>
</linearGradient>
<linearGradient id="paint49_linear_75_2321" x1="294.474" y1="421.981" x2="323.106" y2="318.554" gradientUnits="userSpaceOnUse">
<stop offset="0.31" stop-color="#C7A2FF"/>
<stop offset="0.46" stop-color="#C49FFD"/>
<stop offset="0.59" stop-color="#B994F5"/>
<stop offset="0.72" stop-color="#A783E8"/>
<stop offset="0.73" stop-color="#A581E7"/>
<stop offset="1" stop-color="#9B73E4"/>
</linearGradient>
<linearGradient id="paint50_linear_75_2321" x1="257.16" y1="62.4312" x2="206.289" y2="201.118" gradientUnits="userSpaceOnUse">
<stop offset="0.04" stop-color="#EBE2FD"/>
<stop offset="0.12" stop-color="#E9DEFD" stop-opacity="0.97"/>
<stop offset="0.25" stop-color="#E2D5FC" stop-opacity="0.88"/>
<stop offset="0.4" stop-color="#D7C5FA" stop-opacity="0.75"/>
<stop offset="0.58" stop-color="#C7AFF8" stop-opacity="0.55"/>
<stop offset="0.78" stop-color="#B492F5" stop-opacity="0.31"/>
<stop offset="0.99" stop-color="#9C70F1" stop-opacity="0.01"/>
<stop offset="1" stop-color="#9B6FF1" stop-opacity="0"/>
</linearGradient>
<clipPath id="clip0_75_2321">
<rect width="379" height="341" fill="white" transform="translate(0 98.0106) rotate(-14.9872)"/>
</clipPath>
</defs>
</svg>
