<svg width="626" height="449" viewBox="0 0 626 449" fill="none" xmlns="http://www.w3.org/2000/svg">
<g clip-path="url(#clip0_75_2690)">
<path d="M546.991 105.865C544.899 122.629 531.193 122.187 526.959 121.643L528.186 104.93C531.844 106.143 535.643 106.88 539.489 107.123C542.056 107.356 544.64 106.923 546.991 105.865Z" fill="#6BFFCA" stroke="#F3F7EF" stroke-miterlimit="10"/>
<path d="M521.851 101.217C521.851 101.217 523.229 103.229 528.116 104.93" stroke="#F3F7EF" stroke-miterlimit="10"/>
<path d="M500.321 136.103C495.4 141.088 489.518 145.022 483.033 147.666C476.548 150.311 469.594 151.611 462.592 151.488L464.371 140.007C465.196 140.007 466.051 140.007 466.916 139.936C478.07 139.365 489.165 137.935 500.1 135.66C500.152 135.658 500.204 135.671 500.249 135.698C500.294 135.724 500.33 135.763 500.353 135.81C500.377 135.857 500.386 135.909 500.38 135.961C500.375 136.013 500.354 136.062 500.321 136.103Z" fill="#F3F7EF" stroke="#F3F7EF" stroke-miterlimit="10"/>
<path d="M546.991 105.865C555.287 102.112 559.611 91.1744 560.556 84.0503" stroke="#F3F7EF" stroke-miterlimit="10"/>
<path d="M440.981 71.3818V72.0862C440.066 99.516 439.684 123.263 439.664 126.946C439.664 131.977 447.417 140.027 464.402 140.027" stroke="#F3F7EF" stroke-miterlimit="10"/>
<path d="M557.047 265.524C559.963 229.209 548.67 190.429 545.573 180.618C550.691 182.53 556.142 184.583 561.31 186.555C563.321 197.915 567.756 231.966 557.047 265.524Z" fill="#6BFFCA" stroke="#F3F7EF" stroke-miterlimit="10"/>
<path d="M610.102 317.526C608.533 316.892 604.963 315.987 597.029 315.514C587.979 315 573.146 315.061 549.092 316.802C552.994 300.11 555.653 283.152 557.047 266.067C557.047 265.886 557.047 265.705 557.047 265.524C567.736 231.966 563.301 197.916 561.31 186.555C572.1 190.681 581.653 194.474 584.358 195.984C589.477 200.512 595.42 226.1 599.503 250.904C603.445 274.449 609.498 313.592 610.102 317.526Z" stroke="#F3F7EF" stroke-linecap="round" stroke-linejoin="round"/>
<path d="M610.152 317.848C606.127 319.65 601.77 320.589 597.361 320.605C597.21 318.532 597.079 316.811 596.979 315.523C604.963 315.986 608.533 316.892 610.051 317.536C610.132 317.737 610.152 317.848 610.152 317.848Z" stroke="#F3F7EF" stroke-miterlimit="10"/>
<path d="M545.593 180.618C533.435 176.08 523.188 172.357 523.188 172.357L526.919 121.643" stroke="#F3F7EF" stroke-miterlimit="10"/>
<path d="M535.929 91.6273C535.929 91.6273 540.957 79.6834 546.991 75.749" stroke="#F3F7EF" stroke-miterlimit="10"/>
<path d="M543.914 88.6087C543.914 88.6087 543.522 83.5272 540.766 82.5713" stroke="#F3F7EF" stroke-miterlimit="10"/>
<path d="M475.051 101.217C475.051 101.217 465.478 103.873 460.098 103.068" stroke="#F3F7EF" stroke-miterlimit="10"/>
<path d="M460.098 95.0486C460.098 95.0486 449.74 89.3735 451.178 85.58C452.616 81.7865 462.33 75.5177 462.592 72.7405C462.853 69.9633 461.274 61.189 461.274 61.189" stroke="#F3F7EF" stroke-miterlimit="10"/>
<path d="M453.803 55.6748C453.803 55.6748 444.37 55.7352 442.6 56.681" stroke="#F3F7EF" stroke-miterlimit="10"/>
<path d="M475.051 55.6746C475.051 55.6746 492.367 54.759 498.924 58.4317" stroke="#F3F7EF" stroke-miterlimit="10"/>
<path d="M485.278 62.8894C482.292 62.2722 479.213 62.2722 476.227 62.8894" stroke="#F3F7EF" stroke-miterlimit="10"/>
<path d="M446.06 64.0768C446.06 64.0768 450.786 62.8895 453.803 63.4127" stroke="#F3F7EF" stroke-miterlimit="10"/>
<path d="M481.225 73.7869C482.747 73.7869 483.98 71.2956 483.98 68.2224C483.98 65.1493 482.747 62.658 481.225 62.658C479.703 62.658 478.47 65.1493 478.47 68.2224C478.47 71.2956 479.703 73.7869 481.225 73.7869Z" fill="#F3F7EF" stroke="#F3F7EF" stroke-miterlimit="10"/>
<path d="M450.424 74.7427C451.651 74.7427 452.646 72.355 452.646 69.4097C452.646 66.4643 451.651 64.0767 450.424 64.0767C449.197 64.0767 448.202 66.4643 448.202 69.4097C448.202 72.355 449.197 74.7427 450.424 74.7427Z" fill="#F3F7EF" stroke="#F3F7EF" stroke-miterlimit="10"/>
<path d="M560.516 84.0503C560.617 83.346 560.677 82.6819 560.707 82.0379C561.099 73.5051 548.368 65.5055 543.391 64.3182C538.413 63.1308 527.523 76.0005 527.523 76.0005C527.523 76.0005 519.126 73.6359 512.831 44.8074C512.831 44.8074 474.528 57.8884 472.426 37.1902C472.426 37.1902 457.865 41.5271 451.178 37.1902C451.178 37.1902 445.527 41.7283 442.6 56.7111C441.684 61.5592 441.143 66.4707 440.981 71.402C438.568 69.4902 430.835 62.0743 431.509 46.1859C431.901 33.6785 443.576 26.2022 443.576 26.2022C443.576 26.2022 440.619 14.8821 451.621 8.77427C462.622 2.66645 487.108 13.3426 487.711 13.5941C487.55 13.2017 483.689 3.89405 490.477 0.905545C497.264 -2.08296 517.235 14.1878 517.235 14.1878C517.235 14.1878 533.858 3.16958 549.897 18.7158C565.936 34.2621 554.925 57.023 554.925 57.023C554.925 57.023 567.304 63.5132 560.516 84.0503Z" fill="#6BFFCA" stroke="#F3F7EF" stroke-miterlimit="10"/>
<path d="M549.002 316.812C546.699 326.471 544.698 332.7 544.034 334.682L543.803 335.366" stroke="#F3F7EF" stroke-miterlimit="10"/>
<path d="M597.361 320.605C598.557 337.017 600.9 375.274 598.145 390.689C594.605 410.572 589.296 421.792 580.839 421.6C572.382 421.409 550.339 409.385 516.3 370.413C511.916 365.503 508.406 361.448 505.56 358.107C493.544 344.02 493.172 342.39 488.566 341.273C482.854 339.895 476.559 336.463 469.46 315.242C468.062 312.601 466.878 309.852 465.92 307.021" stroke="#F3F7EF" stroke-miterlimit="10"/>
<path d="M469.56 271.652L477.122 271.451C478.683 271.411 480.226 271.792 481.589 272.555C482.952 273.319 484.083 274.435 484.865 275.787C486.324 278.313 488.395 281.915 491.02 286.544C496.731 296.606 504.897 308.882 512.268 314.296C517.899 318.431 533.978 328.584 544.075 334.682C547.222 336.594 549.776 338.103 551.254 338.908C557.489 342.319 583.494 359.093 587.325 365.885" stroke="#F3F7EF" stroke-miterlimit="10"/>
<path d="M444.893 272.386C444.206 272.573 443.615 273.016 443.244 273.624L440.79 277.649H439.966L430.916 299.706L424.228 305.21C425.797 310.14 433.671 308.953 433.671 308.953C435.552 310.568 437.794 311.707 440.207 312.273" stroke="#F3F7EF" stroke-miterlimit="10"/>
<path d="M469.409 295.862H449.74L433.671 308.983" stroke="#F3F7EF" stroke-miterlimit="10"/>
<path d="M469.409 286.021H444.23L430.915 299.736" stroke="#F3F7EF" stroke-miterlimit="10"/>
<path d="M440.79 277.679L467.579 276.562" stroke="#F3F7EF" stroke-miterlimit="10"/>
<path d="M468.142 203.128C466.976 204.878 465.719 206.784 464.371 208.843C455.502 222.467 452.304 231.986 445.265 245.067C443.626 248.136 441.776 251.417 439.594 254.989C430.543 269.77 410.361 324.419 398.887 354.716C395.68 363.148 394.322 367.042 393.166 369.639C387.856 381.552 381.994 385.185 374.21 390.246C362.998 397.531 349.201 398.296 342.273 391.504C339.578 388.868 335.234 365.895 340.04 347.652C340.04 347.481 340.131 347.31 340.181 347.149C340.845 344.684 341.559 342.38 342.273 340.267C343.947 335.158 346.05 330.2 348.558 325.445C355.094 310.563 365.321 294.886 373.074 283.958C379.188 275.335 383.753 269.66 383.753 269.66C383.753 269.66 415.631 229.501 416.807 226.442C417.984 223.383 421.533 167.487 422.318 163.935C422.65 162.415 427.004 158.441 432.303 154.265C439.342 148.731 448.071 142.864 451.329 141.989C457.131 141.888 458.609 152.132 458.609 152.132C466.654 150.351 467.459 162.657 467.459 162.657C473.653 160.494 474.347 173.092 474.347 173.092C477.786 172.9 479.757 178.012 480.049 182.047C480.36 185.649 476.479 190.62 468.142 203.128Z" stroke="#F3F7EF" stroke-linecap="round" stroke-linejoin="round"/>
<path d="M505.56 358.107H452.757" stroke="#F3F7EF" stroke-linecap="round" stroke-linejoin="round"/>
<path d="M429.327 358.107H397.661" stroke="#F3F7EF" stroke-linecap="round" stroke-linejoin="round"/>
<path d="M599.432 358.107H625.497V55.574H555.327" stroke="#F3F7EF" stroke-linecap="round" stroke-linejoin="round"/>
<path d="M360.514 16.3713C368.116 16.382 375.403 19.4113 380.775 24.7939C386.146 30.1765 389.163 37.4723 389.163 45.0791V73.7868H360.514C352.909 73.7815 345.617 70.7546 340.241 65.3714C334.865 59.9882 331.845 52.6894 331.845 45.0791V45.0791C331.845 37.4653 334.867 30.1634 340.248 24.7796C345.628 19.3959 352.925 16.3713 360.534 16.3713H360.514Z" stroke="#F3F7EF" stroke-linecap="round" stroke-linejoin="round"/>
<path d="M349.855 47.494C351.188 47.494 352.268 46.4128 352.268 45.079C352.268 43.7453 351.188 42.6641 349.855 42.6641C348.522 42.6641 347.441 43.7453 347.441 45.079C347.441 46.4128 348.522 47.494 349.855 47.494Z" fill="#6BFFCA" stroke="#F3F7EF" stroke-miterlimit="10"/>
<path d="M360.102 47.494C361.435 47.494 362.515 46.4128 362.515 45.079C362.515 43.7453 361.435 42.6641 360.102 42.6641C358.769 42.6641 357.688 43.7453 357.688 45.079C357.688 46.4128 358.769 47.494 360.102 47.494Z" fill="#6BFFCA" stroke="#F3F7EF" stroke-miterlimit="10"/>
<path d="M370.349 47.494C371.682 47.494 372.762 46.4128 372.762 45.079C372.762 43.7453 371.682 42.6641 370.349 42.6641C369.016 42.6641 367.935 43.7453 367.935 45.079C367.935 46.4128 369.016 47.494 370.349 47.494Z" fill="#6BFFCA" stroke="#F3F7EF" stroke-miterlimit="10"/>
<path d="M432 56H389" stroke="#F3F7EF" stroke-miterlimit="10"/>
<path d="M465.94 307.021C463.275 324.338 459.112 341.877 452.757 358.107H429.337L429.417 357.675C434.054 342.817 437.662 327.657 440.217 312.304C447.769 313.914 452.566 307.021 452.566 307.021H465.94Z" fill="#6BFFCA" stroke="#F3F7EF" stroke-miterlimit="10"/>
<path d="M469.56 271.652L445.547 272.296C445.326 272.301 445.107 272.331 444.893 272.386C445.416 263.562 445.607 254.415 445.305 245.118C452.345 231.946 455.502 222.467 464.412 208.893C465.752 206.827 467.009 204.922 468.183 203.178C470.346 225.936 470.806 248.825 469.56 271.652Z" fill="#6BFFCA" stroke="#F3F7EF" stroke-miterlimit="10"/>
<path d="M523.188 172.357C523.188 172.357 510.85 191.043 480.099 182.097" stroke="#F3F7EF" stroke-miterlimit="10"/>
<path d="M474.397 173.142L462.592 183.577" stroke="#F3F7EF" stroke-miterlimit="10"/>
<path d="M467.549 162.708C467.549 162.708 462.038 165.958 451.51 175.205" stroke="#F3F7EF" stroke-miterlimit="10"/>
<path d="M458.66 152.182C458.66 152.182 443.576 162.798 438.689 168.956" stroke="#F3F7EF" stroke-miterlimit="10"/>
<path d="M342.313 270.736C352.258 274.691 365.442 280.094 373.175 284.039" stroke="#F3F7EF" stroke-miterlimit="10"/>
<path d="M432.354 154.315C432.354 154.315 377.599 155.161 371.958 162.707C369.172 166.42 354.149 199.042 342.313 227.609" stroke="#F3F7EF" stroke-miterlimit="10"/>
<path d="M342.313 314.044V270.736V227.609V67.2766" stroke="#F3F7EF" stroke-miterlimit="10"/>
<path d="M338.502 358.117H175.475" stroke="#F3F7EF" stroke-miterlimit="10"/>
<path d="M159.205 321.45V174.37H342.313" stroke="#F3F7EF" stroke-miterlimit="10"/>
<path d="M342.313 314.004V340.277C341.599 342.39 340.885 344.694 340.221 347.16C338.773 343.135 332.79 330.728 313.161 327.357C313.161 327.357 317.344 288.114 280.087 281.07C284.723 276.401 289.328 269.599 289.328 261.046C289.328 251.145 279.272 249.877 273.48 252.463C273.253 252.448 273.024 252.448 272.796 252.463C271.949 252.463 271.107 252.599 270.303 252.866C271.077 246.033 270.574 227.388 248.924 202.423C248.924 202.423 276.567 205.341 282.179 210.362C287.79 215.384 295.754 225.919 298.208 242.351C300.661 258.782 298.902 276.15 297.202 280.316C297.222 280.306 329.974 275.375 342.313 314.004Z" fill="#6BFFCA" stroke="#F3F7EF" stroke-miterlimit="10"/>
<path d="M270.303 252.855C270.203 253.806 270.032 254.748 269.79 255.673" stroke="#1D1D1B" stroke-miterlimit="10"/>
<path d="M269.78 255.703C270.597 254.242 271.904 253.116 273.47 252.523" stroke="#1D1D1B" stroke-miterlimit="10"/>
<path d="M284.864 358.208L270.695 288.375C274.131 286.373 277.288 283.927 280.087 281.1" stroke="#F3F7EF" stroke-miterlimit="10"/>
<path d="M200.002 207.656C200.002 207.656 210.49 253.59 264.923 257.967" stroke="#F3F7EF" stroke-miterlimit="10"/>
<path d="M248.924 202.413C248.924 202.413 200.133 196.235 191.736 216.843C183.339 237.45 182.555 248.478 181.378 278.927C180.202 309.376 184.395 328.534 207.604 328.665C230.813 328.796 244.469 317.647 244.469 317.647" stroke="#F3F7EF" stroke-linecap="round" stroke-linejoin="round"/>
<path d="M230.17 358.208L229.264 325.304" stroke="#F3F7EF" stroke-linecap="round" stroke-linejoin="round"/>
<path d="M222.929 261.68C222.575 262.73 221.884 263.634 220.964 264.251C220.044 264.867 218.946 265.163 217.841 265.091C212.371 264.739 210.651 262.204 210.631 259.909C210.655 259.089 210.889 258.289 211.309 257.584C211.73 256.879 212.324 256.294 213.034 255.884C215.447 254.343 218.151 253.315 220.978 252.866C222.091 254.008 222.863 255.438 223.207 256.995C223.552 258.552 223.456 260.175 222.929 261.68Z" fill="#F3F7EF" stroke="#F3F7EF" stroke-miterlimit="10"/>
<path d="M220.978 252.916C223.688 252.551 226.444 252.735 229.081 253.456C231.719 254.176 234.185 255.42 236.334 257.112" stroke="#F3F7EF" stroke-miterlimit="10"/>
<path d="M206.226 291.948C210.707 291.722 214.951 289.869 218.163 286.735" stroke="#F3F7EF" stroke-linecap="round" stroke-linejoin="round"/>
<path d="M266.431 272.165C266.431 272.165 254.434 280.728 240.467 278.565" stroke="#F3F7EF" stroke-linecap="round" stroke-linejoin="round"/>
<path d="M186.989 261.68C182.112 263.381 182.535 256.699 182.535 256.699L183.007 251.366C184.128 251.174 185.26 251.06 186.396 251.024C186.396 251.024 193.093 259.507 186.989 261.68Z" fill="#F3F7EF" stroke="#F3F7EF" stroke-miterlimit="10"/>
<path d="M186.356 250.974C190.227 250.833 196.231 251.457 197.669 256.418C199.841 263.904 187.543 275.023 197.669 283.686" stroke="#F3F7EF" stroke-linecap="round" stroke-linejoin="round"/>
<path d="M184.325 241.375C186.165 240.61 188.139 240.216 190.132 240.216C192.125 240.216 194.099 240.61 195.939 241.375" stroke="#F3F7EF" stroke-miterlimit="10"/>
<path d="M213.728 243.9C215.568 243.132 217.542 242.737 219.535 242.737C221.529 242.737 223.503 243.132 225.343 243.9" stroke="#F3F7EF" stroke-miterlimit="10"/>
<path d="M175.475 321.45V382.881H147.409C143.102 382.874 138.836 383.72 134.856 385.369C130.877 387.018 127.262 389.438 124.221 392.49C122.447 394.265 120.881 396.236 119.555 398.366H31.9777L0.502777 418.048V321.45H175.475Z" stroke="#F3F7EF" stroke-miterlimit="10"/>
<path d="M24.114 347.2H151.341" stroke="#F3F7EF" stroke-miterlimit="10"/>
<path d="M24.114 369.015H99.1411" stroke="#F3F7EF" stroke-miterlimit="10"/>
<path d="M269.388 415.694V448.497H147.409C143.101 448.501 138.835 447.655 134.853 446.009C130.872 444.362 127.254 441.947 124.206 438.9C121.158 435.854 118.739 432.237 117.089 428.255C115.439 424.273 114.588 420.005 114.587 415.694C114.579 409.569 116.29 403.566 119.524 398.367C120.86 396.235 122.436 394.263 124.221 392.49C127.262 389.438 130.877 387.018 134.856 385.369C138.836 383.72 143.102 382.874 147.409 382.881H236.595C245.292 382.881 253.633 386.338 259.783 392.491C265.933 398.645 269.388 406.991 269.388 415.694V415.694Z" stroke="#F3F7EF" stroke-miterlimit="10"/>
<path d="M166.033 422.114C169.582 422.114 172.459 419.235 172.459 415.684C172.459 412.133 169.582 409.254 166.033 409.254C162.484 409.254 159.607 412.133 159.607 415.684C159.607 419.235 162.484 422.114 166.033 422.114Z" stroke="#F3F7EF" stroke-miterlimit="10"/>
<path d="M191.997 422.114C195.546 422.114 198.423 419.235 198.423 415.684C198.423 412.133 195.546 409.254 191.997 409.254C188.448 409.254 185.572 412.133 185.572 415.684C185.572 419.235 188.448 422.114 191.997 422.114Z" stroke="#F3F7EF" stroke-miterlimit="10"/>
<path d="M218.133 422.114C221.681 422.114 224.558 419.235 224.558 415.684C224.558 412.133 221.681 409.254 218.133 409.254C214.584 409.254 211.707 412.133 211.707 415.684C211.707 419.235 214.584 422.114 218.133 422.114Z" stroke="#F3F7EF" stroke-miterlimit="10"/>
<path d="M342.313 91.4463H315.031" stroke="#F3F7EF" stroke-miterlimit="10"/>
<path d="M198.956 135.147V174.37" stroke="#F3F7EF" stroke-miterlimit="10"/>
<path d="M315.031 73.7869H98.8093V135.147H315.031V73.7869Z" stroke="#F3F7EF" stroke-miterlimit="10"/>
<path d="M189.503 101.881V107.979H124.14C123.34 107.979 122.573 107.661 122.007 107.094C121.441 106.528 121.123 105.761 121.123 104.96C121.122 104.56 121.201 104.163 121.355 103.793C121.508 103.424 121.734 103.088 122.018 102.807C122.3 102.522 122.635 102.296 123.004 102.142C123.374 101.989 123.77 101.91 124.17 101.911L189.503 101.881Z" fill="#6BFFCA" stroke="#F3F7EF" stroke-miterlimit="10"/>
<path d="M292.406 104.93C292.406 105.33 292.328 105.727 292.174 106.096C292.021 106.466 291.795 106.801 291.511 107.083C291.229 107.368 290.894 107.593 290.524 107.747C290.155 107.901 289.759 107.98 289.359 107.979H189.503V101.881H289.359C289.76 101.877 290.158 101.953 290.529 102.105C290.901 102.256 291.238 102.481 291.522 102.765C291.806 103.049 292.03 103.386 292.182 103.758C292.333 104.13 292.41 104.528 292.406 104.93V104.93Z" stroke="#F3F7EF" stroke-miterlimit="10"/>
<path d="M66.9321 40.8428L90.7444 64.8615" stroke="#F3F7EF" stroke-miterlimit="10"/>
<path d="M98.8093 61.1284V40.8428" stroke="#F3F7EF" stroke-miterlimit="10"/>
<path d="M65.3633 72.9316H86.2193" stroke="#F3F7EF" stroke-miterlimit="10"/>
<path d="M282.762 265.232C282.762 272.276 278.307 278.011 272.797 278.011C267.286 278.011 262.831 272.286 262.831 265.232C262.809 262.675 263.428 260.153 264.631 257.897C265.821 255.565 267.846 253.768 270.303 252.866C271.107 252.599 271.949 252.463 272.797 252.463C273.024 252.448 273.253 252.448 273.48 252.463C278.669 252.936 282.762 258.46 282.762 265.232Z" fill="#F3F7EF" stroke="#F3F7EF" stroke-miterlimit="10"/>
<path d="M237.742 282.67C235.087 282.67 232.925 280.99 232.925 278.917C232.925 276.844 235.087 275.164 237.742 275.164C238.702 275.151 239.65 275.383 240.497 275.838C241.377 276.283 242.056 277.045 242.397 277.971C242.499 278.276 242.55 278.595 242.548 278.917C242.554 279.001 242.554 279.085 242.548 279.168C242.367 281.131 240.286 282.67 237.742 282.67Z" fill="#F3F7EF" stroke="#F3F7EF" stroke-miterlimit="10"/>
</g>
<defs>
<clipPath id="clip0_75_2690">
<rect width="626" height="449" fill="white"/>
</clipPath>
</defs>
</svg>
