<svg width="161" height="117" viewBox="0 0 161 117" fill="none" xmlns="http://www.w3.org/2000/svg">
<g id="Frame" clip-path="url(#clip0_75_2383)">
<path id="Vector" d="M126.02 1V31.92H73.78V67.33H58.52V44.44H22.71V1H126.02Z" stroke="#FF2E00" stroke-width="2" stroke-miterlimit="10"/>
<path id="Vector_2" d="M155 31.92H73.78V77.5H155V31.92Z" stroke="#F3F7EF" stroke-width="2" stroke-miterlimit="10"/>
<path id="Vector_3" d="M58.52 44.44H1V115.26H58.52V44.44Z" stroke="#F3F7EF" stroke-width="2" stroke-miterlimit="10"/>
<path id="Vector_4" d="M10.09 63.22C10.0926 61.0672 10.949 59.0034 12.4712 57.4812C13.9934 55.959 16.0573 55.1026 18.21 55.1" stroke="#F3F7EF" stroke-width="2" stroke-miterlimit="10"/>
<path id="Vector_5" d="M18.21 55.1C19.816 55.1 21.3859 55.5762 22.7212 56.4684C24.0566 57.3607 25.0973 58.6289 25.7119 60.1126C26.3265 61.5963 26.4873 63.229 26.174 64.8041C25.8607 66.3793 25.0873 67.8261 23.9517 68.9617C22.8161 70.0973 21.3693 70.8706 19.7941 71.184C18.219 71.4973 16.5864 71.3364 15.1026 70.7219C13.6189 70.1073 12.3507 69.0665 11.4585 67.7312C10.5662 66.3959 10.09 64.826 10.09 63.22" stroke="#FF2E00" stroke-width="2" stroke-miterlimit="10"/>
<path id="Vector_6" d="M40.8 55.1C42.9535 55.1 45.0189 55.9555 46.5417 57.4783C48.0645 59.0011 48.92 61.0664 48.92 63.22" stroke="#FF2E00" stroke-width="2" stroke-miterlimit="10"/>
<path id="Vector_7" d="M48.92 63.22C48.92 64.826 48.4438 66.3959 47.5515 67.7312C46.6593 69.0665 45.3911 70.1073 43.9074 70.7219C42.4237 71.3364 40.791 71.4973 39.2159 71.184C37.6407 70.8706 36.1939 70.0973 35.0583 68.9617C33.9227 67.8261 33.1493 66.3793 32.836 64.8041C32.5227 63.229 32.6835 61.5963 33.2981 60.1126C33.9127 58.6289 34.9534 57.3607 36.2888 56.4684C37.6241 55.5762 39.194 55.1 40.8 55.1" stroke="#F3F7EF" stroke-width="2" stroke-miterlimit="10"/>
<path id="Vector_8" d="M34.16 79.85H9.41" stroke="#FF2E00" stroke-width="2" stroke-miterlimit="10"/>
<path id="Vector_9" d="M42.67 85.07H9.41" stroke="#F3F7EF" stroke-width="2" stroke-miterlimit="10"/>
<path id="Vector_10" d="M39.34 89.37H9.41" stroke="#F3F7EF" stroke-width="2" stroke-miterlimit="10"/>
<path id="Vector_11" d="M43.98 93.68H9.41" stroke="#F3F7EF" stroke-width="2" stroke-miterlimit="10"/>
<path id="Vector_12" d="M142.63 53.09H126" stroke="#F3F7EF" stroke-width="2" stroke-miterlimit="10"/>
<path id="Vector_13" d="M140.96 57.39H126" stroke="#F3F7EF" stroke-width="2" stroke-miterlimit="10"/>
<path id="Vector_14" d="M143.28 61.69H126" stroke="#F3F7EF" stroke-width="2" stroke-miterlimit="10"/>
<path id="Vector_15" d="M41.47 29.86H28.09" stroke="#F3F7EF" stroke-width="2" stroke-miterlimit="10"/>
<path id="Vector_16" d="M40.13 34.17H28.09" stroke="#F3F7EF" stroke-width="2" stroke-miterlimit="10"/>
<path id="Vector_17" d="M42 38.47H28.09" stroke="#F3F7EF" stroke-width="2" stroke-miterlimit="10"/>
<path id="Vector_18" d="M27.74 102.74H9.01999V107.89H27.74V102.74Z" fill="#FF2E00"/>
<path id="Vector_19" d="M82 54.7547L93.004 68L101.452 48.1321L109.959 58.3207L118 41" stroke="#FF2E00" stroke-width="2" stroke-miterlimit="10"/>
<path id="Vector_20" d="M126 48H137.34" stroke="#FF2E00" stroke-width="2" stroke-miterlimit="10"/>
<path id="Vector_21" d="M73.78 35.05H71.28" stroke="#F3F7EF" stroke-width="2" stroke-miterlimit="6.2278"/>
<path id="Vector_22" d="M65.06 35.05H55.72" stroke="#F3F7EF" stroke-width="2" stroke-miterlimit="6.2278" stroke-dasharray="6.22 6.22"/>
<path id="Vector_23" d="M52.61 35.05H50.11V32.55" stroke="#F3F7EF" stroke-width="2" stroke-miterlimit="6.2278"/>
<path id="Vector_24" d="M50.11 27.04V18.78" stroke="#F3F7EF" stroke-width="2" stroke-miterlimit="6.2278" stroke-dasharray="5.51 5.51"/>
<path id="Vector_25" d="M50.11 16.02V13.52H52.61" stroke="#F3F7EF" stroke-width="2" stroke-miterlimit="6.2278"/>
<path id="Vector_26" d="M57.94 13.52H76.63" stroke="#F3F7EF" stroke-width="2" stroke-miterlimit="6.2278" stroke-dasharray="5.34 5.34"/>
<path id="Vector_27" d="M79.3 13.52H81.8V16.02" stroke="#F3F7EF" stroke-width="2" stroke-miterlimit="6.2278"/>
<path id="Vector_28" d="M81.8 20.27V26.64" stroke="#F3F7EF" stroke-width="2" stroke-miterlimit="6.2278" stroke-dasharray="4.25 4.25"/>
<path id="Vector_29" d="M81.8 28.76V31.26" stroke="#F3F7EF" stroke-width="2" stroke-miterlimit="6.2278"/>
<path id="Vector_30" d="M50.11 44.44V40.72H52.61" stroke="#F3F7EF" stroke-width="2" stroke-miterlimit="6.2278"/>
<path id="Vector_31" d="M58.83 40.72H68.17" stroke="#F3F7EF" stroke-width="2" stroke-miterlimit="10" stroke-dasharray="6.22 6.22"/>
<path id="Vector_32" d="M71.28 40.72H73.78" stroke="#F3F7EF" stroke-width="2" stroke-miterlimit="10"/>
<path id="Vector_33" d="M73.78 62.24H71.28" stroke="#F3F7EF" stroke-width="2" stroke-miterlimit="6.2278"/>
<path id="Vector_34" d="M68.02 62.24H63.14" stroke="#F3F7EF" stroke-width="2" stroke-miterlimit="6.2278" stroke-dasharray="3.26 3.26"/>
<path id="Vector_35" d="M61.51 62.24H59.01" stroke="#F3F7EF" stroke-width="2" stroke-miterlimit="6.2278"/>
<path id="Vector_36" d="M86.79 30.91V28.41" stroke="#F3F7EF" stroke-width="2" stroke-miterlimit="10"/>
<path id="Vector_37" d="M86.79 24.28V18.09" stroke="#F3F7EF" stroke-width="2" stroke-miterlimit="10" stroke-dasharray="4.13 4.13"/>
<path id="Vector_38" d="M86.79 16.02V13.52H89.29" stroke="#F3F7EF" stroke-width="2" stroke-miterlimit="10"/>
<path id="Vector_39" d="M94.63 13.52H113.32" stroke="#F3F7EF" stroke-width="2" stroke-miterlimit="10" stroke-dasharray="5.34 5.34"/>
<path id="Vector_40" d="M115.99 13.52H118.49V16.02" stroke="#F3F7EF" stroke-width="2" stroke-miterlimit="10"/>
<path id="Vector_41" d="M118.49 20.27V26.64" stroke="#F3F7EF" stroke-width="2" stroke-miterlimit="10" stroke-dasharray="4.25 4.25"/>
<path id="Vector_42" d="M118.49 28.76V31.26" stroke="#F3F7EF" stroke-width="2" stroke-miterlimit="10"/>
<path id="Vector_43" d="M35.04 23.89C37.9561 23.89 40.32 21.5261 40.32 18.61C40.32 15.694 37.9561 13.33 35.04 13.33C32.1239 13.33 29.76 15.694 29.76 18.61C29.76 21.5261 32.1239 23.89 35.04 23.89Z" stroke="#FF2E00" stroke-width="2" stroke-miterlimit="10"/>
</g>
<defs>
<clipPath id="clip0_75_2383">
<rect width="160.48" height="116.26" fill="white"/>
</clipPath>
</defs>
</svg>
