<svg width="90" height="66" viewBox="0 0 90 66" fill="none" xmlns="http://www.w3.org/2000/svg">
<g id="Frame" clip-path="url(#clip0_80_4194)">
<path id="Vector" d="M45.4808 19.0621V47.4503C45.4789 47.6015 45.5072 47.7516 45.564 47.8918C45.6208 48.0321 45.7051 48.1597 45.8119 48.2673C45.9188 48.3749 46.0461 48.4603 46.1864 48.5186C46.3267 48.5769 46.4772 48.6069 46.6293 48.6069H55.8462V55.3855C55.846 55.4551 55.8666 55.5233 55.9054 55.5812C55.9443 55.6391 55.9995 55.6843 56.0642 55.711C56.1289 55.7376 56.2 55.7446 56.2687 55.731C56.3373 55.7173 56.4004 55.6838 56.4498 55.6345L63.5318 48.6069H67.9489V61.7835C67.9489 62.6921 67.5859 63.5635 66.9397 64.206C66.2936 64.8485 65.4173 65.2094 64.5036 65.2094H4.13727C3.22081 65.2056 2.34305 64.8418 1.69501 64.1974C1.04697 63.553 0.681167 62.6802 0.677292 61.7689V9.0626H67.89V17.847H46.5704C46.4182 17.8544 46.269 17.8919 46.1315 17.9573C45.994 18.0226 45.871 18.1145 45.7696 18.2276C45.6682 18.3407 45.5904 18.4727 45.5409 18.616C45.4913 18.7593 45.4709 18.9109 45.4808 19.0621V19.0621Z" stroke="#0038FF" stroke-width="2" stroke-miterlimit="10"/>
<path id="Vector_2" d="M67.9489 4.15789V9.13575H0.73616V4.15789C0.740054 3.24794 1.10632 2.37662 1.75478 1.73456C2.40324 1.09249 3.28112 0.732026 4.19623 0.732034H64.43C64.888 0.724276 65.3431 0.807028 65.7687 0.975538C66.1944 1.14405 66.5821 1.39494 66.9095 1.71365C67.2368 2.03235 67.4973 2.41248 67.6757 2.83207C67.8541 3.25166 67.947 3.70234 67.9489 4.15789V4.15789Z" stroke="#0038FF" stroke-width="2" stroke-miterlimit="10"/>
<path id="Vector_3" d="M20.7012 9.13576V65.268" stroke="#0038FF" stroke-width="2" stroke-miterlimit="10"/>
<g id="Group 105">
<path id="Vector_4" d="M6.5 6C7.32843 6 8 5.32843 8 4.5C8 3.67157 7.32843 3 6.5 3C5.67157 3 5 3.67157 5 4.5C5 5.32843 5.67157 6 6.5 6Z" fill="#0038FF"/>
<path id="Vector_5" d="M12.5 6C13.3284 6 14 5.32843 14 4.5C14 3.67157 13.3284 3 12.5 3C11.6716 3 11 3.67157 11 4.5C11 5.32843 11.6716 6 12.5 6Z" fill="#0038FF"/>
<path id="Vector_6" d="M18.5 6C19.3284 6 20 5.32843 20 4.5C20 3.67157 19.3284 3 18.5 3C17.6716 3 17 3.67157 17 4.5C17 5.32843 17.6716 6 18.5 6Z" fill="#0038FF"/>
</g>
<path id="Vector_7" d="M88.3115 19.0621V47.4503C88.3115 47.7571 88.1889 48.0512 87.9708 48.2681C87.7527 48.485 87.4568 48.6069 87.1483 48.6069H63.5907L56.5087 55.6345C56.4593 55.6838 56.3963 55.7173 56.3276 55.731C56.259 55.7446 56.1878 55.7376 56.1231 55.711C56.0584 55.6843 56.0031 55.6391 55.9643 55.5812C55.9255 55.5233 55.9049 55.4551 55.9051 55.3855V48.6069H46.6882C46.5361 48.6069 46.3856 48.5769 46.2453 48.5186C46.105 48.4603 45.9777 48.3749 45.8709 48.2673C45.764 48.1597 45.6797 48.0321 45.6229 47.8918C45.5661 47.7516 45.5378 47.6015 45.5398 47.4503V19.0621C45.5398 18.7592 45.6608 18.4688 45.8761 18.2546C46.0915 18.0405 46.3836 17.9202 46.6882 17.9202H87.2072C87.5041 17.9315 87.785 18.0568 87.9909 18.2697C88.1968 18.4827 88.3117 18.7667 88.3115 19.0621V19.0621Z" stroke="#0038FF" stroke-width="2" stroke-miterlimit="10"/>
<path id="Vector_8" d="M61.8092 30.9942H61.7945C60.6316 30.9942 59.689 31.9316 59.689 33.0878V41.3159C59.689 42.4721 60.6316 43.4095 61.7945 43.4095H61.8092C62.972 43.4095 63.9146 42.4721 63.9146 41.3159V33.0878C63.9146 31.9316 62.972 30.9942 61.8092 30.9942Z" stroke="#0038FF" stroke-width="2" stroke-miterlimit="10"/>
<path id="Vector_9" d="M63.9146 41.3013H73.264C74.1879 41.3039 75.0877 41.0085 75.8284 40.4594C76.5691 39.9103 77.1107 39.1372 77.3719 38.256L77.9019 36.4699C78.0922 35.8339 78.1306 35.1627 78.0139 34.5094C77.8971 33.8562 77.6286 33.239 77.2296 32.7072C76.8306 32.1754 76.3123 31.7437 75.7158 31.4463C75.1194 31.1489 74.4613 30.9941 73.7941 30.9943H71.9536C71.9272 30.9944 71.9011 30.989 71.8768 30.9786C71.8526 30.9681 71.8308 30.9527 71.8128 30.9334C71.7948 30.9142 71.7811 30.8915 71.7724 30.8667C71.7637 30.8419 71.7602 30.8155 71.7623 30.7893C71.7623 29.8377 71.9389 25.709 69.7157 24.4206C69.5602 24.3317 69.3818 24.2903 69.2028 24.3016C69.0238 24.3129 68.852 24.3764 68.7091 24.4842C68.5662 24.592 68.4583 24.7392 68.3991 24.9076C68.3398 25.0759 68.3317 25.258 68.3758 25.4309C68.9059 27.993 69.3329 33.1611 63.9588 33.1025" stroke="#0038FF" stroke-width="2" stroke-miterlimit="10"/>
</g>
<defs>
<clipPath id="clip0_80_4194">
<rect width="89.0476" height="66" fill="white"/>
</clipPath>
</defs>
</svg>
