<svg width="94" height="68" viewBox="0 0 94 68" fill="none" xmlns="http://www.w3.org/2000/svg">
<g id="Frame" clip-path="url(#clip0_79_4162)">
<path id="Vector" d="M69.08 2.29326V25.0518H64.2053L62.9974 23.8472C62.882 23.7315 62.7452 23.6398 62.5946 23.5775C62.4441 23.5153 62.2829 23.4836 62.1203 23.4843H53.1617C52.9988 23.4824 52.8371 23.5133 52.6862 23.5753C52.5353 23.6374 52.3982 23.7293 52.283 23.8456C52.1678 23.9619 52.0767 24.1003 52.0153 24.2526C51.9538 24.4049 51.9231 24.5681 51.9251 24.7326V44.1528H2.27202C2.06876 44.1509 1.86715 44.1897 1.67881 44.2669C1.49047 44.3441 1.31917 44.4581 1.17477 44.6025C1.03037 44.7469 0.9157 44.9188 0.837479 45.1082C0.759258 45.2976 0.718985 45.5007 0.718994 45.7059V2.29326C0.718994 1.87751 0.882643 1.4788 1.17389 1.18483C1.46513 0.890857 1.86014 0.725763 2.27202 0.725763H67.5414C67.7447 0.725754 67.9459 0.766316 68.1336 0.84527C68.3212 0.924223 68.4914 1.03996 68.6345 1.18572C68.7775 1.33147 68.8906 1.50438 68.9671 1.69448C69.0435 1.88459 69.0819 2.08809 69.08 2.29326V2.29326Z" stroke="#9E00FF" stroke-width="2" stroke-miterlimit="10"/>
<path id="Vector_2" d="M51.9538 44.1818V52.4115H2.30075C2.09748 52.4134 1.89587 52.3747 1.70753 52.2975C1.51919 52.2203 1.34789 52.1062 1.20349 51.9618C1.05909 51.8174 0.944509 51.6456 0.866288 51.4562C0.788067 51.2668 0.747794 51.0636 0.747803 50.8585V45.7348C0.747794 45.5297 0.788067 45.3266 0.866288 45.1372C0.944509 44.9478 1.05909 44.776 1.20349 44.6316C1.34789 44.4872 1.51919 44.3731 1.70753 44.2959C1.89587 44.2187 2.09748 44.1799 2.30075 44.1818H51.9538Z" stroke="#9E00FF" stroke-width="2" stroke-miterlimit="10"/>
<path id="Vector_3" d="M93.281 31.3657V57.4916C93.281 57.8765 93.1295 58.2457 92.8599 58.5179C92.5902 58.7901 92.2244 58.943 91.843 58.943H53.248C52.8666 58.943 52.5009 58.7901 52.2312 58.5179C51.9615 58.2457 51.81 57.8765 51.81 57.4916V24.8342C51.8274 24.4742 51.977 24.1335 52.2295 23.8787C52.482 23.6238 52.8194 23.4729 53.1761 23.4553H61.9621C62.3223 23.4641 62.6662 23.6091 62.9255 23.8616L64.0903 25.0229L68.5623 29.5368C68.8253 29.7927 69.1749 29.938 69.5402 29.9432H91.7855C91.9768 29.9354 92.1676 29.9663 92.3469 30.034C92.5261 30.1016 92.6902 30.2047 92.8295 30.3371C92.9688 30.4696 93.0805 30.6288 93.158 30.8054C93.2355 30.982 93.2773 31.1725 93.281 31.3657Z" stroke="#9E00FF" stroke-width="2" stroke-miterlimit="10"/>
<path id="Vector_4" d="M91.0234 26.4743V29.9722H69.08L64.2053 25.0518H89.6142C89.9856 25.0593 90.3398 25.2115 90.6025 25.4767C90.8652 25.7419 91.016 26.0994 91.0234 26.4743Z" stroke="#9E00FF" stroke-width="2" stroke-miterlimit="10"/>
<path id="Vector_5" d="M76.4999 35.3716L69.8278 52.4115" stroke="#9E00FF" stroke-width="2" stroke-miterlimit="10"/>
<path id="Vector_6" d="M66.1753 37.7375L60.7829 43.1804L65.8445 48.2894" stroke="#9E00FF" stroke-width="2" stroke-miterlimit="10"/>
<path id="Vector_7" d="M79.2896 48.2894L84.6819 42.8465L79.6203 37.7375" stroke="#9E00FF" stroke-width="2" stroke-miterlimit="10"/>
<path id="Vector_8" d="M26.7031 52.4115V62.6442H42.7364V52.4115" stroke="#9E00FF" stroke-width="2" stroke-miterlimit="10"/>
<path id="Vector_9" d="M47.9419 62.6297H20.7355C20.5052 62.6297 20.3185 62.8181 20.3185 63.0506V66.8534C20.3185 67.0858 20.5052 67.2743 20.7355 67.2743H47.9419C48.1722 67.2743 48.3589 67.0858 48.3589 66.8534V63.0506C48.3589 62.8181 48.1722 62.6297 47.9419 62.6297Z" stroke="#9E00FF" stroke-width="2" stroke-miterlimit="10"/>
<path id="Vector_10" d="M41.169 20.7556C40.5103 21.0161 39.9449 21.4715 39.5472 22.062C39.1494 22.6526 38.9378 23.3508 38.9402 24.0649V28.6224C38.4979 28.3758 38.0066 28.232 37.5022 28.2015H34.6981C34.459 28.1793 34.2183 28.1793 33.9792 28.2015C33.6029 28.2782 33.2428 28.4206 32.9151 28.6224V24.0068C32.9176 23.541 32.8287 23.0792 32.6535 22.6482C32.4783 22.2173 32.2201 21.8256 31.8941 21.4959C31.5213 21.1115 31.0628 20.8228 30.5568 20.654C30.1328 18.8337 30.1506 16.9369 30.6088 15.125C31.0669 13.3131 31.9519 11.6398 33.1883 10.2472L35.259 7.92485C35.3939 7.76049 35.5631 7.62817 35.7545 7.53737C35.9458 7.44656 36.1547 7.39952 36.3662 7.39952C36.5777 7.39952 36.7865 7.44656 36.9779 7.53737C37.1693 7.62817 37.3385 7.76049 37.4734 7.92485L39.0264 9.85529C40.2579 11.3466 41.0992 13.1257 41.4735 15.03C41.8478 16.9342 41.7431 18.9028 41.169 20.7556Z" stroke="#9E00FF" stroke-width="2" stroke-miterlimit="10"/>
<path id="Vector_11" d="M32.9726 24.0649V29.5514C32.9745 29.7196 32.9432 29.8866 32.8802 30.0424C32.8173 30.1982 32.7242 30.3399 32.6063 30.4589C32.4884 30.5779 32.3481 30.6718 32.1937 30.7353C32.0393 30.7988 31.874 30.8306 31.7072 30.8286H27.2064C26.8708 30.8286 26.5489 30.6941 26.3116 30.4545C26.0743 30.215 25.941 29.8901 25.941 29.5514V24.0649C25.941 23.1217 26.3122 22.2172 26.9729 21.5504C27.6335 20.8835 28.5296 20.5088 29.464 20.5088C29.8562 20.5089 30.2454 20.5777 30.6144 20.712C31.1204 20.8808 31.5789 21.1695 31.9517 21.5539C32.2777 21.8836 32.5358 22.2753 32.711 22.7063C32.8863 23.1373 32.9752 23.599 32.9726 24.0649V24.0649Z" stroke="#9E00FF" stroke-width="2" stroke-miterlimit="10"/>
<path id="Vector_12" d="M45.9719 24.0649V29.5514C45.9719 29.8901 45.8385 30.215 45.6012 30.4545C45.3639 30.6941 45.042 30.8286 44.7064 30.8286H40.2056C40.0389 30.8306 39.8735 30.7989 39.7191 30.7354C39.5647 30.6719 39.4244 30.5779 39.3065 30.4589C39.1887 30.3399 39.0955 30.1983 39.0326 30.0424C38.9697 29.8866 38.9383 29.7196 38.9402 29.5514V24.0649C38.9379 23.3508 39.1494 22.6526 39.5472 22.0621C39.945 21.4715 40.5103 21.0161 41.169 20.7556C41.5765 20.5931 42.0107 20.5094 42.4489 20.5088C42.9115 20.5074 43.3698 20.5991 43.7969 20.7785C44.2241 20.9579 44.6115 21.2216 44.9365 21.5539C45.2645 21.8829 45.5248 22.2742 45.7025 22.7051C45.8802 23.1361 45.9717 23.5981 45.9719 24.0649V24.0649Z" stroke="#9E00FF" stroke-width="2" stroke-miterlimit="10"/>
<path id="Vector_13" d="M40.7664 31.7285V32.788C40.7692 34.159 40.4469 35.5107 39.8265 36.7302C39.2061 37.9498 38.3056 39.0019 37.2002 39.7985L37.0708 39.9001C36.7584 40.1259 36.3838 40.2472 35.9995 40.2472C35.6153 40.2472 35.2407 40.1259 34.9283 39.9001L34.7989 39.7985C33.699 39.0009 32.8031 37.9503 32.1855 36.7337C31.5678 35.5171 31.2461 34.1696 31.2471 32.8026V31.7285C31.2481 31.4249 31.2867 31.1226 31.3621 30.8286H31.7072C31.8739 30.8306 32.0393 30.7988 32.1937 30.7353C32.3481 30.6718 32.4884 30.5779 32.6063 30.4589C32.7242 30.3399 32.8173 30.1982 32.8802 30.0424C32.9431 29.8866 32.9745 29.7196 32.9726 29.5514V28.6224C33.3003 28.4206 33.6604 28.2781 34.0367 28.2015C34.2759 28.1793 34.5166 28.1793 34.7557 28.2015H37.4878C37.9922 28.232 38.4835 28.3758 38.9258 28.6224V29.5514C38.9239 29.7196 38.9553 29.8866 39.0182 30.0424C39.0811 30.1982 39.1743 30.3399 39.2922 30.4589C39.41 30.5779 39.5503 30.6718 39.7047 30.7353C39.8591 30.7988 40.0245 30.8306 40.1912 30.8286H40.637C40.7172 31.122 40.7607 31.4243 40.7664 31.7285Z" stroke="#9E00FF" stroke-width="2" stroke-miterlimit="10"/>
<path id="Vector_14" d="M41.0972 13.6435H31.2471" stroke="#9E00FF" stroke-width="2" stroke-miterlimit="10"/>
</g>
<defs>
<clipPath id="clip0_79_4162">
<rect width="94" height="68" fill="white"/>
</clipPath>
</defs>
</svg>
