<?xml version="1.0" standalone="no"?>
<svg version="1.0" xmlns="http://www.w3.org/2000/svg"
 width="790" height="500" viewBox="0 0 790 500"
 preserveAspectRatio="xMidYMid meet">
<metadata>
Created by potrace 1.16, written by Peter Selinger 2001-2019
</metadata>
<g transform="translate(0.000000,538.000000) scale(0.100000,-0.100000)"
fill="#000000" stroke="none">
<path d="M6893 4605 c-119 -33 -189 -87 -238 -184 -65 -130 -78 -221 -51 -350
16 -71 8 -116 -32 -181 -12 -19 -22 -45 -22 -57 0 -32 34 -63 70 -63 27 0 32
-7 69 -85 22 -47 50 -99 62 -116 21 -31 23 -31 97 -27 75 3 76 3 83 -24 6 -23
2 -31 -26 -53 -19 -14 -48 -53 -66 -90 -31 -63 -34 -66 -124 -115 -129 -69
-158 -99 -175 -178 -7 -34 -16 -65 -21 -68 -4 -2 -26 21 -48 53 -59 84 -67 93
-84 93 -18 0 -49 75 -67 165 -7 33 -30 92 -51 131 -21 39 -42 92 -45 117 -9
64 -17 74 -48 59 -43 -19 -51 -52 -33 -124 9 -38 12 -67 6 -72 -6 -6 -36 -1
-81 13 -65 21 -82 32 -154 102 -83 81 -100 91 -111 64 -5 -14 -8 -14 -29 0
-26 17 -44 13 -44 -10 0 -8 13 -37 30 -65 31 -53 30 -58 -10 -35 -34 19 -47
18 -60 -5 -9 -17 -2 -26 55 -71 36 -29 64 -54 62 -55 -1 -2 -18 1 -37 5 -40 9
-60 5 -60 -13 0 -21 33 -44 97 -71 34 -13 84 -41 112 -62 28 -21 90 -54 138
-74 82 -34 89 -40 117 -89 l29 -53 -48 -41 c-41 -36 -47 -45 -40 -66 8 -25
132 -271 231 -456 30 -56 54 -110 54 -120 0 -18 -28 -185 -36 -211 -2 -9 -15
-7 -46 7 -24 11 -53 20 -65 20 -27 0 -27 1 -11 35 9 19 8 38 -2 82 -18 82 -34
103 -73 103 -33 0 -51 10 -127 68 -24 17 -49 32 -56 32 -42 0 -84 -44 -84 -87
0 -8 -13 -31 -30 -49 -16 -19 -32 -47 -36 -62 -3 -15 -10 -37 -15 -50 -28 -71
18 -149 118 -197 88 -42 90 -45 64 -97 -11 -25 -21 -52 -21 -61 0 -56 73 -147
117 -147 14 0 49 -19 81 -44 63 -49 140 -90 189 -100 29 -7 31 -10 26 -41 -9
-58 5 -103 36 -120 l29 -14 6 -178 c3 -98 8 -215 11 -260 l5 -83 -2212 -3
-2213 -2 2213 -3 2212 -2 0 -30 0 -30 -232 -2 -233 -2 235 -6 c129 -3 236 -2
238 2 2 4 -1 128 -7 275 -6 146 -9 268 -7 270 2 3 31 -1 65 -8 40 -7 61 -17
64 -28 3 -9 5 1 6 22 1 48 28 52 33 5 2 -25 7 -32 20 -30 10 2 64 -4 120 -12
57 -9 157 -20 223 -26 72 -6 122 -15 127 -23 5 -7 8 4 6 28 -3 34 0 40 17 40
15 0 21 -8 23 -31 3 -31 4 -31 50 -27 205 19 337 45 430 84 25 11 46 18 48 17
3 -4 -13 -327 -24 -468 l-7 -95 105 3 c162 4 178 9 38 10 l-128 2 0 30 0 29
128 4 127 3 -126 2 -126 2 4 93 c7 149 -6 136 131 140 l117 3 -119 2 -119 2 7
154 8 155 47 48 c63 63 65 84 51 428 -11 253 -11 280 9 430 47 367 52 645 13
755 -62 177 -172 321 -311 410 -30 19 -49 36 -42 38 19 6 12 37 -20 86 -37 55
-65 76 -106 79 -25 2 -29 7 -37 49 l-9 47 51 56 c144 157 170 346 75 537 -46
91 -132 178 -199 203 -68 24 -279 30 -351 10z m-58 -190 c32 -32 32 -76 0
-137 -14 -26 -25 -60 -25 -75 0 -40 31 -85 73 -108 21 -11 37 -27 37 -36 0 -9
9 -24 20 -34 17 -15 24 -16 45 -7 14 6 25 17 25 24 0 19 52 68 72 68 24 0 83
-54 98 -90 8 -19 10 -48 6 -78 -20 -137 -20 -149 3 -161 13 -7 40 -9 69 -5
l48 6 11 -46 10 -47 -181 -92 c-99 -51 -185 -92 -190 -92 -5 0 -14 14 -20 31
-10 26 -14 29 -36 23 -14 -4 -46 -7 -72 -8 -42 -1 -50 2 -73 33 -14 18 -41 69
-60 112 -32 74 -36 79 -69 85 -40 6 -66 25 -66 46 0 7 13 39 29 71 38 75 45
112 31 162 -10 36 -9 45 6 62 10 11 26 17 36 15 10 -3 18 -1 18 4 0 12 -47 11
-55 -1 -15 -24 -25 -6 -25 48 0 50 45 210 64 229 8 8 73 20 114 22 23 1 41 -7
57 -24z m599 -766 c39 -43 63 -85 54 -95 -4 -3 -55 -16 -114 -30 -240 -54
-425 -120 -515 -185 -16 -11 -29 -17 -29 -14 0 19 63 122 83 135 57 37 444
229 463 230 13 0 37 -17 58 -41z m-1221 -77 c3 -28 22 -79 45 -122 22 -41 45
-100 52 -131 6 -31 20 -79 30 -108 11 -28 20 -55 20 -61 0 -10 -134 -120 -147
-120 -5 0 -21 24 -35 53 -25 51 -28 53 -113 86 -47 18 -107 49 -131 68 -25 18
-83 51 -129 73 -114 52 -112 73 5 50 25 -4 46 -7 48 -6 1 2 -34 30 -78 62 -47
35 -80 66 -80 77 0 9 2 17 4 17 14 0 123 -55 157 -80 23 -16 47 -30 53 -30 6
0 -15 18 -46 40 -69 50 -156 180 -119 180 8 0 71 -65 142 -148 20 -23 42 -42
50 -42 7 0 -1 12 -18 28 -35 31 -97 109 -106 134 -13 38 11 24 87 -50 72 -70
89 -82 157 -104 64 -22 78 -23 94 -12 16 12 16 19 7 56 -24 95 -24 97 3 124
14 14 29 23 34 20 4 -3 11 -27 14 -54z m1290 -68 c162 -101 266 -233 328 -419
22 -63 24 -86 23 -245 0 -172 -9 -277 -41 -535 -14 -111 -14 -167 -5 -400 10
-267 7 -350 -16 -391 -27 -51 -156 -121 -284 -156 -75 -21 -105 -23 -313 -23
-126 0 -266 4 -310 9 l-80 8 109 35 c59 19 106 36 103 39 -2 3 -58 -12 -123
-32 -118 -36 -120 -36 -204 -24 -109 15 -250 47 -266 61 -17 14 -28 71 -20
102 5 23 9 24 103 23 89 -1 102 1 143 25 55 33 146 127 193 200 53 82 131 244
165 339 38 110 61 220 72 361 9 110 3 319 -9 319 -3 0 -5 -72 -3 -161 5 -262
-32 -446 -136 -671 -80 -173 -203 -333 -291 -378 -118 -60 -335 -11 -468 105
-37 32 -56 42 -71 38 -30 -7 -87 51 -101 102 -10 35 -8 46 14 91 28 58 120
163 169 193 38 24 80 26 115 7 l23 -13 -33 -23 c-78 -53 -159 -149 -159 -187
1 -11 6 -6 15 14 31 71 182 206 203 180 5 -6 12 -60 15 -118 2 -59 10 -115 17
-125 10 -17 11 -16 6 6 -3 14 -9 68 -12 120 -6 87 -1 124 56 445 76 430 127
690 140 715 21 38 75 72 375 231 50 26 131 59 180 74 96 30 302 83 323 84 7 1
31 -11 55 -25z m-1041 -445 l57 -84 -39 -205 c-21 -113 -46 -249 -55 -303 -10
-54 -21 -95 -25 -90 -4 4 -69 129 -145 276 l-138 269 25 25 c48 48 243 202
253 199 5 -1 35 -40 67 -87z m-454 -613 c15 -8 36 -24 47 -36 l20 -23 -23 12
c-13 7 -26 10 -29 7 -5 -4 109 -66 122 -66 4 0 3 5 0 10 -7 12 34 13 51 2 7
-4 19 -37 29 -74 15 -60 15 -69 1 -96 -9 -17 -37 -46 -64 -66 -40 -29 -82 -73
-129 -135 -2 -3 -13 5 -26 16 -12 12 -45 31 -73 43 -53 22 -114 89 -114 125 0
37 34 132 59 164 14 19 31 50 36 70 6 21 20 41 35 48 31 16 26 16 58 -1z"/>
<path d="M3623 3760 c-61 -37 -64 -55 -61 -315 3 -233 3 -233 28 -261 30 -32
78 -54 120 -54 16 0 30 -2 30 -5 0 -3 -18 -49 -40 -102 -22 -53 -39 -97 -37
-99 1 -1 53 44 115 101 l113 103 174 4 c190 3 201 7 249 72 20 26 21 41 21
255 0 252 -2 261 -68 301 -30 19 -52 20 -322 20 -270 0 -292 -1 -322 -20z
m429 -89 c22 -25 28 -41 28 -79 0 -57 -27 -117 -69 -156 -20 -20 -31 -39 -31
-58 0 -27 -2 -28 -45 -28 l-45 0 0 38 c0 30 7 45 35 72 46 45 72 111 56 146
-16 35 -45 28 -49 -13 -3 -27 -8 -32 -42 -41 -22 -5 -42 -7 -45 -4 -9 10 -5
93 6 113 16 31 67 50 123 45 41 -3 55 -9 78 -35z"/>
<path d="M515 3700 c-15 -47 38 -155 85 -173 l30 -11 0 -141 0 -140 -20 25
c-11 14 -20 31 -20 38 -1 51 -100 127 -158 120 -85 -10 28 -148 121 -148 16 0
33 -11 51 -34 26 -34 26 -38 26 -193 l0 -157 -22 21 c-17 17 -22 35 -22 77 -1
67 -12 81 -51 66 -24 -9 -63 -3 -103 16 -1 0 16 20 39 43 93 99 0 139 -102 45
l-25 -24 -25 37 c-28 43 -82 78 -105 69 -13 -5 -15 -15 -11 -47 7 -54 50 -117
93 -135 20 -8 34 -22 35 -32 0 -9 6 -68 13 -130 14 -124 6 -138 -32 -58 -18
37 -32 51 -66 67 -63 27 -103 34 -121 19 -20 -17 -19 -24 11 -60 33 -39 93
-70 137 -70 23 0 41 -8 60 -28 25 -26 29 -41 42 -158 18 -158 18 -187 4 -178
-6 3 -19 26 -30 51 -16 37 -27 48 -74 69 -63 29 -118 29 -123 1 -8 -41 97
-116 164 -117 20 0 39 -9 56 -27 22 -24 28 -43 37 -127 8 -68 8 -103 1 -110
-14 -14 -12 -48 5 -70 18 -23 20 -40 4 -30 -6 3 -19 26 -29 49 -21 48 -43 66
-110 90 -56 20 -90 13 -90 -18 0 -46 91 -107 159 -107 61 0 87 -40 96 -150 l7
-85 -21 19 c-11 11 -21 27 -21 36 0 25 -50 67 -99 85 -55 19 -75 19 -91 0 -32
-39 54 -114 140 -123 63 -6 95 -38 104 -104 l6 -48 -36 0 c-36 0 -37 -1 -31
-34 l5 -34 -41 19 c-54 24 -113 25 -121 2 -9 -23 22 -63 72 -91 31 -18 44 -32
52 -60 16 -58 14 -62 -23 -55 -17 3 -34 6 -37 5 -35 0 -40 -4 -40 -28 0 -39
53 -83 131 -107 11 -4 24 -38 41 -106 l25 -100 -81 -4 -81 -3 82 -2 82 -2 13
-48 14 -47 663 -3 664 -2 -6 29 c-8 38 6 42 208 52 185 9 949 23 985 17 22 -3
20 -6 -25 -30 l-50 -27 533 -1 c529 0 533 0 527 -20 -6 -20 -2 -20 658 -20
l664 0 17 68 c33 127 26 122 74 48 24 -36 53 -72 65 -81 35 -24 75 -19 107 15
l28 30 359 0 c346 0 361 1 378 20 13 14 16 30 13 58 -5 32 -2 40 16 48 26 11
35 84 13 102 -10 8 -126 13 -396 14 l-382 3 -44 104 c-105 244 -211 448 -257
498 -35 38 -162 81 -319 107 l-36 6 16 60 16 60 51 15 c40 12 57 23 73 49 23
37 27 66 10 83 -8 8 2 28 35 73 60 81 71 119 57 194 -18 97 -59 146 -183 216
-32 17 -58 36 -58 40 0 5 -12 22 -26 39 -33 39 -62 40 -76 3 l-11 -29 -41 23
c-70 40 -113 25 -88 -32 12 -24 11 -24 -47 -24 -43 0 -62 -5 -74 -18 -25 -28
-21 -63 10 -88 l28 -22 -34 -108 c-18 -60 -46 -136 -62 -169 -21 -44 -29 -74
-29 -115 1 -90 61 -199 126 -226 19 -8 34 -18 34 -22 0 -4 -77 -35 -171 -67
-112 -39 -178 -67 -195 -83 -35 -35 -57 -121 -51 -196 4 -52 27 -270 55 -518
l8 -68 -94 0 c-83 0 -97 3 -130 25 -20 14 -42 25 -48 25 -7 0 -15 12 -18 28
-4 15 -9 35 -12 45 -4 13 0 17 18 17 13 0 30 5 38 10 11 7 4 10 -26 10 l-41 0
-47 178 c-114 420 -158 506 -281 547 l-54 19 -41 90 c-37 81 -41 94 -31 122
14 39 14 87 0 174 l-12 70 41 37 c33 30 43 46 45 76 2 22 10 42 17 47 17 11 7
76 -18 110 -29 38 -106 73 -172 78 -51 4 -59 7 -64 28 -4 13 -20 31 -38 40
-69 36 -191 -10 -293 -110 -100 -99 -145 -219 -145 -380 1 -50 -5 -113 -13
-141 l-13 -50 -130 3 c-119 3 -135 6 -201 34 l-73 32 5 235 c3 130 8 264 11
298 l5 62 74 41 c41 22 79 48 84 58 22 42 59 162 51 167 -5 3 2 22 15 42 28
40 31 70 11 98 -13 18 -15 17 -70 -6 -97 -40 -266 -199 -300 -281 -8 -18 -17
-53 -21 -78 -3 -25 -26 -148 -50 -275 -104 -545 -97 -502 -80 -535 9 -16 20
-30 26 -30 6 0 120 -43 252 -96 133 -53 252 -100 264 -105 l22 -8 -44 -130
c-39 -113 -45 -140 -45 -213 0 -86 19 -148 53 -177 19 -15 22 -64 11 -170 l-7
-61 -208 0 -208 0 21 35 c27 47 19 95 -24 148 -28 36 -41 76 -104 323 -39 155
-82 312 -93 347 -44 132 -116 201 -220 214 -43 5 -51 9 -45 22 4 9 17 52 28
97 12 44 29 92 39 107 23 35 22 46 -9 78 -22 23 -26 38 -28 91 -2 40 -10 77
-23 102 l-20 39 21 38 c20 37 20 38 2 58 -11 12 -25 21 -32 21 -8 0 -20 15
-28 34 -8 19 -23 39 -33 44 -10 6 -93 10 -193 9 -166 -2 -178 -3 -231 -28 -30
-14 -72 -43 -91 -63 l-36 -37 -42 30 c-23 16 -61 33 -85 37 -31 4 -45 11 -48
25 -3 10 -12 22 -21 25 -19 7 -114 -22 -137 -42 -15 -14 -18 -12 -28 17 -15
44 -59 99 -78 99 -9 0 3 16 31 41 35 31 46 48 46 70 0 26 -3 29 -30 29 -68 0
-159 -70 -160 -122 0 -7 -9 -24 -20 -38 l-20 -25 0 169 c0 166 0 170 26 203
15 19 34 33 47 33 62 1 157 76 157 125 0 31 -22 37 -72 19 -61 -21 -105 -59
-113 -96 -4 -18 -16 -44 -26 -57 -19 -24 -19 -23 -19 76 l0 100 40 7 c55 9
132 78 128 115 -2 18 -10 27 -26 29 -26 4 -132 -44 -132 -59 0 -21 -17 -6 -28
26 -15 39 -64 85 -92 85 -10 0 -21 -9 -25 -20z m2212 -417 c-4 -3 0 -11 9 -18
14 -10 8 -19 -43 -71 -42 -42 -44 -45 -8 -11 28 26 54 47 58 47 13 0 -11 -36
-43 -66 -17 -16 -40 -45 -50 -65 -16 -30 -30 -40 -82 -59 -74 -26 -98 -45 -97
-74 0 -18 2 -17 11 6 7 22 24 33 83 55 64 25 75 33 95 70 13 24 29 43 36 43
18 0 18 -3 -11 -91 l-26 -76 -79 -43 c-95 -51 -87 -17 -95 -387 l-6 -263 58
-27 c32 -15 60 -29 61 -30 6 -3 73 -275 70 -283 -2 -4 -97 29 -213 75 -235 92
-240 96 -225 175 18 89 128 676 138 739 14 80 40 117 154 226 101 96 160 135
80 53 l-52 -54 42 -23 c35 -19 40 -20 25 -5 -16 18 -15 21 45 81 34 35 58 63
52 63 -5 0 -36 -27 -69 -60 -33 -33 -64 -60 -69 -60 -14 0 105 120 129 130 25
11 30 12 22 3z m-1961 -346 c2 -72 33 -132 78 -148 l34 -12 -24 -45 c-13 -25
-24 -51 -24 -59 0 -7 -11 -19 -25 -25 -21 -9 -30 -7 -62 15 -21 14 -50 31 -65
36 l-28 11 0 100 c0 93 2 104 26 135 17 23 36 35 57 38 18 2 32 5 32 5 0 1 1
-22 1 -51z m-161 -62 c21 -27 25 -43 25 -101 0 -38 -4 -74 -8 -79 -15 -22 -93
-23 -149 -1 -23 8 -49 13 -58 10 -24 -10 -18 -50 13 -86 23 -27 27 -39 22 -64
-4 -17 -14 -41 -23 -54 l-16 -23 -5 24 c-3 13 -12 87 -20 164 l-13 140 24 43
c17 28 32 42 46 42 12 1 32 6 45 13 38 21 89 9 117 -28z m1243 -152 c17 -27
34 -60 37 -74 6 -24 4 -26 -18 -22 -14 3 -33 0 -44 -6 -16 -11 -16 -11 4 -6
12 3 33 3 48 -1 25 -6 26 -9 21 -48 -6 -35 -3 -46 15 -62 37 -33 42 -53 23
-82 -10 -15 -28 -67 -41 -117 -13 -49 -29 -96 -37 -104 -21 -21 -112 -25 -176
-7 -30 8 -56 13 -58 12 -1 -2 6 -42 16 -90 l19 -86 -26 -64 c-39 -95 -52 -111
-78 -97 -24 12 -129 165 -170 244 -24 48 -24 53 -13 108 8 38 23 70 42 91 16
18 31 43 34 55 5 17 13 23 34 23 15 0 34 8 41 18 13 15 12 16 -3 4 -26 -21
-60 -10 -85 27 -27 40 -29 68 -7 99 21 30 42 28 79 -8 47 -46 68 -33 63 39
l-3 56 88 47 c48 25 102 58 120 72 18 14 35 25 38 26 4 0 21 -21 37 -47z
m-644 -20 c-8 -25 -14 -79 -14 -120 0 -59 5 -84 26 -125 29 -56 106 -144 135
-153 25 -8 25 -45 0 -45 -10 0 -29 -8 -42 -19 -18 -15 -29 -17 -54 -9 -16 5
-64 9 -105 10 -95 2 -130 -15 -160 -77 -17 -35 -32 -49 -66 -64 -28 -13 -51
-32 -62 -51 -9 -18 -31 -51 -49 -75 -38 -50 -33 -67 6 -23 21 23 37 31 64 32
20 1 37 -1 37 -4 0 -3 -21 -92 -47 -197 l-47 -193 -52 0 c-58 0 -74 14 -74 63
0 13 -9 36 -21 51 l-21 26 26 31 c14 17 26 35 26 40 0 19 16 8 34 -24 11 -19
21 -27 23 -19 3 7 -3 24 -12 38 -9 14 -23 48 -31 75 -10 32 -25 56 -44 71 -27
20 -30 27 -30 81 0 48 5 65 26 93 33 42 82 48 107 12 19 -29 33 -18 16 13 -9
18 -9 24 1 27 7 3 30 20 50 38 25 23 47 34 68 34 44 0 82 17 120 53 35 33 42
71 15 81 -26 10 -117 -21 -149 -51 -16 -15 -37 -26 -48 -24 -10 1 -38 -5 -61
-14 l-43 -16 -51 38 c-50 37 -51 39 -51 88 1 69 36 110 102 118 l48 7 26 -55
c29 -63 66 -88 129 -88 53 0 89 24 115 78 18 37 20 53 14 124 -7 77 -6 82 20
116 23 30 63 51 103 54 8 1 7 -12 -3 -46z m3654 0 c31 -16 79 -49 105 -75 54
-51 56 -67 11 -121 -28 -34 -28 -32 -5 -77 17 -31 18 -38 4 -63 -31 -60 6
-100 52 -57 26 25 72 24 88 -1 24 -39 -43 -119 -99 -119 -31 0 -38 -13 -70
-133 -21 -81 -34 -112 -49 -119 -11 -6 -41 -31 -67 -56 l-46 -45 -46 91 -46
91 60 36 c33 20 60 37 60 38 0 1 -36 -2 -80 -7 l-80 -10 -35 34 c-81 79 -108
196 -64 283 12 23 32 71 44 107 22 64 23 65 59 65 20 0 36 3 36 8 0 8 -14 10
-47 7 -22 -1 -22 -1 -7 47 23 69 62 103 120 103 29 0 66 -10 102 -27z m-1319
-236 c11 -74 21 -152 21 -174 0 -58 -34 -102 -110 -141 -78 -41 -117 -39 -222
10 -74 34 -113 70 -123 117 -5 22 -10 28 -26 24 -25 -7 -48 13 -70 62 -24 52
-24 80 1 105 20 20 20 20 64 -2 56 -27 80 -14 71 36 -6 30 -4 32 70 70 42 21
94 58 117 81 l42 43 72 -48 71 -49 22 -134z m-2935 52 c14 -17 26 -43 26 -59
0 -22 -5 -29 -27 -33 -48 -10 -110 -62 -123 -104 -19 -63 -32 -93 -40 -93 -4
0 -12 46 -18 102 -11 101 -11 104 14 145 17 30 32 43 47 43 12 1 33 7 47 15
36 21 45 19 74 -16z m4 -259 c20 -26 22 -41 22 -152 l0 -123 -20 25 c-11 14
-20 33 -20 42 0 29 -58 86 -105 104 -25 9 -45 21 -45 26 0 23 54 88 74 88 11
0 28 5 36 10 24 16 35 12 58 -20z m747 -54 c-8 -48 11 -92 88 -214 21 -35 38
-64 36 -66 -2 -1 -35 -22 -73 -45 -76 -48 -80 -46 -91 24 -12 83 -23 260 -18
288 5 25 36 57 56 57 4 0 5 -20 2 -44z m-102 15 c27 -6 27 -6 32 -111 5 -117
22 -246 36 -272 8 -16 18 -12 87 32 l77 49 35 -34 c20 -19 43 -35 51 -35 8 0
26 18 38 41 l23 40 31 -26 c61 -49 107 -78 115 -71 20 21 -10 208 -47 291
l-19 42 98 7 c170 12 238 -22 296 -149 30 -66 191 -661 181 -671 -2 -3 -15 -1
-28 4 -44 17 -133 22 -199 12 -48 -7 -66 -6 -72 3 -13 20 -4 30 41 45 23 8 40
16 37 19 -2 3 -21 0 -42 -7 -27 -9 -38 -9 -44 -1 -3 7 -19 87 -35 179 -26 156
-43 228 -44 192 0 -8 16 -111 37 -228 25 -141 35 -215 28 -217 -80 -22 -471
-105 -495 -105 -21 0 -49 13 -84 39 -29 21 -66 46 -83 56 -28 16 -33 28 -59
131 l-30 114 -31 0 c-17 0 -33 2 -36 5 -4 4 12 137 27 220 3 17 2 25 -3 20 -5
-6 -14 -48 -21 -95 -7 -47 -14 -100 -18 -117 l-5 -33 -144 0 -144 0 6 28 c28
123 89 356 110 424 53 167 74 188 194 186 41 0 87 -3 103 -7z m1718 -32 c85
-13 175 -58 172 -85 -2 -10 -6 -56 -9 -101 l-7 -82 36 -36 c32 -32 39 -35 96
-35 112 0 180 51 189 139 l4 50 47 -5 c80 -10 202 -43 238 -65 54 -33 107
-132 153 -280 l17 -57 -103 -71 -103 -70 -22 67 -23 67 -13 -70 c-26 -140 -55
-254 -67 -264 -9 -8 -30 -4 -76 15 l-63 26 -161 -11 c-89 -6 -188 -14 -221
-17 l-59 -6 84 -34 c47 -19 96 -43 110 -53 l24 -19 -39 -11 c-22 -6 -60 -22
-84 -36 -40 -23 -52 -25 -183 -25 l-140 0 6 43 c5 39 20 337 30 587 3 78 -1
133 -16 213 -12 59 -24 107 -28 107 -4 0 1 -39 11 -86 11 -48 17 -89 15 -92
-3 -2 -26 4 -52 14 l-46 19 -34 135 c-18 74 -33 139 -34 144 0 11 258 0 351
-15z m265 -45 c61 -27 140 -36 182 -21 22 8 22 7 22 -75 0 -66 -4 -90 -20
-116 -26 -43 -89 -71 -158 -72 -48 0 -58 4 -88 34 -27 27 -34 42 -34 73 0 51
26 203 34 203 2 0 30 -12 62 -26z m-1495 -82 c11 -37 23 -103 26 -146 l6 -79
-46 33 c-25 18 -56 43 -67 55 l-22 23 33 95 c19 52 37 93 41 91 4 -3 17 -35
29 -72z m-1258 -24 c12 -7 40 -14 61 -17 22 -4 41 -12 44 -20 3 -8 0 -11 -5
-8 -6 4 -18 1 -28 -7 -24 -17 -13 -48 36 -101 l39 -42 -56 -44 c-52 -40 -55
-45 -49 -75 3 -18 2 -35 -3 -38 -23 -14 -33 19 -47 150 -8 76 -17 156 -19 177
-5 41 -4 42 27 25z m4652 -38 c158 -42 178 -62 289 -286 61 -122 75 -159 64
-165 -24 -16 -35 -10 -30 16 4 24 2 25 -40 25 -40 0 -48 4 -75 38 -28 34 -30
43 -23 80 4 23 3 42 -1 42 -5 0 -9 -11 -9 -24 0 -14 -4 -27 -9 -30 -5 -3 -7
24 -5 62 4 74 -1 74 -11 -1 l-6 -48 -40 49 c-21 28 -39 57 -39 66 0 31 -29 73
-81 120 -47 42 -54 45 -90 40 -42 -7 -45 -4 -29 27 12 21 13 21 135 -11z
m-454 -98 l57 -107 -54 -60 -54 -60 -30 33 c-41 44 -49 41 -11 -5 59 -71 15
-52 -73 33 -49 46 -91 82 -94 80 -2 -3 36 -43 84 -89 l89 -85 -71 -78 c-64
-71 -74 -79 -125 -89 -29 -6 -63 -16 -75 -22 -20 -11 -21 -8 -38 135 -10 87
-14 166 -10 192 7 49 36 114 56 127 17 10 270 102 283 102 6 0 35 -48 66 -107z
m438 30 c40 -33 79 -97 67 -110 -3 -3 -15 7 -26 21 -17 22 -25 24 -49 17 -16
-4 -63 -11 -104 -15 l-75 -7 -52 -124 -53 -123 -115 -3 -116 -3 -64 -257 -64
-258 -55 0 c-52 0 -54 1 -69 36 -23 56 -30 184 -11 219 17 33 84 108 348 390
182 196 216 222 322 249 58 15 56 16 116 -32z m47 -110 c32 -28 184 -215 184
-226 0 -3 -34 -6 -76 -6 l-76 0 -30 69 c-30 67 -31 68 -69 68 -23 0 -56 11
-84 28 l-47 27 -40 -38 -40 -39 17 40 c9 22 21 50 26 63 7 17 17 22 46 23 21
0 56 4 78 8 65 14 78 12 111 -17z m-137 -85 c32 -17 63 -27 78 -24 20 4 26 -2
42 -38 41 -93 55 -85 -138 -85 -94 0 -171 3 -171 8 2 28 114 174 130 169 3 -1
29 -15 59 -30z m-4542 -52 c41 -17 70 -40 84 -67 14 -27 -6 -30 -37 -6 l-29
22 19 -22 c19 -22 19 -22 -9 -22 -15 0 -43 11 -60 25 -35 26 -50 24 -34 -6 12
-23 -9 -26 -44 -8 -12 7 -19 8 -15 4 4 -4 1 -14 -7 -22 -11 -10 -20 -11 -34
-4 -27 15 -72 71 -65 82 9 15 56 10 103 -11 51 -24 62 -19 54 20 -5 26 -3 30
16 30 12 0 38 -7 58 -15z m3472 -244 c23 -85 40 -155 39 -157 -2 -1 -55 0
-119 3 l-116 6 -30 92 -31 93 102 70 c65 45 103 66 107 58 4 -6 25 -80 48
-165z m-2690 -106 c33 -135 61 -249 61 -255 0 -7 -143 -10 -420 -10 -231 0
-420 2 -420 5 0 2 -29 117 -64 255 l-64 250 423 0 423 0 61 -245z m4177 228
c-3 -10 -28 -110 -56 -223 -28 -113 -55 -220 -61 -237 l-11 -33 -419 0 c-230
0 -419 3 -419 7 0 7 118 470 125 491 3 9 98 12 425 12 397 0 421 -1 416 -17z
m100 -109 c19 -41 31 -80 28 -86 -3 -5 3 -19 14 -31 48 -54 53 -100 21 -195
-33 -98 -90 -128 -143 -75 -15 14 -43 53 -62 85 l-36 59 26 107 c15 59 32 125
37 147 l11 39 65 -69 c35 -39 56 -56 45 -40 -11 17 -39 48 -61 70 -49 47 -52
65 -10 65 28 0 33 -5 65 -76z m-3269 -120 c41 -20 56 -35 74 -70 19 -40 20
-51 10 -84 -14 -47 -26 -57 -73 -61 -34 -3 -44 2 -95 52 -91 88 -145 129 -168
129 -24 0 -122 -38 -198 -77 l-49 -24 -111 16 c-62 9 -119 19 -127 22 -17 6
57 25 320 83 225 50 339 54 417 14z m1266 -62 c80 -38 157 -95 177 -133 8 -13
-4 -10 -52 14 l-61 32 -185 3 -186 4 -42 29 c-23 15 -64 37 -90 48 -27 11 -47
20 -44 21 23 6 342 27 367 25 18 -2 70 -21 116 -43z m2367 38 l-75 -6 73 -2
c117 -3 85 -22 -40 -24 l-113 -2 115 -6 c111 -6 112 -6 40 -10 l-75 -4 73 -3
c52 -3 72 -7 69 -16 -3 -9 -51 -13 -170 -15 l-167 -2 0 34 c0 19 -4 38 -10 41
-32 20 5 25 173 23 135 -1 163 -3 107 -8z m468 -3 c13 -15 12 -57 -1 -74 -7
-10 -58 -13 -192 -13 l-183 0 -4 50 -3 50 186 0 c141 0 189 -3 197 -13z
m-4240 -98 c50 -45 92 -85 92 -90 0 -5 -12 -9 -26 -9 -17 0 -49 19 -92 57 -37
31 -76 64 -87 73 -51 39 11 -23 71 -72 35 -28 64 -55 64 -60 0 -23 -52 -1
-137 58 -52 36 -96 64 -99 62 -2 -3 35 -31 83 -64 l88 -59 -38 -3 c-24 -2 -47
3 -65 16 -56 38 -102 63 -102 55 0 -4 24 -21 53 -38 l52 -30 -65 -7 c-36 -4
-90 -10 -120 -13 -30 -4 -78 -3 -106 2 -27 5 -59 6 -70 2 -14 -5 -11 -7 14 -6
18 0 35 -3 39 -6 3 -4 -72 -6 -168 -5 l-174 2 135 6 135 6 -137 2 -138 2 -6
28 c-3 15 -13 51 -21 80 -8 30 -12 56 -9 59 3 3 110 -11 238 -31 l233 -37 115
50 c63 28 124 51 135 51 11 0 62 -37 113 -81z m1814 60 c51 -10 56 -14 66 -47
6 -20 10 -37 9 -38 -1 0 -49 2 -107 5 l-105 6 37 23 c20 13 56 27 80 31 35 7
38 9 13 10 -47 1 -107 -32 -155 -86 l-44 -49 -31 40 c-17 23 -52 55 -78 72
-26 17 -50 34 -54 38 -11 11 311 7 369 -5z m1973 -69 c4 -6 -17 -11 -62 -12
l-68 -2 75 -6 c73 -6 72 -6 -37 -8 -62 -1 -113 -6 -113 -10 0 -5 47 -6 104 -4
97 4 104 3 109 -17 2 -11 2 -22 -1 -25 -3 -3 -76 -6 -163 -6 l-157 0 13 43 12
42 89 5 c48 3 111 6 140 8 29 2 55 -2 59 -8z m413 -42 l-3 -43 -190 -3 -190
-2 0 45 0 45 193 0 193 0 -3 -42z m-2913 12 c-3 -5 -10 -10 -15 -10 -5 0 -44
-22 -86 -50 l-77 -50 -130 0 c-72 0 -127 4 -122 8 45 37 135 88 173 98 57 15
266 19 257 4z m228 -24 c28 -14 60 -31 69 -38 15 -11 23 -10 45 5 16 10 48 28
73 40 84 40 213 24 288 -36 8 -7 50 -10 104 -8 88 3 107 -3 108 -31 0 -15
-125 -9 -146 7 -26 20 -40 19 -23 -2 13 -15 10 -16 -36 -10 -140 19 -192 19
-247 3 -71 -20 -226 -21 -292 -1 -62 19 -134 19 -211 0 -33 -8 -73 -14 -89
-15 -27 0 -24 3 31 39 79 51 102 63 138 72 49 13 132 2 188 -25z m-2310 -106
c5 -20 0 -20 -419 -20 -417 0 -424 0 -424 20 0 20 7 20 419 20 410 0 419 0
424 -20z m457 16 c0 -2 3 -12 6 -20 6 -15 -16 -16 -222 -14 -209 3 -229 5
-232 21 -3 16 13 17 222 17 124 0 226 -2 226 -4z m2658 -13 c-3 -16 -23 -18
-230 -21 -223 -2 -226 -2 -221 18 5 19 13 20 230 20 208 0 224 -1 221 -17z
m855 -3 c-5 -20 -14 -20 -424 -20 -412 0 -419 0 -419 20 0 20 7 20 424 20 419
0 424 0 419 -20z"/>
<path d="M798 1388 c-48 -37 -4 -128 61 -128 63 0 81 61 32 111 -31 31 -67 37
-93 17z"/>
<path d="M4927 1376 c-36 -33 -44 -71 -22 -96 54 -60 165 28 120 96 -20 32
-64 32 -98 0z"/>
<path d="M728 873 c232 -2 612 -2 845 0 232 1 42 2 -423 2 -465 0 -655 -1
-422 -2z"/>
<path d="M1718 803 c778 -2 2047 -2 2820 0 774 1 138 2 -1413 2 -1551 0 -2184
-1 -1407 -2z"/>
</g>
</svg>
