<svg width="721" height="375" viewBox="0 0 721 375" fill="none" xmlns="http://www.w3.org/2000/svg">
<g clip-path="url(#clip0_75_2463)">
<path d="M114.928 317.973C114.928 317.973 113.08 354.576 114.928 359.361C116.775 364.146 120.722 364.358 120.722 364.358V346.278" stroke="#2F2A37" stroke-miterlimit="10"/>
<path d="M150.42 365.024C150.42 365.024 150.35 374.2 138.761 374.331C127.172 374.463 129.676 363.227 129.151 355.363C129.02 351.941 129.02 347.732 129.02 347.732" stroke="#2F2A37" stroke-miterlimit="10"/>
<path d="M120.722 364.318C120.722 364.318 121.883 370.465 130.817 370.617" stroke="#2F2A37" stroke-miterlimit="10"/>
<path d="M139.72 351.285V374.291" stroke="#2F2A37" stroke-miterlimit="10"/>
<path d="M161.01 116.131V160.628C154.931 161.281 148.834 159.564 143.99 155.833C143.796 155.684 143.646 155.486 143.555 155.259C143.464 155.033 143.435 154.786 143.472 154.544C143.509 154.303 143.611 154.076 143.766 153.887C143.921 153.698 144.124 153.554 144.353 153.471C148.321 151.845 151.066 146.536 151.188 141.266C151.208 139.573 150.855 137.895 150.155 136.354C149.454 134.812 148.422 133.443 147.133 132.345C145.844 131.246 144.329 130.445 142.695 129.998C141.062 129.551 139.35 129.469 137.681 129.758C131.967 130.818 129.948 135.724 129.252 138.642C129.188 138.936 129.056 139.211 128.866 139.446C128.676 139.68 128.434 139.866 128.159 139.99C127.884 140.113 127.584 140.171 127.283 140.158C126.982 140.145 126.688 140.061 126.425 139.914C122.559 137.693 121.045 132.706 122.539 127.719C124.316 121.794 122.064 115.606 119.087 114.687C114.746 113.304 111.879 121.501 105.459 121.006C101.986 120.744 99.9572 117.978 98.8266 115.565C98.6227 115.108 98.3265 114.698 97.9568 114.361C97.587 114.024 97.1515 113.766 96.6776 113.605C96.2038 113.444 95.7017 113.383 95.203 113.425C94.7042 113.467 94.2195 113.611 93.7793 113.849C86.1073 117.948 82.7761 116.565 81.3831 114.626C81.5945 112.56 82.3389 110.585 83.5433 108.893C93.1938 96.0927 126.839 93.4479 136.924 92.9432C139.705 92.7728 142.495 93.0835 145.171 93.8618C150.336 95.384 154.739 98.7928 157.507 103.411C159.825 107.247 161.037 111.649 161.01 116.131Z" fill="#2F2A37" stroke="#2F2A37" stroke-miterlimit="10"/>
<path d="M225.989 319.881V325.655H149.047C146.534 320.688 144.242 316.459 143.627 315.51C142.183 313.279 90.7004 289.97 85.8247 287.598C82.7054 286.074 78.5565 284.832 76.4669 282.753C75.861 282.196 75.4396 281.468 75.2592 280.665C75.0788 279.862 75.148 279.023 75.4575 278.261C75.6031 277.842 75.7855 277.436 76.0026 277.049C78.2032 273.203 82.8266 274.314 82.8266 274.314C82.8266 274.314 105.741 238.892 116.27 225.193C117.474 223.628 118.768 222.135 120.146 220.721C123.719 217.037 127.843 213.931 132.371 211.515C132.876 221.488 139.064 224.416 179.967 262.998L171.145 279.22L225.989 319.881Z" stroke="#2F2A37" stroke-miterlimit="10"/>
<path d="M149.047 325.655C152.47 332.439 156.285 340.595 156.669 343.563C157.325 348.691 157.85 367.921 157.85 367.921C157.85 367.921 150.35 370.152 150.218 363.439C150.087 356.726 149.683 348.429 149.683 348.429" stroke="#2F2A37" stroke-miterlimit="10"/>
<path d="M136.066 199.896L133.744 195.01" stroke="#2F2A37" stroke-miterlimit="10"/>
<path d="M81.4335 114.616C80.3029 122.591 83.5837 133.796 85.4714 137.319C86.8962 140.281 87.701 143.503 87.8364 146.787C87.9718 150.072 87.4349 153.349 86.2588 156.418C83.5938 163.262 84.2903 164.595 86.2588 165.18C90.7711 166.533 92.1035 167.31 92.7294 170.904C93.113 173.135 100.492 201.844 112.737 195.787C124.982 189.731 129.454 185.915 129.454 185.915" stroke="#2F2A37" stroke-miterlimit="10"/>
<path d="M161.01 160.628C161.111 163.858 166.996 175.346 169.752 180.555" stroke="#2F2A37" stroke-miterlimit="10"/>
<path d="M140.931 172.661C140.023 177.011 137.58 187.57 133.744 195.01L129.413 185.925C129.413 185.925 137.59 177.536 140.517 172.509C140.55 172.476 140.592 172.453 140.637 172.443C140.682 172.433 140.729 172.436 140.773 172.452C140.817 172.468 140.855 172.496 140.883 172.533C140.911 172.57 140.928 172.614 140.931 172.661Z" fill="#2F2A37" stroke="#2F2A37" stroke-miterlimit="10"/>
<path d="M88.1969 132.161C88.1969 132.161 98.6651 130.677 104.348 134.523" stroke="#2F2A37" stroke-miterlimit="10"/>
<path d="M96.2928 148.999C92.8405 149.392 91.7502 142.377 91.7502 142.377C92.7077 141.97 93.7384 141.764 94.7786 141.771C96.949 142.114 97.7868 148.999 96.2928 148.999Z" fill="#2F2A37" stroke="#2F2A37" stroke-miterlimit="10"/>
<path d="M94.8089 141.72C96.6401 141.708 98.4663 141.912 100.25 142.326" stroke="#2F2A37" stroke-miterlimit="10"/>
<path d="M108.477 168.179C108.477 168.179 104.389 173.438 98.7357 175.245" stroke="#2F2A37" stroke-miterlimit="10"/>
<path d="M136.258 153.975C136.258 153.975 141.81 155.348 146.11 152.461" stroke="#2F2A37" stroke-miterlimit="10"/>
<path d="M142.375 142.457C142.375 142.457 137.206 140.994 137.075 136.219C137.076 136.181 137.064 136.143 137.04 136.113C137.016 136.083 136.982 136.063 136.944 136.056C136.907 136.049 136.868 136.055 136.835 136.074C136.801 136.092 136.776 136.122 136.762 136.158C136.005 138.258 134.552 143.729 138.105 147.596" stroke="#2F2A37" stroke-miterlimit="10"/>
<path d="M300.659 160.971C301.791 160.84 302.931 160.78 304.071 160.789C319.667 160.89 319.667 155.167 319.667 155.167H310.986" stroke="#2F2A37" stroke-miterlimit="10"/>
<path d="M132.341 211.464C132.26 209.768 132.341 207.85 132.442 205.529C132.512 203.883 133.815 201.985 136.066 199.896C142.123 194.263 155.155 187.298 169.752 180.555C189.769 171.308 212.765 162.495 224.899 158.144C230.405 156.171 236.21 155.164 242.06 155.167H295.006" stroke="#2F2A37" stroke-miterlimit="10"/>
<path d="M291.281 163.131C280.177 166.937 270.587 174.235 268.719 176.103" stroke="#2F2A37" stroke-miterlimit="10"/>
<path d="M180.229 263.199L179.937 262.927" stroke="#2F2A37" stroke-miterlimit="10"/>
<path d="M174.88 222.912L235.377 179.283C236.251 178.646 237.329 178.352 238.405 178.455C242.443 178.808 252.75 179.919 258.847 182.261C266.549 185.228 281.964 183.189 281.964 183.189" stroke="#2F2A37" stroke-miterlimit="10"/>
<path d="M179.937 262.927L201.56 222.912L187.205 214.028" stroke="#2F2A37" stroke-miterlimit="10"/>
<path d="M303.475 325.615H225.989" stroke="#2F2A37" stroke-miterlimit="10"/>
<path d="M225.989 319.881V309.413" stroke="#2F2A37" stroke-miterlimit="10"/>
<path d="M76.4669 282.712L65.3628 305.264C64.3522 307.312 63.8803 309.584 63.9916 311.865C64.103 314.146 64.794 316.361 65.9993 318.301C67.2046 320.241 68.8845 321.841 70.8803 322.951C72.8761 324.061 75.1219 324.645 77.4057 324.646H114.635L23.1571 325.655" stroke="#2F2A37" stroke-miterlimit="10"/>
<path d="M285.961 178.394L285.689 178.243L274.181 171.893" stroke="#2F2A37" stroke-miterlimit="10"/>
<path d="M300.659 160.971C300.659 160.971 293.805 168.108 286.082 177.758C286.557 175.346 288.404 166.654 291.281 163.131C294.316 162.061 297.462 161.336 300.659 160.971Z" fill="#2F2A37" stroke="#2F2A37" stroke-miterlimit="10"/>
<path d="M288.303 233.218C274.473 230.816 264.732 226.425 264.732 218.076C264.5 207.346 275.735 190.821 285.689 178.283" stroke="#2F2A37" stroke-miterlimit="10"/>
<path d="M319.344 236.216C317.154 238.003 304.303 247.795 288.303 245.574V233.218C297.388 234.793 308.23 235.5 319.233 235.924C319.269 235.92 319.305 235.928 319.335 235.946C319.366 235.965 319.39 235.993 319.402 236.027C319.415 236.061 319.416 236.097 319.406 236.132C319.395 236.166 319.373 236.196 319.344 236.216Z" fill="#2F2A37" stroke="#2F2A37" stroke-miterlimit="10"/>
<path d="M288.303 245.574V271.497C293.065 274.824 298.459 277.136 304.152 278.291C306.857 278.869 309.613 279.177 312.379 279.21C319.97 279.3 328.843 277.312 338.201 270.993C338.961 270.488 339.718 269.953 340.472 269.387" stroke="#2F2A37" stroke-miterlimit="10"/>
<path d="M288.303 233.218V233.208" stroke="#2F2A37" stroke-miterlimit="10"/>
<path d="M336.525 216.724C336.358 218.279 336.641 219.85 337.34 221.25C338.04 222.649 339.127 223.818 340.472 224.618" stroke="#2F2A37" stroke-miterlimit="10"/>
<path d="M308.129 160.678C308.129 160.678 316.649 162.495 322.897 160.678" stroke="#2F2A37" stroke-miterlimit="10"/>
<path d="M296.742 165.221C296.742 165.221 302.486 166.422 303.475 168.199" stroke="#2F2A37" stroke-miterlimit="10"/>
<path d="M313.176 173.529C313.176 173.529 325.472 176.89 328.904 185.188" stroke="#2F2A37" stroke-miterlimit="10"/>
<path d="M302.486 175.144C302.486 175.144 299.205 186.177 288.303 184.401C287.297 187.345 287.297 190.541 288.303 193.486" stroke="#2F2A37" stroke-miterlimit="10"/>
<path d="M283.902 199.401C286.318 200.259 288.777 200.987 291.271 201.582" stroke="#2F2A37" stroke-miterlimit="10"/>
<path d="M321.02 186.177C320.349 185.286 319.607 184.452 318.799 183.684" stroke="#2F2A37" stroke-miterlimit="10"/>
<path d="M313.176 180.837C313.913 180.86 314.638 181.032 315.306 181.342" stroke="#2F2A37" stroke-miterlimit="10"/>
<path d="M298.145 173.529C298.145 173.529 294.784 180.252 292.22 179.363C290.403 178.727 292.997 174.589 294.643 172.247C295.831 172.614 297 173.042 298.145 173.529Z" fill="#2F2A37" stroke="#2F2A37" stroke-miterlimit="10"/>
<path d="M294.643 172.216C294.148 172.075 293.633 171.944 293.209 171.863" stroke="#2F2A37" stroke-miterlimit="10"/>
<path d="M318.799 183.684C318.799 183.684 315.125 190.912 311.733 189.529C308.341 188.146 315.246 181.342 315.246 181.342C316.565 181.895 317.77 182.69 318.799 183.684Z" fill="#2F2A37" stroke="#2F2A37" stroke-miterlimit="10"/>
<path d="M344.359 214.22C344.359 214.22 351.173 205.731 356.21 209.173" stroke="#2F2A37" stroke-miterlimit="10"/>
<path d="M351.96 214.22C351.96 214.22 354.837 209.799 351.425 208.749" stroke="#2F2A37" stroke-miterlimit="10"/>
<path d="M201.56 222.902L288.303 271.497" stroke="#2F2A37" stroke-miterlimit="10"/>
<path d="M333.103 321.001C329.665 326.791 327.487 333.24 326.713 339.929C326.635 340.765 326.731 341.607 326.996 342.404C327.26 343.201 327.688 343.933 328.25 344.556C328.813 345.179 329.499 345.678 330.265 346.021C331.031 346.364 331.86 346.545 332.699 346.551H341.724" stroke="#2F2A37" stroke-miterlimit="10"/>
<path d="M427.094 279.028L448.909 281.461C455.946 282.245 462.57 285.179 467.881 289.862C473.191 294.546 476.93 300.752 478.587 307.636L482.625 324.646H369.969C361.435 328.348 352.369 330.675 343.107 331.54L340.795 334.215" stroke="#2F2A37" stroke-miterlimit="10"/>
<path d="M446.94 281.309L365.255 303.881C365.255 303.881 333.366 300.025 319.415 299.409C318.003 299.349 316.6 299.656 315.342 300.3C314.084 300.944 313.014 301.903 312.237 303.083C311.713 303.881 311.137 304.779 310.542 305.758C310.39 306.011 306.625 313.016 306.625 313.016C304.131 318.377 302.405 324.272 303.859 328.613C305.454 332.297 310.844 334.669 310.844 334.669" stroke="#2F2A37" stroke-miterlimit="10"/>
<path d="M319.405 306.96C319.405 306.96 303.748 332.853 313.156 337.335C315.872 338.849 317.699 339.828 317.699 339.828" stroke="#2F2A37" stroke-miterlimit="10"/>
<path d="M326.683 312.441C326.683 312.441 311.904 338.384 319.667 342.2C327.43 346.016 329.075 345.33 329.075 345.33" stroke="#2F2A37" stroke-miterlimit="10"/>
<path d="M350.718 347.651C350.284 348.199 349.731 348.641 349.102 348.945C348.473 349.249 347.783 349.407 347.084 349.408C346.082 349.409 345.107 349.083 344.308 348.479L341.724 346.551H341.795L334.678 341.281L340.795 334.215L350.022 341.191C350.962 341.961 351.562 343.07 351.692 344.278C351.823 345.487 351.473 346.698 350.718 347.651Z" fill="#2F2A37" stroke="#2F2A37" stroke-miterlimit="10"/>
<path d="M341.724 346.551L334.678 341.281" stroke="#2F2A37" stroke-miterlimit="10"/>
<path d="M312.5 282.137C312.503 274.063 309.744 266.232 304.682 259.942C299.62 253.652 292.559 249.283 284.672 247.559C276.784 245.835 268.544 246.861 261.32 250.466C254.096 254.071 248.322 260.038 244.957 267.377C241.591 274.716 240.837 282.985 242.819 290.812C244.802 298.638 249.401 305.552 255.854 310.404C262.307 315.256 270.225 317.756 278.295 317.487C286.364 317.219 294.099 314.199 300.215 308.928L306.342 314.077C307.506 311.583 308.814 309.16 310.259 306.818L305.686 302.982C310.121 296.938 312.509 289.634 312.5 282.137ZM277.169 309.393C271.778 309.393 266.508 307.794 262.026 304.799C257.544 301.804 254.051 297.548 251.988 292.567C249.925 287.587 249.385 282.107 250.437 276.82C251.489 271.533 254.084 266.676 257.896 262.864C261.708 259.053 266.564 256.457 271.851 255.405C277.138 254.354 282.619 254.893 287.599 256.956C292.579 259.019 296.836 262.513 299.831 266.995C302.826 271.477 304.424 276.746 304.424 282.137C304.416 289.374 301.538 296.312 296.421 301.429C291.303 306.547 284.365 309.425 277.128 309.433L277.169 309.393Z" fill="#2F2A37"/>
<path d="M180.886 286.427L210.413 227.858" stroke="#2F2A37" stroke-miterlimit="10"/>
<path d="M419.483 278.18V288.89" stroke="#2F2A37" stroke-miterlimit="10"/>
<path d="M408.813 276.999V291.959" stroke="#2F2A37" stroke-miterlimit="10"/>
<path d="M268.891 260.615L271.617 282.137L278.33 287.82L273.605 298.218L285.436 325.615" stroke="#2F2A37" stroke-miterlimit="10"/>
<path d="M286.88 270.69L297.943 325.615" stroke="#2F2A37" stroke-miterlimit="10"/>
<path d="M338.201 270.992L331.367 300.287" stroke="#2F2A37" stroke-miterlimit="10"/>
<path d="M356.664 271.184L353.777 289.526L345.217 295.583L346.812 301.801" stroke="#2F2A37" stroke-miterlimit="10"/>
<path d="M198.229 206.064L202.721 223.558" stroke="#2F2A37" stroke-miterlimit="10"/>
<path d="M415.889 248.391C415.833 251.706 415.954 255.022 416.253 258.324C417.436 266.248 421.256 273.542 427.094 279.028L419.483 278.18L408.813 276.999L356.664 271.194L340.513 269.387L332.094 235.419C332.094 235.419 338.675 227.777 340.513 224.618C340.513 224.618 351.808 231.623 362.468 219.066C364.261 217.003 365.262 214.37 365.294 211.637C365.325 208.905 364.385 206.249 362.64 204.146C359.743 200.815 354.867 199.098 348.417 202.238C348.417 202.238 344.47 205.69 337.878 195.01C331.437 184.552 323.231 161.607 322.887 160.688C325.633 159.881 327.935 158.377 328.944 155.702C328.961 155.643 328.965 155.582 328.954 155.522C328.943 155.462 328.919 155.405 328.883 155.356C328.847 155.307 328.8 155.268 328.745 155.24C328.691 155.212 328.631 155.198 328.571 155.197H319.748C323.311 155.197 321.989 152.229 321.989 152.229C321.333 151.967 311.066 155.197 311.066 155.197H295.006C296.763 152.083 299.205 149.408 302.146 147.375C305.087 145.341 308.451 144.002 311.985 143.457L352.253 137.218V122.975C352.253 122.975 352.646 123.177 353.363 123.49C358.32 125.68 378.842 133.514 393.328 120.401V120.613L395.276 136.764L431.859 144.557C432.768 144.749 433.666 144.981 434.554 145.244C441.861 147.369 448.341 151.686 453.117 157.611C457.893 163.535 460.737 170.782 461.265 178.374L463.284 206.498L437.855 216.3C431.378 218.799 425.81 223.205 421.889 228.934C417.967 234.663 415.875 241.448 415.889 248.391Z" fill="#2F2A37" stroke="#2F2A37" stroke-miterlimit="10"/>
<path d="M463.253 206.71L463.243 206.498" stroke="#2F2A37" stroke-miterlimit="10"/>
<path d="M352.263 137.188C352.263 137.188 359.329 144.497 375.137 142.922C390.945 141.347 395.327 136.794 395.327 136.794" stroke="#F3F7EF" stroke-miterlimit="10"/>
<path d="M410.519 212.595C410.519 212.595 412.891 230.634 417.827 241.435" stroke="#F3F7EF" stroke-miterlimit="10"/>
<path d="M541.921 279.835C532.048 281.218 525.638 282.379 525.638 282.379C522.933 278.937 519.582 274.707 515.715 270.094V232.784L512.768 230.765L516.715 214.563C516.715 214.563 516.715 214.563 516.775 214.563L525.033 229.756L523.014 232.138L541.921 279.835Z" fill="#2F2A37" stroke="#2F2A37" stroke-miterlimit="10"/>
<path d="M463.243 206.498L469.512 204.085L477.941 193.486L516.654 214.22L526.92 196.706L536.924 205.731L527.97 235.157L525.033 229.746" stroke="#2F2A37" stroke-miterlimit="10"/>
<path d="M469.643 204.307L511.253 236.984L512.768 230.755" stroke="#2F2A37" stroke-miterlimit="10"/>
<path d="M536.924 205.731L557.547 206.74C563.825 207.036 569.981 208.57 575.663 211.254C581.346 213.937 586.441 217.717 590.658 222.377L654.375 292.686C656.994 295.518 658.918 298.92 659.995 302.624C661.073 306.328 661.274 310.231 660.584 314.026C659.19 321.153 654.406 328.32 641.212 329.824C613.421 332.984 585.641 314.026 576.949 308.232C570.639 303.856 564.573 299.138 558.779 294.099C558.779 294.099 529.686 288.305 511.91 292.787" stroke="#2F2A37" stroke-miterlimit="10"/>
<path d="M374.178 107.903C368.919 116.666 353.373 123.49 353.373 123.49V116.242C360.332 113.816 367.07 110.797 373.512 107.217C373.607 107.163 373.717 107.143 373.826 107.158C373.934 107.174 374.034 107.225 374.11 107.303C374.186 107.382 374.234 107.483 374.246 107.592C374.258 107.7 374.235 107.81 374.178 107.903Z" fill="#2F2A37" stroke="#2F2A37" stroke-miterlimit="10"/>
<path d="M449.898 117.463C449.484 134.624 435.766 144.426 434.595 145.274C433.706 145.011 432.808 144.779 431.899 144.587L395.316 136.794L393.368 120.643V120.431L388.715 84.8069C389.966 84.3536 391.154 83.7394 392.248 82.9798C402.13 76.2568 401.868 56.5117 388.21 55.3205C388.21 55.3205 377.944 54.7956 376.096 64.1432C376.096 64.1432 353.888 65.0517 327.44 33.0315C331.921 27.7156 338.044 24.0431 344.843 22.5936C355.211 20.4564 365.866 20.0811 376.359 21.4832C411.912 25.9652 409.015 52.1609 408.884 57.4303C408.752 62.6997 408.995 76.5192 408.995 76.5192C408.995 76.5192 438.572 78.4776 447.708 104.138L447.859 104.572C449.302 108.713 449.993 113.079 449.898 117.463Z" fill="#2F2A37" stroke="#2F2A37" stroke-miterlimit="10"/>
<path d="M434.595 145.274L434.504 145.335" stroke="#2F2A37" stroke-miterlimit="10"/>
<path d="M327.369 33.0011C322.77 38.4273 320.1 45.2261 319.778 52.3323C319.132 66.2024 318.405 82.6163 318.476 84.9179C318.607 89.0062 316.114 116.918 332.709 119.29C338.928 120.178 346.428 118.584 353.373 116.262" stroke="#2F2A37" stroke-miterlimit="10"/>
<path d="M388.684 84.7771L388.664 84.6554" stroke="#2F2A37" stroke-miterlimit="10"/>
<path d="M327.369 33.0007L327.127 32.7084" stroke="#2F2A37" stroke-miterlimit="10"/>
<path d="M376.026 80.5771C376.026 80.5771 380.861 87.5324 388.684 84.7765" stroke="#2F2A37" stroke-miterlimit="10"/>
<path d="M388.644 60.6908C388.644 60.6908 382.365 63.063 382.355 72.2795" stroke="#2F2A37" stroke-miterlimit="10"/>
<path d="M387.089 69.1197C387.089 69.1197 386.595 65.2333 384.404 64.4762" stroke="#2F2A37" stroke-miterlimit="10"/>
<path d="M339.685 56.3501C339.685 56.3501 350.365 55.9362 354.302 56.8649" stroke="#2F2A37" stroke-miterlimit="10"/>
<path d="M326.521 56.8649C326.521 56.8649 321.373 55.28 319.667 56.8649" stroke="#2F2A37" stroke-miterlimit="10"/>
<path d="M329.681 59.9033C329.681 59.9033 332.094 68.9885 327.369 73.5311C325.694 75.1462 324.341 76.1961 323.634 77.0037C323.377 77.2966 323.224 77.6669 323.2 78.0562C323.177 78.4456 323.283 78.8317 323.503 79.1538C325.176 81.4685 327.337 83.3878 329.832 84.7765" stroke="#2F2A37" stroke-miterlimit="10"/>
<path d="M342.289 61.8416C342.289 61.8416 349.002 61.0542 352.848 63.8605" stroke="#2F2A37" stroke-miterlimit="10"/>
<path d="M344.47 61.7406C344.47 61.7406 343.814 70.2403 347.003 70.2403C350.193 70.2403 349.648 62.3665 349.648 62.3665C347.939 62.0341 346.209 61.8249 344.47 61.7406Z" fill="#2F2A37" stroke="#2F2A37" stroke-miterlimit="10"/>
<path d="M320.162 63.3255C321.812 62.6687 323.65 62.6687 325.3 63.3255C325.3 63.3255 325.502 71.0277 323.624 71.1287C321.747 71.2296 322.241 62.7804 322.241 62.7804" fill="#2F2A37"/>
<path d="M320.162 63.3255C321.812 62.6687 323.65 62.6687 325.3 63.3255C325.3 63.3255 325.502 71.0277 323.624 71.1287C321.747 71.2296 322.241 62.7804 322.241 62.7804" stroke="#2F2A37" stroke-miterlimit="10"/>
<path d="M331.922 91.1766C331.922 91.1766 340.593 91.0757 344.399 85.9375" stroke="#2F2A37" stroke-miterlimit="10"/>
<path d="M243.241 155.166L232.964 125.781L186.155 88.6024C186.155 88.6024 180.038 91.8024 186.155 99.3128C192.273 106.823 202.721 118.664 202.721 118.664L191.465 129.395C190.379 130.597 189.599 132.043 189.19 133.61C188.78 135.177 188.754 136.82 189.113 138.399L193.666 158.084C193.666 158.084 198.602 158.851 199.389 155.631C199.389 155.631 203.74 156.479 205.517 152.471C205.517 152.471 212.825 152.38 212.432 145.284C212.038 138.187 211.422 130.485 211.422 130.485" stroke="#2F2A37" stroke-miterlimit="10"/>
<path d="M195.654 135.209L199.389 155.621" stroke="#2F2A37" stroke-miterlimit="10"/>
<path d="M202.721 133.635L205.517 152.451" stroke="#2F2A37" stroke-miterlimit="10"/>
<path d="M201.358 155.621L214.451 162.001" stroke="#2F2A37" stroke-miterlimit="10"/>
<path d="M218.155 149.241C218.155 149.241 216.974 138.137 220.528 133.635C220.528 133.635 204.215 121.885 207.899 116.474C210.453 112.719 232.964 125.761 232.964 125.761" stroke="#2F2A37" stroke-miterlimit="10"/>
<path d="M532.432 291.192C532.432 291.192 529.858 287.74 525.638 282.379" stroke="#2F2A37" stroke-miterlimit="10"/>
<path d="M433.464 218.349C433.464 218.349 458.186 213.564 481.101 233.309C492.689 243.303 505.701 258.011 515.715 270.094" stroke="#2F2A37" stroke-miterlimit="10"/>
<path d="M660.109 303.043C657.151 295.088 649.863 286.891 638.537 281.36C625.171 274.233 597.573 274.374 573.012 276.312C569.52 276.595 566.077 276.918 562.756 277.251C554.993 278.049 547.836 278.967 541.921 279.795" stroke="#2F2A37" stroke-miterlimit="10"/>
<path d="M562.756 277.281L558.779 294.14" stroke="#2F2A37" stroke-miterlimit="10"/>
<path d="M568.783 302.316L573.012 276.343" stroke="#2F2A37" stroke-miterlimit="10"/>
<path d="M551.168 278.604L544.697 261.09L573.012 256.618L580.896 275.787" stroke="#2F2A37" stroke-miterlimit="10"/>
<path d="M576.162 244.504L592.879 275.172" stroke="#2F2A37" stroke-miterlimit="10"/>
<path d="M482.675 324.646L501.32 338.415C504.321 340.628 508.023 341.675 511.738 341.362C527.445 340.04 571.983 335.528 607.445 324.646" stroke="#2F2A37" stroke-miterlimit="10"/>
<path d="M541.961 114.909C539.539 103.805 529.848 87.8151 529.848 87.8151C507.922 103.219 482.645 101.837 482.645 101.837V127.961C482.646 128.05 482.62 128.136 482.57 128.209C482.52 128.281 482.45 128.337 482.368 128.369C482.286 128.401 482.196 128.407 482.11 128.386C482.024 128.366 481.947 128.32 481.888 128.254C481 127.295 479.435 125.63 477.669 123.944C476.347 122.647 474.688 121.747 472.881 121.343C471.074 120.94 469.19 121.051 467.443 121.662C464.691 122.638 462.278 124.383 460.488 126.689C458.699 128.995 457.609 131.767 457.348 134.674C455.322 128.75 452.831 122.995 449.898 117.463C449.974 113.064 449.259 108.688 447.788 104.542L447.637 104.108C452.836 96.1431 464.263 80.0422 472.934 77.68C484.523 74.5204 534.512 72.6327 535.349 73.3293C536.187 74.0258 543.334 100.817 541.961 114.909Z" fill="#2F2A37" stroke="#2F2A37" stroke-miterlimit="10"/>
<path d="M525.638 179.363C535.531 179.363 541.164 176.789 544.011 174.851C544.78 174.322 545.425 173.631 545.901 172.828C546.377 172.024 546.672 171.127 546.766 170.197C547.303 163.514 547.36 156.801 546.938 150.109C546.141 133.251 541.891 115.333 541.891 115.333C541.891 115.333 541.891 115.061 541.891 114.919" stroke="#2F2A37" stroke-miterlimit="10"/>
<path d="M449.898 117.463C447.102 112.093 444.851 108.549 444.851 108.549C444.851 108.549 445.86 106.793 447.657 104.108" stroke="#2F2A37" stroke-miterlimit="10"/>
<path d="M457.348 134.674C457.742 135.856 458.115 137.057 458.448 138.248C462.668 153.259 476.881 150.099 476.881 150.099L477.941 193.506" stroke="#2F2A37" stroke-miterlimit="10"/>
<path d="M526.476 190.68C508.599 190.589 497.868 175.376 495.94 172.398C495.929 172.376 495.926 172.351 495.931 172.327C495.935 172.303 495.948 172.281 495.966 172.265C495.985 172.249 496.008 172.24 496.032 172.238C496.057 172.237 496.081 172.243 496.101 172.257C502.38 176.961 510.234 179.323 525.638 179.323L526.476 190.68Z" fill="#2F2A37" stroke="#2F2A37" stroke-miterlimit="10"/>
<path d="M526.92 196.706L526.476 190.679" stroke="#2F2A37" stroke-miterlimit="10"/>
<path d="M480.445 145.88C480.445 145.88 479.112 148.908 476.881 150.099" stroke="#2F2A37" stroke-miterlimit="10"/>
<path d="M475.831 137.985C475.831 137.985 472.54 128.103 468.523 128.042" stroke="#2F2A37" stroke-miterlimit="10"/>
<path d="M467.927 135.411C467.927 135.411 469.512 131.02 472.177 130.616" stroke="#2F2A37" stroke-miterlimit="10"/>
<path d="M482.615 127.962L496.636 120.401" stroke="#2F2A37" stroke-miterlimit="10"/>
<path d="M510.133 132.787C517.587 132.787 523.629 126.744 523.629 119.29C523.629 111.836 517.587 105.794 510.133 105.794C502.679 105.794 496.636 111.836 496.636 119.29C496.636 126.744 502.679 132.787 510.133 132.787Z" stroke="#2F2A37" stroke-miterlimit="10"/>
<path d="M542.143 129.91C549.597 129.91 555.64 123.867 555.64 116.413C555.64 108.959 549.597 102.917 542.143 102.917C534.689 102.917 528.647 108.959 528.647 116.413C528.647 123.867 534.689 129.91 542.143 129.91Z" stroke="#2F2A37" stroke-miterlimit="10"/>
<path d="M523.549 117.837C525.233 117.515 526.962 117.515 528.646 117.837" stroke="#2F2A37" stroke-miterlimit="10"/>
<path d="M505.59 115.404C506.776 114.477 508.152 113.824 509.62 113.494C511.089 113.164 512.612 113.165 514.08 113.496C514.08 113.496 515.402 123.762 511.576 123.237C507.751 122.712 509.366 113.536 509.366 113.536" fill="#2F2A37"/>
<path d="M505.59 115.404C506.776 114.477 508.152 113.824 509.62 113.494C511.089 113.164 512.612 113.165 514.08 113.496C514.08 113.496 515.402 123.762 511.576 123.237C507.751 122.712 509.366 113.536 509.366 113.536" stroke="#2F2A37" stroke-miterlimit="10"/>
<path d="M531.392 112.83C531.392 112.83 535.743 111.124 538.115 111.82C538.115 111.82 539.387 120.774 535.874 120.37C533.038 120.047 534.36 111.638 534.36 111.638" fill="#2F2A37"/>
<path d="M531.392 112.83C531.392 112.83 535.743 111.124 538.115 111.82C538.115 111.82 539.387 120.774 535.874 120.37C533.038 120.047 534.36 111.638 534.36 111.638" stroke="#2F2A37" stroke-miterlimit="10"/>
<path d="M530.262 140.802C530.262 140.802 536.318 137.238 538.337 132.252C538.337 132.252 534.3 128.062 531.937 125.246" stroke="#2F2A37" stroke-miterlimit="10"/>
<path d="M518.754 147.565C518.754 147.565 524.679 149.877 530.262 148.948" stroke="#2F2A37" stroke-miterlimit="10"/>
<path d="M493.578 111.073C498.951 106.161 505.993 103.479 513.272 103.573" stroke="#2F2A37" stroke-miterlimit="10"/>
<path d="M529.616 103.936C531.912 102.64 534.433 101.79 537.045 101.433" stroke="#2F2A37" stroke-miterlimit="10"/>
<path d="M654.638 324.646H721" stroke="#2F2A37" stroke-miterlimit="10"/>
<path d="M673.767 145.021H629.583V189.206H673.767V145.021Z" stroke="#2F2A37" stroke-miterlimit="10"/>
<path d="M636.467 168.633L651.67 180.746L668.548 153.965" stroke="#2F2A37" stroke-miterlimit="10"/>
<path d="M678.986 145.233H692.695" stroke="#2F2A37" stroke-miterlimit="10"/>
<path d="M673.767 127.82V139.49" stroke="#2F2A37" stroke-miterlimit="10"/>
<path d="M677.654 140.862L695.299 125.307" stroke="#2F2A37" stroke-miterlimit="10"/>
<path d="M255.566 0.748779C263.411 0.748779 270.934 3.86495 276.48 9.41177C282.027 14.9586 285.143 22.4817 285.143 30.3261V59.9034H255.566C247.722 59.9034 240.199 56.7872 234.652 51.2404C229.105 45.6936 225.989 38.1705 225.989 30.3261V30.3261C225.989 22.4817 229.105 14.9586 234.652 9.41177C240.199 3.86495 247.722 0.748779 255.566 0.748779V0.748779Z" stroke="#2F2A37" stroke-miterlimit="10"/>
<path d="M243.564 35.3734C244.874 35.3734 245.936 34.3113 245.936 33.0011C245.936 31.691 244.874 30.6289 243.564 30.6289C242.253 30.6289 241.191 31.691 241.191 33.0011C241.191 34.3113 242.253 35.3734 243.564 35.3734Z" stroke="#2F2A37" stroke-miterlimit="10"/>
<path d="M256.505 35.3734C257.815 35.3734 258.877 34.3113 258.877 33.0011C258.877 31.691 257.815 30.6289 256.505 30.6289C255.195 30.6289 254.133 31.691 254.133 33.0011C254.133 34.3113 255.195 35.3734 256.505 35.3734Z" stroke="#2F2A37" stroke-miterlimit="10"/>
<path d="M269.436 35.3734C270.746 35.3734 271.808 34.3113 271.808 33.0011C271.808 31.691 270.746 30.6289 269.436 30.6289C268.126 30.6289 267.064 31.691 267.064 33.0011C267.064 34.3113 268.126 35.3734 269.436 35.3734Z" stroke="#2F2A37" stroke-miterlimit="10"/>
<path d="M120.116 220.671C118.738 222.084 117.444 223.578 116.24 225.143C105.711 238.841 82.7963 274.263 82.7963 274.263C82.7963 274.263 78.1729 273.163 75.9521 276.999H0.5047V220.671H120.116Z" stroke="#2F2A37" stroke-miterlimit="10"/>
<path d="M27.8915 264.916C36.7727 264.916 43.9723 257.716 43.9723 248.835C43.9723 239.954 36.7727 232.754 27.8915 232.754C19.0103 232.754 11.8107 239.954 11.8107 248.835C11.8107 257.716 19.0103 264.916 27.8915 264.916Z" stroke="#2F2A37" stroke-miterlimit="10"/>
<path d="M27.8915 237.256V248.835H36.583" stroke="#2F2A37" stroke-miterlimit="10"/>
<path d="M103.521 243.04H60.3054" stroke="#2F2A37" stroke-miterlimit="10"/>
<path d="M94.1225 257.143H60.3054" stroke="#2F2A37" stroke-miterlimit="10"/>
<path d="M675.857 76.2668L597.916 76.2668V46.6895C597.916 38.8451 601.032 31.322 606.579 25.7752C612.126 20.2284 619.649 17.1122 627.493 17.1122H675.857C683.701 17.1122 691.224 20.2284 696.771 25.7752C702.318 31.322 705.434 38.8451 705.434 46.6895C705.434 54.5339 702.318 62.057 696.771 67.6039C691.224 73.1507 683.701 76.2668 675.857 76.2668Z" fill="#2F2A37" stroke="#2F2A37" stroke-miterlimit="10"/>
<path d="M621.295 39.9766H682.025" stroke="#F3F7EF" stroke-miterlimit="10"/>
<path d="M621.295 53.4025H663.329" stroke="#F3F7EF" stroke-miterlimit="10"/>
</g>
<defs>
<clipPath id="clip0_75_2463">
<rect width="721" height="374.592" fill="white" transform="translate(0 0.244019)"/>
</clipPath>
</defs>
</svg>
