<?xml version="1.0" standalone="no"?>
<svg version="1.0" xmlns="http://www.w3.org/2000/svg"
 width="880" height="650" viewBox="0 0 1700 1400"
 preserveAspectRatio="xMidYMid meet">
<metadata>
Created by potrace 1.16, written by Peter Selinger 2001-2019
</metadata>
<g transform="translate(0.000000,1333.000000) scale(0.100000,-0.100000)"
fill="#000000" stroke="none">
<path d="M5431 10374 c-30 -8 -69 -24 -87 -35 -52 -32 -111 -106 -134 -166
-20 -54 -21 -70 -18 -662 l3 -606 34 -63 c40 -73 74 -105 151 -141 l55 -26
873 -3 872 -2 258 -226 c253 -223 277 -242 288 -231 3 3 -49 105 -115 226 -67
121 -121 225 -121 231 0 5 7 10 16 10 33 0 128 56 165 98 21 24 48 69 59 99
20 54 20 70 18 666 l-3 612 -24 49 c-33 66 -91 122 -160 155 l-56 26 -1010 2
c-861 2 -1018 0 -1064 -13z m2138 -49 c59 -33 99 -76 133 -145 l23 -45 0 -605
c0 -594 0 -606 -21 -651 -41 -89 -125 -159 -207 -174 -20 -4 -40 -11 -43 -16
-3 -5 42 -95 100 -201 59 -105 105 -193 103 -194 -2 -2 -33 22 -68 54 -184
162 -356 309 -383 329 l-30 23 -860 0 c-983 0 -922 -5 -1012 84 -92 92 -89 69
-89 751 l0 590 27 57 c33 71 95 132 161 157 51 20 74 20 1082 18 l1030 -2 54
-30z"/>
<path d="M5911 9613 c-43 -21 -71 -67 -71 -118 0 -133 172 -184 240 -72 41 67
16 158 -53 190 -44 21 -73 21 -116 0z"/>
<path d="M6413 9614 c-70 -35 -94 -129 -50 -195 46 -69 142 -76 204 -14 28 28
33 40 33 82 0 60 -28 109 -75 129 -44 18 -72 17 -112 -2z"/>
<path d="M6940 9624 c-65 -24 -100 -69 -100 -130 0 -102 111 -167 197 -114 18
10 39 30 48 44 34 51 13 147 -39 181 -26 17 -83 27 -106 19z"/>
<path d="M9301 9885 c-102 -23 -215 -64 -265 -96 -172 -115 -480 -584 -536
-817 -7 -30 -10 -74 -6 -98 9 -67 62 -192 138 -326 37 -67 68 -123 68 -125 0
-1 -6 -3 -14 -3 -17 0 -72 -60 -81 -89 -4 -13 -18 -21 -48 -26 -113 -19 -203
-76 -252 -159 -61 -104 -71 -283 -21 -392 15 -31 25 -58 24 -60 -5 -4 -322
-34 -533 -49 -207 -15 -366 -35 -435 -55 -61 -17 -127 -66 -155 -115 -36 -60
-35 -52 -211 -1625 -25 -228 -48 -417 -50 -419 -3 -3 -128 113 -513 477 -100
94 -188 172 -194 172 -7 0 -17 -4 -23 -10 -7 -7 -23 3 -49 30 -21 22 -44 40
-50 40 -7 0 -35 69 -64 153 -29 83 -64 177 -79 207 -34 71 -92 133 -166 177
-112 65 -120 74 -196 226 -93 187 -126 215 -186 164 -54 -47 -41 -171 30 -276
32 -47 99 -181 94 -186 -2 -2 -91 12 -198 31 -107 19 -215 37 -240 41 -36 5
-54 16 -92 56 -64 65 -76 91 -94 199 -17 109 -31 142 -62 146 -31 5 -78 -45
-91 -96 -11 -39 -13 -40 -45 -35 -29 5 -37 1 -53 -23 -14 -22 -19 -52 -21
-149 -4 -108 -1 -129 21 -195 62 -183 150 -335 232 -399 110 -87 259 -177 341
-207 75 -28 283 -70 387 -80 63 -5 85 -12 108 -31 34 -29 37 -48 9 -63 -11 -6
-20 -17 -20 -24 0 -11 39 -48 84 -78 7 -4 0 -19 -18 -37 -16 -16 -26 -36 -24
-43 3 -7 109 -150 235 -318 340 -452 438 -587 580 -801 71 -107 133 -200 137
-207 6 -10 -112 -12 -606 -12 -1427 1 -1358 2 -1358 -18 0 -9 119 -507 265
-1105 217 -891 265 -1100 265 -1157 l0 -70 -1051 0 -1051 0 7 63 c3 34 10 96
15 137 5 41 31 280 56 530 l47 455 86 90 c60 63 91 89 106 88 161 -19 313 34
428 149 78 78 97 146 52 188 -22 21 -31 22 -97 18 -128 -9 -274 -73 -343 -150
-42 -47 -52 -68 -74 -153 -8 -29 -29 -59 -81 -110 l-72 -70 6 55 c4 30 13 116
21 190 8 74 20 190 26 256 l12 122 52 40 c28 22 66 60 85 84 l33 43 101 0 c98
0 103 2 188 43 192 93 297 256 198 307 -39 20 -71 19 -166 -5 -141 -36 -259
-109 -302 -186 -8 -15 -13 -16 -26 -5 -11 9 -34 12 -71 9 -36 -3 -55 -1 -55 6
0 6 16 157 35 336 19 179 35 332 35 341 0 9 34 44 75 78 l75 63 65 -10 c119
-19 252 27 373 127 92 77 125 162 80 210 -19 22 -27 23 -97 18 -86 -5 -224
-51 -291 -96 -53 -35 -104 -108 -120 -169 -7 -31 -22 -56 -43 -74 -38 -32 -52
-35 -37 -9 24 45 3 108 -40 123 -10 3 -9 35 4 153 9 83 16 153 16 156 0 4 37
7 83 7 137 1 260 56 362 163 77 80 92 159 36 188 -68 37 -310 -30 -408 -113
l-31 -26 -11 48 c-7 26 -28 80 -47 119 -78 163 -218 237 -260 137 -20 -48 -17
-108 10 -216 41 -161 92 -235 193 -280 50 -22 49 -20 33 -176 -16 -156 -18
-162 -43 -162 -12 0 -57 -12 -100 -27 l-77 -27 -33 31 c-70 67 -231 153 -287
153 -19 0 -20 8 -20 270 l0 271 68 90 68 90 79 3 c65 2 93 8 149 34 190 88
320 270 243 343 -35 33 -121 22 -230 -29 -165 -77 -225 -138 -247 -251 -7 -31
-14 -65 -16 -76 -2 -11 -29 -51 -59 -89 l-55 -69 0 514 1 514 60 44 c61 44 62
44 148 45 74 1 95 6 153 33 113 53 199 129 247 218 27 51 27 95 -1 124 -33 36
-119 26 -232 -27 -165 -78 -237 -154 -252 -267 -6 -45 -11 -54 -60 -92 -29
-24 -55 -43 -58 -43 -3 0 -6 111 -6 246 l0 246 24 -6 c110 -27 356 116 420
246 59 119 8 178 -125 144 -79 -21 -213 -90 -265 -138 -45 -41 -54 -45 -54
-24 0 7 -18 50 -40 94 -68 135 -187 230 -260 207 -32 -10 -53 -69 -45 -124 12
-92 67 -233 118 -305 26 -37 100 -84 155 -98 l42 -10 0 -344 c0 -189 -3 -344
-6 -344 -3 0 -26 16 -52 36 -42 32 -48 41 -59 95 -24 121 -82 181 -246 260
-111 53 -202 64 -237 29 -18 -18 -21 -30 -17 -67 10 -92 122 -208 267 -277 56
-26 77 -31 151 -32 83 -1 88 -2 142 -40 l56 -39 1 -458 0 -458 -55 48 c-30 26
-55 56 -55 66 0 10 -9 42 -19 72 -18 50 -18 58 -5 85 37 73 23 137 -33 154
-25 7 -48 4 -99 -14 l-67 -22 -52 21 c-29 12 -80 27 -114 34 l-62 13 50 32
c102 67 191 195 191 277 0 54 -22 75 -81 75 -80 0 -255 -101 -333 -192 -21
-24 -36 -35 -36 -26 0 27 -95 162 -146 207 -87 77 -151 97 -197 61 -23 -18
-27 -29 -27 -70 0 -97 91 -285 171 -354 42 -35 114 -66 156 -66 15 0 24 -7 27
-22 3 -13 19 -162 36 -333 17 -170 33 -316 35 -322 8 -23 -16 -14 -64 24 -38
30 -50 48 -63 93 -31 104 -114 169 -282 224 -82 27 -173 34 -207 15 -29 -15
-40 -51 -27 -95 12 -47 112 -148 183 -188 108 -60 247 -84 321 -56 23 9 33 6
83 -31 31 -23 57 -43 58 -44 2 -1 55 -504 83 -785 6 -58 13 -121 16 -140 l5
-35 -60 60 c-43 41 -61 67 -61 85 0 33 -40 116 -75 158 -52 62 -248 142 -357
145 -55 1 -63 -1 -84 -26 -29 -34 -29 -49 -5 -102 28 -62 119 -140 218 -188
85 -40 92 -42 190 -43 114 -2 113 -1 194 -90 43 -47 46 -53 52 -124 4 -41 17
-165 29 -274 15 -142 18 -201 10 -204 -36 -12 -62 -45 -62 -80 0 -40 43 -123
79 -156 21 -19 29 -56 12 -56 -17 0 -111 110 -111 130 0 34 -46 115 -87 150
-73 64 -249 130 -347 130 -36 0 -52 -6 -71 -25 -28 -28 -31 -51 -11 -99 32
-78 156 -176 271 -216 63 -22 156 -30 215 -18 33 7 39 3 97 -50 l62 -57 16
-160 c9 -88 22 -213 29 -277 7 -65 9 -118 5 -118 -4 0 -29 25 -57 56 -33 36
-52 68 -57 92 -16 89 -78 173 -159 214 -129 66 -273 98 -331 74 -107 -45 -8
-213 181 -305 83 -41 153 -55 234 -48 l67 6 68 -76 68 -75 13 -126 c8 -70 14
-130 14 -133 0 -4 -25 0 -57 7 -93 22 -143 -2 -143 -69 0 -64 89 -181 186
-243 l52 -33 7 -81 c4 -45 5 -83 2 -86 -2 -2 -30 23 -61 56 -39 43 -56 69 -56
88 0 44 -44 124 -91 168 -73 67 -288 143 -368 130 -79 -12 -95 -79 -38 -162
86 -125 276 -214 426 -200 l67 6 67 -74 c52 -58 67 -81 67 -105 l0 -31 -430 0
c-374 0 -430 -2 -430 -15 0 -13 898 -15 7827 -12 6250 2 7827 5 7830 15 4 9
-210 12 -1048 12 l-1052 0 6 53 c3 28 13 160 22 292 19 300 38 492 76 760 38
268 120 760 160 956 34 171 33 207 -11 251 l-28 28 -296 0 -295 0 -5 43 c-3
23 -10 107 -16 187 -14 190 -39 424 -51 480 -19 86 -120 161 -419 313 -96 49
-244 134 -330 190 -85 55 -191 123 -234 151 -44 28 -154 99 -245 157 l-166
107 -33 111 -33 112 39 72 c94 171 184 413 223 599 29 134 32 351 6 448 -24
92 -98 236 -162 313 -109 132 -277 242 -460 303 -97 32 -126 37 -240 41 -152
6 -248 -8 -409 -62 -256 -86 -379 -157 -522 -302 -144 -145 -223 -289 -212
-388 7 -61 59 -165 109 -220 l42 -46 -11 -52 c-34 -158 -28 -221 29 -298 23
-29 49 -69 59 -89 18 -35 18 -36 -10 -120 -39 -117 -73 -286 -67 -338 3 -27
12 -48 23 -57 56 -38 65 -53 94 -152 16 -56 30 -106 30 -111 0 -6 -20 -15 -44
-21 -24 -6 -114 -33 -199 -61 -158 -51 -183 -57 -189 -41 -1 5 -52 65 -111
134 l-108 124 -195 403 -194 402 0 452 c0 264 -4 478 -11 516 -18 118 -58 176
-151 223 -81 41 -157 56 -313 63 l-144 7 45 35 c109 83 173 185 182 289 4 54
2 69 -16 92 l-20 28 65 43 c75 49 144 132 175 210 20 49 23 73 23 230 0 130
-5 196 -18 257 -78 361 -249 598 -519 717 -241 107 -653 165 -857 121z m29
-838 c0 -20 69 -117 153 -215 95 -109 217 -219 345 -311 l93 -66 -60 -5 c-33
-3 -66 -11 -72 -17 -20 -20 -3 -26 35 -12 28 10 46 10 93 0 54 -12 133 -45
133 -56 0 -3 -35 -2 -77 0 -43 3 -107 8 -142 10 -71 5 -122 -11 -143 -44 -10
-17 -23 -21 -65 -21 -48 0 -54 3 -67 29 -25 48 -64 58 -266 69 -204 11 -229 7
-268 -42 -11 -15 -22 -31 -24 -36 -2 -7 -133 25 -146 36 -8 6 -30 189 -24 195
4 3 37 29 74 58 78 60 211 201 331 347 76 94 97 111 97 81z m-575 -667 c45
-28 61 -66 95 -225 17 -77 32 -150 35 -162 7 -30 -5 -29 -81 8 -70 35 -147
109 -170 164 -28 69 -12 167 35 214 26 26 45 26 86 1z m583 0 c79 -5 152 -14
162 -20 40 -21 50 -62 43 -160 -5 -79 -10 -97 -32 -123 l-25 -30 -195 7 c-216
8 -241 15 -267 70 -14 27 -15 47 -6 126 16 149 19 150 320 130z m756 -46 c47
-9 87 -27 101 -47 20 -28 20 -175 1 -222 -24 -55 -38 -58 -245 -50 -263 10
-271 15 -271 155 0 98 12 136 52 165 20 14 44 15 183 10 88 -4 169 -9 179 -11z
m-1164 -21 l60 -16 0 -84 c0 -96 15 -135 59 -158 21 -10 89 -18 224 -26 173
-10 197 -9 225 5 51 26 65 57 71 159 3 51 9 91 14 90 4 -2 23 -3 43 -3 l37 0
-7 -92 c-6 -82 -4 -97 13 -125 35 -56 51 -60 253 -73 103 -6 201 -9 216 -5 16
3 42 19 57 35 23 24 29 41 37 117 5 48 14 93 20 98 24 23 -48 -338 -98 -492
-77 -240 -241 -446 -433 -546 -176 -92 -311 -66 -470 92 -112 110 -232 296
-271 418 -47 147 -137 623 -118 623 5 0 35 -7 68 -17z m1506 -59 c36 -87 -38
-242 -157 -330 -27 -20 -52 -35 -54 -32 -2 2 2 26 9 53 7 28 23 112 37 187 27
153 28 155 112 157 35 1 39 -2 53 -35z m-7721 -442 c55 -34 115 -106 155 -184
42 -84 53 -134 48 -213 l-3 -50 -24 40 c-150 249 -181 292 -181 252 0 -7 40
-77 89 -157 50 -80 85 -147 80 -148 -18 -7 -118 49 -145 81 -55 64 -124 247
-124 327 0 69 43 90 105 52z m7855 -6 c113 -29 195 -80 184 -114 -4 -12 -3
-13 3 -4 13 18 30 -3 51 -65 14 -42 17 -113 19 -540 l2 -492 45 -93 c312 -640
338 -696 329 -712 -3 -6 -3 -8 2 -4 11 10 46 -32 38 -46 -3 -6 -3 -8 1 -4 8 7
24 -8 107 -103 64 -73 92 -109 88 -112 -25 -17 -195 -77 -206 -73 -8 3 -12 2
-9 -2 7 -12 -73 -54 -86 -45 -7 3 -8 1 -4 -5 3 -6 -2 -15 -12 -21 -14 -8 -23
-34 -36 -113 -30 -187 -49 -283 -58 -292 -5 -6 -13 -5 -21 3 -10 11 -9 12 2 6
10 -5 12 -4 7 4 -4 6 -11 9 -15 7 -11 -7 -52 24 -46 34 3 5 0 12 -6 16 -8 4
-9 3 -5 -4 14 -23 -10 -11 -79 37 -74 52 -130 97 -105 85 9 -4 12 -3 7 2 -5 5
-12 9 -15 9 -11 0 -52 38 -52 48 0 4 5 5 11 1 8 -5 8 -1 0 13 -6 11 -7 24 -3
28 4 5 2 5 -5 1 -7 -4 -10 -13 -6 -21 10 -28 -6 -15 -37 30 -17 25 -28 50 -24
57 4 6 3 8 -3 5 -6 -4 -23 9 -37 27 -28 37 -33 52 -14 40 7 -4 8 -3 4 5 -4 6
-11 9 -16 6 -5 -3 -55 62 -110 145 -88 132 -100 154 -88 168 11 15 11 16 -4 4
-9 -7 -19 -9 -22 -4 -2 4 8 132 24 283 44 412 38 378 69 385 75 17 134 33 139
38 3 4 1 11 -5 17 -11 11 -54 5 -135 -18 -15 -4 -18 2 -18 34 0 33 7 46 43 81
24 23 47 39 51 35 4 -4 4 1 0 12 -6 14 -4 17 9 12 9 -3 19 -1 23 5 4 7 3 8 -4
4 -22 -13 -12 10 14 35 32 30 142 206 178 283 24 53 25 61 11 75 -13 13 -18 8
-41 -47 -15 -34 -31 -59 -37 -55 -6 3 -7 1 -3 -6 8 -12 -71 -148 -105 -182
-10 -10 -23 -27 -29 -39 -6 -11 -16 -17 -22 -14 -7 4 -8 3 -4 -5 4 -6 0 -14
-8 -17 -9 -3 -14 -9 -11 -14 2 -4 -9 -20 -25 -35 -36 -35 -35 -45 -11 165 10
85 16 158 14 163 -2 4 -10 7 -18 7 -8 0 -15 -17 -19 -47 -17 -148 -27 -241
-76 -708 -36 -348 -47 -456 -60 -619 -8 -100 -15 -137 -32 -167 -12 -22 -25
-39 -29 -39 -4 0 -9 -9 -12 -21 -3 -12 -10 -18 -16 -15 -5 4 -13 1 -17 -5 -4
-8 -3 -9 4 -5 23 14 12 -10 -16 -37 -16 -15 -32 -24 -36 -20 -4 4 -4 0 -1 -9
6 -15 -9 -33 -30 -33 -5 0 -10 -7 -10 -15 -1 -8 -7 -14 -15 -12 -8 2 -12 0 -7
-4 10 -10 -23 -45 -36 -37 -6 3 -7 1 -3 -5 10 -16 -128 -157 -144 -147 -9 5
-11 4 -6 -4 4 -6 2 -18 -4 -26 -14 -16 -35 -21 -25 -6 3 5 0 13 -6 17 -7 4 -9
3 -5 -4 3 -6 -4 -18 -16 -26 -12 -9 -18 -16 -12 -16 5 0 16 6 24 13 8 6 6 2
-4 -10 -10 -13 -23 -20 -29 -16 -5 3 -7 2 -4 -4 4 -6 -5 -21 -19 -33 -22 -22
-39 -29 -71 -32 -7 -1 -10 -5 -7 -10 3 -4 15 -3 27 3 13 6 6 -5 -17 -27 l-39
-37 22 -93 c13 -51 19 -99 15 -105 -4 -7 -3 -9 3 -6 6 4 21 -32 38 -91 14 -53
46 -167 70 -252 24 -85 69 -245 99 -355 31 -110 68 -240 82 -289 l26 -89 -24
-19 c-12 -9 -29 -16 -35 -13 -7 2 -12 0 -10 -6 3 -13 -151 -99 -178 -99 -11 0
-110 23 -220 51 -285 71 -474 118 -520 128 -22 5 -112 25 -200 46 -103 23
-175 35 -202 32 -28 -3 -72 -23 -134 -61 -50 -31 -95 -54 -99 -51 -5 3 -12 0
-16 -6 -5 -8 -2 -10 7 -4 8 4 -2 -6 -21 -23 -19 -17 -41 -29 -48 -27 -7 3 -11
1 -8 -4 8 -13 -21 -34 -35 -25 -8 4 -9 3 -5 -4 4 -7 -7 -20 -28 -33 -20 -12
-36 -26 -36 -31 0 -6 -6 -8 -14 -5 -8 3 -20 -2 -28 -11 -12 -16 -11 -16 7 -2
19 14 19 14 6 -3 -8 -10 -20 -16 -28 -13 -8 3 -11 2 -8 -3 3 -5 1 -12 -4 -15
-14 -9 -14 -10 -166 619 -20 83 -48 197 -62 255 -14 58 -26 110 -26 115 -4 22
-29 25 -215 25 l-193 0 39 53 c21 28 55 79 75 112 41 67 37 47 207 1010 22
127 54 302 70 390 31 170 100 561 100 570 0 8 -28 6 -34 -3 -2 -4 -16 -75 -31
-157 -25 -142 -76 -427 -214 -1195 -34 -184 -68 -375 -76 -425 -20 -113 -24
-127 -37 -119 -7 4 -8 2 -4 -4 9 -15 -24 -73 -37 -65 -6 3 -7 2 -4 -4 7 -12
-69 -133 -83 -133 -6 0 -10 -7 -10 -15 0 -13 -45 -15 -348 -15 l-349 0 -20 22
c-44 49 -135 197 -127 209 4 7 3 10 -3 6 -7 -4 -33 27 -62 71 -61 92 -92 135
-273 379 -37 51 -68 97 -68 102 0 6 -3 11 -7 11 -5 0 -19 17 -33 37 -14 20
-40 54 -58 76 -17 21 -29 43 -26 48 3 5 0 8 -7 7 -6 -2 -14 3 -17 11 -3 9 0
11 8 6 9 -5 11 -4 6 4 -4 6 -11 9 -16 6 -5 -3 -30 24 -57 61 -26 36 -58 79
-71 95 -13 16 -21 33 -17 39 4 6 2 9 -3 8 -15 -4 -73 74 -67 89 2 8 0 11 -5 8
-12 -7 -42 20 -33 29 4 3 0 6 -7 6 -11 0 -10 4 2 17 15 14 19 14 35 2 16 -13
17 -12 4 4 -12 15 -9 21 29 55 24 20 47 36 52 35 4 -2 7 0 7 5 -3 20 3 23 19
11 15 -12 16 -12 5 2 -11 13 -10 19 5 32 13 12 22 14 30 7 9 -7 9 -7 2 2 -11
14 44 78 64 74 6 -2 7 -1 3 2 -5 2 4 17 19 33 15 15 31 26 36 23 5 -3 7 0 6 8
-2 7 3 12 10 10 8 -1 11 2 8 6 -3 5 17 28 43 51 l49 41 27 -23 c97 -81 183
-172 180 -189 -4 -16 -2 -18 10 -8 18 15 50 -13 50 -44 0 -15 6 -20 19 -19 22
2 118 -85 110 -99 -3 -5 -2 -7 3 -6 5 2 24 -9 42 -25 27 -22 31 -30 21 -42
-10 -12 -8 -13 11 -10 17 3 34 -5 61 -32 20 -20 34 -41 31 -46 -3 -6 -1 -7 6
-3 6 4 14 0 17 -8 3 -9 11 -13 17 -9 6 4 8 0 4 -10 -3 -9 -3 -16 1 -14 4 1 9
-3 10 -8 7 -18 24 -35 32 -30 10 6 43 -25 35 -33 -3 -4 -11 0 -16 8 -9 13 -10
13 -6 0 2 -8 12 -14 22 -13 25 2 176 -87 168 -100 -4 -6 -1 -7 6 -3 7 5 28 -3
49 -17 21 -13 57 -34 80 -46 38 -20 43 -20 49 -5 4 10 0 20 -10 25 -9 5 -23
16 -31 25 -8 8 -19 15 -23 15 -24 3 -83 41 -77 51 4 7 3 8 -4 4 -11 -6 -66 20
-129 61 -24 16 -25 19 -19 87 4 39 8 82 11 96 2 14 14 115 25 225 12 110 30
274 40 365 33 284 79 684 111 965 24 217 34 279 52 315 12 25 28 44 35 42 8
-1 11 2 7 7 -9 16 73 63 135 78 72 17 275 40 425 48 153 8 471 39 520 51 12 3
32 -3 47 -15 27 -21 141 -70 216 -92 33 -9 41 -16 36 -28 -3 -9 -27 -93 -53
-187 -36 -133 -49 -170 -61 -167 -12 4 -12 2 -2 -5 10 -7 4 -40 -30 -162 l-42
-153 39 -33 c22 -19 39 -39 37 -45 -1 -6 2 -8 7 -5 15 10 62 -39 50 -51 -8 -8
-7 -13 2 -18 7 -5 10 -4 5 3 -3 6 -1 14 5 17 13 8 73 -50 65 -63 -3 -5 1 -9 9
-9 8 0 11 5 8 11 -3 6 7 -1 23 -17 l29 -27 -99 -95 c-85 -81 -101 -93 -115
-82 -14 10 -14 10 -3 -4 11 -15 6 -23 -38 -65 -55 -52 -57 -59 -35 -122 8 -23
13 -55 10 -70 -4 -21 -3 -23 3 -7 8 17 10 15 15 -15 18 -94 171 -521 223 -622
8 -16 12 -33 9 -37 -3 -5 -1 -11 4 -13 4 -1 40 -66 78 -143 79 -158 121 -237
158 -295 14 -22 23 -40 20 -40 -3 0 6 -12 20 -27 l25 -28 78 40 c42 22 108 56
146 77 37 21 73 35 79 31 6 -4 7 -1 2 7 -6 10 -4 12 9 7 10 -4 15 -3 11 3 -3
5 9 17 27 26 18 9 41 23 50 31 9 8 22 12 29 7 8 -4 10 -3 5 4 -4 7 -3 12 2 12
5 0 43 25 85 55 41 30 80 55 85 55 6 0 12 3 14 8 2 4 32 31 68 61 104 87 153
147 246 303 49 80 92 144 97 141 5 -3 7 0 5 8 -5 12 44 114 61 129 3 3 7 12 9
20 2 8 18 40 36 70 57 95 136 249 136 265 0 8 -9 24 -20 35 -12 12 -18 25 -15
30 3 5 0 7 -8 5 -13 -6 -45 22 -46 40 -1 6 -5 10 -9 10 -14 0 -41 32 -34 40 4
5 2 5 -4 2 -6 -4 -22 5 -35 20 -13 14 -19 23 -12 20 6 -4 13 -3 15 1 3 9 69
47 188 109 36 19 69 38 73 43 8 7 -11 100 -89 430 -14 58 -34 143 -45 190 -29
124 -48 198 -70 261 l-18 56 29 87 c17 48 30 93 30 100 0 30 23 34 166 30 85
-2 169 -9 204 -18z m-7219 -116 c28 -16 24 -68 -9 -121 -59 -92 -193 -185
-302 -209 -117 -26 -113 -14 39 104 78 60 141 113 141 117 0 18 -29 8 -71 -26
-24 -19 -78 -61 -119 -94 l-75 -59 -3 35 c-2 20 -1 46 2 58 9 34 73 91 148
130 128 68 206 88 249 65z m5684 -162 c21 -35 56 -87 77 -116 36 -49 42 -67
89 -280 27 -124 48 -230 46 -235 -2 -8 -320 -217 -324 -214 -1 2 2 72 7 157 5
85 14 281 20 435 11 264 19 333 38 321 5 -3 26 -33 47 -68z m1115 -59 c29
-106 180 -748 180 -768 0 -10 -45 -40 -130 -85 -72 -38 -138 -75 -148 -82 -15
-12 -7 -23 86 -116 l103 -104 -116 -214 c-227 -417 -301 -537 -390 -625 -84
-83 -216 -182 -370 -276 -100 -62 -352 -199 -365 -199 -20 0 -247 430 -324
615 -56 134 -142 380 -190 545 l-43 145 159 161 160 161 -141 118 c-78 65
-141 126 -141 135 0 14 73 281 165 606 l15 52 97 -2 c54 0 114 2 133 7 l35 7
-2 -132 c-1 -73 -8 -272 -15 -443 -7 -170 -12 -317 -11 -325 2 -8 -2 -94 -8
-190 -7 -123 -7 -242 1 -395 16 -334 27 -402 136 -844 10 -40 24 -75 31 -78
16 -6 275 221 409 358 135 140 178 199 208 290 25 79 98 398 136 593 11 60 24
114 29 120 5 6 16 76 25 156 9 80 33 264 53 410 l36 265 57 75 c31 41 68 94
81 117 28 49 30 47 59 -58z m-908 -210 c120 -117 257 -164 377 -129 19 5 37 8
39 5 2 -2 -62 -139 -144 -305 -81 -165 -151 -297 -154 -293 -4 5 -21 73 -38
153 -49 228 -121 563 -127 588 -7 31 -1 28 47 -19z m631 -266 c-18 -164 -36
-332 -40 -372 l-8 -75 -137 151 -138 151 76 154 c76 153 76 154 133 185 31 17
74 47 96 67 22 19 42 35 45 36 3 0 -9 -134 -27 -297z m-6369 267 c41 -15 35
-71 -13 -140 -72 -104 -212 -188 -328 -197 l-68 -6 137 107 c145 113 154 121
139 130 -5 3 -42 -20 -83 -51 -40 -31 -101 -78 -135 -105 -34 -26 -65 -48 -68
-48 -3 0 -5 10 -5 23 0 38 49 125 88 157 50 41 178 107 243 124 67 18 63 18
93 6z m8913 -160 c52 -31 68 -65 67 -140 -1 -51 -8 -79 -33 -130 -59 -122 -33
-195 77 -225 32 -9 74 -20 94 -26 58 -15 68 -31 68 -107 1 -126 23 -176 79
-174 63 2 98 29 137 109 73 148 183 168 251 46 34 -60 56 -159 49 -217 -7 -60
-48 -148 -82 -175 -13 -10 -24 -24 -24 -30 0 -20 34 -11 125 32 l90 43 32
-110 32 -110 -183 -305 c-101 -168 -256 -427 -344 -575 -94 -158 -163 -264
-167 -255 -2 8 -41 110 -85 228 -43 118 -76 219 -72 226 4 6 68 91 142 189
225 296 223 294 151 237 -20 -15 -54 -39 -76 -53 -54 -34 -290 -138 -313 -138
-9 0 -67 -11 -127 -25 -61 -14 -140 -25 -177 -25 -64 0 -68 1 -91 33 -35 45
-82 161 -128 311 -21 72 -38 131 -36 132 1 1 24 -2 51 -7 48 -9 71 -5 61 10
-2 5 -32 14 -66 20 -34 7 -80 24 -102 39 l-40 26 6 81 c3 50 19 127 43 205 20
69 39 137 41 151 6 32 -15 75 -71 149 l-41 55 1 100 c1 56 7 117 15 140 13 37
17 40 62 47 50 7 82 25 176 102 144 118 322 169 408 116z m-7538 -171 c10 -57
22 -113 29 -125 16 -30 86 -113 108 -128 11 -8 127 -32 259 -55 132 -23 250
-44 263 -46 41 -10 30 21 -108 283 -40 76 -46 147 -16 181 44 49 71 21 164
-170 67 -137 69 -139 205 -223 113 -70 144 -121 236 -400 l43 -128 -138 -132
c-75 -72 -141 -131 -145 -131 -4 0 -20 12 -37 26 -20 19 -46 29 -83 34 -225
28 -421 73 -484 110 -130 76 -267 331 -282 524 -5 66 12 140 32 144 17 3 85
-145 141 -309 49 -143 57 -159 77 -158 12 0 92 9 178 19 148 17 159 17 207 1
29 -10 86 -40 127 -67 83 -54 85 -55 85 -36 0 14 -71 64 -149 104 -70 35 -137
40 -315 19 -77 -9 -140 -15 -140 -14 -1 2 -23 68 -49 148 -27 80 -67 182 -89
228 -57 117 -83 126 -117 38 l-17 -47 -26 48 c-29 53 -61 199 -62 280 -1 44 3
56 29 82 41 44 53 27 74 -100z m-2455 106 c69 -18 195 -82 248 -125 41 -34 88
-120 88 -162 0 -26 -6 -23 -134 77 -73 58 -136 105 -140 105 -3 0 -6 -6 -6
-14 0 -7 59 -59 131 -115 l132 -101 -51 0 c-107 0 -255 83 -334 189 -67 88
-66 152 2 160 3 1 32 -6 64 -14z m2315 -134 c10 -10 21 -40 25 -67 4 -27 9
-57 12 -66 4 -12 -2 -17 -23 -20 -33 -4 -73 -58 -73 -99 0 -16 -4 -29 -9 -29
-25 0 -24 237 0 283 13 22 44 22 68 -2z m4539 -128 c11 -49 30 -136 43 -195
12 -60 27 -108 33 -108 6 0 51 79 98 175 l88 174 107 -117 c58 -64 119 -131
135 -148 l28 -30 -44 -220 c-93 -453 -119 -544 -186 -634 -50 -68 -274 -292
-395 -395 -38 -33 -78 -68 -89 -77 -11 -10 -23 -18 -26 -18 -10 0 -109 423
-125 533 -33 226 -44 759 -19 907 6 32 18 43 163 137 86 56 159 102 163 103 3
0 15 -39 26 -87z m-4496 -70 c37 -44 78 -135 93 -207 22 -104 68 -231 111
-301 l34 -57 -27 7 c-67 16 -168 117 -218 215 -67 134 -91 294 -51 339 23 26
38 27 58 4z m-2871 -171 c109 -70 210 -230 217 -346 3 -56 2 -59 -12 -42 -8
10 -57 72 -108 137 -51 66 -98 119 -105 119 -7 0 -13 -3 -13 -6 0 -3 48 -68
107 -145 58 -76 104 -141 101 -144 -2 -3 -29 2 -58 11 -76 22 -146 95 -197
205 -61 128 -71 186 -40 227 16 20 60 14 108 -16z m629 -52 c27 -27 25 -46
-10 -118 -34 -66 -117 -151 -193 -195 -44 -26 -164 -63 -173 -54 -5 4 174 183
219 217 26 21 37 50 18 50 -6 0 -61 -49 -124 -110 l-114 -110 -6 47 c-3 31 0
57 9 74 32 63 188 174 287 205 57 17 64 17 87 -6z m982 -214 c33 -48 -39 -166
-145 -239 -80 -55 -162 -86 -225 -87 l-54 0 139 107 c76 58 140 108 142 110 3
2 0 8 -6 14 -7 7 -51 -21 -145 -95 -75 -58 -139 -106 -143 -106 -14 0 6 75 31
118 66 113 363 243 406 178z m-1230 -168 c-21 -21 -13 -81 18 -135 16 -28 34
-54 39 -57 5 -3 -1 -24 -12 -47 -12 -24 -23 -72 -26 -113 -5 -63 -12 -80 -58
-154 -48 -79 -51 -82 -57 -55 -8 42 -48 440 -50 498 l-1 50 56 6 c30 3 64 11
75 17 23 13 32 6 16 -10z m3838 -23 l34 -35 -25 -26 c-13 -14 -90 -89 -171
-166 l-147 -140 -41 33 -40 33 157 150 c86 83 164 159 173 168 21 23 22 22 60
-17z m-3639 -6 c171 -73 249 -148 266 -257 6 -35 5 -36 -13 -21 -79 66 -244
189 -253 189 -33 0 10 -41 162 -155 42 -31 77 -61 77 -66 0 -27 -135 6 -220
54 -140 80 -238 224 -187 276 17 18 102 8 168 -20z m900 -191 c102 -80 183
-303 151 -418 l-9 -35 -75 156 c-42 86 -81 159 -87 163 -26 16 -7 -40 59 -173
39 -78 70 -146 70 -152 0 -17 -74 21 -112 58 -20 20 -46 58 -58 85 -50 116
-75 281 -50 329 16 29 62 24 111 -13z m10217 -143 c1 -1 -44 -70 -100 -154
-57 -83 -263 -387 -458 -676 -195 -288 -358 -525 -361 -525 -3 0 -37 69 -76
153 -285 612 -384 829 -380 833 9 9 170 44 176 39 3 -3 65 -164 137 -357 72
-194 135 -353 140 -355 5 -2 155 242 334 542 179 300 337 565 352 590 l28 45
102 -66 c57 -37 104 -67 106 -69z m-11832 -19 c139 -47 207 -95 243 -172 39
-81 26 -80 -119 11 -74 46 -141 85 -148 85 -32 0 3 -29 131 -109 128 -80 136
-86 112 -94 -104 -35 -374 107 -422 221 -38 90 42 113 203 58z m1074 -29 l50
-45 0 -226 c0 -217 -1 -226 -22 -258 -21 -30 -27 -33 -66 -30 -30 2 -60 -5
-99 -23 l-56 -25 -91 44 c-138 69 -222 83 -263 44 -49 -46 -12 -152 84 -239
48 -44 48 -44 36 -79 -6 -19 -12 -60 -12 -90 -1 -48 -7 -65 -52 -138 -28 -46
-54 -81 -56 -78 -3 3 -27 210 -53 461 l-48 457 65 101 64 102 60 7 c33 4 88
20 122 36 58 26 69 28 174 26 l113 -2 50 -45z m1158 5 c19 -24 15 -44 -19 -96
-60 -89 -218 -180 -338 -192 -103 -11 -102 4 7 70 185 113 205 127 194 138 -7
7 -52 -16 -141 -71 -72 -44 -133 -81 -135 -81 -2 0 -1 21 1 48 7 62 37 94 132
139 142 67 267 86 299 45z m9743 -48 c57 -37 176 -114 264 -172 88 -58 241
-147 340 -197 204 -103 323 -176 377 -232 31 -32 39 -49 47 -103 31 -199 90
-1008 141 -1950 34 -623 50 -928 50 -953 0 -18 -11 -39 -29 -58 l-30 -29
-1033 2 -1033 3 -13 50 c-33 134 -20 291 31 367 23 33 24 33 122 40 120 8 305
39 725 123 173 35 316 62 318 60 2 -2 11 -58 21 -124 10 -67 21 -124 24 -128
27 -26 19 51 -39 417 -19 118 -47 301 -64 405 -51 328 -159 999 -165 1023 -6
26 -25 30 -25 5 0 -10 23 -162 51 -338 28 -176 83 -523 123 -772 l72 -452 -70
-16 c-39 -9 -181 -38 -316 -65 -525 -104 -672 -123 -826 -109 -135 12 -138 13
-189 85 -59 82 -190 216 -233 238 -56 29 -122 31 -177 7 -35 -15 -68 -21 -124
-21 -141 -1 -195 -50 -194 -175 0 -33 1 -147 1 -254 1 -110 6 -209 12 -227 7
-19 25 -41 43 -52 30 -18 195 -77 277 -100 25 -7 -50 -10 -257 -11 l-293 -1 0
97 c0 184 -113 1232 -184 1698 -35 237 -67 456 -71 488 -5 38 -12 57 -21 57
-19 0 -19 8 25 -292 68 -453 72 -480 69 -484 -2 -2 -44 127 -93 286 -57 186
-94 290 -102 290 -7 0 -13 -3 -13 -8 0 -4 45 -153 101 -332 132 -424 121 -384
105 -370 -8 6 -44 51 -82 100 -37 50 -74 90 -81 90 -20 0 -16 -16 15 -52 26
-30 137 -173 171 -220 11 -15 12 -26 3 -51 -221 -640 -325 -888 -404 -970 -44
-46 -44 -47 -99 -41 -99 11 -388 135 -1531 657 -259 119 -233 99 -204 156 42
81 60 166 59 278 l-1 103 27 -6 c66 -16 948 -239 1136 -288 116 -30 213 -52
216 -48 4 4 59 300 123 657 65 358 153 846 196 1085 43 239 82 457 85 483 6
41 13 52 44 72 64 42 319 136 596 220 66 20 126 38 133 40 7 3 17 -7 23 -21
38 -102 73 -175 98 -204 27 -33 33 -35 106 -40 l76 -5 237 -510 c131 -280 242
-510 247 -510 9 0 367 522 787 1147 84 125 158 227 164 228 6 0 57 -30 115
-66z m-3325 -101 c154 -226 251 -357 295 -403 24 -25 104 -85 177 -134 72 -49
132 -91 132 -94 0 -5 -88 -495 -135 -752 -19 -102 -68 -376 -110 -610 -42
-234 -78 -433 -81 -442 -4 -13 -10 -15 -32 -8 -15 5 -162 43 -327 85 -414 106
-371 90 -384 141 -6 23 -11 45 -11 48 0 3 27 24 60 47 44 30 59 47 55 58 -8
20 -67 231 -105 371 -15 58 -44 159 -63 225 -19 66 -70 243 -112 394 l-77 275
113 105 c229 215 412 417 464 514 22 39 28 69 37 177 6 72 12 130 14 130 2 0
42 -57 90 -127z m-6326 -284 c30 -11 32 -14 27 -50 -16 -122 -280 -281 -422
-255 l-36 7 147 92 c133 83 175 117 145 117 -6 0 -76 -41 -157 -91 -80 -50
-148 -89 -150 -86 -8 8 19 72 49 116 24 36 46 51 122 87 82 39 180 71 226 73
9 1 31 -4 49 -10z m-1623 -124 c149 -56 241 -134 272 -227 24 -74 10 -70 -119
32 -118 93 -157 116 -148 88 3 -7 58 -55 124 -106 65 -51 121 -98 123 -104 5
-15 -93 0 -151 23 -138 54 -268 184 -270 269 -1 18 5 36 13 41 25 16 87 9 156
-16z m533 10 c52 -18 146 -75 200 -120 l41 -34 -42 -26 -41 -27 -47 46 c-45
45 -71 57 -71 35 0 -6 21 -30 47 -53 l47 -43 -30 -36 c-16 -20 -32 -37 -37
-37 -18 0 -145 139 -165 181 -52 108 -13 153 98 114z m-176 -45 c21 -8 26 -16
26 -45 0 -37 -37 -122 -63 -143 -12 -10 -17 -5 -31 31 -9 24 -32 61 -51 82
-20 21 -34 39 -33 41 2 2 117 42 125 44 1 0 13 -4 27 -10z m677 -70 c43 -23
13 -113 -63 -190 -86 -86 -228 -154 -308 -148 l-37 3 138 108 c129 100 156
127 128 127 -6 0 -71 -47 -145 -105 -73 -58 -136 -105 -139 -105 -12 0 -3 49
19 95 37 80 135 152 275 201 73 26 103 29 132 14z m-611 -197 l0 -166 -55 69
c-63 80 -67 106 -25 159 16 20 37 54 46 76 10 21 21 36 26 33 4 -3 8 -80 8
-171z m148 5 c22 -15 23 -19 13 -54 -6 -22 -11 -52 -11 -68 0 -20 -17 -52 -56
-103 -31 -40 -58 -73 -60 -73 -2 0 -4 91 -4 201 l0 202 48 -44 c26 -25 57 -52
70 -61z m-1229 -43 c93 -22 221 -85 255 -126 31 -37 69 -114 64 -130 -2 -5
-64 29 -138 76 -74 46 -141 85 -148 85 -33 0 4 -30 131 -109 l137 -86 -37 -6
c-92 -16 -249 47 -344 138 -63 59 -85 100 -75 137 9 38 55 44 155 21z m1018
-90 l62 -80 0 -125 c0 -95 -3 -120 -11 -103 -14 29 -59 46 -100 38 -60 -13
-152 -69 -215 -130 -67 -68 -93 -127 -93 -217 0 -40 -8 -61 -52 -132 -29 -47
-54 -83 -56 -81 -5 5 -61 542 -62 585 0 26 16 61 63 134 l62 99 49 3 c66 5
131 27 186 64 71 48 92 40 167 -55z m548 -56 c34 -56 37 -66 32 -113 -3 -28
-13 -123 -21 -211 -25 -243 -15 -217 -104 -261 -42 -21 -79 -39 -82 -41 -3 -2
-13 10 -22 27 -20 35 -121 111 -200 151 l-58 29 0 129 0 128 68 87 69 88 74 3
c52 1 92 9 134 27 33 13 63 23 66 22 3 -2 23 -31 44 -65z m-531 -255 c33 -32
7 -144 -33 -144 -26 0 -53 -34 -60 -76 -5 -30 -15 -41 -61 -69 -35 -22 -76
-38 -115 -43 l-60 -10 134 128 c87 83 129 130 122 135 -14 8 -25 -1 -166 -137
-94 -92 -100 -96 -103 -71 -2 15 2 47 9 72 17 61 111 156 198 199 71 35 111
40 135 16z m1157 -114 c29 -16 24 -60 -13 -111 -36 -51 -43 -57 -121 -109 -81
-54 -169 -82 -249 -78 l-63 3 153 94 c83 52 152 98 152 103 0 20 -38 2 -165
-77 -75 -47 -139 -85 -141 -85 -11 0 -2 45 15 78 26 50 65 85 131 118 122 61
253 89 301 64z m3854 -32 c6 -14 46 -178 219 -893 64 -264 161 -661 215 -882
l98 -403 -1552 0 -1551 0 -18 78 c-10 42 -67 277 -126 522 -60 245 -145 594
-189 775 -44 182 -105 433 -136 558 -30 126 -55 235 -55 243 0 12 220 14 1545
14 1227 0 1547 -3 1550 -12z m-4910 -62 c83 -39 187 -115 211 -151 17 -26 17
-27 -12 -50 -16 -14 -33 -24 -37 -25 -5 0 -39 29 -76 65 -63 60 -91 78 -91 56
0 -5 34 -41 75 -80 l75 -71 -15 -30 c-9 -17 -20 -30 -26 -30 -20 0 -123 73
-169 120 -78 80 -120 186 -88 218 21 21 82 13 153 -22z m-156 -118 c16 -29 46
-71 65 -93 l36 -40 0 -310 0 -309 -54 53 c-41 41 -55 62 -60 93 -10 60 -50
131 -99 174 -51 45 -167 105 -248 128 -47 14 -58 21 -62 42 -2 13 -1 26 3 29
3 2 33 47 65 99 l60 96 47 0 c56 0 141 30 183 65 17 13 31 24 32 25 0 0 15
-24 32 -52z m726 1 c28 -86 -127 -254 -280 -302 -59 -19 -135 -29 -135 -17 0
4 53 49 118 99 128 98 158 126 145 134 -5 3 -71 -42 -147 -100 -75 -58 -140
-103 -143 -99 -12 12 9 77 40 123 55 83 241 181 344 182 44 1 53 -2 58 -20z
m-499 -216 c30 -15 31 -18 27 -62 -6 -51 -11 -61 -77 -145 l-46 -59 0 162 0
163 33 -22 c17 -11 46 -28 63 -37z m-1086 0 c167 -46 260 -118 291 -226 11
-37 11 -37 -149 63 -71 44 -132 80 -135 80 -4 0 -7 -6 -7 -13 0 -8 61 -51 135
-97 74 -46 135 -88 135 -93 0 -15 -139 -1 -185 18 -143 58 -265 166 -265 235
0 59 51 68 180 33z m605 -162 c55 -27 115 -64 134 -83 39 -37 84 -128 79 -158
-2 -16 -23 -4 -130 80 -71 55 -132 100 -138 100 -24 0 -5 -23 63 -76 196 -155
189 -149 165 -153 -38 -5 -130 19 -192 52 -146 77 -256 232 -203 286 24 25
114 6 222 -48z m769 40 c16 -18 15 -39 -24 -408 -22 -213 -44 -411 -48 -440
l-7 -52 -41 32 c-39 30 -42 36 -47 94 -10 99 -46 163 -129 228 -39 30 -75 55
-80 55 -4 0 -8 68 -8 151 l0 150 68 89 67 89 65 1 c36 1 83 7 105 15 55 18 60
18 79 -4z m613 -107 c56 -15 39 -90 -38 -165 -96 -95 -277 -167 -363 -145 -27
7 -24 9 61 62 48 30 116 71 150 92 56 33 80 62 53 62 -6 0 -76 -41 -156 -91
-80 -50 -147 -89 -150 -87 -7 7 17 70 41 105 30 45 63 69 149 109 107 49 203
71 253 58z m4893 -89 c145 -32 432 -100 471 -111 23 -6 33 -118 19 -211 -11
-81 -55 -202 -77 -210 -7 -3 -56 14 -107 37 l-94 43 40 95 c25 61 36 98 30
104 -12 12 -18 1 -62 -107 -25 -62 -46 -94 -94 -143 -69 -71 -182 -152 -248
-175 -23 -9 -93 -35 -155 -57 -162 -60 -201 -49 -144 42 22 34 60 67 148 127
221 151 234 175 72 137 -97 -23 -104 -26 -299 -151 -47 -30 -88 -54 -91 -55
-6 0 -51 171 -46 176 1 1 28 18 61 39 40 26 55 40 48 47 -8 8 -26 1 -62 -22
-28 -18 -53 -30 -56 -28 -2 3 -10 28 -18 57 l-13 52 51 43 c161 136 416 306
458 306 5 0 80 -16 168 -35z m-6351 -79 c83 -56 153 -77 245 -75 l80 2 55 -50
c31 -28 53 -54 50 -57 -3 -3 -26 3 -50 13 -74 33 -120 36 -152 11 -71 -56 4
-224 146 -325 31 -22 56 -45 57 -51 0 -6 -36 -34 -80 -63 -43 -29 -93 -68
-109 -87 -17 -19 -37 -34 -46 -34 -49 0 -70 -81 -40 -153 18 -44 18 -57 1 -80
-14 -17 -16 -17 -65 7 -41 21 -51 31 -56 58 -5 31 -95 891 -95 909 0 13 4 12
59 -25z m-457 -182 c162 -51 239 -108 273 -205 8 -23 13 -44 11 -46 -2 -2 -65
35 -140 82 -74 47 -140 85 -146 85 -27 0 -3 -25 63 -66 39 -25 104 -66 142
-90 l70 -45 -85 4 c-71 3 -98 9 -154 35 -133 62 -226 153 -226 222 0 56 64 64
192 24z m852 -23 c33 -17 92 -53 129 -81 57 -43 73 -62 98 -115 19 -39 29 -76
27 -95 -3 -31 -3 -31 -122 82 -65 62 -123 115 -127 116 -5 2 -9 -3 -9 -11 0
-8 52 -64 115 -124 63 -59 115 -111 115 -115 0 -15 -79 6 -148 39 -118 56
-230 181 -247 274 -14 77 51 89 169 30z m8705 -301 c6 -58 26 -260 46 -450 19
-190 35 -396 35 -457 l0 -113 -615 0 -615 0 0 70 0 70 -75 0 -74 0 -10 38
c-37 139 -101 404 -101 416 0 10 41 -4 143 -51 180 -82 511 -223 601 -257 47
-18 88 -26 131 -26 60 0 64 1 98 40 20 21 47 56 60 77 45 73 167 376 292 728
25 72 49 137 52 145 6 15 13 -32 32 -230z m-8521 -67 c30 -4 42 -10 42 -22 -1
-35 -41 -101 -98 -162 l-61 -64 -1 134 0 134 38 -7 c20 -4 56 -10 80 -13z
m-150 -172 l-3 -59 -24 19 c-23 19 -23 20 -6 39 28 31 13 46 -20 18 l-29 -25
-48 20 c-47 19 -48 20 -31 40 10 11 50 42 88 69 l70 49 3 -55 c2 -30 2 -82 0
-115z m286 125 l50 -43 -28 -269 c-15 -148 -29 -280 -32 -293 -5 -22 -8 -20
-43 33 -30 44 -40 71 -45 117 -8 82 -40 151 -91 198 l-43 39 53 52 c56 56 98
124 110 178 3 17 10 32 13 32 4 0 29 -20 56 -44z m9181 -95 c50 -22 128 -99
223 -218 41 -51 83 -94 96 -97 12 -3 54 -9 93 -12 l71 -7 -24 -51 c-46 -101
-51 -212 -19 -371 l7 -30 -164 2 c-260 3 -399 11 -454 26 -104 29 -219 79
-242 104 -23 25 -23 31 -21 192 1 91 -2 198 -6 236 -9 84 5 142 41 176 22 21
38 24 127 29 68 4 112 12 132 23 39 22 90 21 140 -2z m-9527 -83 c110 -63 177
-127 202 -195 11 -31 20 -69 18 -84 -3 -26 -9 -22 -121 87 -64 63 -122 114
-127 114 -25 0 -2 -29 108 -136 l117 -115 -42 4 c-116 13 -276 135 -334 253
-67 137 10 168 179 72z m-385 -129 c131 -44 241 -119 277 -188 18 -36 37 -111
27 -111 -2 0 -62 45 -133 100 -71 55 -132 100 -136 100 -28 0 9 -38 122 -125
125 -96 129 -100 98 -103 -79 -8 -201 46 -293 130 -71 65 -105 119 -105 167 0
54 44 63 143 30z m266 -72 c28 -29 80 -70 116 -91 l65 -39 0 -140 0 -140 -52
69 c-43 57 -53 78 -60 126 -10 78 -47 147 -104 196 -41 35 -46 43 -35 56 8 9
15 16 17 16 1 0 25 -24 53 -53z m-645 -3 c88 -23 196 -75 235 -115 33 -32 88
-135 78 -145 -2 -3 -66 34 -141 81 -74 47 -142 85 -151 85 -27 0 -16 -18 28
-43 61 -35 220 -136 231 -148 6 -5 -13 -9 -52 -9 -144 0 -328 104 -382 215
-21 43 -21 47 -6 70 20 30 67 33 160 9z m947 -151 l55 -5 47 -71 c26 -38 45
-77 43 -86 -2 -9 -7 -52 -11 -96 -10 -124 0 -115 -121 -115 l-104 0 0 196 c0
183 1 196 18 189 9 -4 42 -9 73 -12z m-430 -109 c24 -9 75 -16 112 -17 l68 -1
65 -87 c51 -69 64 -94 64 -123 l0 -36 -165 0 c-127 0 -165 3 -165 13 0 11 -7
75 -25 225 -2 23 -3 42 -1 42 2 0 23 -7 47 -16z m7807 -206 l3 -58 -966 0
-965 0 0 60 0 60 963 -2 962 -3 3 -57z m-1958 -3 l0 -55 -1570 0 -1570 0 0 55
0 55 1570 0 1570 0 0 -55z"/>
<path d="M9069 4877 c-58 -29 -143 -70 -190 -91 -46 -22 -144 -68 -217 -103
-74 -35 -136 -63 -138 -63 -2 0 -24 -9 -49 -21 -24 -11 -49 -17 -56 -13 -7 4
-9 3 -6 -3 3 -5 -25 -23 -63 -40 -39 -17 -70 -36 -70 -42 0 -25 31 -21 96 12
38 19 80 38 94 42 14 4 70 29 125 55 209 99 236 111 247 104 6 -4 8 -3 5 3 -8
13 128 74 151 67 12 -4 13 -3 5 3 -17 12 158 99 181 90 10 -4 15 -3 12 2 -3 5
1 14 9 21 18 15 11 30 -13 30 -9 -1 -65 -24 -123 -53z"/>
<path d="M9390 4876 c-33 -21 -134 -75 -447 -238 -77 -40 -133 -75 -133 -84 0
-22 30 -16 90 17 168 93 361 189 370 184 6 -4 9 -1 8 5 -2 6 40 33 92 61 52
27 95 55 95 62 0 21 -38 17 -75 -7z"/>
<path d="M6336 3249 c-144 -16 -263 -58 -290 -101 -18 -30 4 -69 55 -95 156
-81 604 -87 781 -11 44 19 88 58 88 79 0 4 -11 21 -25 38 -28 32 -105 62 -210
81 -79 14 -312 20 -399 9z m456 -47 c137 -37 169 -64 127 -108 -104 -110 -708
-110 -836 1 l-28 23 23 25 c26 28 125 63 217 77 33 5 141 7 240 5 142 -2 196
-7 257 -23z"/>
<path d="M14182 8310 c-58 -12 -137 -57 -174 -99 -17 -19 -43 -60 -57 -91
l-26 -55 0 -610 0 -610 27 -57 c41 -87 115 -149 221 -182 10 -3 16 -9 14 -13
-76 -135 -237 -435 -237 -442 0 -6 5 -11 10 -11 6 0 128 102 271 228 l261 227
626 5 627 5 50 25 c64 31 124 91 155 155 l25 50 0 620 0 620 -28 57 c-34 68
-108 139 -175 165 -44 17 -96 18 -797 19 -412 1 -769 -2 -793 -6z m1599 -48
c60 -29 113 -83 144 -147 l25 -51 -2 -615 -3 -614 -25 -48 c-29 -58 -86 -112
-149 -141 -45 -21 -57 -21 -671 -24 l-625 -3 -40 -38 c-73 -68 -428 -374 -424
-364 2 5 50 93 107 195 56 102 102 192 102 200 0 8 -20 18 -50 25 -90 21 -157
80 -200 175 -19 41 -20 68 -20 639 0 668 -2 650 72 734 38 43 93 79 148 96 14
4 372 7 795 6 l770 -2 46 -23z"/>
<path d="M14820 8151 c-115 -35 -182 -112 -201 -232 -9 -57 4 -183 20 -193 3
-2 54 7 113 21 l108 25 -8 26 c-25 90 12 155 88 155 32 0 48 -7 68 -27 25 -25
27 -32 27 -114 -1 -79 -4 -94 -37 -162 -38 -78 -116 -178 -180 -231 l-38 -30
0 -110 0 -109 110 0 110 0 0 78 0 79 93 94 c142 144 194 268 185 441 -10 201
-121 299 -336 297 -53 0 -108 -4 -122 -8z"/>
<path d="M14770 6950 l0 -120 120 0 121 0 -3 118 -3 117 -117 3 -118 3 0 -121z"/>
</g>
</svg>
