<svg width="67" height="67" viewBox="0 0 67 67" fill="none" xmlns="http://www.w3.org/2000/svg">
<g id="Frame" clip-path="url(#clip0_79_4179)">
<path id="Vector" d="M60.7835 49.3002L55.0333 55.0505L39.4057 39.4057L27.6116 27.6288L13.3137 13.3137L19.2021 7.42521L33.5173 21.7405L45.2941 33.5173L60.1446 48.3678C60.4184 48.6322 60.6358 48.9494 60.7835 49.3002V49.3002Z" stroke="#6E6C72" stroke-width="2" stroke-miterlimit="10"/>
<path id="Vector_2" d="M55.0333 55.0505L49.3003 60.8008C48.9528 60.647 48.6367 60.4304 48.3678 60.1619L33.5173 45.3113L6.92451 18.7359C6.14814 17.9626 5.5321 17.0435 5.11176 16.0315C4.69141 15.0196 4.47504 13.9346 4.47504 12.8388C4.47504 11.743 4.69141 10.658 5.11176 9.64603C5.5321 8.63407 6.14814 7.71509 6.92451 6.94179C7.69686 6.16756 8.6148 5.55381 9.62541 5.13594C10.636 4.71806 11.7193 4.50425 12.8129 4.50693C13.9065 4.50425 14.9898 4.71806 16.0004 5.13594C17.011 5.55381 17.929 6.16756 18.7013 6.94179L19.1848 7.42524L13.2964 13.3137L27.5944 27.6289L39.3884 39.4057L55.0333 55.0505Z" stroke="#6E6C72" stroke-width="2" stroke-miterlimit="10"/>
<path id="Vector_3" d="M62.5103 61.3534C62.5299 61.51 62.5135 61.669 62.4623 61.8183C62.4111 61.9676 62.3265 62.1033 62.2149 62.2149C62.1033 62.3265 61.9676 62.4112 61.8183 62.4624C61.669 62.5135 61.51 62.5299 61.3533 62.5103L50.2327 61.077C49.9086 61.0381 49.5933 60.9447 49.3002 60.8008L55.0332 55.0505L60.7835 49.3002C60.9328 49.5985 61.032 49.9195 61.077 50.25L62.5103 61.3534Z" stroke="#6E6C72" stroke-width="2" stroke-miterlimit="10"/>
<path id="Vector_4" d="M60.9389 49.1448L60.7835 49.3003" stroke="#6E6C72" stroke-width="2" stroke-miterlimit="10"/>
<path id="Vector_5" d="M49.3002 60.8008L49.1448 60.9389" stroke="#6E6C72" stroke-width="2" stroke-miterlimit="10"/>
<path id="Vector_6" d="M13.3136 13.3137L7.42523 19.2021" stroke="#6E6C72" stroke-width="2" stroke-miterlimit="10"/>
<path id="Vector_7" d="M33.5173 45.3113L12.9856 65.8257C12.7728 66.0325 12.4879 66.1482 12.1912 66.1482C11.8946 66.1482 11.6096 66.0325 11.3969 65.8257L1.20877 55.6377C1.10173 55.5331 1.01668 55.4081 0.958611 55.2703C0.90054 55.1324 0.870605 54.9843 0.870605 54.8347C0.870605 54.685 0.90054 54.5369 0.958611 54.3991C1.01668 54.2612 1.10173 54.1363 1.20877 54.0317L3.36727 51.8904L8.70309 46.5374L14.0562 41.1843L21.7232 33.5173L33.5173 45.3113Z" stroke="#6E6C72" stroke-width="2" stroke-miterlimit="10"/>
<path id="Vector_8" d="M65.8085 13.0029L45.2941 33.4827L33.5173 21.7059L40.8217 14.3843L46.1747 9.03123L54.0317 1.17419C54.1348 1.06766 54.2582 0.982995 54.3947 0.925138C54.5311 0.867282 54.6778 0.837449 54.8261 0.837449C54.9743 0.837449 55.121 0.867282 55.2574 0.925138C55.3939 0.982995 55.5173 1.06766 55.6204 1.17419L65.8085 11.3624C65.9209 11.4674 66.0106 11.5944 66.0718 11.7355C66.1331 11.8766 66.1647 12.0287 66.1647 12.1826C66.1647 12.3364 66.1331 12.4887 66.0718 12.6298C66.0106 12.7709 65.9209 12.8978 65.8085 13.0029Z" stroke="#6E6C72" stroke-width="2" stroke-miterlimit="10"/>
<path id="Vector_9" d="M51.5106 3.71263L56.3111 8.51314" stroke="#6E6C72" stroke-width="2" stroke-miterlimit="10"/>
<path id="Vector_10" d="M46.1575 9.06572L53.1683 16.0593" stroke="#6E6C72" stroke-width="2" stroke-miterlimit="10"/>
<path id="Vector_11" d="M40.8044 14.4188L45.6049 19.2193" stroke="#6E6C72" stroke-width="2" stroke-miterlimit="10"/>
<path id="Vector_12" d="M14.0562 41.167L21.067 48.1778" stroke="#6E6C72" stroke-width="2" stroke-miterlimit="10"/>
<path id="Vector_13" d="M8.70306 46.5201L13.5036 51.3206" stroke="#6E6C72" stroke-width="2" stroke-miterlimit="10"/>
<path id="Vector_14" d="M3.34998 51.8732L10.3608 58.884" stroke="#6E6C72" stroke-width="2" stroke-miterlimit="10"/>
</g>
<defs>
<clipPath id="clip0_79_4179">
<rect width="67" height="67" fill="white"/>
</clipPath>
</defs>
</svg>
