<svg width="144" height="122" viewBox="0 0 144 122" fill="none" xmlns="http://www.w3.org/2000/svg">
<g id="Group 17">
<path id="Vector" d="M98.11 10.92H103.38C104.706 10.92 105.978 11.4467 106.916 12.3844C107.853 13.3221 108.38 14.5939 108.38 15.92V33.82" stroke="#FF2E00" stroke-width="2" stroke-miterlimit="10"/>
<path id="Vector_2" d="M98.53 18.65H121.42L134.14 31.37V80.27H108.94" stroke="#F3F7EF" stroke-width="2" stroke-miterlimit="10"/>
<path id="Vector_3" d="M88 44.12V23.68" stroke="#F3F7EF" stroke-width="2" stroke-miterlimit="10"/>
<path id="Vector_4" d="M98.11 3.25V21.45C98.11 22.0467 97.8729 22.619 97.4509 23.041C97.029 23.4629 96.4567 23.7 95.86 23.7H54.81V15.93C54.81 15.3333 54.5729 14.761 54.1509 14.339C53.729 13.9171 53.1567 13.68 52.56 13.68H44.33V3.25C44.33 2.65326 44.567 2.08095 44.989 1.659C45.4109 1.23704 45.9832 1 46.58 1H95.89C96.4815 1.00789 97.0461 1.24842 97.4616 1.66953C97.8771 2.09063 98.11 2.65842 98.11 3.25Z" fill="#FF2E00" stroke="#FF2E00" stroke-width="2" stroke-miterlimit="10"/>
<path id="Vector_5" d="M99.28 54.16H76.72" stroke="#F3F7EF" stroke-width="2" stroke-miterlimit="10"/>
<path id="Vector_6" d="M99.28 65.01H76.72" stroke="#F3F7EF" stroke-width="2" stroke-miterlimit="10"/>
<path id="Vector_7" d="M99.28 57.68H76.72" stroke="#F3F7EF" stroke-width="2" stroke-miterlimit="10"/>
<path id="Vector_8" d="M96.94 61.6H76.72" stroke="#F3F7EF" stroke-width="2" stroke-miterlimit="10"/>
<path id="Vector_9" d="M92.47 68.77H76.72" stroke="#F3F7EF" stroke-width="2" stroke-miterlimit="10"/>
<path id="Vector_10" d="M69.5 53.48H33.5V76.48H69.5V53.48Z" stroke="#F3F7EF" stroke-width="2" stroke-miterlimit="10"/>
<path id="Vector_11" d="M33 53.35L69.85 76.67" stroke="#F3F7EF" stroke-width="2" stroke-miterlimit="10"/>
<path id="Vector_12" d="M69.85 53.35L33 76.67" stroke="#F3F7EF" stroke-width="2" stroke-miterlimit="10"/>
<path id="Vector_13" d="M108.94 44.12H22.98V98.25H108.94V44.12Z" stroke="#F3F7EF" stroke-width="2" stroke-miterlimit="10"/>
<path id="Vector_14" d="M12.11 36.36V55.82C12.11 57.1461 12.6368 58.4178 13.5744 59.3555C14.5121 60.2932 15.7839 60.82 17.11 60.82H79.11C80.4361 60.82 81.7078 61.3468 82.6455 62.2845C83.5832 63.2221 84.11 64.4939 84.11 65.82V71.97" stroke="#FF2E00" stroke-width="2" stroke-miterlimit="10"/>
<path id="Vector_15" d="M108.15 54.16C113.695 54.16 118.19 49.6649 118.19 44.12C118.19 38.575 113.695 34.08 108.15 34.08C102.605 34.08 98.11 38.575 98.11 44.12C98.11 49.6649 102.605 54.16 108.15 54.16Z" stroke="#FF2E00" stroke-width="2" stroke-miterlimit="10"/>
<path id="Vector_16" d="M84.15 81.13C86.5248 81.13 88.45 79.2048 88.45 76.83C88.45 74.4551 86.5248 72.53 84.15 72.53C81.7752 72.53 79.85 74.4551 79.85 76.83C79.85 79.2048 81.7752 81.13 84.15 81.13Z" stroke="#FF2E00" stroke-width="2" stroke-miterlimit="10"/>
<path id="Vector_17" d="M7.16003 25.01L11.74 29.14L19.39 19.63" stroke="#FF2E00" stroke-width="2" stroke-miterlimit="10"/>
<path id="Vector_18" d="M24.58 19.63H49.03" stroke="#FF2E00" stroke-width="2" stroke-miterlimit="10"/>
<path id="Vector_19" d="M24.58 26.87H49.03" stroke="#FF2E00" stroke-width="2" stroke-miterlimit="10"/>
<path id="Vector_20" d="M24.58 23.25H46.78" stroke="#FF2E00" stroke-width="2" stroke-miterlimit="10"/>
<path id="Vector_21" d="M24.58 30.49H43.36" stroke="#FF2E00" stroke-width="2" stroke-miterlimit="10"/>
<path id="Vector_22" d="M68.01 6.89996H92.47" stroke="#F3F7EF" stroke-width="2" stroke-miterlimit="10"/>
<path id="Vector_23" d="M68.01 14.14H92.47" stroke="#F3F7EF" stroke-width="2" stroke-miterlimit="10"/>
<path id="Vector_24" d="M68.01 10.52H90.22" stroke="#F3F7EF" stroke-width="2" stroke-miterlimit="10"/>
<path id="Vector_25" d="M68.01 17.76H86.79" stroke="#F3F7EF" stroke-width="2" stroke-miterlimit="10"/>
<path id="Vector_26" d="M27.28 108.95C33.1894 108.95 37.98 104.159 37.98 98.25C37.98 92.3405 33.1894 87.55 27.28 87.55C21.3705 87.55 16.58 92.3405 16.58 98.25C16.58 104.159 21.3705 108.95 27.28 108.95Z" stroke="#F3F7EF" stroke-width="2" stroke-miterlimit="10"/>
<path id="Vector_27" d="M18.7682 109.56L16.5833 107.375C16.3255 107.117 15.9077 107.117 15.6499 107.375L5.48171 117.543C5.22396 117.801 5.22396 118.219 5.48171 118.477L7.66666 120.662C7.92441 120.919 8.3423 120.919 8.60005 120.662L18.7682 110.493C19.026 110.236 19.026 109.818 18.7682 109.56Z" stroke="#F3F7EF" stroke-width="2" stroke-miterlimit="10"/>
<path id="Vector_28" d="M17.7 108.49L20.02 106.1" stroke="#F3F7EF" stroke-width="2" stroke-miterlimit="10"/>
<path id="Vector_29" d="M113.87 93.69C121.282 93.69 127.29 87.6816 127.29 80.27C127.29 72.8583 121.282 66.85 113.87 66.85C106.458 66.85 100.45 72.8583 100.45 80.27C100.45 87.6816 106.458 93.69 113.87 93.69Z" stroke="#F3F7EF" stroke-width="2" stroke-miterlimit="10"/>
<path id="Vector_30" d="M128.181 90.8312L125.204 93.8081C124.946 94.0658 124.946 94.4837 125.204 94.7415L138.201 107.738C138.458 107.996 138.876 107.996 139.134 107.738L142.111 104.761C142.369 104.503 142.369 104.086 142.111 103.828L129.114 90.8312C128.856 90.5734 128.439 90.5734 128.181 90.8312Z" stroke="#F3F7EF" stroke-width="2" stroke-miterlimit="10"/>
<path id="Vector_31" d="M126.72 92.3L123.71 89.38" stroke="#F3F7EF" stroke-width="2" stroke-miterlimit="10"/>
<path id="Vector_32" d="M48.66 13.42C48.6081 13.0589 48.5814 12.6947 48.58 12.33C48.58 10.8862 49.0081 9.47478 49.8102 8.2743C50.6124 7.07382 51.7525 6.13819 53.0864 5.58567C54.4203 5.03315 55.888 4.88856 57.3041 5.17023C58.7202 5.4519 60.0209 6.14717 61.0418 7.1681C62.0628 8.18902 62.758 9.48977 63.0397 10.9058C63.3214 12.3219 63.1768 13.7897 62.6243 15.1236C62.0718 16.4575 61.1361 17.5976 59.9356 18.3997C58.7351 19.2018 57.3238 19.63 55.88 19.63C55.5457 19.6323 55.2116 19.6122 54.88 19.57" stroke="#F3F7EF" stroke-width="2" stroke-miterlimit="10"/>
<path id="Vector_33" d="M52.56 13.66H3.25C2.00736 13.66 1 14.6673 1 15.91V34.11C1 35.3526 2.00736 36.36 3.25 36.36H52.56C53.8026 36.36 54.81 35.3526 54.81 34.11V15.91C54.81 14.6673 53.8026 13.66 52.56 13.66Z" stroke="#FF2E00" stroke-width="2" stroke-miterlimit="10"/>
<path id="Vector_34" d="M121.42 18.65V31.55H134.14" stroke="#F3F7EF" stroke-width="2" stroke-miterlimit="10"/>
</g>
</svg>
