<svg width="78" height="71" viewBox="0 0 78 71" fill="none" xmlns="http://www.w3.org/2000/svg">
<g id="Frame" clip-path="url(#clip0_81_92)">
<path id="Vector" d="M75.7018 44.3287H65.6082C64.7677 44.3287 64.0864 45.0059 64.0864 45.8413V55.8739C64.0864 56.7093 64.7677 57.3865 65.6082 57.3865H75.7018C76.5422 57.3865 77.2236 56.7093 77.2236 55.8739V45.8413C77.2236 45.0059 76.5422 44.3287 75.7018 44.3287Z" stroke="#F3F7EF" stroke-width="2" stroke-miterlimit="10"/>
<path id="Vector_2" d="M75.7018 15.1107H65.6082C64.7677 15.1107 64.0864 15.7879 64.0864 16.6233V38.6641C64.0864 39.4995 64.7677 40.1767 65.6082 40.1767H75.7018C76.5422 40.1767 77.2236 39.4995 77.2236 38.6641V16.6233C77.2236 15.7879 76.5422 15.1107 75.7018 15.1107Z" stroke="#F3F7EF" stroke-width="2" stroke-miterlimit="10" stroke-dasharray="2 2"/>
<path id="Vector_3" d="M68.9779 9.52325H63.5118" stroke="#F3F7EF" stroke-width="2" stroke-miterlimit="10"/>
<path id="Vector_4" d="M74.444 5.00085H63.5118" stroke="#F3F7EF" stroke-width="2" stroke-miterlimit="10"/>
<path id="Vector_5" d="M19.9076 9.52325H2.29823C1.45776 9.52325 0.776428 10.2005 0.776428 11.0359V28.5543C0.776428 29.3897 1.45776 30.0669 2.29823 30.0669H19.9076C20.7481 30.0669 21.4294 29.3897 21.4294 28.5543V11.0359C21.4294 10.2005 20.7481 9.52325 19.9076 9.52325Z" stroke="#F3F7EF" stroke-width="2" stroke-miterlimit="10"/>
<path id="Vector_6" d="M26.6004 52.8642V61.9244C26.6004 62.3337 26.4368 62.7263 26.1456 63.0157C25.8544 63.3052 25.4594 63.4678 25.0476 63.4678H2.25165C1.83981 63.4678 1.44483 63.3052 1.15361 63.0157C0.862394 62.7263 0.698792 62.3337 0.698792 61.9244V52.8642C0.698792 52.4548 0.862394 52.0622 1.15361 51.7728C1.44483 51.4833 1.83981 51.3207 2.25165 51.3207H25.0476C25.4594 51.3207 25.8544 51.4833 26.1456 51.7728C26.4368 52.0622 26.6004 52.4548 26.6004 52.8642Z" stroke="#F3F7EF" stroke-width="2" stroke-miterlimit="10"/>
<path id="Vector_7" d="M57.1296 2.20717V68.7928C57.1296 69.1735 56.9775 69.5386 56.7066 69.8078C56.4358 70.077 56.0685 70.2283 55.6855 70.2283H18.3237C17.9407 70.2283 17.5734 70.077 17.3025 69.8078C17.0317 69.5386 16.8796 69.1735 16.8796 68.7928V63.4369H25.0786C25.4905 63.4369 25.8855 63.2743 26.1767 62.9848C26.4679 62.6954 26.6315 62.3028 26.6315 61.8934V52.8332C26.6315 52.4239 26.4679 52.0313 26.1767 51.7419C25.8855 51.4524 25.4905 51.2898 25.0786 51.2898H16.8796V30.0824H19.9076C20.3195 30.0824 20.7144 29.9197 21.0057 29.6303C21.2969 29.3408 21.4605 28.9483 21.4605 28.5389V11.0358C21.4605 10.6265 21.2969 10.2339 21.0057 9.94444C20.7144 9.65498 20.3195 9.49234 19.9076 9.49234H16.8796V2.17627C16.8796 1.79557 17.0317 1.43048 17.3025 1.16129C17.5734 0.892092 17.9407 0.740845 18.3237 0.740845H55.6855C55.8778 0.740801 56.0681 0.778985 56.2454 0.853045C56.4226 0.927105 56.5833 1.03554 56.7178 1.17212C56.8523 1.3087 56.958 1.4706 57.0287 1.64834C57.0994 1.82607 57.1337 2.01608 57.1296 2.20717Z" stroke="#F3F7EF" stroke-width="2" stroke-miterlimit="10"/>
<path id="Vector_8" d="M57.1296 58.0039H26.6004" stroke="#F3F7EF" stroke-width="2" stroke-miterlimit="10"/>
<path id="Vector_9" d="M57.1296 9.52325H19.9076" stroke="#F3F7EF" stroke-width="2" stroke-miterlimit="10"/>
<path id="Vector_10" d="M39.2718 63.437C39.2718 63.7329 39.2131 64.0259 39.0992 64.2993C38.9852 64.5727 38.8182 64.8212 38.6077 65.0305C38.3972 65.2397 38.1473 65.4057 37.8722 65.5189C37.5971 65.6322 37.3023 65.6905 37.0046 65.6905C36.4033 65.6905 35.8266 65.4531 35.4015 65.0305C34.9763 64.6078 34.7374 64.0346 34.7374 63.437C34.7374 62.8393 34.9763 62.2662 35.4015 61.8435C35.8266 61.4209 36.4033 61.1835 37.0046 61.1835C37.3023 61.1835 37.5971 61.2417 37.8722 61.355C38.1473 61.4682 38.3972 61.6343 38.6077 61.8435C38.8182 62.0528 38.9852 62.3012 39.0992 62.5746C39.2131 62.848 39.2718 63.141 39.2718 63.437V63.437Z" stroke="#F3F7EF" stroke-width="2" stroke-miterlimit="10"/>
<path id="Vector_11" d="M48.8529 32.9378C48.8548 34.6536 48.4775 36.349 47.7476 37.9039C47.0178 39.4588 45.9532 40.8354 44.6291 41.9363C44.6291 40.9418 44.4318 39.9571 44.0484 39.0385C43.6651 38.1199 43.1032 37.2854 42.395 36.5829C41.6868 35.8804 40.8461 35.3238 39.9212 34.9446C38.9962 34.5654 38.0051 34.3713 37.0046 34.3733C38.2854 34.3733 39.5138 33.8675 40.4195 32.9673C41.3252 32.0671 41.834 30.8461 41.834 29.573C41.834 28.9434 41.7089 28.32 41.466 27.7385C41.2232 27.1569 40.8672 26.6287 40.4185 26.1842C39.9699 25.7397 39.4374 25.3876 38.8515 25.1481C38.2657 24.9085 37.638 24.7863 37.0046 24.7883C36.3724 24.7883 35.7464 24.912 35.1624 25.1525C34.5784 25.3929 34.0477 25.7454 33.6007 26.1897C33.1537 26.634 32.7991 27.1615 32.5572 27.742C32.3152 28.3225 32.1907 28.9447 32.1907 29.573C32.1887 30.2027 32.3117 30.8265 32.5527 31.4088C32.7937 31.9911 33.148 32.5204 33.5952 32.9663C34.0424 33.4123 34.5737 33.7662 35.1588 34.0076C35.7439 34.249 36.3711 34.3733 37.0046 34.3733C34.9865 34.3733 33.0512 35.17 31.6242 36.5884C30.1972 38.0067 29.3956 39.9305 29.3956 41.9363C28.067 40.8383 26.9984 39.4626 26.2657 37.9073C25.5329 36.352 25.1541 34.6552 25.1563 32.9378C25.1563 29.8144 26.4046 26.819 28.6266 24.6104C30.8486 22.4019 33.8622 21.1611 37.0046 21.1611C38.5611 21.159 40.1027 21.4623 41.5411 22.0534C42.9796 22.6445 44.2865 23.5119 45.3871 24.6059C46.4878 25.6999 47.3604 26.999 47.9552 28.4287C48.5499 29.8584 48.8549 31.3907 48.8529 32.9378V32.9378Z" stroke="#F3F7EF" stroke-width="2" stroke-miterlimit="10"/>
<path id="Vector_12" d="M41.834 29.573C41.834 30.8461 41.3252 32.0671 40.4195 32.9673C39.5138 33.8675 38.2854 34.3733 37.0046 34.3733C36.3711 34.3733 35.7439 34.249 35.1588 34.0076C34.5737 33.7662 34.0424 33.4123 33.5952 32.9664C33.148 32.5204 32.7937 31.9911 32.5527 31.4088C32.3117 30.8265 32.1887 30.2027 32.1907 29.573C32.1907 28.304 32.6979 27.087 33.6007 26.1897C34.5034 25.2924 35.7279 24.7883 37.0046 24.7883C37.638 24.7863 38.2657 24.9085 38.8515 25.1481C39.4374 25.3876 39.9699 25.7397 40.4185 26.1842C40.8672 26.6288 41.2232 27.1569 41.466 27.7385C41.7089 28.32 41.834 28.9434 41.834 29.573V29.573Z" stroke="#F3F7EF" stroke-width="2" stroke-miterlimit="10"/>
<path id="Vector_13" d="M44.6291 41.9363C42.4934 43.7195 39.7938 44.6976 37.0046 44.6991C34.2202 44.6967 31.5259 43.7184 29.3956 41.9363V41.9363C29.3956 39.9304 30.1973 38.0067 31.6242 36.5884C33.0512 35.17 34.9865 34.3733 37.0046 34.3733C38.0051 34.3713 38.9962 34.5654 39.9212 34.9446C40.8461 35.3237 41.6868 35.8804 42.395 36.5829C43.1032 37.2854 43.6651 38.1199 44.0484 39.0385C44.4318 39.9571 44.6291 40.9418 44.6291 41.9363V41.9363Z" stroke="#F3F7EF" stroke-width="2" stroke-miterlimit="10"/>
</g>
<defs>
<clipPath id="clip0_81_92">
<rect width="78" height="71" fill="white"/>
</clipPath>
</defs>
</svg>
