<svg width="36" height="34" viewBox="0 0 36 34" fill="none" xmlns="http://www.w3.org/2000/svg">
<g id="Group 88">
<path id="Vector" d="M28.2089 7.07572L5.20159 15.9072C4.48832 16.1805 4.51731 17.2259 5.24448 17.4571L10.8517 19.2444L13.0815 26.2501C13.1304 26.4038 13.2166 26.5422 13.332 26.6523C13.4474 26.7624 13.5882 26.8405 13.7411 26.8794C13.894 26.9184 14.0542 26.9166 14.2062 26.8745C14.3583 26.8324 14.4975 26.7513 14.6107 26.6388L17.7513 23.5135L23.533 27.8669C23.6865 27.9832 23.8659 28.058 24.055 28.0844C24.2441 28.1108 24.4364 28.0881 24.6147 28.0183C24.7928 27.9485 24.9511 27.8338 25.075 27.6849C25.1987 27.5359 25.284 27.3574 25.3231 27.1657L29.2489 7.99079C29.2779 7.85007 29.2696 7.70391 29.2246 7.56767C29.1796 7.43142 29.0997 7.31014 28.9933 7.21652C28.8869 7.1229 28.7579 7.06043 28.6199 7.03566C28.4819 7.01088 28.3399 7.02471 28.2089 7.07572ZM24.7221 11.1712L14.2864 20.7683L13.9397 24.4881L12.2384 18.7305L24.3912 10.7249C24.6751 10.5389 24.9735 10.9406 24.7221 11.1712Z" fill="#2F2A37"/>
<path id="Vector_2" d="M21.3817 34H13.5932C13.5637 34 13.5342 34 13.5047 34C13.3865 34 13.2686 34 13.1211 34C12.9146 34 12.7081 34 12.5016 34C12.2656 34 12.0591 33.9714 11.8524 33.9714C10.6724 33.9429 9.43332 33.8856 8.2237 33.6569C6.01107 33.228 4.24094 32.3129 2.82484 30.8545C1.40873 29.3676 0.523663 27.4803 0.258139 25.2499C0.140139 24.2775 0.0811279 23.2481 0.0516279 22.0471C-0.00738372 19.0446 -0.0368721 15.127 0.0811395 11.1523C0.110639 10.2086 0.169639 9.17915 0.346651 8.14972C0.641674 6.57696 1.20222 5.29016 1.99878 4.17494C3.56239 2.03028 5.86355 0.714883 8.81382 0.285951C10.0823 0.114383 11.3214 0.0571855 12.5016 0.0571855C15.6583 6.97752e-08 18.815 0 21.8537 0C23.3584 0 25.04 -1.3955e-07 26.7216 0.314549C28.2852 0.6005 29.6128 1.08663 30.7338 1.85871C33.0056 3.37427 34.3922 5.63331 34.8347 8.52145C35.0117 9.75103 35.0412 10.9521 35.0707 12.0101C35.1297 15.8133 35.1592 19.7309 35.0117 23.6484C34.9527 24.7923 34.8347 25.7645 34.5987 26.651C33.8905 29.2532 32.3859 31.2263 30.0848 32.5131C28.6687 33.2851 27.0461 33.7427 25.0695 33.8571C24.3024 33.9142 23.5354 33.9142 22.7977 33.9429C22.4437 33.9429 22.0897 33.9714 21.7062 33.9714C21.6472 33.9714 21.5882 33.9714 21.4997 33.9714L21.3817 34ZM13.7997 32.5703H21.3817C21.4702 32.5703 21.5587 32.5703 21.6472 32.5416C22.0012 32.5416 22.3847 32.5131 22.7387 32.5131C23.4764 32.4845 24.2139 32.4845 24.9515 32.4273C26.6626 32.3129 28.1082 31.9412 29.3177 31.2834C31.2944 30.1968 32.5629 28.5669 33.153 26.3079C33.3596 25.5072 33.4776 24.6206 33.5365 23.5913C33.684 19.7022 33.6546 15.8133 33.5956 12.0387C33.5956 11.0379 33.566 9.8654 33.389 8.72162C33.0056 6.20522 31.8549 4.31792 29.9078 3.03112C28.9637 2.40202 27.8427 1.97309 26.4856 1.71573C24.922 1.42978 23.2994 1.42978 21.8537 1.42978C18.815 1.40118 15.6878 1.42978 12.5311 1.42978C11.4099 1.42978 10.2298 1.45836 9.04982 1.62994C6.48309 2.00168 4.56547 3.08831 3.23787 4.91842C2.55932 5.83348 2.11679 6.94871 1.85127 8.32129C1.67425 9.26493 1.61524 10.2086 1.58574 11.095C1.46773 15.0412 1.49724 18.9588 1.55624 21.9328C1.58574 23.0766 1.64475 24.0774 1.76277 24.9924C1.99878 26.9655 2.70682 28.5383 3.94592 29.7965C5.126 31.0261 6.63062 31.7982 8.5482 32.17C9.63982 32.3701 10.7609 32.4273 11.9411 32.4558C12.1771 32.4558 12.3836 32.4558 12.6196 32.4845C12.8261 32.4845 13.0031 32.4845 13.2095 32.4845C13.357 32.4845 13.4751 32.4845 13.5932 32.4845C13.6227 32.5416 13.7112 32.5416 13.7997 32.5703Z" fill="#2F2A37"/>
</g>
</svg>
