<svg width="35" height="34" viewBox="0 0 35 34" fill="none" xmlns="http://www.w3.org/2000/svg">
<g id="Group 35">
<g id="Group 87">
<path id="Vector" d="M21.3092 33.8848H13.547C13.5176 33.8848 13.4882 33.8848 13.4588 33.8848C13.3412 33.8848 13.2236 33.8848 13.0766 33.8848C12.8708 33.8848 12.665 33.8848 12.4592 33.8848C12.2239 33.8848 12.0181 33.8563 11.8123 33.8563C10.6362 33.8278 9.40134 33.7708 8.19585 33.5428C5.99069 33.1153 4.22656 32.2034 2.81526 30.75C1.40396 29.268 0.521887 27.3871 0.257267 25.1642C0.139658 24.1953 0.0808506 23.1693 0.0514484 21.9724C-0.00735592 18.9801 -0.0367473 15.0757 0.0808613 11.1144C0.110264 10.174 0.169057 9.14804 0.34547 8.12209C0.639492 6.55467 1.19814 5.27224 1.992 4.16079C3.55032 2.0234 5.84368 0.712464 8.7839 0.284986C10.0482 0.113994 11.2831 0.0569972 12.4592 0.0569972C15.6052 0 18.7512 0 21.7797 0C23.2792 0 24.9551 0 26.631 0.313484C28.1893 0.59847 29.5124 1.08295 30.6297 1.85241C32.8937 3.36283 34.2756 5.61422 34.7166 8.49257C34.893 9.71801 34.9224 10.915 34.9518 11.9694C35.0106 15.7597 35.04 19.664 34.893 23.5683C34.8342 24.7083 34.7166 25.6772 34.4814 26.5607C33.7757 29.154 32.2762 31.1204 29.9829 32.4029C28.5716 33.1723 26.9544 33.6283 24.9845 33.7423C24.22 33.7993 23.4556 33.7993 22.7205 33.8278C22.3677 33.8278 22.0149 33.8563 21.6326 33.8563C21.5738 33.8563 21.515 33.8563 21.4268 33.8563L21.3092 33.8848ZM13.7529 32.4599H21.3092C21.3974 32.4599 21.4856 32.4599 21.5738 32.4314C21.9267 32.4314 22.3089 32.4029 22.6617 32.4029C23.3968 32.3744 24.1318 32.3744 24.8669 32.3174C26.5722 32.2034 28.0129 31.8329 29.2184 31.1774C31.1883 30.0945 32.4526 28.4701 33.0407 26.2187C33.2465 25.4207 33.3641 24.5373 33.4229 23.5113C33.5699 19.6355 33.5405 15.7597 33.4817 11.9979C33.4817 11.0004 33.4523 9.83201 33.2759 8.69207C32.8937 6.18419 31.747 4.30329 29.8064 3.02085C28.8656 2.39388 27.7483 1.9664 26.3958 1.70991C24.8375 1.42493 23.2204 1.42493 21.7797 1.42493C18.7512 1.39643 15.6346 1.42493 12.4886 1.42493C11.3713 1.42493 10.1952 1.45343 9.01911 1.62442C6.46112 1.9949 4.54999 3.07785 3.2269 4.90176C2.55065 5.81371 2.10961 6.92515 1.84499 8.29309C1.66858 9.23354 1.60977 10.174 1.58036 11.0574C1.46276 14.9903 1.49217 18.8946 1.55097 21.8584C1.58037 22.9984 1.63918 23.9958 1.75679 24.9078C1.99201 26.8742 2.69765 28.4416 3.93254 29.6955C5.10862 30.921 6.60815 31.6904 8.51929 32.0609C9.60717 32.2604 10.7244 32.3174 11.9005 32.3459C12.1358 32.3459 12.3416 32.3459 12.5768 32.3744C12.7826 32.3744 12.959 32.3744 13.1648 32.3744C13.3118 32.3744 13.4294 32.3744 13.547 32.3744C13.5765 32.4314 13.6647 32.4314 13.7529 32.4599Z" fill="#2F2A37"/>
<g id="Group">
<path id="Vector_2" d="M19.3981 13.6507C19.3981 14.4201 19.3981 15.218 19.3981 15.9875C19.3981 16.1585 19.4275 16.301 19.4863 16.4719C19.5745 16.7284 19.7509 16.8139 20.0155 16.6999C20.1625 16.6429 20.3095 16.5574 20.4565 16.4434C21.0446 15.9875 21.515 15.389 21.9266 14.7621C22.7205 13.6507 23.3673 12.4538 23.926 11.1999C24.1612 10.6584 24.5434 10.4304 25.1315 10.4304C25.8959 10.4304 26.6604 10.4304 27.4542 10.4304C27.6012 10.4304 27.7483 10.4304 27.8659 10.4874C28.1599 10.5729 28.3069 10.7439 28.2775 11.0289C28.2481 11.2854 28.1599 11.5418 28.0717 11.7698C27.7189 12.5962 27.2484 13.3942 26.7192 14.1351C26.1605 14.9901 25.5725 15.8165 24.9845 16.6714C24.9257 16.7854 24.8375 16.8709 24.7787 16.9849C24.6316 17.2129 24.661 17.4409 24.808 17.6688C24.8963 17.8113 25.0139 17.9253 25.1315 18.0393C26.0723 18.9797 27.0426 19.9487 27.8659 21.0031C28.1305 21.345 28.3657 21.744 28.6009 22.1145C28.6597 22.2285 28.6891 22.371 28.7185 22.5135C28.8067 22.9409 28.6009 23.2259 28.1599 23.3114C28.0423 23.3399 27.9247 23.3399 27.7777 23.3399C26.9838 23.3399 26.2194 23.3399 25.4255 23.3399C25.0433 23.3399 24.6904 23.2259 24.4258 22.9694C23.9848 22.542 23.5732 22.1145 23.1615 21.6585C22.5735 21.0316 21.9266 20.4331 21.221 19.9487C21.0152 19.8062 20.8094 19.6922 20.5742 19.5782C20.3683 19.4642 20.1331 19.4357 19.8979 19.4642C19.6333 19.4927 19.5157 19.5782 19.4863 19.8347C19.4569 19.9202 19.4569 20.0342 19.4569 20.1481C19.4569 20.8606 19.4569 21.6015 19.4569 22.314C19.4569 22.9694 19.251 23.1974 18.5748 23.3114C17.3105 23.4824 16.0756 23.2829 14.8995 22.7984C13.1648 22.086 11.7535 20.9746 10.6068 19.5212C9.10733 17.6118 7.84303 15.56 6.93157 13.3087C6.66695 12.6817 6.46114 12.0263 6.34353 11.3423C6.31413 11.2569 6.31413 11.1429 6.31413 11.0574C6.31413 10.7439 6.49053 10.5444 6.81395 10.4874C6.93156 10.4589 7.07859 10.4589 7.1962 10.4589C7.96065 10.4589 8.7545 10.4589 9.51895 10.4589C10.1364 10.4589 10.401 10.6299 10.6068 11.1714C10.842 11.7128 11.0479 12.2828 11.2831 12.8242C11.8417 14.1351 12.518 15.389 13.3706 16.5289C13.6353 16.8709 13.9293 17.1844 14.2527 17.4694C14.3703 17.5833 14.5467 17.6688 14.7231 17.6973C14.9583 17.7543 15.1054 17.6688 15.1642 17.4409C15.1936 17.2984 15.223 17.1559 15.223 16.9849C15.223 15.7595 15.223 14.5341 15.223 13.3087C15.223 12.6817 15.0171 12.1118 14.6055 11.6273C14.5173 11.5418 14.4585 11.4563 14.3997 11.3423C14.2527 11.1429 14.1939 10.9434 14.3115 10.7439C14.4291 10.5159 14.6349 10.4304 14.8701 10.4304C15.0171 10.4304 15.1642 10.4304 15.3112 10.4304C16.4284 10.4304 17.5457 10.4304 18.663 10.4304C19.1923 10.4304 19.3981 10.6014 19.3981 11.1144C19.3981 11.9978 19.3981 12.8242 19.3981 13.6507Z" fill="#2F2A37"/>
</g>
</g>
</g>
</svg>
