<svg width="61" height="62" viewBox="0 0 61 62" fill="none" xmlns="http://www.w3.org/2000/svg">
<g id="logo_EdSpase" clip-path="url(#clip0_75_2429)">
<g id="Vector">
<path d="M8.74524 28.5225H15.7666V30.6269H11.024V32.5616H15.5068V34.67H11.024V36.7783H16.0303V38.8867H8.74524V28.5225Z" fill="#2F2A37"/>
<path d="M8.74524 28.5225H15.7666V30.6269H11.024V32.5616H15.5068V34.67H11.024V36.7783H16.0303V38.8867H8.74524V28.5225Z" fill="#2F2A37"/>
</g>
<g id="Vector_2">
<path d="M17.8564 28.5224H21.2687C22.0642 28.5175 22.8572 28.6103 23.6302 28.7988C24.333 28.9652 24.9955 29.2713 25.5784 29.699C26.1419 30.1247 26.5954 30.6798 26.9008 31.3178C27.2466 32.0749 27.4136 32.9018 27.3888 33.7341C27.4045 34.4992 27.2429 35.2575 26.9165 35.9491C26.6112 36.5725 26.1748 37.1221 25.6374 37.56C25.0865 38.0035 24.4578 38.3396 23.7837 38.5511C23.0704 38.7753 22.3271 38.8885 21.5797 38.8867H17.8604L17.8564 28.5224ZM20.1313 36.7783H21.312C21.806 36.7813 22.2986 36.727 22.7801 36.6164C23.2062 36.5227 23.6083 36.3412 23.9608 36.0834C24.3012 35.827 24.5718 35.489 24.7479 35.1003C24.9496 34.6322 25.0463 34.1254 25.0313 33.6157C25.0421 33.1573 24.945 32.7028 24.7479 32.2891C24.5671 31.9244 24.3044 31.6068 23.9805 31.3612C23.6422 31.1079 23.2588 30.9216 22.8509 30.8124C22.4063 30.6878 21.9468 30.6254 21.4852 30.6268H20.1431L20.1313 36.7783Z" fill="#2F2A37"/>
<path d="M17.8564 28.5224H21.2687C22.0642 28.5175 22.8572 28.6103 23.6302 28.7988C24.333 28.9652 24.9955 29.2713 25.5784 29.699C26.1419 30.1247 26.5954 30.6798 26.9008 31.3178C27.2466 32.0749 27.4136 32.9018 27.3888 33.7341C27.4045 34.4992 27.2429 35.2575 26.9165 35.9491C26.6112 36.5725 26.1748 37.1221 25.6374 37.56C25.0865 38.0035 24.4578 38.3396 23.7837 38.5511C23.0704 38.7753 22.3271 38.8885 21.5797 38.8867H17.8604L17.8564 28.5224ZM20.1313 36.7783H21.312C21.806 36.7813 22.2986 36.727 22.7801 36.6164C23.2062 36.5227 23.6083 36.3412 23.9608 36.0834C24.3012 35.827 24.5718 35.489 24.7479 35.1003C24.9496 34.6322 25.0463 34.1254 25.0313 33.6157C25.0421 33.1573 24.945 32.7028 24.7479 32.2891C24.5671 31.9244 24.3044 31.6068 23.9805 31.3612C23.6422 31.1079 23.2588 30.9216 22.8509 30.8124C22.4063 30.6878 21.9468 30.6254 21.4852 30.6268H20.1431L20.1313 36.7783Z" fill="#2F2A37"/>
</g>
<g id="Vector_3">
<path d="M13.7711 45.6936C13.5734 45.4517 13.3114 45.271 13.0154 45.1724C12.7278 45.0668 12.4244 45.0107 12.1181 45.0066C11.9472 45.0072 11.7769 45.0271 11.6104 45.0658C11.4375 45.1031 11.2706 45.1642 11.1145 45.2474C10.9595 45.3242 10.8247 45.4365 10.7209 45.5751C10.6225 45.722 10.5717 45.8957 10.5753 46.0726C10.5681 46.2124 10.5965 46.3517 10.6578 46.4774C10.7191 46.6031 10.8112 46.7111 10.9256 46.7912C11.197 46.9759 11.494 47.1196 11.8072 47.2176C12.1653 47.3321 12.5471 47.4506 12.9564 47.569C13.3588 47.6822 13.7441 47.8496 14.1017 48.0665C14.4577 48.2815 14.7594 48.5761 14.9833 48.9272C15.2365 49.3679 15.3581 49.8722 15.3336 50.3802C15.3461 50.9015 15.2355 51.4183 15.0109 51.8885C14.8066 52.3051 14.5105 52.6697 14.145 52.9545C13.7658 53.2454 13.3342 53.4599 12.8738 53.5862C12.3777 53.724 11.8653 53.793 11.3506 53.7915C10.7144 53.7979 10.0819 53.6937 9.48114 53.4836C8.88417 53.2646 8.33784 52.9261 7.87537 52.4886L9.49689 50.7C9.72807 51.01 10.0305 51.2592 10.3785 51.4265C10.8944 51.6825 11.4833 51.7496 12.0433 51.616C12.2225 51.5755 12.3949 51.509 12.555 51.4186C12.6994 51.3357 12.8233 51.221 12.917 51.083C13.0187 50.9415 13.0737 50.7718 13.0745 50.5974C13.0787 50.4544 13.0484 50.3126 12.986 50.184C12.9236 50.0554 12.8311 49.9439 12.7163 49.859C12.4403 49.6651 12.1364 49.5146 11.815 49.4129C11.453 49.2865 11.0594 49.1549 10.6343 49.0181C10.2217 48.8951 9.82523 48.7227 9.4536 48.5048C9.09598 48.2914 8.78961 48.0015 8.55625 47.6559C8.30088 47.239 8.17611 46.7549 8.1981 46.2661C8.18676 45.758 8.3003 45.2549 8.5287 44.8013C8.74189 44.3915 9.03977 44.0321 9.40243 43.7471C9.77944 43.4565 10.2082 43.2408 10.6658 43.1114C11.1449 42.9689 11.642 42.897 12.1417 42.8982C12.715 42.897 13.2853 42.9808 13.8341 43.147C14.3796 43.3131 14.8821 43.5975 15.306 43.98L13.7711 45.6936Z" fill="#2F2A37"/>
<path d="M13.7711 45.6936C13.5734 45.4517 13.3114 45.271 13.0154 45.1724C12.7278 45.0668 12.4244 45.0107 12.1181 45.0066C11.9472 45.0072 11.7769 45.0271 11.6104 45.0658C11.4375 45.1031 11.2706 45.1642 11.1145 45.2474C10.9595 45.3242 10.8247 45.4365 10.7209 45.5751C10.6225 45.722 10.5717 45.8957 10.5753 46.0726C10.5681 46.2124 10.5965 46.3517 10.6578 46.4774C10.7191 46.6031 10.8112 46.7111 10.9256 46.7912C11.197 46.9759 11.494 47.1196 11.8072 47.2176C12.1653 47.3321 12.5471 47.4506 12.9564 47.569C13.3588 47.6822 13.7441 47.8496 14.1017 48.0665C14.4577 48.2815 14.7594 48.5761 14.9833 48.9272C15.2365 49.3679 15.3581 49.8722 15.3336 50.3802C15.3461 50.9015 15.2355 51.4183 15.0109 51.8885C14.8066 52.3051 14.5105 52.6697 14.145 52.9545C13.7658 53.2454 13.3342 53.4599 12.8738 53.5862C12.3777 53.724 11.8653 53.793 11.3506 53.7915C10.7144 53.7979 10.0819 53.6937 9.48114 53.4836C8.88417 53.2646 8.33784 52.9261 7.87537 52.4886L9.49689 50.7C9.72807 51.01 10.0305 51.2592 10.3785 51.4265C10.8944 51.6825 11.4833 51.7496 12.0433 51.616C12.2225 51.5755 12.3949 51.509 12.555 51.4186C12.6994 51.3357 12.8233 51.221 12.917 51.083C13.0187 50.9415 13.0737 50.7718 13.0745 50.5974C13.0787 50.4544 13.0484 50.3126 12.986 50.184C12.9236 50.0554 12.8311 49.9439 12.7163 49.859C12.4403 49.6651 12.1364 49.5146 11.815 49.4129C11.453 49.2865 11.0594 49.1549 10.6343 49.0181C10.2217 48.8951 9.82523 48.7227 9.4536 48.5048C9.09598 48.2914 8.78961 48.0015 8.55625 47.6559C8.30088 47.239 8.17611 46.7549 8.1981 46.2661C8.18676 45.758 8.3003 45.2549 8.5287 44.8013C8.74189 44.3915 9.03977 44.0321 9.40243 43.7471C9.77944 43.4565 10.2082 43.2408 10.6658 43.1114C11.1449 42.9689 11.642 42.897 12.1417 42.8982C12.715 42.897 13.2853 42.9808 13.8341 43.147C14.3796 43.3131 14.8821 43.5975 15.306 43.98L13.7711 45.6936Z" fill="#2F2A37"/>
</g>
<g id="Vector_4">
<path d="M17.0378 43.1627H20.8752C21.3852 43.1596 21.8942 43.2085 22.3944 43.3088C22.8399 43.3914 23.2642 43.5633 23.642 43.8142C24.0015 44.0576 24.2928 44.3892 24.4882 44.7776C24.7131 45.2558 24.821 45.781 24.8031 46.3095C24.8185 46.8315 24.7191 47.3505 24.5118 47.8296C24.3359 48.2184 24.0652 48.5565 23.7247 48.8127C23.3606 49.0673 22.9478 49.2434 22.5124 49.33C22.0131 49.4361 21.5037 49.4877 20.9933 49.4839H19.3284V53.527H17.0536L17.0378 43.1627ZM19.3127 47.5532H20.8319C21.0302 47.5539 21.228 47.534 21.4223 47.494C21.6032 47.4595 21.7765 47.3926 21.9339 47.2966C22.0869 47.1978 22.2128 47.0621 22.2999 46.9018C22.3974 46.7144 22.4448 46.5049 22.4377 46.2937C22.4474 46.0666 22.3839 45.8423 22.2566 45.6541C22.133 45.494 21.9722 45.3666 21.7883 45.283C21.5878 45.1918 21.3737 45.1345 21.1546 45.1132C20.931 45.09 20.7064 45.0782 20.4816 45.0777H19.3009L19.3127 47.5532Z" fill="#2F2A37"/>
<path d="M17.0378 43.1627H20.8752C21.3852 43.1596 21.8942 43.2085 22.3944 43.3088C22.8399 43.3914 23.2642 43.5633 23.642 43.8142C24.0015 44.0576 24.2928 44.3892 24.4882 44.7776C24.7131 45.2558 24.821 45.781 24.8031 46.3095C24.8185 46.8315 24.7191 47.3505 24.5118 47.8296C24.3359 48.2184 24.0652 48.5565 23.7247 48.8127C23.3606 49.0673 22.9478 49.2434 22.5124 49.33C22.0131 49.4361 21.5037 49.4877 20.9933 49.4839H19.3284V53.527H17.0536L17.0378 43.1627ZM19.3127 47.5532H20.8319C21.0302 47.5539 21.228 47.534 21.4223 47.494C21.6032 47.4595 21.7765 47.3926 21.9339 47.2966C22.0869 47.1978 22.2128 47.0621 22.2999 46.9018C22.3974 46.7144 22.4448 46.5049 22.4377 46.2937C22.4474 46.0666 22.3839 45.8423 22.2566 45.6541C22.133 45.494 21.9722 45.3666 21.7883 45.283C21.5878 45.1918 21.3737 45.1345 21.1546 45.1132C20.931 45.09 20.7064 45.0782 20.4816 45.0777H19.3009L19.3127 47.5532Z" fill="#2F2A37"/>
</g>
<g id="Vector_5">
<path d="M28.5538 43.1627H30.4351L34.9297 53.527H32.3597L31.4702 51.3317H27.4597L26.5977 53.527H24.0946L28.5538 43.1627ZM29.4275 46.1753L28.172 49.4129H30.6988L29.4275 46.1753Z" fill="#2F2A37"/>
<path d="M28.5538 43.1627H30.4351L34.9297 53.527H32.3597L31.4702 51.3317H27.4597L26.5977 53.527H24.0946L28.5538 43.1627ZM29.4275 46.1753L28.172 49.4129H30.6988L29.4275 46.1753Z" fill="#2F2A37"/>
</g>
<g id="Vector_6">
<path d="M42.7225 45.8593C42.4994 45.5891 42.2182 45.3731 41.8999 45.2276C41.5416 45.0758 41.1553 45.0018 40.7664 45.0105C40.3638 45.0062 39.9649 45.0881 39.5963 45.2508C39.2278 45.4136 38.8981 45.6533 38.6293 45.9541C38.3539 46.264 38.1414 46.6247 38.0035 47.0162C37.6992 47.881 37.6992 48.8243 38.0035 49.6892C38.1421 50.075 38.3517 50.4313 38.6215 50.7394C38.8785 51.0355 39.195 51.2736 39.5503 51.4383C39.9091 51.6051 40.3002 51.69 40.6956 51.687C41.1271 51.695 41.5537 51.5931 41.9353 51.3909C42.2951 51.1972 42.6009 50.9162 42.8248 50.5736L44.7219 51.995C44.303 52.5937 43.7267 53.0639 43.057 53.3532C42.4049 53.6428 41.7 53.7933 40.9868 53.7954C40.2255 53.7984 39.4697 53.6646 38.7553 53.4006C38.0974 53.1638 37.4957 52.7928 36.9881 52.3108C36.4846 51.8254 36.089 51.2388 35.8271 50.5894C35.2709 49.1382 35.2709 47.5316 35.8271 46.0804C36.0899 45.4315 36.4854 44.8451 36.9881 44.359C37.4978 43.8798 38.0989 43.5091 38.7553 43.2693C39.4697 43.0052 40.2255 42.8715 40.9868 42.8744C41.2928 42.8764 41.5981 42.9028 41.8999 42.9534C42.2184 43.0084 42.5308 43.0943 42.8327 43.21C43.1448 43.3295 43.4409 43.4874 43.7143 43.6799C44.0025 43.8792 44.2587 44.1215 44.4739 44.3985L42.7225 45.8593Z" fill="#2F2A37"/>
<path d="M42.7225 45.8593C42.4994 45.5891 42.2182 45.3731 41.8999 45.2276C41.5416 45.0758 41.1553 45.0018 40.7664 45.0105C40.3638 45.0062 39.9649 45.0881 39.5963 45.2508C39.2278 45.4136 38.8981 45.6533 38.6293 45.9541C38.3539 46.264 38.1414 46.6247 38.0035 47.0162C37.6992 47.881 37.6992 48.8243 38.0035 49.6892C38.1421 50.075 38.3517 50.4313 38.6215 50.7394C38.8785 51.0355 39.195 51.2736 39.5503 51.4383C39.9091 51.6051 40.3002 51.69 40.6956 51.687C41.1271 51.695 41.5537 51.5931 41.9353 51.3909C42.2951 51.1972 42.6009 50.9162 42.8248 50.5736L44.7219 51.995C44.303 52.5937 43.7267 53.0639 43.057 53.3532C42.4049 53.6428 41.7 53.7933 40.9868 53.7954C40.2255 53.7984 39.4697 53.6646 38.7553 53.4006C38.0974 53.1638 37.4957 52.7928 36.9881 52.3108C36.4846 51.8254 36.089 51.2388 35.8271 50.5894C35.2709 49.1382 35.2709 47.5316 35.8271 46.0804C36.0899 45.4315 36.4854 44.8451 36.9881 44.359C37.4978 43.8798 38.0989 43.5091 38.7553 43.2693C39.4697 43.0052 40.2255 42.8715 40.9868 42.8744C41.2928 42.8764 41.5981 42.9028 41.8999 42.9534C42.2184 43.0084 42.5308 43.0943 42.8327 43.21C43.1448 43.3295 43.4409 43.4874 43.7143 43.6799C44.0025 43.8792 44.2587 44.1215 44.4739 44.3985L42.7225 45.8593Z" fill="#2F2A37"/>
</g>
<g id="Vector_7">
<path d="M46.052 43.1627H53.0694V45.2672H48.3269V47.2018H52.8254V49.3102H48.3269V51.4186H53.3331V53.527H46.052V43.1627Z" fill="#2F2A37"/>
<path d="M46.052 43.1627H53.0694V45.2672H48.3269V47.2018H52.8254V49.3102H48.3269V51.4186H53.3331V53.527H46.052V43.1627Z" fill="#2F2A37"/>
</g>
<g id="Vector_8">
<path d="M61 62H-0.00390625V0.0118408H61V62ZM1.60188 60.393H59.3982V1.61089H1.60188V60.393Z" fill="#2F2A37"/>
<path d="M61 62H-0.00390625V0.0118408H61V62ZM1.60188 60.393H59.3982V1.61089H1.60188V60.393Z" fill="#2F2A37"/>
</g>
<g id="Vector_9">
<path d="M49.7202 24.7518L45.4342 20.4284L41.1521 24.7518V0.80542H49.7202V24.7518Z" fill="#2F2A37"/>
<path d="M49.7202 24.7518L45.4342 20.4284L41.1521 24.7518V0.80542H49.7202V24.7518Z" fill="#2F2A37"/>
</g>
</g>
<defs>
<clipPath id="clip0_75_2429">
<rect width="61" height="62" fill="white"/>
</clipPath>
</defs>
</svg>
